<svg width="154" height="144" viewBox="0 0 154 144" fill="none" xmlns="http://www.w3.org/2000/svg">
<g id="Group 3023">
<path id="Vector 386" d="M95.4202 112.665C95.6654 108.005 96.8917 103.345 98.6084 95.0068C99.5898 91.3285 101.797 90.838 103.759 90.838C105.966 90.838 112.588 96.2335 114.305 96.4787L114.342 96.484C116.036 96.7262 117.042 96.87 118.719 95.0068C120.927 92.5547 122.153 91.3285 124.851 91.3285C127.058 91.3285 130.246 95.4977 131.227 95.743C132.208 95.9882 133.434 94.5163 135.151 93.29C136.868 92.0638 139.075 90.1018 141.528 90.5923C143.98 91.0828 143.98 96.4783 142.509 100.893C141.037 105.307 134.415 127.38 133.434 131.059C132.453 134.737 130.982 137.926 128.529 138.416C126.077 138.907 124.851 134.737 122.153 134.492C119.455 134.247 116.757 138.661 114.06 139.397C111.362 140.133 109.4 138.171 106.947 136.7C104.985 135.965 104.397 137.73 102.042 138.907C99.6879 140.084 97.8731 139.642 96.8921 139.152C96.5649 137.517 95.8126 133.462 95.4202 130.323C94.9297 126.399 95.1749 117.325 95.4202 112.665Z" fill="#DBE3EF"/>
<path id="Vector 381" d="M31.6561 28.1063C27.7321 25.9481 26.5876 21.3211 26.5058 19.2773C26.8444 16.6567 27.6923 15.6786 29.8176 14.3679C30.2993 15.0247 31.0706 19.3797 34.4118 18.962C35.067 18.5505 33.083 13.2972 33.9941 13.115C36.4466 17.3081 38.3545 17.1429 39.1898 17.5606C39.3046 17.618 39.3496 17.6574 39.3623 17.6823C39.426 17.6529 39.5944 17.6082 39.9946 17.5606C42.7741 17.3153 49.3632 17.8058 53.4834 21.7298C58.6336 26.6348 60.1051 31.5401 60.1051 33.2568C60.1051 34.6302 59.7781 38.2436 59.6146 39.8786C59.1241 41.3499 59.6146 40.8596 59.1241 41.3499C58.8176 39.2039 56.9169 37.4259 54.4644 37.1806C52.5024 36.9844 51.6849 40.2054 51.5214 41.8404L50.0499 38.8974C49.2651 37.3278 47.5974 32.3574 46.8616 30.0683C43.4281 30.3136 35.5801 30.2645 31.6561 28.1063Z" fill="#066BD6"/>
<path id="Vector 317" d="M29.1658 39.0621C28.5315 38.985 27.8938 39.559 27.6542 39.8557C27.7037 39.9921 27.8027 40.2648 27.9761 40.4814C28.1495 40.698 28.0501 41.4679 28.1738 42.0694C28.3388 42.8715 30.2547 43.1046 30.4286 41.7573C30.6272 40.2174 29.9586 39.1586 29.1658 39.0621Z" fill="#222222"/>
<path id="Vector 318" d="M38.2594 38.7994C37.6251 38.7223 36.9874 39.2963 36.7478 39.593C36.7973 39.7294 36.8963 40.0021 37.0697 40.2187C37.2431 40.4353 37.1437 41.2052 37.2674 41.8067C37.4324 42.6088 39.3484 42.8419 39.5222 41.4946C39.7208 39.9547 39.0522 38.8959 38.2594 38.7994Z" fill="#222222"/>
<ellipse id="Ellipse 462" cx="1.19799" cy="1.16444" rx="1.19799" ry="1.16444" transform="matrix(0.992679 0.120781 -0.127956 0.99178 42.7647 42.8674)" fill="#DBE3EF"/>
<path id="Vector 385" d="M123.625 99.1764C125.424 100.975 129.511 104.817 131.473 105.798C133.435 106.779 136.378 108.169 137.604 108.741" stroke="#222222" stroke-width="1.5" stroke-linecap="round" stroke-linejoin="round"/>
<path id="Vector 384" d="M100.325 100.157C102.45 101.628 107.094 104.768 108.663 105.552C110.625 106.533 112.342 106.533 113.323 105.552C114.304 104.571 115.776 103.59 116.511 103.836C117.1 104.032 118.719 104.898 119.454 105.307" stroke="#222222" stroke-width="1.5" stroke-linecap="round" stroke-linejoin="round"/>
<path id="Vector 383" d="M94.194 134.002C95.5838 134.656 98.9028 135.572 101.061 134.002C103.759 132.04 114.55 123.947 115.286 122.966C116.021 121.985 116.267 121.004 117.738 113.646C118.915 107.76 119.373 105.471 119.455 105.063L128.774 90.8381" stroke="#222222" stroke-width="1.5" stroke-linecap="round" stroke-linejoin="round"/>
<path id="Vector 382" d="M92.4778 114.38C93.5405 106.614 96.0584 90.5421 97.628 88.3839C99.59 85.6862 101.062 85.6862 103.269 86.4219C105.476 87.1577 110.626 92.3084 113.324 91.8179C116.022 91.3274 119.946 86.4219 122.644 86.4219C125.341 86.4219 128.53 91.5726 130.246 91.0821C131.963 90.5916 136.132 84.4608 138.34 85.4414C140.547 86.4219 142.999 86.6673 142.509 91.8179C142.018 96.9684 131.473 127.87 130.246 131.058C129.02 134.247 126.322 134.001 124.851 133.02C123.379 132.039 122.644 127.625 119.701 129.341C116.758 131.058 114.55 134.982 111.607 134.982C109.253 134.982 105.885 132.366 104.495 131.058" stroke="#222222" stroke-width="1.5" stroke-linecap="round" stroke-linejoin="round"/>
<path id="Vector 379" d="M112.59 81.0271L114.307 80.0461" stroke="#222222" stroke-width="1.5" stroke-linecap="round" stroke-linejoin="round"/>
<path id="Vector 380" d="M113.698 83.8836L115.65 83.5668" stroke="#222222" stroke-width="1.5" stroke-linecap="round" stroke-linejoin="round"/>
<path id="Vector 378" d="M109.892 78.085C110.546 77.6763 112.001 76.7116 112.589 76.123C113.178 75.5344 113.652 74.2428 113.816 73.6705" stroke="#222222" stroke-width="1.5" stroke-linecap="round" stroke-linejoin="round"/>
<path id="Vector 375" d="M88.5558 123.455L90.2725 125.663" stroke="#222222" stroke-width="1.5" stroke-linecap="round" stroke-linejoin="round"/>
<path id="Vector 376" d="M91.7436 120.512L94.1961 123.455" stroke="#222222" stroke-width="1.5" stroke-linecap="round" stroke-linejoin="round"/>
<path id="Vector 377" d="M104.495 81.5177C106.457 81.5177 110.43 82.2535 110.626 85.1965C110.822 88.1395 108.582 88.3847 107.438 88.1395" stroke="#222222" stroke-width="1.5" stroke-linecap="round" stroke-linejoin="round"/>
<path id="Vector 371" d="M33.8627 12.358C33.7809 13.5025 33.7646 16.0858 34.3532 17.263C34.9418 18.4402 35.4157 19.225 35.5791 19.4703" stroke="#222222" stroke-width="1.5" stroke-linecap="round" stroke-linejoin="round"/>
<path id="Vector 372" d="M29.4837 14.5653C29.4152 15.5125 29.4015 17.6504 29.8942 18.6246C30.3869 19.5989 30.7837 20.2484 30.9204 20.4513" stroke="#222222" stroke-width="1.5" stroke-linecap="round" stroke-linejoin="round"/>
<path id="Vector 373" d="M41.7219 54.9537C40.2981 54.5732 37.5322 54.1889 34.593 55.0198C31.6538 55.8508 30.1823 58.2195 29.3523 60.3502" stroke="#222222" stroke-width="1.5" stroke-linecap="round" stroke-linejoin="round"/>
<path id="Vector 374" d="M78.0102 127.871C78.9095 128.525 81.0513 129.637 82.4247 128.852C83.7981 128.067 84.7955 126.563 85.1225 125.909L87.0845 127.871" stroke="#222222" stroke-width="1.5" stroke-linecap="round" stroke-linejoin="round"/>
<path id="Vector 370" d="M26.9957 80.5369C25.7695 74.2422 23.1208 60.7697 22.336 57.2381C21.355 52.8236 21.6002 50.1259 19.393 49.6354C17.1857 49.1449 14.7332 47.9186 14.2427 46.9376C13.7522 45.9566 14.2427 44.4851 15.4689 43.7494C16.6952 43.0136 22.1621 37.8496 23.8073 35.6561C25.2788 33.6941 27.486 29.0343 28.7123 26.3366M26.2598 18.9791C26.3415 21.0228 27.486 25.6499 31.41 27.8081C35.334 29.9663 43.1821 30.0153 46.6156 29.7701C47.3513 32.0591 49.019 37.0295 49.8038 38.5991C50.5886 40.1687 51.1118 41.2151 51.2753 41.5421C51.4388 39.9071 52.2563 36.6861 54.2183 36.8823C56.6708 37.1276 58.5715 38.9057 58.8781 41.0516C59.2635 43.7494 57.6518 45.9566 56.6708 47.1829C55.886 48.1639 54.3818 48.7361 54.2183 48.8996M39.7485 17.2623C42.5281 17.0171 49.1171 17.5076 53.2373 21.4316C58.3876 26.3366 59.8591 31.2418 59.8591 32.9586C59.8591 34.332 59.5321 37.9453 59.3686 39.5803" stroke="#222222" stroke-width="1.5" stroke-linecap="round" stroke-linejoin="round"/>
<path id="Vector 369" d="M55.4442 79.3113V59.446" stroke="#222222" stroke-width="1.5" stroke-linecap="round" stroke-linejoin="round"/>
<path id="Vector 367" d="M95.9126 118.061C94.1958 115.854 89.5361 111.537 84.6311 111.93C78.4998 112.42 75.5568 114.382 69.916 118.061C65.4034 121.004 55.7733 127.462 51.5222 130.323" stroke="#222222" stroke-width="1.5" stroke-linecap="round" stroke-linejoin="round"/>
<path id="Vector 368" d="M48.0881 132.04L39.0138 137.19L34.1088 125.418C30.6753 125.663 22.6801 126.939 18.1675 130.078C13.6549 133.217 6.80426 139.724 3.94301 142.586C2.962 136.945 1 123.75 1 116.098C1 106.534 4.67876 97.7047 8.35751 93.5354C11.3005 90.2 17.5953 86.7502 20.3748 85.4422C22.909 88.5487 30.8715 94.5164 42.4473 93.5354C54.0231 92.5544 61.6586 86.0962 64.0294 82.9897C67.6264 82.9897 75.8995 84.2159 80.2159 89.1209C84.5323 94.0259 88.0639 103.754 89.2902 108.005C88.9632 103.264 88.7506 92.8487 90.5164 89.1209C92.7237 84.4612 95.9119 81.0277 99.5907 79.5562C102.534 78.379 104.25 77.2671 104.741 76.8584" stroke="#222222" stroke-width="1.5" stroke-linecap="round" stroke-linejoin="round"/>
<path id="Vector 324" d="M99.6373 5.65623C102.598 3.74572 108.662 2.20232 115.649 1.56473C118.852 1.2725 120.366 1.15606 127.586 0.688495C136.611 0.104034 141.56 2.14786 143.889 3.31664C146.218 4.48542 156.116 10.038 152.914 25.8185C149.711 41.5989 130.206 44.8135 127.586 45.9824C124.966 47.1513 114.776 45.9824 108.662 48.3202C103.771 50.1905 100.025 54.5545 98.7639 56.5027L99.6373 46.5685C97.8904 46.5685 97.1918 46.4499 95.5614 45.9824C93.5235 45.3979 85.663 43.3523 85.3719 30.2019C85.0808 17.0516 95.5614 8.2863 99.6373 5.65623Z" fill="#FF2E00"/>
<g id="Group 2318">
<path id="Vector 120" d="M110.938 30.7792H128.718" stroke="white" stroke-width="1.5" stroke-linecap="round" stroke-linejoin="round"/>
<path id="Vector 121" d="M109.395 21.8096H120.598" stroke="white" stroke-width="1.5" stroke-linecap="round" stroke-linejoin="round"/>
<path id="Vector 122" d="M122.143 16.2333C122.143 16.558 122.251 19.1703 122.305 21.8088H133.387" stroke="white" stroke-width="1.5" stroke-linecap="round" stroke-linejoin="round"/>
<path id="Vector 119" d="M105.417 30.7798C104.254 30.7798 101.878 30.7798 101.683 30.7798C101.439 30.7798 100.628 30.7798 100.587 30.0898C100.554 29.5377 100.573 27.8572 100.587 27.086C100.573 26.7883 100.806 26.0306 101.845 25.3811C102.884 24.7316 105.634 22.9456 106.879 22.1337C107.122 21.9443 107.628 21.1514 108.349 20.1902C109.264 18.9698 109.874 17.902 111.141 16.1144C111.712 15.3087 112.131 14.2958 114.307 14.3283C116.483 14.3608 127.589 14.3015 131.689 14.3286C132.189 14.2745 132.71 14.5868 133.214 15.9189C133.519 16.7242 133.824 17.7494 134.282 18.9698C134.657 19.9697 134.863 20.7611 135.35 21.4106C135.837 22.0601 136.754 22.2555 137.282 22.4991C137.81 22.7426 138.297 22.9862 138.297 23.798C138.297 24.4475 138.297 27.6678 138.297 29.1968C138.324 29.4403 138.199 29.9842 137.485 30.2116C136.771 30.4389 136.051 30.7122 135.78 30.8204" stroke="white" stroke-width="1.5" stroke-linecap="round" stroke-linejoin="round"/>
<path id="Ellipse 382" d="M109.983 30.6179C109.983 31.6833 109.12 32.547 108.054 32.547C106.989 32.547 106.125 31.6833 106.125 30.6179C106.125 29.5525 106.989 28.6888 108.054 28.6888C109.12 28.6888 109.983 29.5525 109.983 30.6179Z" stroke="white" stroke-width="1.5" stroke-linecap="round" stroke-linejoin="round"/>
<circle id="Ellipse 384" cx="108.056" cy="30.6159" r="0.75" stroke="white" stroke-width="0.610783" stroke-linecap="round" stroke-linejoin="round"/>
<circle id="Ellipse 385" cx="132.491" cy="30.6159" r="0.75" stroke="white" stroke-width="0.610783" stroke-linecap="round" stroke-linejoin="round"/>
<path id="Ellipse 383" d="M134.422 30.6179C134.422 31.6833 133.559 32.547 132.493 32.547C131.428 32.547 130.564 31.6833 130.564 30.6179C130.564 29.5525 131.428 28.6888 132.493 28.6888C133.559 28.6888 134.422 29.5525 134.422 30.6179Z" stroke="white" stroke-width="1.5" stroke-linecap="round" stroke-linejoin="round"/>
</g>
<path id="Vector 387" d="M150.072 7.26794L91.2118 51.413" stroke="white" stroke-width="1.5"/>
</g>
</svg>
