<svg width="198" height="126" viewBox="0 0 198 126" fill="none" xmlns="http://www.w3.org/2000/svg">
<g id="Group 3010">
<g id="Group 2868">
<ellipse id="Ellipse 459" cx="162.67" cy="35.9025" rx="35.3168" ry="35.3168" fill="#DBE3EF"/>
<g id="Group 2866">
<path id="Vector 214" d="M156.401 11.2669C156.983 10.6538 158.078 9.38674 157.799 9.22324C157.449 9.01887 158.323 12.4931 157.799 13.9237" stroke="#222222" stroke-width="1.5" stroke-linecap="round" stroke-linejoin="round"/>
<path id="Vector 211" d="M165.032 54.7361C164.06 55.2763 162.074 56.7211 161.907 58.1794C161.699 60.0022 163.782 60.6098 164.407 60.0022C165.032 59.3946 164.824 57.5717 163.782 57.5717" stroke="#222222" stroke-width="1.5" stroke-linecap="round" stroke-linejoin="round"/>
<path id="Vector 212" d="M137.564 40.6084C138.536 40.0683 140.522 38.6235 140.689 37.1652C140.897 35.3424 138.814 34.7347 138.189 35.3424C137.564 35.95 137.772 37.7728 138.814 37.7728" stroke="#222222" stroke-width="1.5" stroke-linecap="round" stroke-linejoin="round"/>
<path id="Vector 213" d="M187.326 33.8983C187.968 33.6314 189.394 33.2577 189.971 33.8983C190.548 34.539 189.57 35.2329 189.009 35.4997C189.33 35.6999 189.971 36.3406 189.971 37.3016C189.971 38.5028 188.048 40.3047 187.326 39.7041C186.749 39.2236 187.086 38.3026 187.326 37.9022" stroke="#222222" stroke-width="1.5" stroke-linecap="round" stroke-linejoin="round"/>
<path id="Vector 210" d="M163.463 35.1147H171.219L179.16 36.1021C177.313 36.3372 173.14 36.7792 171.219 36.6663C169.298 36.5535 167.095 36.2432 166.233 36.1021" stroke="#222222" stroke-width="1.5" stroke-linecap="round" stroke-linejoin="round"/>
<g id="Vector 207">
<path d="M51.6812 64.1622C50.5428 64.1622 50.8274 64.4468 49.1197 64.7314C48.6453 64.6367 47.6966 64.2765 47.6966 63.5934C47.6966 62.7396 48.2659 60.4622 48.5505 59.893C48.8351 59.3238 49.6889 59.6084 50.5428 59.893C51.3966 60.1776 52.5351 61.6007 53.1043 62.4545C53.6735 63.3084 52.8197 64.1622 51.6812 64.1622Z" fill="#066BD6"/>
<path d="M67.3351 63.5934C67.3351 65.0165 66.1966 64.4473 63.6351 64.4473C63.0658 64.4473 61.9843 64.1627 62.212 63.0243C62.4966 61.6013 63.0658 59.893 63.9197 59.3242C64.7735 58.7554 65.6274 59.3242 66.4812 59.893C67.3351 60.4618 67.3351 62.1703 67.3351 63.5934Z" fill="#066BD6"/>
<path d="M17.5274 64.1627C17.812 65.8704 16.6736 66.1551 15.5351 66.7243C15.2505 66.7243 14.5674 66.6674 14.112 66.4397C13.5428 66.1551 13.2582 65.0166 13.5428 63.5935C13.8274 62.1704 14.3967 61.8858 15.8197 61.8858C17.2428 61.8858 17.2428 62.4551 17.5274 64.1627Z" fill="#066BD6"/>
</g>
<path id="Vector 202" d="M87.5407 109.129C86.9715 109.129 86.1176 107.991 85.2637 107.422C84.4098 106.852 84.6934 105.999 84.978 105.429C85.2326 104.92 85.8319 104.291 86.4011 103.437C86.9704 102.583 88.1089 102.868 88.3935 103.152L88.3935 103.152C88.6781 103.437 89.532 104.291 90.1013 104.575C90.6705 104.86 90.9551 105.714 90.3859 106.568C90.1626 106.903 90.387 106.568 89.5331 107.991C88.6792 109.414 88.11 109.129 87.5407 109.129Z" fill="#066BD6"/>
<path id="Vector 195" d="M13.5448 21.1863C14.0002 23.0079 16.2012 25.9299 17.2448 27.1632L22.083 20.3322L26.0676 19.763C27.6615 19.5353 30.5266 18.3399 31.7599 17.7707L36.0292 26.5938C36.2189 26.1194 36.883 24.9999 38.0215 24.3169C39.4445 23.463 40.8676 24.0322 42.0061 25.7399C43.1445 27.4476 43.7138 29.7245 42.5753 31.4322C41.4369 33.1399 39.1599 33.7092 39.1599 34.2784C39.1599 34.8476 39.4445 41.963 39.7292 42.5322C40.0138 43.1015 43.1445 42.5322 45.4215 41.1091C47.243 39.9707 49.4061 37.4092 50.2599 36.2707C50.2599 37.4092 50.4307 40.2553 51.1138 42.5322C51.9676 45.3784 56.2368 53.063 57.3753 54.4861C58.5138 55.9091 59.6522 55.3399 60.7907 55.3399C61.9291 55.3399 64.4907 53.9168 66.483 53.063C68.4753 52.2091 76.1599 48.5091 80.7138 43.9553C85.2676 39.4015 86.6907 32.2861 86.9753 31.1476C87.2599 30.0092 86.6907 29.4399 86.1214 29.4399H77.2984C74.1676 29.4399 67.3368 27.1632 62.783 26.0245C59.1399 25.1136 55.7625 26.9732 54.5292 28.0169C54.4343 27.7323 54.1307 26.537 53.6753 24.0322C53.1061 20.9012 52.2522 20.3322 51.1138 18.6246C50.203 17.2584 48.2676 16.5374 47.4138 16.3476C47.1292 17.0117 46.3322 18.283 45.4215 18.0553C44.5107 17.8276 44.283 15.1143 44.283 13.7861C43.9035 13.3117 42.7461 11.9646 41.1522 10.3707C39.1599 8.37841 36.883 8.37864 35.4599 8.09402C34.0369 7.80941 32.0446 8.09402 27.2061 9.5171C22.3676 10.9402 17.5294 14.0709 15.8217 15.2094C14.114 16.3479 12.9755 18.9094 13.5448 21.1863Z" fill="#066BD6" stroke="#222222" stroke-width="1.5" stroke-linecap="round" stroke-linejoin="round"/>
<path id="Vector 192" d="M75.305 14.9266C74.6409 15.2112 73.028 15.9512 71.8895 16.6343C70.751 17.3174 69.3279 18.437 68.7586 18.9113" stroke="#222222" stroke-width="1.5" stroke-linecap="round" stroke-linejoin="round"/>
<path id="Vector 191" d="M67.6138 7.5257C66.9497 8.37957 65.3368 10.372 64.1983 11.5105C63.0598 12.649 61.8264 13.8823 61.352 14.3567" stroke="#222222" stroke-width="1.5" stroke-linecap="round" stroke-linejoin="round"/>
<path id="Vector 190" d="M59.3612 2.11819C59.1715 2.68745 58.5643 4.1675 57.6535 5.53371C56.7427 6.89991 55.9457 8.19022 55.6611 8.6646" stroke="#222222" stroke-width="1.5" stroke-linecap="round" stroke-linejoin="round"/>
<path id="Vector 186" d="M75.5878 56.4787C74.9237 58.9454 74.734 62.0573 72.1723 66.156C69.6107 70.2546 67.3337 72.6075 65.6259 74.6947" stroke="#222222" stroke-width="1.5" stroke-linecap="round" stroke-linejoin="round"/>
<path id="Vector 187" d="M115.715 17.4886L113.723 19.481" stroke="#222222" stroke-width="1.5" stroke-linecap="round" stroke-linejoin="round"/>
<path id="Vector 188" d="M118.566 20.3322L117.143 22.3246" stroke="#222222" stroke-width="1.5" stroke-linecap="round" stroke-linejoin="round"/>
<path id="Vector 185" d="M120.552 25.7397C120.552 27.2576 120.438 30.6351 119.983 32.0012C119.414 33.7089 117.706 35.4166 116.283 36.2704C114.86 37.1243 114.575 37.1243 114.575 37.6935C114.575 38.2628 114.575 44.5243 112.583 49.6474C110.989 53.7458 107.555 60.8422 106.037 63.8781" stroke="#222222" stroke-width="1.5" stroke-linecap="round" stroke-linejoin="round"/>
<path id="Vector 184" d="M113.156 14.0726C112.112 15.2111 109.854 17.7727 109.171 18.9112C108.317 20.3343 107.463 21.7575 108.033 23.7499C108.602 25.7422 109.741 25.4576 110.31 26.8807C110.765 28.0192 110.689 29.0629 110.594 29.4424" stroke="#222222" stroke-width="1.5" stroke-linecap="round" stroke-linejoin="round"/>
<path id="Vector 183" d="M66.1927 53.0615C68.944 54.1999 75.3004 56.5338 78.7158 56.7615C82.1312 56.9892 84.1235 57.0461 84.6927 57.0461C86.5901 54.6743 90.9542 49.1338 93.2312 45.9461C96.0773 41.9615 101.2 33.7076 102.339 31.9999C103.477 30.2923 103.477 27.4461 103.193 26.023C102.908 24.5999 102.908 22.323 103.762 21.1846C104.616 20.0461 105.754 19.7615 106.323 20.0461C106.779 20.2738 107.462 20.5202 107.747 20.615" stroke="#222222" stroke-width="1.5" stroke-linecap="round" stroke-linejoin="round"/>
<path id="Vector 189" d="M22.6492 36.5543C23.0387 36.5543 23.6552 36.5255 24.357 36.4443M24.357 36.4443C25.3647 36.3278 26.5483 36.1031 27.4878 35.7004C29.0818 35.0173 30.2392 34.2773 30.6187 33.9927C30.6187 35.1312 30.5049 37.6928 30.0495 38.8313C29.4802 40.2544 28.6386 40.8782 27.4878 41.1083C26.0647 41.393 25.592 40.3534 25.2108 39.4006C24.6416 37.9774 25.2108 36.3663 24.357 36.4443Z" stroke="#222222" stroke-width="1.5" stroke-linecap="round" stroke-linejoin="round"/>
<path id="Vector 182" d="M45.1333 51.0703C46.7462 50.8805 50.3704 50.558 51.9643 50.7857C53.5582 51.0134 55.2849 51.4495 55.9491 51.639" stroke="#222222" stroke-width="1.5" stroke-linecap="round" stroke-linejoin="round"/>
<path id="Vector 203" d="M28.6252 30.2939C28.9099 30.1991 29.4791 29.7816 29.4791 28.8708C29.4791 27.7323 28.9099 27.4477 28.3406 27.7323C27.7713 28.0169 27.7712 28.3012 28.0559 28.8704C28.2836 29.3258 28.72 29.0604 28.9097 28.8708" stroke="#222222" stroke-width="1.5" stroke-linecap="round" stroke-linejoin="round"/>
<path id="Vector 204" d="M21.6973 31.2494C21.9819 31.1546 22.5512 30.7371 22.5512 29.8263C22.5512 28.6878 21.9819 28.4032 21.4127 28.6878C20.8434 28.9724 20.8433 29.2567 21.1279 29.8259C21.3556 30.2813 21.7921 30.0159 21.9818 29.8263" stroke="#222222" stroke-width="1.5" stroke-linecap="round" stroke-linejoin="round"/>
<path id="Vector 181" d="M22.078 20.3322C19.9909 23.1783 15.5888 29.2691 14.678 30.8629C13.5396 32.8552 12.9704 35.4168 13.5396 36.2706C14.1088 37.1245 15.8167 38.2629 16.9551 38.5476C18.0936 38.8322 19.232 39.1168 19.232 41.9629C19.232 44.2399 19.4218 52.5886 19.5167 56.4783" stroke="#222222" stroke-width="1.5" stroke-linecap="round" stroke-linejoin="round"/>
<path id="Vector 180" d="M16.9506 19.197C17.8994 19.7663 20.7076 20.734 24.3506 20.0509C27.9937 19.3678 30.8019 18.2483 31.7506 17.774L36.0199 26.3124C36.4942 25.3637 37.8983 23.5801 39.7199 24.0355C41.9968 24.6047 43.4198 27.7355 43.1352 30.0124C42.9075 31.8339 40.384 33.4278 39.1506 33.997L39.7199 42.8201C40.8583 42.915 44.4445 42.137 46.266 40.5432C48.0875 38.9493 51.1045 35.1355 52.5275 32.2893" stroke="#222222" stroke-width="1.5" stroke-linecap="round" stroke-linejoin="round"/>
<path id="Vector 178" d="M17.2408 27.1641C16.2921 26.1205 14.2808 23.521 13.8255 21.4718C13.2562 18.9103 13.8255 17.2026 15.2485 15.7795C16.6716 14.3564 24.356 10.0873 29.1945 8.94874C34.212 7.76806 36.5945 8.09437 38.3021 8.6636C40.0098 9.23284 41.7175 10.941 42.856 12.0794C43.7668 12.9902 44.1842 13.5974 44.2791 13.7871" stroke="#222222" stroke-width="1.5" stroke-linecap="round" stroke-linejoin="round"/>
<path id="Vector 179" d="M47.9812 12.3664C48.0761 12.9357 48.2089 14.2449 47.9812 14.928C47.7535 15.611 47.5068 16.1613 47.412 16.351C48.6453 16.7305 51.3966 18.0587 52.535 20.3356C53.9581 23.1818 54.2427 28.5895 54.812 28.0203C55.3812 27.451 58.5119 25.4587 62.4966 26.028C66.4812 26.5972 73.0273 28.8741 75.5889 29.1587C78.1504 29.4433 85.2658 29.4433 86.1196 29.4433C86.9735 29.4433 86.9735 29.7279 86.9735 30.5818C86.9735 31.4356 84.6965 42.5356 76.4427 47.3741C68.1889 52.2125 62.4966 55.0587 60.7889 55.3433C59.0812 55.6279 58.2273 55.6279 57.6581 54.7741C57.0889 53.9202 53.9581 47.6587 52.535 45.6664C51.112 43.6741 50.2581 39.6895 50.2581 38.2664C50.2581 37.1279 50.2581 36.4638 50.2581 35.9895" stroke="#222222" stroke-width="1.5" stroke-linecap="round" stroke-linejoin="round"/>
<path id="Vector 177" d="M22.6492 60.7453C24.6415 61.694 29.9353 63.193 35.1723 61.5991C40.4092 60.0053 42.8569 55.2427 43.4261 53.0607" stroke="#222222" stroke-width="1.5" stroke-linecap="round" stroke-linejoin="round"/>
<path id="Vector 176" d="M95.5051 79.8183L98.0668 77.2566" stroke="#222222" stroke-width="1.5" stroke-linecap="round" stroke-linejoin="round"/>
<path id="Vector 175" d="M95.2217 75.8336L97.2141 74.1259" stroke="#222222" stroke-width="1.5" stroke-linecap="round" stroke-linejoin="round"/>
<path id="Vector 173" d="M13.2588 109.133C14.7768 107.046 18.7234 102.189 22.3665 99.4562C28.9127 94.5466 32.8024 92.8152 35.7434 91.2024" stroke="#222222" stroke-width="1.5" stroke-linecap="round" stroke-linejoin="round"/>
<path id="Vector 174" d="M87.2598 75.8329L94.6601 69.8557" stroke="#222222" stroke-width="1.5" stroke-linecap="round" stroke-linejoin="round"/>
<path id="Vector 172" d="M35.7391 98.3187C36.498 97.0853 39.5529 94.1063 45.7006 92.0571C53.3852 89.4956 67.0467 85.7956 70.7467 84.6571C73.7067 83.7464 77.4826 82.3802 79.0006 81.811C79.0006 80.7674 79.3421 78.2248 80.7083 76.4033C82.0744 74.5817 83.9339 73.7469 84.6929 73.5571" stroke="#222222" stroke-width="1.5" stroke-linecap="round" stroke-linejoin="round"/>
<path id="Vector 171" d="M27.7695 79.248L38.5853 95.1871" stroke="#222222" stroke-width="1.5" stroke-linecap="round" stroke-linejoin="round"/>
<path id="Vector 170" d="M15.5319 54.7706C10.7883 56.2886 1.24423 61.886 1.01654 72.1322C0.73192 84.9398 4.1473 94.9014 9.27038 102.871C14.3934 110.84 20.6551 124.501 37.1628 124.501C53.6705 124.501 64.2012 114.54 67.9012 111.409C71.6012 108.278 80.1397 103.724 88.9628 93.1937C96.0212 84.7691 98.5448 83.2321 98.9243 83.5168" stroke="#222222" stroke-width="1.5" stroke-linecap="round" stroke-linejoin="round"/>
<ellipse id="Ellipse 453" cx="40.9463" cy="68.8325" rx="1.58939" ry="1.35136" transform="rotate(-43.9191 40.9463 68.8325)" fill="#066BD6"/>
<ellipse id="Ellipse 454" cx="24.9542" cy="89.6455" rx="1.27655" ry="1.35136" transform="rotate(-43.9191 24.9542 89.6455)" fill="#066BD6"/>
<ellipse id="Ellipse 456" cx="21.1185" cy="75.1008" rx="1.64578" ry="1.35136" transform="rotate(-43.9191 21.1185 75.1008)" fill="#066BD6"/>
<ellipse id="Ellipse 458" cx="34.2657" cy="30.8768" rx="1.3957" ry="1.35136" transform="rotate(-43.9191 34.2657 30.8768)" fill="#DBE3EF"/>
<path id="Vector 209" d="M161.205 34.329C160.592 32.5113 159.403 28.5422 159.55 27.2068C159.697 25.8714 161.328 21.4571 162.125 19.4169C162.309 21.2716 162.677 25.4262 162.677 27.2068C162.677 28.9873 161.941 31.213 161.573 32.1033" stroke="#222222" stroke-width="1.5" stroke-linecap="round" stroke-linejoin="round"/>
<path id="Vector 215" d="M160.323 10.1361C160.447 9.77534 160.883 9.08997 161.631 9.23426C162.565 9.41462 162.752 10.3165 162.191 11.3986C161.743 12.2644 161.257 13.4427 161.07 13.9237C161.07 13.6231 161.294 13.058 162.191 13.2022C163.312 13.3826 163.499 13.9237 164.247 13.9237" stroke="#222222" stroke-width="1.5" stroke-linecap="round" stroke-linejoin="round"/>
<ellipse id="Ellipse 457" cx="63.629" cy="80.1032" rx="1.83992" ry="1.372" transform="rotate(-43.9191 63.629 80.1032)" fill="#066BD6"/>
<ellipse id="Ellipse 455" cx="55.8099" cy="72.5689" rx="1.27655" ry="1.35136" transform="rotate(-43.9191 55.8099 72.5689)" fill="#066BD6"/>
<path id="Vector 205" d="M13.5419 88.6385C12.6881 89.2078 11.8342 90.6309 11.8342 92.0541V92.3386C11.8342 92.5283 11.8911 92.9648 12.1188 93.1925C12.4034 93.4771 13.8266 93.4771 14.9651 93.1925C16.1036 92.9078 17.2421 92.9078 17.2421 92.3386C17.2421 91.7693 16.1036 89.4924 15.5343 88.9232C14.9651 88.3539 14.3958 88.0693 13.5419 88.6385Z" fill="#066BD6"/>
<g id="Vector 206">
<path d="M13.2529 75.8325C12.7975 76.0602 11.1657 77.0659 10.4068 77.5402C10.0273 77.5402 9.2683 77.3695 9.2683 76.6864C9.2683 75.8325 9.55291 74.9787 10.1221 73.8402C10.6914 72.7018 10.6914 71.5633 11.5452 71.5633C12.3991 71.5633 12.6837 72.4172 13.2529 73.271C13.8221 74.1248 13.8221 75.5479 13.2529 75.8325Z" fill="#066BD6"/>
<path d="M32.8914 73.5556C32.3221 74.1248 32.6067 73.8402 30.3298 74.9787C29.9503 75.2633 29.1344 75.6618 28.9067 74.9787C28.6221 74.1248 29.1914 72.1325 29.476 70.9941C29.7606 69.8556 30.6144 69.8556 31.1837 70.1402C31.7529 70.4249 32.3221 71.2787 32.8914 71.8479C33.4606 72.4172 33.4606 72.9864 32.8914 73.5556Z" fill="#066BD6"/>
<path d="M39.1529 79.5323C39.1529 78.3938 39.7221 78.9631 41.1452 78.1092C41.6196 77.8246 42.6821 77.2554 43.1375 77.2554C43.7067 77.2554 44.276 78.6784 44.276 80.1015C44.276 81.5246 43.9913 82.3784 42.5683 82.9477C41.1452 83.5169 40.2914 84.3707 39.7221 83.5169C39.1529 82.6631 39.1529 80.6708 39.1529 79.5323Z" fill="#066BD6"/>
<path d="M50.8221 83.5169C50.8221 82.9477 50.2529 83.2323 51.676 81.24C51.676 81.0502 52.359 79.9877 52.8144 79.5323C53.3836 78.9631 54.2375 79.2477 54.8067 80.1015C55.376 80.9554 55.6606 81.8092 55.9452 82.9477C56.2298 84.0861 54.5221 84.0861 53.6683 84.0861C52.8144 84.0861 50.8221 84.0861 50.8221 83.5169Z" fill="#066BD6"/>
</g>
<ellipse id="Ellipse 452" cx="94.4783" cy="112.363" rx="1.42313" ry="1.1385" transform="rotate(-43.9191 94.4783 112.363)" fill="#066BD6"/>
<g id="Vector 201">
<path d="M69.3242 121.087C68.8688 121.542 67.7114 122.889 67.0473 123.933C66.3832 124.976 64.9411 124.616 64.4857 123.933C63.9165 123.079 63.3473 122.794 63.3473 122.225C63.3473 121.656 64.3293 120.105 65.055 119.379C65.9088 118.525 66.478 118.241 67.0473 118.241C67.6165 118.241 68.4703 118.81 69.0396 119.379C69.6088 119.948 69.8934 120.518 69.3242 121.087Z" fill="#066BD6"/>
<path d="M83.2703 118.81C82.4165 119.094 80.7088 120.233 79.2857 120.517C78.8114 120.707 77.8626 120.973 77.8626 120.517C77.8626 119.948 77.578 118.241 77.8626 116.533C78.1473 114.825 79.2857 114.541 79.855 114.541C80.4242 114.541 82.4165 116.248 83.2703 116.533C84.1242 116.817 84.1242 118.525 83.2703 118.81Z" fill="#066BD6"/>
</g>
</g>
</g>
</g>
</svg>
