<svg width="13" height="14" viewBox="0 0 13 14" fill="none" xmlns="http://www.w3.org/2000/svg">
<g id="Group 2141">
<path id="Vector" d="M12.2928 0.792787C12.1053 0.605316 11.851 0.5 11.5858 0.5C11.3206 0.5 11.0663 0.605316 10.8788 0.792787L6.29279 5.37879L1.70679 0.792787C1.51926 0.605316 1.26495 0.5 0.999786 0.5C0.734622 0.5 0.480314 0.605316 0.292787 0.792787C0.105316 0.980314 0 1.23462 0 1.49979C0 1.76495 0.105316 2.01926 0.292787 2.20679L4.87879 6.79279L0.292787 11.3788C0.105316 11.5663 0 11.8206 0 12.0858C0 12.351 0.105316 12.6053 0.292787 12.7928C0.480314 12.9803 0.734622 13.0856 0.999786 13.0856C1.26495 13.0856 1.51926 12.9803 1.70679 12.7928L6.29279 8.20679L10.8788 12.7928C11.0663 12.9803 11.3206 13.0856 11.5858 13.0856C11.851 13.0856 12.1053 12.9803 12.2928 12.7928C12.4803 12.6053 12.5856 12.351 12.5856 12.0858C12.5856 11.8206 12.4803 11.5663 12.2928 11.3788L7.70679 6.79279L12.2928 2.20679C12.4803 2.01926 12.5856 1.76495 12.5856 1.49979C12.5856 1.23462 12.4803 0.980314 12.2928 0.792787Z" fill="#DBE3EF"/>
</g>
</svg>
