<svg width="178" height="151" viewBox="0 0 178 151" fill="none" xmlns="http://www.w3.org/2000/svg">
<g id="Group 3180">
<g id="Group 3179">
<g id="Group 3177">
<g id="Group 3176">
<path id="Vector 448" d="M128.027 63.3981C127.419 64.3733 127.645 68.1153 131.281 68.4312C135.493 68.797 137.341 70.85 137.492 73.1993C137.612 75.0787 135.886 76.4603 135.008 76.9161C135.211 76.3913 135.336 75.1052 134.203 74.1596C132.787 72.9775 132.019 73.4013 130.767 72.1711" stroke="#066BD6" stroke-width="1.5" stroke-linecap="round" stroke-linejoin="round"/>
<path id="Vector 450" d="M123.06 64.8487C124.155 65.3266 126.036 68.5855 122.908 70.8763C119.284 73.5297 118.749 76.2788 119.921 78.3298C120.859 79.9705 123.198 80.1652 124.25 80.0575C123.772 79.7316 122.943 78.724 123.445 77.3009C124.073 75.5221 125.007 75.4487 125.459 73.7213" stroke="#066BD6" stroke-width="1.5" stroke-linecap="round" stroke-linejoin="round"/>
<path id="Vector 449" d="M133.44 73.6192C133.483 74.4876 133.535 75.1963 132.52 76.9024C131.505 78.6086 129.807 79.8484 129.085 80.255C128.27 80.1015 126.382 79.6346 125.354 78.9948" stroke="#066BD6" stroke-width="1.5" stroke-linecap="round" stroke-linejoin="round"/>
<path id="Vector 432" d="M141.635 59.4261L142.151 63.0304" stroke="#066BD6" stroke-width="1.5" stroke-linecap="round" stroke-linejoin="round"/>
<path id="Vector 431" d="M135.084 64.5566C135.168 64.8411 135.567 65.4347 136.499 65.5331C137.664 65.656 138.413 65.9004 138.975 65.5048C139.425 65.1882 139.454 64.8246 139.413 64.6823" stroke="#066BD6" stroke-width="1.5" stroke-linecap="round" stroke-linejoin="round"/>
<path id="Vector 430" d="M128.567 62.441C129.54 61.4863 130.681 61.8237 131.114 62.5915C131.46 63.2057 131.363 64.1582 131.271 64.5576C132.253 64.4137 132.509 64.113 132.568 63.2847" stroke="#066BD6" stroke-width="1.5" stroke-linecap="round" stroke-linejoin="round"/>
<path id="Vector 429" d="M143.444 65.6248C143.636 66.2827 143.691 67.2187 142.959 66.9563C142.227 66.694 137.343 67.1681 135.34 67.039C133.336 66.9099 132.797 67.3055 133.144 66.252C133.1 65.5032 133.096 64.8382 133.099 64.5993" stroke="#066BD6" stroke-width="1.5" stroke-linecap="round" stroke-linejoin="round"/>
<path id="Vector 428" d="M140.917 60.7078C139.348 61.1659 139.11 63.268 140.109 64.501C140.482 64.962 140.982 65.244 141.502 65.3649M143.785 64.6982C144.56 63.7095 144.209 61.7792 143.416 61.2486" stroke="#066BD6" stroke-width="1.5" stroke-linecap="round" stroke-linejoin="round"/>
<path id="Vector 433" d="M140.789 60.2084L142.911 60.1254" stroke="#066BD6" stroke-width="1.5" stroke-linecap="round" stroke-linejoin="round"/>
<path id="Vector 426" d="M130.765 54.0159C130.366 55.2196 129.983 55.9681 131.164 56.928C132.64 58.1278 135.401 57.5547 136.07 60.6209C136.413 62.1962 135.037 63.2521 135.992 63.4392C136.756 63.5888 135.842 63.949 134.541 63.8628" stroke="#066BD6" stroke-width="1.5" stroke-linecap="round" stroke-linejoin="round"/>
<path id="Vector 427" d="M135.341 53.4861C136.219 54.1928 137.468 53.9865 138.242 54.1809C139.209 54.4238 138.259 56.5401 135.151 55.8715C133.597 55.5372 132.939 55.2038 131.483 54.053" stroke="#066BD6" stroke-width="1.5" stroke-linecap="round" stroke-linejoin="round"/>
<path id="Vector 425" d="M131.795 51.4507C132.855 51.9668 135.619 52.7655 138.2 51.8319C140.78 50.8984 140.933 49.458 140.687 48.8544C139.515 48.6714 136.914 48.2902 135.889 48.2292" stroke="#066BD6" stroke-width="1.5" stroke-linecap="round" stroke-linejoin="round"/>
<path id="Vector 424" d="M128.683 32.717C129.397 32.272 130.238 32.2628 130.687 33.0762C131.035 33.7075 130.83 34.5296 130.742 34.7125C130.507 34.3878 130.177 33.9332 129.711 34.0694C129.244 34.2057 129.084 34.3311 128.996 34.514" stroke="#066BD6" stroke-width="1.5" stroke-linecap="round" stroke-linejoin="round"/>
<path id="Vector 423" d="M137.541 42.6507C138.254 42.4427 139.065 42.106 139.369 41.4161C139.75 40.5538 140.11 43.954 138.123 46.5373C136.534 48.6039 135.089 48.4246 134.566 48.0766" stroke="#066BD6" stroke-width="1.5" stroke-linecap="round" stroke-linejoin="round"/>
<path id="Vector 422" d="M134.997 38.5278C135.924 37.1885 137.508 35.0869 138.118 34.1688C139.464 35.0138 139.266 38.5181 138.697 39.9133C138.01 41.5973 137.675 42.4312 136.523 43.7538" stroke="#066BD6" stroke-width="1.5" stroke-linecap="round" stroke-linejoin="round"/>
<path id="Vector 421" d="M128.041 45.9416C128.616 47.1682 131.801 46.9357 131.9 45.0474C131.999 43.1591 131.549 42.3607 130.837 41.4066C130.124 40.4524 129.999 40.0241 130.486 38.7199C130.875 37.6766 134.575 30.9408 136.376 27.7033C136.575 27.645 137.005 28.0773 137.126 30.2733C137.247 32.4693 135.431 37.586 134.508 39.8699" stroke="#066BD6" stroke-width="1.5" stroke-linecap="round" stroke-linejoin="round"/>
<path id="Vector 420" d="M129.078 56.8425C128.501 54.8708 126.818 49.1052 125.899 45.9555C125.735 45.5391 125.419 44.3121 123.99 44.7293L116.481 46.9219C115.652 47.3257 114.929 47.3369 115.531 48.9826C116.531 52.4062 117.737 56.5422 118.409 58.8429C119.249 61.7187 121.873 61.3984 122.945 61.0852C123.804 60.8347 124.019 61.4405 124.318 61.7991C124.377 61.3361 124.257 60.9252 124.732 60.5637C125.583 59.9152 130.039 60.1288 129.078 56.8425Z" stroke="#066BD6" stroke-width="1.5" stroke-linecap="round" stroke-linejoin="round"/>
<path id="Vector 419" d="M121.652 44.2693C121.581 43.0283 121.632 40.0165 122.409 37.8969C122.628 37.2982 123.102 36.0366 123.243 35.5254C123.423 34.876 123.253 34.8127 122.385 34.828C122.677 34.0087 123.833 32.987 124.616 32.7583C126.224 32.2889 128.973 31.2483 129.017 32.8917C129.06 34.5352 126.03 41.3353 127.269 43.3394C128.261 44.9427 129.323 44.3972 129.936 43.5084C130.063 43.9445 130.268 44.4985 129.778 45.2095" stroke="#066BD6" stroke-width="1.5" stroke-linecap="round" stroke-linejoin="round"/>
<path id="Vector 418" d="M113.211 31.888C114.501 34.6901 114.746 35.527 115.399 35.3364C117.636 34.9101 120.999 33.7014 121.275 33.6206C121.928 33.43 121.29 30.4373 121.481 29.4733C121.672 28.5093 120.592 27.2353 119.19 28.0985C117.789 28.9618 118.267 26.5534 116.526 27.0619C114.785 27.5704 115.528 28.8803 115.055 29.3059C114.307 29.9793 113.444 28.6428 112.661 30.0049" stroke="#066BD6" stroke-width="1.5" stroke-linecap="round" stroke-linejoin="round"/>
<path id="Vector 434" d="M104.406 61.445L110.577 70.6398" stroke="#066BD6" stroke-width="1.5" stroke-linecap="round" stroke-linejoin="round"/>
<path id="Vector 435" d="M117.292 69.7519C117.376 70.0364 117.358 70.7515 116.626 71.336C115.71 72.0666 115.21 72.6756 114.523 72.6445C113.974 72.6197 113.754 72.3289 113.712 72.1867" stroke="#066BD6" stroke-width="1.5" stroke-linecap="round" stroke-linejoin="round"/>
<path id="Vector 436" d="M121.647 64.4604C120.313 64.1792 119.532 65.0778 119.58 65.9578C119.619 66.6619 120.214 67.4122 120.506 67.6994C119.601 68.1064 119.223 67.9909 118.728 67.3245" stroke="#066BD6" stroke-width="1.5" stroke-linecap="round" stroke-linejoin="round"/>
<path id="Vector 437" d="M110.67 74.6345C110.145 75.5924 111.964 76.482 112.44 75.8671C112.915 75.2522 117.288 73.0236 118.907 71.8369C120.526 70.6502 121.193 70.6932 120.334 69.9922C119.968 69.3375 119.614 68.7743 119.483 68.5746" stroke="#066BD6" stroke-width="1.5" stroke-linecap="round" stroke-linejoin="round"/>
<path id="Vector 439" d="M105.858 61.8254L104.026 62.897" stroke="#066BD6" stroke-width="1.5" stroke-linecap="round" stroke-linejoin="round"/>
<path id="Vector 440" d="M115.263 58.5436C116.247 59.3435 116.973 59.7684 116.494 61.2129C115.895 63.0184 113.26 64.0208 114.346 66.9652C114.904 68.4779 116.632 68.6272 115.928 69.2989C115.364 69.8361 116.329 69.6478 117.379 68.8752" stroke="#066BD6" stroke-width="1.5" stroke-linecap="round" stroke-linejoin="round"/>
<path id="Vector 441" d="M110.967 60.0383C110.655 61.0928 110.02 61.9994 109.523 62.5648C108.902 63.2714 110.731 64.5762 112.785 62.4006C113.811 61.3128 114.146 60.6896 114.675 58.9591" stroke="#066BD6" stroke-width="1.5" stroke-linecap="round" stroke-linejoin="round"/>
<path id="Vector 442" d="M113.507 56.7906C112.891 57.7958 110.99 59.9566 108.313 60.5582C105.636 61.1598 104.732 60.028 104.614 59.3868C105.504 58.6018 107.491 56.881 108.322 56.2782" stroke="#066BD6" stroke-width="1.5" stroke-linecap="round" stroke-linejoin="round"/>
<path id="Vector 443" d="M105.555 39.4684C104.714 39.4776 104 39.9225 104.059 40.8494C104.106 41.5688 104.721 42.1515 104.893 42.2586C104.917 41.8582 104.95 41.2977 105.416 41.1614C105.883 41.0252 106.086 41.0447 106.258 41.1519" stroke="#066BD6" stroke-width="1.5" stroke-linecap="round" stroke-linejoin="round"/>
<path id="Vector 444" d="M103.188 52.6814C102.475 52.8894 102.352 52.8254 101.724 52.4079C100.939 51.8859 102.465 54.9458 105.53 56.054C107.982 56.9405 109.103 56.0123 109.357 55.4374" stroke="#066BD6" stroke-width="1.5" stroke-linecap="round" stroke-linejoin="round"/>
<path id="Vector 445" d="M103.857 47.6187C102.355 46.9887 99.889 46.0693 98.8802 45.6241C98.2009 47.0602 100.253 49.9077 101.483 50.7775C102.968 51.8273 103.7 52.3496 105.383 52.8447" stroke="#066BD6" stroke-width="1.5" stroke-linecap="round" stroke-linejoin="round"/>
<path id="Vector 446" d="M113.706 50.1264C113.882 51.4697 111.072 52.9872 109.973 51.4489C108.873 49.9106 108.823 48.9956 108.91 47.8081C108.997 46.6206 108.872 46.1922 107.76 45.3547C106.87 44.6847 100.128 40.9978 96.8675 39.2381C96.6677 39.2964 96.5381 39.8921 97.6179 41.8081C98.6976 43.7241 102.982 47.0597 104.989 48.4881" stroke="#066BD6" stroke-width="1.5" stroke-linecap="round" stroke-linejoin="round"/>
<path id="Vector 447" d="M118.192 45.2782C117.585 44.1937 115.921 41.6825 114.126 40.3139C113.619 39.9273 112.541 39.1186 112.147 38.7638C111.646 38.3133 111.755 38.1685 112.495 37.7144C111.808 37.181 110.284 36.9417 109.501 37.1703C107.893 37.6397 105.016 38.2419 105.863 39.6507C106.711 41.0594 112.924 45.1605 112.958 47.5167C112.985 49.4016 111.796 49.5132 110.801 49.0939C110.928 49.5299 111.053 50.1074 111.849 50.4429" stroke="#066BD6" stroke-width="1.5" stroke-linecap="round" stroke-linejoin="round"/>
<path id="Vector 417" d="M98.2659 14.6982C110.403 9.72399 135.499 2.46896 137.005 2.02932C139.724 1.23557 142.309 1.82175 143.247 5.0346C144.185 8.24745 157.778 62.5352 159.151 67.2374C160.233 70.9446 159.78 72.1496 158.936 72.9325C158.261 73.5589 154.706 74.9789 156.366 74.9789" stroke="#222222" stroke-width="1.5" stroke-linecap="round" stroke-linejoin="round"/>
<path id="Vector 416" d="M130.156 7.25666C116.272 11.7576 104.454 14.7612 100.499 15.9158C95.5565 17.359 92.5908 18.2249 91.6131 20.3879C90.6354 22.5508 87.7617 20.976 91.6313 48.0083C95.5009 75.0405 103.085 89.9917 104.62 92.4938C106.155 94.9959 109.658 101.483 122.993 95.7121C136.328 89.9412 148.13 88.1045 152.959 85.3535C157.788 82.6024 157.643 82.1083 156.622 76.774C155.601 71.4397 142.084 15.039 140.568 9.84903C139.053 4.65905 134.852 5.88577 133.122 6.39088" stroke="#222222" stroke-width="1.5" stroke-linecap="round" stroke-linejoin="round"/>
<path id="Vector 451" d="M113.235 71.4744C112.947 70.4858 112.133 70.4537 111.463 70.9173C110.794 71.3809 110.095 72.6596 109.992 73.226C109.889 73.7925 110.528 74.1424 111.588 74.1009C112.437 74.0677 112.518 73.9171 112.576 73.8107C112.199 73.7422 111.981 73.609 111.866 73.2136C111.793 72.9665 112.158 72.6831 112.216 72.5767" stroke="#066BD6" stroke-width="1.5" stroke-linecap="round" stroke-linejoin="round"/>
</g>
</g>
<g id="Group 3178">
<g id="Group 3175">
<path id="Vector 452" d="M99.403 52.2847C92.9953 59.15 87.9607 62.8116 79.2646 68.3038C81.248 78.0679 86.3131 96.8638 90.7069 93.9346C96.1992 90.2731 99.403 85.6962 105.353 78.8309C110.113 73.3386 114.354 60.3707 115.88 54.5733C116.337 53.9631 117.894 52.2849 120.457 50.4541C123.661 48.1657 123.203 47.3244 123.203 45.8771C123.203 43.5886 121.83 42.9784 120.457 42.6732C121.067 42.063 120.548 41.6663 120.914 39.4694C121.372 36.7233 119.084 39.0119 120.457 36.2656C121.83 33.5192 120.816 29.8067 119.541 30.3166C117.253 31.2318 116.795 32.4516 115.88 33.5195C114.507 32.6048 113.591 29.95 111.761 30.3161C109.472 30.7738 107.184 33.5196 106.268 34.8927C105.536 35.9911 105.963 40.995 106.268 42.6732C106.116 43.5886 104.529 46.7924 99.403 52.2847Z" fill="white"/>
<path id="Vector 415" d="M16.8018 44.8857C18.1958 44.8857 16.9019 44.4188 18.8501 44.9617C19.4067 44.9617 19.8576 43.9126 19.0307 41.5322C20.4223 35.6876 24.3186 34.0049 26.8234 33.4584C33.7812 32.3445 37.9559 32.9045 40.1824 33.1858C41.563 33.3602 41.574 40.4294 38.2342 41.2661L38.1958 41.2392C35.4539 39.3169 35.4473 39.3123 34.6162 38.483C32.3897 39.5962 27.1044 43.4946 22.6487 44.8857C23.5393 47.3348 23.7592 52.3069 23.7592 54.3478C22.2749 54.255 19.4176 54.6261 19.8628 56.8526C20.4195 59.6357 23.2026 59.915 24.3158 60.1929C24.5385 60.6382 23.852 65.1092 23.4809 66.8719C21.7184 65.9442 18.14 62.6977 15.6909 57.1314C12.6295 50.1736 15.9695 45.7206 16.8018 44.8857Z" fill="#066BD6"/>
<path id="Vector 414" d="M39.6284 36.7966C39.814 36.9822 40.519 37.4089 41.8549 37.6316" stroke="#222222" stroke-width="1.5" stroke-linecap="round" stroke-linejoin="round"/>
<path id="Vector 411" d="M59.3857 110.828C59.5713 121.219 59.9424 142.5 59.9424 144.504C59.9424 147.009 60.499 150.07 55.4894 149.792C50.4797 149.514 32.3905 150.627 17.6389 144.504C4.75566 139.157 2.14623 137.082 2.33178 136.99C0.662895 135.041 0.662569 133.093 1.77582 129.753C3.16738 125.579 6.50745 115.281 11.7954 102.201C14.9109 94.4937 19.4948 84.8524 20.4227 83.2753" stroke="#222222" stroke-width="1.5" stroke-linecap="round" stroke-linejoin="round"/>
<path id="Vector 412" d="M77.1982 58.5048C77.4766 57.206 78.4785 54.0518 80.2597 51.8253C82.4862 49.0422 84.7127 48.7638 85.5476 49.5988C86.3825 50.4337 86.3825 52.1036 85.5476 53.2169C84.8797 54.1075 84.3416 54.8868 84.156 55.1651C84.8982 55.1651 86.5495 55.4991 87.2175 56.8349C87.8854 58.1708 88.0524 59.618 88.0524 60.1747" stroke="#222222" stroke-width="1.5" stroke-linecap="round" stroke-linejoin="round"/>
<path id="Vector 413" d="M32.9487 57.1132C33.5981 57.2987 35.5092 57.5585 37.9583 57.1132C40.4075 56.6679 41.5764 55.6288 41.8547 55.165" stroke="#222222" stroke-width="1.5" stroke-linecap="round" stroke-linejoin="round"/>
<path id="Vector 409" d="M53 106.586C52.6667 104.287 52 98.1373 52 91.9304C52 85.7235 52.6667 82.4476 53 81.5856" stroke="#222222" stroke-width="1.5" stroke-linecap="round" stroke-linejoin="round"/>
<path id="Vector 453" d="M47 104.586C46.6667 102.287 46 96.1373 46 89.9304C46 83.7235 46.6667 80.4476 47 79.5856" stroke="#DBE3EF" stroke-width="1.5" stroke-linecap="round" stroke-linejoin="round"/>
<path id="Vector 454" d="M39 103.586C38.6667 101.287 38 95.1373 38 88.9304C38 82.7235 38.6667 79.4476 39 78.5856" stroke="#DBE3EF" stroke-width="1.5" stroke-linecap="round" stroke-linejoin="round"/>
<path id="Vector 455" d="M32 97.5856C31.6667 95.8384 31 91.1649 31 86.4476C31 81.7304 31.6667 79.2407 32 78.5856" stroke="#DBE3EF" stroke-width="1.5" stroke-linecap="round" stroke-linejoin="round"/>
<path id="Vector 410" d="M59.6665 114.168C64.1195 113.89 74.1387 112.777 78.5917 110.55C84.158 107.767 88.8893 102.479 89.7242 100.531C90.3921 98.9726 90.8374 96.0781 90.8374 94.4083" stroke="#222222" stroke-width="1.5" stroke-linecap="round" stroke-linejoin="round"/>
<path id="Vector 404" d="M24.3208 77.9876C25.063 76.6888 27.6049 74.1469 31.8352 74.3695C37.1231 74.6478 44.9159 76.5964 52.4303 76.0398C59.9447 75.4832 73.0254 73.2567 86.3844 64.0724C97.0715 56.725 104.011 46.5387 106.145 42.3641C105.959 41.8074 105.644 40.0819 105.866 37.6328C106.089 35.1836 106.701 34.2003 106.979 34.0147" stroke="#222222" stroke-width="1.5" stroke-linecap="round" stroke-linejoin="round"/>
<path id="Vector 405" d="M112.544 37.3539L118.667 31.231" stroke="#222222" stroke-width="1.5" stroke-linecap="round" stroke-linejoin="round"/>
<path id="Vector 406" d="M118.666 38.746L120.335 36.5195" stroke="#222222" stroke-width="1.5" stroke-linecap="round" stroke-linejoin="round"/>
<path id="Vector 407" d="M119.223 43.7555L121.171 41.5291" stroke="#222222" stroke-width="1.5" stroke-linecap="round" stroke-linejoin="round"/>
<path id="Vector 408" d="M122.84 47.9296C121.727 49.1356 119.167 51.8259 117.831 52.9392C116.161 54.3307 115.604 54.3307 115.326 55.7223C115.048 57.1139 110.595 73.5343 101.967 82.9969C93.3393 92.4595 86.1032 98.8607 72.7442 104.149C62.057 108.379 47.5106 108.138 41.5732 107.488" stroke="#222222" stroke-width="1.5" stroke-linecap="round" stroke-linejoin="round"/>
<path id="Vector 403" d="M19.0322 41.5286C19.2178 40.0443 20.4794 36.5747 24.0418 34.5708C27.6042 32.567 36.4731 32.8082 40.4622 33.1793" stroke="#222222" stroke-width="1.5" stroke-linecap="round" stroke-linejoin="round"/>
<path id="Vector 402" d="M15.1318 39.859C15.1318 42.0855 15.6885 44.0341 16.8018 44.8691C15.9695 45.704 12.6295 50.157 15.6909 57.1148C18.14 62.681 21.7184 65.9275 23.4809 66.8552C23.852 65.0926 24.5385 60.6215 24.3158 60.1762C23.2026 59.8984 20.4195 59.6191 19.8628 56.836C19.4175 54.6095 22.2749 54.2384 23.7592 54.3312C23.7592 52.2902 23.5393 47.3182 22.6487 44.8691C27.1044 43.478 32.3897 39.5797 34.6162 38.4664C36.8427 40.6929 42.1306 43.7544 44.9109 45.7035C46.5223 46.8332 46.5808 47.9305 45.7459 49.0438C45.0779 49.9344 44.1688 50.7136 43.7977 50.9919C45.9314 54.4245 50.4215 62.5141 51.3121 67.4123C52.2027 72.3106 52.4253 74.6485 52.4253 75.2051" stroke="#222222" stroke-width="1.5" stroke-linecap="round" stroke-linejoin="round"/>
<ellipse id="Ellipse 462" cx="31.5561" cy="48.2079" rx="0.834936" ry="1.11325" fill="#222222"/>
<ellipse id="Ellipse 463" cx="37.6777" cy="46.538" rx="0.834936" ry="1.11325" fill="#222222"/>
<circle id="Ellipse 464" cx="28.4946" cy="52.1036" r="1.11325" fill="#066BD6"/>
</g>
<path id="Vector 456" d="M4.5 132.086C9.83333 135.252 23.4 141.986 35 143.586C46.6 145.186 54.1667 144.252 56.5 143.586" stroke="#DBE3EF" stroke-width="1.5" stroke-linecap="round"/>
<path id="Vector 457" d="M7 126.586C12.0256 129.398 24.8096 135.38 35.7404 136.801C46.6712 138.222 53.8013 137.393 56 136.801" stroke="#DBE3EF" stroke-width="1.5" stroke-linecap="round"/>
<path id="Vector 458" d="M11 121.586C15.5128 123.887 26.9923 128.781 36.8077 129.944C46.6231 131.106 53.0256 130.428 55 129.944" stroke="#DBE3EF" stroke-width="1.5" stroke-linecap="round"/>
<path id="Vector 459" d="M13 115.586C17.2051 117.631 27.9019 121.981 37.0481 123.015C46.1942 124.048 52.1603 123.446 54 123.015" stroke="#DBE3EF" stroke-width="1.5" stroke-linecap="round"/>
<path id="Vector 460" d="M15 109.586C19 111.376 29.175 115.182 37.875 116.086C46.575 116.991 52.25 116.463 54 116.086" stroke="#DBE3EF" stroke-width="1.5" stroke-linecap="round"/>
<path id="Vector 461" d="M17 103.586C20.847 105.513 30.6328 109.612 39 110.586" stroke="#DBE3EF" stroke-width="1.5" stroke-linecap="round"/>
<path id="Vector 462" d="M19 96.5856C21 98.0856 27.5 100.586 33.5 102.086" stroke="#DBE3EF" stroke-width="1.5" stroke-linecap="round"/>
<path id="Vector 463" d="M22 90.5856C22.6897 91.131 24.931 92.0401 27 92.5856" stroke="#DBE3EF" stroke-width="1.5" stroke-linecap="round"/>
</g>
</g>
<path id="Vector 464" d="M64 20.5856L80 23.5856" stroke="#222222" stroke-width="1.5" stroke-linecap="round"/>
<path id="Vector 465" d="M73 10.5856L80 14.5856" stroke="#222222" stroke-width="1.5" stroke-linecap="round"/>
<path id="Vector 466" d="M69.6484 33.775L77.3518 31.3963" stroke="#222222" stroke-width="1.5" stroke-linecap="round"/>
<path id="Vector 467" d="M174.859 98.6598L162.503 88.0617" stroke="#222222" stroke-width="1.5" stroke-linecap="round"/>
<path id="Vector 468" d="M162.062 102.82L158 95.8558" stroke="#222222" stroke-width="1.5" stroke-linecap="round"/>
<path id="Vector 469" d="M176.562 84.4137L168.702 82.622" stroke="#222222" stroke-width="1.5" stroke-linecap="round"/>
</g>
</svg>
