<svg width="11" height="11" viewBox="0 0 11 11" fill="none" xmlns="http://www.w3.org/2000/svg">
<path id="Vector" d="M6.92121 0.598282C6.73613 0.408896 6.51507 0.258411 6.27101 0.155668C6.02695 0.0529262 5.76481 0 5.5 0C5.23519 0 4.97305 0.0529262 4.72899 0.155668C4.48493 0.258411 4.26387 0.408896 4.07879 0.598282L3.65113 1.03692L3.03919 1.02936C2.7743 1.02623 2.51147 1.07608 2.26613 1.176C2.02079 1.27592 1.79792 1.42388 1.6106 1.61119C1.42328 1.79849 1.27531 2.02136 1.17539 2.26668C1.07546 2.512 1.0256 2.77482 1.02874 3.03969L1.03561 3.65159L0.598319 4.07923C0.408922 4.26429 0.258427 4.48534 0.155678 4.72938C0.0529295 4.97343 0 5.23555 0 5.50034C0 5.76514 0.0529295 6.02726 0.155678 6.2713C0.258427 6.51535 0.408922 6.7364 0.598319 6.92146L1.0363 7.3491L1.02874 7.961C1.0256 8.22587 1.07546 8.48869 1.17539 8.73401C1.27531 8.97933 1.42328 9.2022 1.6106 9.3895C1.79792 9.57681 2.02079 9.72477 2.26613 9.82469C2.51147 9.9246 2.7743 9.97446 3.03919 9.97133L3.65113 9.96445L4.07879 10.4017C4.26387 10.5911 4.48493 10.7416 4.72899 10.8443C4.97305 10.9471 5.23519 11 5.5 11C5.76481 11 6.02695 10.9471 6.27101 10.8443C6.51507 10.7416 6.73613 10.5911 6.92121 10.4017L7.34887 9.96376L7.96081 9.97133C8.2257 9.97446 8.48854 9.9246 8.73387 9.82469C8.97921 9.72477 9.20209 9.57681 9.3894 9.3895C9.57672 9.2022 9.72469 8.97933 9.82461 8.73401C9.92454 8.48869 9.9744 8.22587 9.97126 7.961L9.96439 7.3491L10.4017 6.92146C10.5911 6.7364 10.7416 6.51535 10.8443 6.2713C10.9471 6.02726 11 5.76514 11 5.50034C11 5.23555 10.9471 4.97343 10.8443 4.72938C10.7416 4.48534 10.5911 4.26429 10.4017 4.07923L9.9637 3.65159L9.97126 3.03969C9.9744 2.77482 9.92454 2.512 9.82461 2.26668C9.72469 2.02136 9.57672 1.79849 9.3894 1.61119C9.20209 1.42388 8.97921 1.27592 8.73387 1.176C8.48854 1.07608 8.2257 1.02623 7.96081 1.02936L7.34887 1.03624L6.92121 0.59897V0.598282ZM5.5 2.75024C5.86785 2.75024 6.15594 3.06788 6.11881 3.43433L5.87816 5.84548C5.87008 5.9402 5.82673 6.02844 5.75671 6.09274C5.68668 6.15704 5.59507 6.19272 5.5 6.19272C5.40493 6.19272 5.31332 6.15704 5.24329 6.09274C5.17327 6.02844 5.12992 5.9402 5.12184 5.84548L4.88119 3.43433C4.87255 3.34786 4.88211 3.26054 4.90927 3.17799C4.93643 3.09545 4.98058 3.01951 5.03888 2.95506C5.09717 2.89061 5.16832 2.83909 5.24775 2.80382C5.32717 2.76854 5.4131 2.75029 5.5 2.75024ZM5.50138 6.8754C5.68373 6.8754 5.85862 6.94783 5.98756 7.07677C6.1165 7.2057 6.18894 7.38058 6.18894 7.56292C6.18894 7.74527 6.1165 7.92014 5.98756 8.04908C5.85862 8.17801 5.68373 8.25045 5.50138 8.25045C5.31902 8.25045 5.14413 8.17801 5.01519 8.04908C4.88625 7.92014 4.81381 7.74527 4.81381 7.56292C4.81381 7.38058 4.88625 7.2057 5.01519 7.07677C5.14413 6.94783 5.31902 6.8754 5.50138 6.8754Z" fill="#DBE3EF"/>
</svg>
