<svg width="58" height="58" viewBox="0 0 58 58" fill="none" xmlns="http://www.w3.org/2000/svg">
<circle cx="29" cy="29" r="29" fill="#222222"/>
<path fill-rule="evenodd" clip-rule="evenodd" d="M44.2033 21.645V28.0857L42.9172 28.0856V21.645C42.9172 20.35 41.8663 19.2912 40.5725 19.2912H17.627C16.3332 19.2912 15.2861 20.3462 15.2861 21.645V28.0857L14 28.0856V21.645C14 19.6378 15.6276 18 17.627 18H40.5725C42.5758 18.0038 44.2033 19.6377 44.2033 21.645ZM36.6574 25.8162H31.1321C30.2168 25.1133 28.9137 24.7408 27.3545 24.7408C23.7387 24.7408 22.6464 26.5229 22.3828 28.09H17.7803C18.0289 23.7152 21.0382 21.6719 27.2301 21.6719C32.7366 21.6719 35.5802 22.9164 36.6574 25.8162ZM36.6574 31.268C35.6563 34.2063 32.9279 35.4123 27.328 35.4123C21.1523 35.4123 18.198 33.4304 17.7803 28.9941H22.3528C22.7479 31.1258 24.5657 32.3434 27.3732 32.3434C29.0215 32.3434 30.3048 31.9823 31.1892 31.268H36.6574ZM40.4249 27.1582H29.0986V29.9088H40.4249V27.1582ZM44.2033 35.4349V28.9941H42.9172V35.4348C42.9172 36.7336 41.8663 37.7886 40.5725 37.7886L17.627 37.7887C16.337 37.7887 15.2861 36.7298 15.2861 35.4349V28.9941H14V35.4349C14 37.4459 15.6276 39.0798 17.627 39.0798H40.5725C42.5758 39.0798 44.2033 37.4421 44.2033 35.4349Z" fill="white"/>
</svg>
