<svg width="22" height="22" viewBox="0 0 22 22" fill="none" xmlns="http://www.w3.org/2000/svg">
<g id="Group 2126">
<circle id="Ellipse 371" cx="11" cy="11" r="11" fill="#FF2E00"/>
<g id="Icon">
<path d="M5.00003 8.6875H17C16.9995 8.13155 16.992 7.84014 16.8692 7.61426C16.7542 7.40258 16.5706 7.23048 16.3448 7.12262C16.0881 7 15.7521 7 15.08 7H6.92C6.24794 7 5.91191 7 5.65521 7.12262C5.42942 7.23048 5.24584 7.40258 5.13079 7.61426C5.00803 7.84014 5.00049 8.13155 5.00003 8.6875Z" fill="white"/>
<path fill-rule="evenodd" clip-rule="evenodd" d="M17 9.8125H5V14.2C5 14.8301 5 15.1451 5.13079 15.3857C5.24584 15.5974 5.42942 15.7695 5.65521 15.8774C5.91191 16 6.24794 16 6.92 16H15.08C15.7521 16 16.0881 16 16.3448 15.8774C16.5706 15.7695 16.7542 15.5974 16.8692 15.3857C17 15.1451 17 14.8301 17 14.2V9.8125ZM6.8 13.75C6.8 13.4393 7.06863 13.1875 7.4 13.1875H9.8C10.1314 13.1875 10.4 13.4393 10.4 13.75C10.4 14.0607 10.1314 14.3125 9.8 14.3125H7.4C7.06863 14.3125 6.8 14.0607 6.8 13.75ZM12.2 13.1875C11.8686 13.1875 11.6 13.4393 11.6 13.75C11.6 14.0607 11.8686 14.3125 12.2 14.3125H14.6C14.9314 14.3125 15.2 14.0607 15.2 13.75C15.2 13.4393 14.9314 13.1875 14.6 13.1875H12.2Z" fill="white"/>
</g>
</g>
</svg>
