<svg width="60" height="60" viewBox="0 0 60 60" fill="none" xmlns="http://www.w3.org/2000/svg">
<rect width="60" height="60" fill="white"/>
<path opacity="0.2" d="M27.0039 48.7507C40.2587 48.7507 51.0039 38.0056 51.0039 24.7507C51.0039 11.4959 40.2587 0.750732 27.0039 0.750732C13.7491 0.750732 3.00391 11.4959 3.00391 24.7507C3.00391 38.0056 13.7491 48.7507 27.0039 48.7507Z" fill="#066BD6"/>
<path opacity="0.2" d="M27.0069 41.6522C36.3413 41.6522 43.9083 34.0852 43.9083 24.7508C43.9083 15.4164 36.3413 7.84937 27.0069 7.84937C17.6725 7.84937 10.1055 15.4164 10.1055 24.7508C10.1055 34.0852 17.6725 41.6522 27.0069 41.6522Z" fill="#066BD6"/>
<path d="M27.0026 35.9043C33.1633 35.9043 38.1575 30.9101 38.1575 24.7494C38.1575 18.5887 33.1633 13.5945 27.0026 13.5945C20.8419 13.5945 15.8477 18.5887 15.8477 24.7494C15.8477 30.9101 20.8419 35.9043 27.0026 35.9043Z" fill="#066BD6"/>
<path d="M29.0329 22.3439C29.033 22.0016 28.9465 21.6649 28.7814 21.3651C28.6163 21.0652 28.378 20.8121 28.0887 20.6291C27.7994 20.4462 27.4685 20.3395 27.1268 20.3189C26.7852 20.2983 26.4438 20.3645 26.1347 20.5113C25.8255 20.6581 25.5585 20.8808 25.3585 21.1586C25.1586 21.4365 25.0322 21.7604 24.9912 22.1002C24.9502 22.44 24.9958 22.7847 25.1238 23.1021C25.2519 23.4195 25.4582 23.6994 25.7235 23.9156L24.9766 29.1442H29.0329L28.286 23.9156C28.5195 23.7257 28.7078 23.486 28.837 23.2141C28.9662 22.9423 29.0331 22.645 29.0329 22.3439Z" fill="white"/>
<path d="M47.2991 40.4702C48.4854 41.3394 49.9531 41.753 51.4271 41.6333C52.901 41.5136 54.28 40.8689 55.3056 39.82C56.3312 38.7711 56.9329 37.39 56.998 35.9357C57.0631 34.4813 56.5871 33.0535 55.6592 31.9199C54.7313 30.7863 53.4153 30.0247 51.9577 29.7779C50.5002 29.5311 49.0012 29.816 47.7418 30.5792C46.4824 31.3424 45.549 32.5315 45.1165 33.9236C44.6841 35.3158 44.7824 36.8154 45.3928 38.1413L29.4961 51.1696L27.3795 48.6969L26.4285 49.323L25.3702 48.0866L26.2398 47.3654L25.1815 46.1291L23.8288 47.2509L24.4801 48.0118L23.0308 49.2137L22.3795 48.4529L20.2539 50.2158L21.2308 51.357L22.0038 50.716L23.0621 51.9523L22.0959 52.7536L24.0497 55.0361L21.7308 56.9593L24.0917 59.7173L47.2991 40.4702ZM51.2682 31.7306C52.0604 31.7973 52.8148 32.0936 53.4359 32.5823C54.057 33.0709 54.517 33.7299 54.7576 34.4758C54.9982 35.2218 55.0088 36.0212 54.7878 36.773C54.5669 37.5249 54.1244 38.1953 53.5163 38.6996C52.9083 39.2039 52.1619 39.5194 51.3717 39.6062C50.5815 39.693 49.7829 39.5471 49.0768 39.1872C48.3708 38.8272 47.7891 38.2692 47.4052 37.5838C47.0214 36.8984 46.8526 36.1164 46.9203 35.3366C47.0111 34.2909 47.5201 33.3235 48.3355 32.6473C49.1509 31.971 50.2058 31.6413 51.2682 31.7306V31.7306Z" fill="#032C57"/>
<path d="M46.8747 40.0273C48.0425 40.8966 49.4872 41.3101 50.938 41.1904C52.3888 41.0707 53.7462 40.426 54.7557 39.3771C55.7652 38.3282 56.3574 36.9472 56.4215 35.4928C56.4856 34.0385 56.0171 32.6107 55.1037 31.4771C54.1904 30.3435 52.895 29.5819 51.4603 29.335C50.0257 29.0882 48.5502 29.3731 47.3105 30.1363C46.0709 30.8995 45.1521 32.0886 44.7265 33.4808C44.3008 34.8729 44.3975 36.3725 44.9984 37.6984L29.3511 50.7267L27.2677 48.254L26.3317 48.8801L25.29 47.6437L26.1459 46.9226L25.1042 45.6862L23.7727 46.808L24.4138 47.5689L22.9872 48.7709L22.3462 48.01L20.2539 49.7729L21.2155 50.9142L21.9763 50.2731L23.018 51.5095L22.067 52.3108L23.9901 54.5933L21.7076 56.5164L24.0315 59.2744L46.8747 40.0273ZM50.7816 31.2878C51.5614 31.3544 52.3039 31.6508 52.9153 32.1394C53.5267 32.6281 53.9794 33.287 54.2163 34.0329C54.4531 34.7789 54.4635 35.5783 54.246 36.3302C54.0285 37.082 53.593 37.7524 52.9945 38.2567C52.3959 38.761 51.6613 39.0765 50.8835 39.1633C50.1057 39.2501 49.3196 39.1043 48.6246 38.7443C47.9297 38.3843 47.3571 37.8264 46.9792 37.141C46.6014 36.4555 46.4353 35.6735 46.5019 34.8937C46.5913 33.848 47.0923 32.8806 47.8949 32.2044C48.6975 31.5281 49.7359 31.1984 50.7816 31.2878V31.2878Z" fill="#066BD6"/>
</svg>
