<svg width="200" height="170" viewBox="0 0 200 170" fill="none" xmlns="http://www.w3.org/2000/svg">
<g clip-path="url(#clip0_2932_5876)">
<rect width="200" height="170" fill="white"/>
<path opacity="0.2" d="M98.425 143.84C129.864 143.84 155.35 118.132 155.35 86.42C155.35 54.7078 129.864 29 98.425 29C66.9862 29 41.5 54.7078 41.5 86.42C41.5 118.132 66.9862 143.84 98.425 143.84Z" fill="#066BD6"/>
<path opacity="0.2" d="M98.4259 126.858C120.566 126.858 138.514 108.754 138.514 86.421C138.514 64.0885 120.566 45.9844 98.4259 45.9844C76.2859 45.9844 58.3379 64.0885 58.3379 86.421C58.3379 108.754 76.2859 126.858 98.4259 126.858Z" fill="#066BD6"/>
<path d="M98.4249 113.106C113.037 113.106 124.883 101.157 124.883 86.4177C124.883 71.6782 113.037 59.7295 98.4249 59.7295C83.8125 59.7295 71.9668 71.6782 71.9668 86.4177C71.9668 101.157 83.8125 113.106 98.4249 113.106Z" fill="#066BD6"/>
<path d="M103.234 80.6643C103.235 79.8454 103.029 79.0397 102.638 78.3224C102.246 77.605 101.681 76.9993 100.995 76.5617C100.309 76.124 99.5238 75.8686 98.7134 75.8193C97.903 75.7701 97.0935 75.9284 96.3601 76.2797C95.6268 76.631 94.9935 77.1638 94.5193 77.8285C94.0451 78.4932 93.7453 79.2681 93.648 80.0811C93.5506 80.8941 93.6589 81.7188 93.9626 82.4782C94.2663 83.2377 94.7556 83.9072 95.3849 84.4245L93.6133 96.9341H103.234L101.463 84.4245C102.017 83.9701 102.463 83.3968 102.77 82.7463C103.076 82.0958 103.235 81.3845 103.234 80.6643Z" fill="white"/>
<path d="M45.49 61.0614C42.3191 57.0728 37.8041 54.3604 32.7914 53.4325C27.7787 52.5046 22.6125 53.4249 18.2611 56.021C13.9097 58.617 10.6718 62.7106 9.15441 67.5343C7.63702 72.358 7.94426 77.5807 10.0186 82.2235C12.0929 86.8663 15.7918 90.6104 20.4221 92.754C25.0523 94.8975 30.296 95.2934 35.1702 93.8674C40.0444 92.4415 44.2145 89.2915 46.8988 85.008C49.5831 80.7245 50.5973 75.6015 49.7514 70.5993L114.311 41.2029L119.144 51.4136L122.869 50.1697L125.286 55.2751L121.746 56.9117L124.163 62.017L129.668 59.4712L128.181 56.3294L134.08 53.6017L135.567 56.7434L144.218 52.7428L141.987 48.0302L138.841 49.485L136.425 44.3796L140.357 42.5611L135.896 33.1359L145.334 28.7715L139.943 17.3827L45.49 61.0614ZM24.4636 86.8204C21.8865 85.882 19.6408 84.2065 18.0107 82.0057C16.3805 79.8049 15.439 77.1778 15.3053 74.4565C15.1715 71.7351 15.8515 69.0418 17.2593 66.7172C18.6671 64.3925 20.7394 62.5409 23.2142 61.3964C25.689 60.252 28.4551 59.8662 31.1627 60.2878C33.8703 60.7093 36.3979 61.9193 38.4257 63.7647C40.4536 65.6102 41.8907 68.0081 42.5552 70.6554C43.2198 73.3027 43.082 76.0804 42.1593 78.6373C40.9219 82.0659 38.3624 84.8543 35.0438 86.3889C31.7253 87.9236 27.9195 88.0788 24.4636 86.8204L24.4636 86.8204Z" fill="#032C57"/>
<path d="M45.4413 59.6375C42.3739 55.7189 37.995 53.0633 33.1253 52.1684C28.2557 51.2735 23.2296 52.2007 18.9893 54.7764C14.7489 57.352 11.5854 61.3992 10.0916 66.1592C8.5979 70.9193 8.87651 76.0655 10.8753 80.6332C12.874 85.2009 16.4556 88.8765 20.9488 90.971C25.442 93.0656 30.5383 93.4352 35.2824 92.0107C40.0265 90.5863 44.0927 87.4654 46.7188 83.2332C49.3449 79.001 50.3506 73.9479 49.5475 69.0212L112.424 39.7962L117.083 49.8407L120.71 48.6002L123.039 53.6224L119.592 55.2493L121.922 60.2715L127.284 57.7409L125.85 54.6502L131.595 51.9388L133.029 55.0294L141.455 51.0526L139.304 46.4167L136.24 47.8628L133.911 42.8405L137.741 41.0329L133.44 31.7611L142.632 27.4227L137.435 16.2193L45.4413 59.6375ZM24.9008 85.1073C22.399 84.1925 20.2222 82.5499 18.6459 80.3873C17.0695 78.2246 16.1643 75.6391 16.0448 72.9575C15.9252 70.276 16.5967 67.6188 17.9742 65.3222C19.3518 63.0256 21.3736 61.1925 23.7839 60.0549C26.1942 58.9173 28.8849 58.5263 31.5155 58.9311C34.1462 59.336 36.5988 60.5186 38.5632 62.3295C40.5275 64.1404 41.9154 66.4982 42.5513 69.1047C43.1872 71.7112 43.0425 74.4494 42.1356 76.973C40.9195 80.357 38.4205 83.1151 35.1883 84.6406C31.9562 86.1661 28.2557 86.334 24.9008 85.1073L24.9008 85.1073Z" fill="#066BD6"/>
<path d="M126.462 141.276L126.553 140.574L127.249 140.666L127.266 140.529L126.571 140.438L126.662 139.735L126.526 139.718L126.435 140.42L125.739 140.328L125.721 140.465L126.417 140.556L126.326 141.258L126.462 141.276Z" fill="#F2F2F2"/>
<path d="M98.0735 144.585L98.1644 143.883L98.8601 143.975L98.8778 143.838L98.1821 143.746L98.2731 143.044L98.1371 143.026L98.0462 143.728L97.3505 143.637L97.3328 143.773L98.0285 143.865L97.9375 144.567L98.0735 144.585Z" fill="#F2F2F2"/>
<path d="M101.064 160.532L101.044 159.64C99.2752 159.685 97.4755 159.667 95.7025 159.594L95.6646 160.486C97.4605 160.562 99.2759 160.578 101.064 160.532Z" fill="#E6E6E6"/>
<path d="M111.814 159.515L111.668 158.634C109.922 158.925 108.14 159.156 106.375 159.319L106.458 160.212C108.243 160.043 110.044 159.807 111.814 159.515Z" fill="#E6E6E6"/>
<path d="M122.32 157.019L122.057 156.166C120.362 156.694 118.63 157.171 116.907 157.582L117.109 158.451C118.852 158.035 120.607 157.557 122.32 157.019Z" fill="#E6E6E6"/>
<path d="M132.374 153.094L132.001 152.285C130.396 153.041 128.743 153.751 127.095 154.396L127.414 155.229C129.082 154.579 130.752 153.859 132.374 153.094Z" fill="#E6E6E6"/>
<path d="M141.807 147.812L141.326 147.063C139.841 148.034 138.298 148.967 136.749 149.836L137.18 150.614C138.746 149.739 140.305 148.797 141.807 147.812Z" fill="#E6E6E6"/>
<path d="M150.443 141.28L149.867 140.604C148.523 141.775 147.121 142.91 145.705 143.981L146.237 144.697C147.671 143.613 149.086 142.464 150.443 141.28Z" fill="#E6E6E6"/>
<path d="M158.123 133.627L157.462 133.034C156.29 134.376 155.055 135.694 153.794 136.95L154.414 137.588C155.69 136.314 156.938 134.983 158.123 133.627Z" fill="#E6E6E6"/>
<path d="M163.693 126.476L162.701 126.345C162.104 127.202 161.486 128.049 160.858 128.875L161.561 129.418C162.291 128.457 163.002 127.476 163.693 126.476Z" fill="#E6E6E6"/>
<path d="M90.2477 159.167L90.149 160.054C89.2606 159.954 88.3695 159.837 87.5001 159.709L87.6285 158.825C88.488 158.952 89.3692 159.067 90.2477 159.167Z" fill="#E6E6E6"/>
<path d="M73.3294 31.2009L73.2008 31.8966L72.5111 31.767L72.486 31.9025L73.1758 32.0322L73.0472 32.7283L73.1819 32.7536L73.3105 32.0575L74.0003 32.1872L74.0253 32.0516L73.3356 31.922L73.4641 31.2262L73.3294 31.2009Z" fill="#F2F2F2"/>
<path d="M101.857 29.4519L101.728 30.1476L101.038 30.0179L101.013 30.1535L101.703 30.2832L101.575 30.9793L101.709 31.0046L101.838 30.3085L102.528 30.4382L102.553 30.3026L101.863 30.1729L101.991 29.4772L101.857 29.4519Z" fill="#F2F2F2"/>
<path d="M99.7285 13.3656L99.7009 14.2573C101.47 14.3093 103.266 14.4257 105.032 14.5958L105.118 13.7071C103.329 13.5328 101.517 13.4174 99.7285 13.3656Z" fill="#E6E6E6"/>
<path d="M88.9404 13.7908L89.0388 14.6785C90.7983 14.4838 92.5896 14.3504 94.3605 14.2843L94.3262 13.3888C92.5349 13.459 90.7233 13.5965 88.9404 13.7908Z" fill="#E6E6E6"/>
<path d="M78.3154 15.7088L78.5314 16.5752C80.253 16.1402 82.0078 15.7589 83.7506 15.4425L83.5957 14.5639C81.8325 14.8843 80.0543 15.2652 78.3154 15.7088Z" fill="#E6E6E6"/>
<path d="M68.0646 19.0766L68.3934 19.9049C70.0364 19.2379 71.7255 18.619 73.4063 18.0657L73.1324 17.2161C71.4313 17.7734 69.7249 18.4009 68.0646 19.0766Z" fill="#E6E6E6"/>
<path d="M58.3598 23.8357L58.8004 24.6099C60.3356 23.7211 61.9257 22.8742 63.5197 22.0913L63.1309 21.2912C61.5203 22.0789 59.9129 22.9344 58.3598 23.8357Z" fill="#E6E6E6"/>
<path d="M49.3853 29.8835L49.9247 30.5895C51.3296 29.4944 52.7901 28.4374 54.262 27.4458L53.7689 26.7012C52.279 27.7052 50.8043 28.7753 49.3853 29.8835Z" fill="#E6E6E6"/>
<path d="M41.3059 37.1051L41.9341 37.7329C43.1765 36.4571 44.4805 35.2087 45.8079 34.024L45.2229 33.3529C43.8806 34.5546 42.5625 35.8162 41.3059 37.1051Z" fill="#E6E6E6"/>
<path d="M35.3574 43.9404L36.3417 44.1255C36.9835 43.3018 37.6466 42.49 38.3176 41.6995L37.6454 41.1188C36.8643 42.0387 36.1017 42.9793 35.3574 43.9404Z" fill="#E6E6E6"/>
<path d="M110.453 15.3204L110.6 14.4397C111.481 14.5887 112.365 14.7536 113.226 14.9297L113.05 15.8048C112.199 15.6309 111.325 15.4678 110.453 15.3204Z" fill="#E6E6E6"/>
<path d="M98.4242 82.3599C99.3769 82.3599 100.149 81.5809 100.149 80.6199C100.149 79.6589 99.3769 78.8799 98.4242 78.8799C97.4715 78.8799 96.6992 79.6589 96.6992 80.6199C96.6992 81.5809 97.4715 82.3599 98.4242 82.3599Z" fill="#FF6584"/>
</g>
<defs>
<clipPath id="clip0_2932_5876">
<rect width="200" height="170" fill="white"/>
</clipPath>
</defs>
</svg>
