<svg width="200" height="170" viewBox="0 0 200 170" fill="none" xmlns="http://www.w3.org/2000/svg">
<g clip-path="url(#clip0_2932_6019)">
<rect width="200" height="170" fill="white"/>
<path d="M104.231 22.3682C104.139 22.2585 104.039 22.158 103.939 22.0574C98.274 16.3379 90.5818 13.0837 82.5322 13.0016C74.4827 12.9195 66.7257 16.016 60.9456 21.6187C60.8818 21.6736 60.8269 21.7284 60.772 21.7833C60.6988 21.8472 60.635 21.9112 60.5707 21.9752C57.7242 24.8147 55.4661 28.1881 53.926 31.902C52.3859 35.6159 51.594 39.5973 51.5957 43.6179V62.8112C51.5973 63.9015 52.0312 64.9467 52.8021 65.7177C53.5731 66.4886 54.6183 66.9224 55.7086 66.9241H108.719C109.809 66.9224 110.854 66.4886 111.625 65.7177C112.396 64.9467 112.83 63.9015 112.831 62.8112V43.6179C112.839 35.6854 109.754 28.0624 104.231 22.3682Z" fill="#2F2E41"/>
<path d="M83.4441 66.7348C95.8417 66.7348 105.892 56.6845 105.892 44.2868C105.892 31.8892 95.8417 21.8389 83.4441 21.8389C71.0464 21.8389 60.9961 31.8892 60.9961 44.2868C60.9961 56.6845 71.0464 66.7348 83.4441 66.7348Z" fill="#FFB7B7"/>
<path d="M107.038 42.375L104.387 23.8581C104.305 23.2896 104.016 22.7718 103.574 22.4049C103.425 22.2854 103.262 22.1842 103.089 22.1033C89.5166 15.7512 75.7526 15.7512 62.1801 22.085C61.999 22.1687 61.8298 22.2763 61.6771 22.4049C61.6227 22.4506 61.5678 22.5054 61.5129 22.5602C61.1502 22.935 60.9247 23.4213 60.873 23.9403L59.0999 42.4847C59.0701 42.8018 59.1066 43.1217 59.2074 43.4238C59.3081 43.726 59.4708 44.0038 59.685 44.2395C60.0302 44.6195 60.4943 44.8709 61.0011 44.9524C61.1243 44.9786 61.25 44.9909 61.3759 44.989H65.8726C66.3073 44.9875 66.7327 44.8632 67.0998 44.6303C67.4669 44.3974 67.7607 44.0655 67.9473 43.6729L69.8939 39.5052C70.0185 39.235 70.2278 39.013 70.4902 38.8727C70.7526 38.7325 71.0535 38.6818 71.3474 38.7284C71.6412 38.7749 71.9117 38.9162 72.1179 39.1307C72.3241 39.3451 72.4545 39.621 72.4894 39.9165L72.8732 42.9874C72.9445 43.5391 73.2136 44.0461 73.6306 44.4143C74.0476 44.7824 74.5841 44.9867 75.1403 44.989H104.78C105.168 44.9909 105.55 44.89 105.886 44.6966C106.12 44.5691 106.33 44.4021 106.508 44.203C106.722 43.9541 106.88 43.6621 106.971 43.3467C107.063 43.0313 107.086 42.6999 107.038 42.375Z" fill="#2F2E41"/>
<path d="M138.954 107.863L145.315 129.159C141.364 131.924 137.226 134.413 132.931 136.608C131.505 137.339 130.07 138.033 128.608 138.691L122.018 110.441L119.459 99.4822L135.91 97.6543L138.954 107.863Z" fill="#FFB7B7"/>
<path d="M63.2535 104.323L62.705 133.095L62.4676 145.826C56.1638 144.493 49.9981 142.575 44.0508 140.096L46.2353 112.841L46.7838 105.968L63.2535 104.323Z" fill="#FFB7B7"/>
<path d="M138.954 107.863L122.429 110.34L122.63 113.054L124.623 140.4C107.958 147.148 89.8559 149.562 72.0056 147.419C68.9165 147.054 65.8668 146.551 62.8565 145.911C64.2092 140.226 65.3793 135.108 63.9352 134.103C63.5 133.798 63.0876 133.462 62.7012 133.098C55.9652 126.672 58.4514 112.168 58.4514 112.168L46.2316 112.844L42 113.082C42 113.082 43.8279 83.8347 52.0536 83.8347H62.1073L110.548 79.2649C110.548 79.2649 124.257 74.695 127.913 81.0928C129.832 84.447 133.25 91.5577 136.075 97.5716C138.634 103.037 140.708 107.598 140.708 107.598L138.954 107.863Z" fill="#2F2E41"/>
<path d="M127.338 160.459C125.889 160.454 124.448 160.268 123.046 159.904L122.77 159.827L122.513 159.699C113.248 155.053 105.431 148.918 99.2805 141.461C94.1889 135.253 90.2192 128.204 87.55 120.631C84.358 111.565 82.8224 101.999 83.0163 92.3891C83.0202 92.1874 83.0236 92.0316 83.0236 91.9243C83.0236 87.253 85.6165 83.1542 89.6294 81.4821C92.7007 80.2024 120.586 68.7486 122.601 67.9211C126.396 66.0198 130.444 67.6067 131.092 67.8842C132.545 68.4783 158.323 79.0221 163.894 81.6747C169.635 84.4086 171.167 89.32 171.167 91.791C171.167 102.978 169.23 113.433 165.408 122.866C162.322 130.501 157.949 137.55 152.478 143.705C141.922 155.584 131.363 159.795 131.261 159.832C130 160.267 128.672 160.479 127.338 160.459ZM124.854 154.308C125.77 154.514 127.877 154.821 129.251 154.32C130.996 153.684 139.834 149.101 148.092 139.808C159.502 126.968 165.291 110.826 165.3 91.8323C165.279 91.4475 165.006 88.7029 161.371 86.9722C155.909 84.3709 129.114 73.4145 128.844 73.3041L128.77 73.2727C128.208 73.0374 126.421 72.5418 125.189 73.1873L124.943 73.3023C124.644 73.4249 95.0431 85.5827 91.8861 86.8981C89.6777 87.8183 88.8909 90.0978 88.8909 91.9243C88.8909 92.0578 88.8874 92.252 88.8826 92.5029C88.6303 105.499 91.6377 137.479 124.854 154.308Z" fill="#00BFA6"/>
<path d="M123.83 70.5885C123.83 70.5885 93.9598 82.8565 90.7594 84.19C87.5591 85.5235 85.9589 88.7239 85.9589 91.9243C85.9589 95.1246 83.5586 136.885 123.83 157.076C123.83 157.076 127.485 158.088 130.258 157.076C133.031 156.065 168.235 138.996 168.235 91.7909C168.235 91.7909 168.235 86.9903 162.634 84.3234C157.034 81.6564 129.956 70.5885 129.956 70.5885C129.956 70.5885 126.63 69.1216 123.83 70.5885Z" fill="#14B5A0"/>
<path opacity="0.2" d="M127.027 80.1904V145.636C127.027 145.636 157.164 131.13 156.897 92.9919L127.027 80.1904Z" fill="#D1D0D0"/>
<path d="M164.074 131.308L163.728 130.691L164.34 130.349L164.273 130.229L163.66 130.571L163.313 129.954L163.194 130.021L163.54 130.638L162.928 130.98L162.995 131.1L163.608 130.758L163.955 131.375L164.074 131.308Z" fill="#F2F2F2"/>
<path d="M143.293 150.932L142.946 150.315L143.559 149.973L143.491 149.853L142.879 150.195L142.532 149.578L142.412 149.645L142.759 150.262L142.147 150.604L142.214 150.724L142.827 150.382L143.173 150.999L143.293 150.932Z" fill="#F2F2F2"/>
<path d="M155.225 161.927L154.675 161.224C153.284 162.317 151.831 163.379 150.366 164.38L150.869 165.118C152.354 164.105 153.819 163.033 155.225 161.927Z" fill="#E6E6E6"/>
<path d="M163.233 154.687L162.589 154.068C161.363 155.345 160.073 156.596 158.756 157.781L159.355 158.447C160.686 157.246 161.989 155.979 163.233 154.687Z" fill="#E6E6E6"/>
<path d="M170.163 146.405L169.443 145.878C168.4 147.315 167.296 148.733 166.161 150.092L166.842 150.668C167.991 149.292 169.112 147.86 170.163 146.405Z" fill="#E6E6E6"/>
<path d="M175.877 137.249L175.094 136.823C174.26 138.388 173.359 139.946 172.423 141.448L173.177 141.926C174.126 140.407 175.035 138.832 175.877 137.249Z" fill="#E6E6E6"/>
<path d="M180.282 127.375L179.448 127.062C178.839 128.729 178.16 130.399 177.437 132.022L178.248 132.387C178.98 130.75 179.667 129.062 180.282 127.375Z" fill="#E6E6E6"/>
<path d="M183.301 116.975L182.435 116.778C182.057 118.52 181.613 120.268 181.117 121.973L181.972 122.229C182.474 120.503 182.921 118.736 183.301 116.975Z" fill="#E6E6E6"/>
<path d="M184.882 106.25L183.998 106.171C183.861 107.947 183.659 109.742 183.398 111.502L184.277 111.643C184.538 109.86 184.742 108.046 184.882 106.25Z" fill="#E6E6E6"/>
<path d="M185.072 97.1865L184.198 97.6751C184.233 98.7192 184.243 99.7678 184.234 100.805L185.122 100.821C185.133 99.6132 185.116 98.4019 185.072 97.1865Z" fill="#E6E6E6"/>
<path d="M145.738 167.299L146.189 168.069C145.417 168.52 144.633 168.959 143.859 169.376L143.434 168.591C144.199 168.179 144.974 167.744 145.738 167.299Z" fill="#E6E6E6"/>
</g>
<defs>
<clipPath id="clip0_2932_6019">
<rect width="200" height="170" fill="white"/>
</clipPath>
</defs>
</svg>
