<svg width="60" height="60" viewBox="0 0 60 60" fill="none" xmlns="http://www.w3.org/2000/svg">
<rect width="60" height="60" fill="white"/>
<path d="M29.0047 56.9843C28.1798 56.9815 27.3586 56.8753 26.5602 56.6681L26.4029 56.6245L26.2569 56.5514C20.9793 53.9053 16.527 50.4103 13.0234 46.1632C10.1232 42.6269 7.86205 38.6119 6.34166 34.2985C4.52352 29.1344 3.64881 23.6854 3.7593 18.2117C3.76153 18.0968 3.76342 18.008 3.76342 17.9469C3.76342 15.2861 5.24038 12.9514 7.52613 11.999C9.27554 11.2701 25.1593 4.74602 26.3069 4.27463C28.4683 3.19167 30.774 4.09558 31.143 4.25364C31.9706 4.59202 46.6542 10.5978 49.8273 12.1087C53.0975 13.666 53.97 16.4635 53.97 17.871C53.97 24.2431 52.8664 30.1983 50.6899 35.5713C48.9322 39.9203 46.4409 43.9353 43.3245 47.4413C37.312 54.2076 31.2978 56.6063 31.2397 56.6274C30.521 56.8747 29.7647 56.9955 29.0047 56.9843ZM27.5904 53.4809C28.1118 53.5978 29.3122 53.7732 30.0947 53.4877C31.0886 53.1252 36.1224 50.5149 40.8263 45.2214C47.3255 37.9076 50.6232 28.7135 50.628 17.8945C50.6164 17.6753 50.4607 16.112 48.3905 15.1262C45.2789 13.6445 30.0166 7.40372 29.8628 7.34082L29.8206 7.32294C29.5007 7.18891 28.4828 6.9066 27.7812 7.27428L27.6407 7.33978C27.4706 7.40965 10.6098 14.3347 8.81154 15.084C7.55364 15.6081 7.10546 16.9065 7.10546 17.9469C7.10546 18.023 7.10349 18.1336 7.10071 18.2765C6.957 25.6793 8.67004 43.8952 27.5904 53.4809Z" fill="#3F3D56"/>
<path d="M27.0068 5.79419C27.0068 5.79419 9.99277 12.7821 8.16983 13.5417C6.3469 14.3012 5.43543 16.1241 5.43543 17.9471C5.43543 19.77 4.06822 43.5568 27.0068 55.0577C27.0068 55.0577 29.0887 55.6338 30.6682 55.0577C32.2477 54.4817 52.3 44.7594 52.3 17.8711C52.3 17.8711 52.3 15.1367 49.1098 13.6176C45.9197 12.0985 30.496 5.79419 30.496 5.79419C30.496 5.79419 28.6019 4.95868 27.0068 5.79419Z" fill="#066BD6"/>
<path opacity="0.2" d="M28.8281 11.2632V48.5412C28.8281 48.5412 45.9941 40.2782 45.8422 18.5549L28.8281 11.2632Z" fill="#222222"/>
</svg>
