<svg width="60" height="60" viewBox="0 0 60 60" fill="none" xmlns="http://www.w3.org/2000/svg">
<rect width="60" height="60" fill="white"/>
<path d="M27.2632 56.7764C41.906 56.7764 53.7764 44.906 53.7764 30.2632C53.7764 15.6204 41.906 3.75 27.2632 3.75C12.6204 3.75 0.75 15.6204 0.75 30.2632C0.75 44.906 12.6204 56.7764 27.2632 56.7764Z" fill="url(#paint0_linear_4326_4448)"/>
<path d="M27.2662 50.9904C38.7135 50.9904 47.9934 41.7106 47.9934 30.2633C47.9934 18.816 38.7135 9.53613 27.2662 9.53613C15.8189 9.53613 6.53906 18.816 6.53906 30.2633C6.53906 41.7106 15.8189 50.9904 27.2662 50.9904Z" fill="white"/>
<g opacity="0.1">
<path opacity="0.1" d="M16.8221 24.343L16.1426 25.6406L26.5575 31.0947L27.2371 29.797L16.8221 24.343Z" fill="black"/>
<path opacity="0.1" d="M27.2636 32.7524C28.4771 32.7524 29.4609 31.7686 29.4609 30.5551C29.4609 29.3416 28.4771 28.3579 27.2636 28.3579C26.0501 28.3579 25.0664 29.3416 25.0664 30.5551C25.0664 31.7686 26.0501 32.7524 27.2636 32.7524Z" fill="black"/>
</g>
<path d="M24.3236 47.2001H21.7882V46.5514L22.6413 45.6507C22.8851 45.3846 23.0444 45.2033 23.1193 45.1068C23.1941 45.0086 23.2459 44.9247 23.2746 44.8548C23.3048 44.7849 23.32 44.7117 23.32 44.6352C23.32 44.5404 23.2905 44.4656 23.2316 44.4107C23.1726 44.3558 23.0898 44.3283 22.983 44.3283C22.8731 44.3283 22.7616 44.3616 22.6485 44.4281C22.537 44.493 22.4103 44.5895 22.2685 44.7176L21.75 44.0838C21.93 43.9158 22.0814 43.7961 22.204 43.7246C22.3267 43.6514 22.4597 43.5956 22.6031 43.5574C22.7481 43.5191 22.9106 43.5 23.0906 43.5C23.3168 43.5 23.5183 43.5416 23.6952 43.6248C23.8736 43.7079 24.0114 43.8268 24.1086 43.9815C24.2073 44.1346 24.2567 44.3067 24.2567 44.498C24.2567 44.6411 24.2392 44.7733 24.2041 44.8947C24.1707 45.0161 24.1181 45.1359 24.0464 45.254C23.9747 45.3704 23.8792 45.4935 23.7597 45.6233C23.6418 45.753 23.3893 45.9992 23.0022 46.3618V46.3867H24.3236V47.2001Z" fill="#06BB9B"/>
<path d="M27.3035 46.494H26.9188V47.2001H25.9868V46.494H24.5937V45.7705L26.0465 43.5524H26.9188V45.758H27.3035V46.494ZM25.9868 45.758V45.3338C25.9868 45.254 25.9892 45.1467 25.994 45.012C26.0003 44.8756 26.0051 44.8041 26.0083 44.7974H25.982C25.9279 44.9255 25.8665 45.0452 25.798 45.1567L25.4109 45.758H25.9868Z" fill="#06BB9B"/>
<path d="M29.5306 43.5L28.2283 47.25H27.4015L28.7038 43.5H29.5306Z" fill="#06BB9B"/>
<path d="M30.042 47.2001L31.2416 44.3733H29.7289V43.5574H32.25V44.1387L31.0193 47.2001H30.042Z" fill="#06BB9B"/>
<path d="M34.0161 26.5544V21.8365C34.0167 20.9389 33.8358 20.0501 33.4835 19.2206C33.1312 18.3912 32.6145 17.6375 31.9629 17.0027C31.3114 16.3678 30.5377 15.8641 29.6861 15.5205C28.8346 15.1769 27.9218 15 27 15C26.0782 15 25.1654 15.1769 24.3139 15.5205C23.4623 15.8641 22.6886 16.3678 22.0371 17.0027C21.3855 17.6375 20.8688 18.3912 20.5165 19.2206C20.1642 20.0501 19.9833 20.9389 19.9839 21.8365V26.5544C19.0461 26.5955 18.1606 26.9871 17.5117 27.6477C16.8628 28.3082 16.5005 29.187 16.5 30.1011V41.25H37.5V30.1011C37.4995 29.187 37.1372 28.3082 36.4883 27.6477C35.8394 26.9871 34.9539 26.5955 34.0161 26.5544ZM27 17.4103C28.2052 17.4116 29.3605 17.8784 30.2127 18.7082C31.0649 19.538 31.5442 20.663 31.5455 21.8365V26.5462H22.4545V21.8365C22.4558 20.663 22.9351 19.538 23.7873 18.7082C24.6395 17.8784 25.7948 17.4116 27 17.4103Z" fill="#3F3D56"/>
<path d="M29.25 32.4379C29.2501 32.147 29.15 31.861 28.9592 31.6076C28.7684 31.3543 28.4935 31.1423 28.1613 30.9921C27.829 30.842 27.4506 30.7588 27.0628 30.7507C26.675 30.7425 26.291 30.8097 25.9481 30.9458C25.6051 31.0818 25.3149 31.282 25.1056 31.527C24.8963 31.7719 24.775 32.0533 24.7535 32.3438C24.7319 32.6343 24.8109 32.924 24.9828 33.1848C25.1546 33.4456 25.4135 33.6687 25.7343 33.8324V37.5H28.2654V33.8324C28.5688 33.6778 28.8171 33.47 28.9888 33.2269C29.1604 32.9838 29.2501 32.713 29.25 32.4379Z" fill="white"/>
<defs>
<linearGradient id="paint0_linear_4326_4448" x1="27.2632" y1="56.7764" x2="27.2632" y2="3.75" gradientUnits="userSpaceOnUse">
<stop stop-color="#086AD6"/>
<stop offset="1" stop-color="#086AD6"/>
</linearGradient>
</defs>
</svg>
