<svg width="200" height="170" viewBox="0 0 200 170" fill="none" xmlns="http://www.w3.org/2000/svg">
<g clip-path="url(#clip0_2932_6150)">
<rect width="200" height="170" fill="white"/>
<path fill-rule="evenodd" clip-rule="evenodd" d="M44.6835 34.1096C57.1829 25.4271 74.1074 32.5381 88.9932 29.3402C105.291 25.8391 120.721 6.83867 135.491 14.6016C150.311 22.3911 153.766 48.7595 161.326 63.698C168.843 78.5527 187.756 82.5453 186.724 99.1495C185.706 115.526 169.263 134.845 145.418 134.845C121.574 134.845 122.806 133.384 109.471 134.845C96.8584 136.226 69.3342 148.004 57.0881 144.655C42.1386 140.566 38.5383 135.33 29.5839 122.673C20.1854 109.389 19.6283 91.6504 22.3604 75.6255C25.0685 59.7418 31.4564 43.2976 44.6835 34.1096Z" fill="#EDF1F7"/>
<path d="M90.875 53.1355C90.4993 53.134 90.1339 53.013 89.8316 52.79L87.3172 50.9632C87.1086 50.8108 86.8569 50.7287 86.5986 50.7287C86.3403 50.7287 86.0886 50.8108 85.88 50.9632L83.3656 52.79C83.0624 53.0103 82.6972 53.1289 82.3223 53.129C81.9475 53.129 81.5823 53.0103 81.279 52.79C80.9758 52.5697 80.75 52.2591 80.6342 51.9026C80.5183 51.5462 80.5183 51.1621 80.634 50.8057L81.5945 47.8498C81.6748 47.6043 81.6751 47.3396 81.5952 47.0939C81.5154 46.8482 81.3597 46.6342 81.1504 46.4827L78.636 44.6559C78.3327 44.4356 78.107 44.1249 77.9912 43.7684C77.8753 43.4119 77.8753 43.0279 77.9912 42.6714C78.107 42.3149 78.3327 42.0042 78.636 41.7839C78.9392 41.5636 79.3044 41.4449 79.6793 41.4449H82.7873C83.0456 41.4454 83.2974 41.3639 83.5063 41.212C83.7153 41.0602 83.8707 40.846 83.9501 40.6002L84.9104 37.6444C85.0262 37.2878 85.2519 36.9771 85.5552 36.7568C85.8585 36.5364 86.2237 36.4177 86.5986 36.4177C86.9735 36.4177 87.3387 36.5364 87.642 36.7568C87.9453 36.9771 88.171 37.2878 88.2868 37.6444L89.2471 40.6002C89.3265 40.846 89.4819 41.0602 89.6908 41.212C89.8998 41.3639 90.1516 41.4454 90.4099 41.4449H93.5179C93.8927 41.4449 94.2579 41.5636 94.5612 41.7839C94.8644 42.0043 95.0901 42.315 95.206 42.6714C95.3218 43.0279 95.3218 43.4119 95.206 43.7684C95.0901 44.1249 94.8644 44.4356 94.5612 44.6559L92.0468 46.4827C91.8375 46.6342 91.6817 46.8482 91.6019 47.0939C91.5221 47.3396 91.5224 47.6043 91.6027 47.8498L92.5631 50.8057C92.6832 51.1618 92.6853 51.5471 92.5691 51.9045C92.453 52.262 92.2247 52.5725 91.9182 52.79C91.616 53.0129 91.2506 53.1339 90.875 53.1355Z" fill="#FFA200"/>
<path d="M116.355 53.1355C115.98 53.1339 115.614 53.013 115.312 52.79L112.798 50.9632C112.589 50.8108 112.337 50.7287 112.079 50.7287C111.821 50.7287 111.569 50.8108 111.36 50.9632L108.846 52.79C108.543 53.0103 108.177 53.129 107.803 53.129C107.428 53.129 107.063 53.0103 106.759 52.79C106.456 52.5697 106.23 52.2591 106.115 51.9026C105.999 51.5462 105.999 51.1621 106.114 50.8057L107.075 47.8498C107.155 47.6043 107.155 47.3396 107.076 47.0939C106.996 46.8482 106.84 46.6342 106.631 46.4827L104.116 44.6559C103.813 44.4356 103.587 44.1249 103.472 43.7684C103.356 43.4119 103.356 43.0279 103.472 42.6714C103.587 42.3149 103.813 42.0043 104.116 41.7839C104.42 41.5636 104.785 41.4449 105.16 41.4449H108.268C108.526 41.4454 108.778 41.3639 108.987 41.212C109.196 41.0602 109.351 40.846 109.43 40.6002L110.391 37.6444C110.507 37.2878 110.732 36.9771 111.036 36.7568C111.339 36.5364 111.704 36.4177 112.079 36.4177C112.454 36.4177 112.819 36.5364 113.122 36.7568C113.426 36.9771 113.651 37.2878 113.767 37.6444L114.727 40.6002C114.807 40.846 114.962 41.0602 115.171 41.2121C115.38 41.3639 115.632 41.4454 115.89 41.4449H118.998C119.373 41.4449 119.738 41.5636 120.042 41.7839C120.345 42.0043 120.57 42.3149 120.686 42.6714C120.802 43.0279 120.802 43.4119 120.686 43.7684C120.571 44.1249 120.345 44.4356 120.042 44.6559L117.527 46.4827C117.318 46.6341 117.162 46.8482 117.082 47.0939C117.002 47.3396 117.003 47.6043 117.083 47.8498L118.043 50.8057C118.164 51.1618 118.166 51.5471 118.049 51.9045C117.933 52.262 117.705 52.5725 117.399 52.79C117.096 53.0129 116.731 53.1339 116.355 53.1355Z" fill="#FFA200"/>
<path d="M168.713 53.1355C168.337 53.1339 167.972 53.013 167.669 52.79L165.155 50.9632C164.946 50.8108 164.695 50.7287 164.436 50.7287C164.178 50.7287 163.926 50.8108 163.718 50.9632L161.203 52.79C160.9 53.0103 160.535 53.129 160.16 53.129C159.785 53.129 159.42 53.0103 159.117 52.79C158.814 52.5697 158.588 52.2591 158.472 51.9026C158.356 51.5462 158.356 51.1621 158.472 50.8057L159.432 47.8498C159.513 47.6043 159.513 47.3396 159.433 47.0939C159.353 46.8482 159.197 46.6342 158.988 46.4827L156.474 44.6559C156.171 44.4356 155.945 44.1249 155.829 43.7684C155.713 43.4119 155.713 43.0279 155.829 42.6714C155.945 42.3149 156.171 42.0043 156.474 41.7839C156.777 41.5636 157.142 41.4449 157.517 41.4449H160.625C160.883 41.4454 161.135 41.3639 161.344 41.212C161.553 41.0602 161.708 40.846 161.788 40.6002L162.748 37.6444C162.864 37.2878 163.09 36.9771 163.393 36.7568C163.696 36.5364 164.062 36.4177 164.436 36.4177C164.811 36.4177 165.177 36.5364 165.48 36.7568C165.783 36.9771 166.009 37.2878 166.125 37.6444L167.085 40.6002C167.164 40.846 167.32 41.0602 167.529 41.2121C167.738 41.3639 167.989 41.4454 168.248 41.4449H171.356C171.731 41.4449 172.096 41.5636 172.399 41.7839C172.702 42.0043 172.928 42.3149 173.044 42.6714C173.16 43.0279 173.16 43.4119 173.044 43.7684C172.928 44.1249 172.702 44.4356 172.399 44.6559L169.885 46.4827C169.675 46.6341 169.52 46.8482 169.44 47.0939C169.36 47.3396 169.36 47.6043 169.44 47.8498L170.401 50.8057C170.521 51.1618 170.523 51.5471 170.407 51.9045C170.291 52.262 170.062 52.5725 169.756 52.79C169.454 53.0129 169.088 53.1339 168.713 53.1355Z" fill="#FFA200"/>
<path d="M141.834 53.1355C141.458 53.1339 141.093 53.0129 140.791 52.79L138.276 50.9632C138.067 50.8112 137.816 50.7293 137.558 50.7293C137.299 50.7293 137.048 50.8112 136.839 50.9632L134.324 52.79C134.021 53.0103 133.656 53.129 133.281 53.129C132.906 53.129 132.541 53.0103 132.238 52.79C131.935 52.5697 131.709 52.2591 131.593 51.9026C131.477 51.5461 131.477 51.1621 131.593 50.8057L132.553 47.8498C132.634 47.6043 132.634 47.3396 132.554 47.0939C132.474 46.8482 132.319 46.6342 132.109 46.4827L129.595 44.6559C129.292 44.4356 129.066 44.1249 128.95 43.7684C128.834 43.4119 128.834 43.0279 128.95 42.6714C129.066 42.3149 129.292 42.0043 129.595 41.7839C129.898 41.5636 130.263 41.4449 130.638 41.4449H133.746C134.004 41.4454 134.256 41.3639 134.465 41.212C134.674 41.0602 134.83 40.846 134.909 40.6002L135.869 37.6444C135.985 37.2878 136.211 36.9771 136.514 36.7568C136.817 36.5364 137.183 36.4177 137.558 36.4177C137.932 36.4177 138.298 36.5364 138.601 36.7568C138.904 36.9771 139.13 37.2878 139.246 37.6444L140.206 40.6002C140.285 40.846 140.441 41.0602 140.65 41.212C140.859 41.3639 141.111 41.4454 141.369 41.4449H144.477C144.852 41.4449 145.217 41.5636 145.52 41.7839C145.823 42.0043 146.049 42.3149 146.165 42.6714C146.281 43.0279 146.281 43.4119 146.165 43.7684C146.049 44.1249 145.823 44.4356 145.52 44.6559L143.006 46.4827C142.796 46.6342 142.641 46.8482 142.561 47.0939C142.481 47.3396 142.481 47.6043 142.562 47.8498L143.522 50.8057C143.642 51.1618 143.644 51.5471 143.528 51.9045C143.412 52.2619 143.184 52.5724 142.877 52.79C142.575 53.0129 142.209 53.1339 141.834 53.1355Z" fill="#FFA200"/>
<path d="M184.69 53.4853C184.278 53.4836 183.877 53.3509 183.545 53.1062C183.208 52.8672 182.957 52.526 182.829 52.1334C182.702 51.7407 182.704 51.3173 182.836 50.9261L183.797 47.9703C183.865 47.7599 183.866 47.5331 183.797 47.3226C183.729 47.112 183.595 46.9286 183.416 46.7988L180.901 44.9719C180.568 44.7299 180.32 44.3886 180.193 43.997C180.066 43.6054 180.066 43.1836 180.193 42.792C180.32 42.4004 180.568 42.0591 180.901 41.8171C181.235 41.5751 181.636 41.4448 182.047 41.4448H185.155C185.377 41.4452 185.593 41.3753 185.772 41.2452C185.951 41.115 186.084 40.9314 186.152 40.7207L187.113 37.7649C187.24 37.3733 187.488 37.0321 187.821 36.7901C188.154 36.5481 188.555 36.4177 188.967 36.4177C189.379 36.4177 189.78 36.5481 190.113 36.7901C190.446 37.0321 190.694 37.3733 190.821 37.7649L191.782 40.7207C191.85 40.9313 191.983 41.115 192.162 41.2451C192.341 41.3753 192.557 41.4452 192.778 41.4448H195.886C196.298 41.4448 196.699 41.5752 197.032 41.8172C197.365 42.0592 197.613 42.4004 197.74 42.792C197.868 43.1836 197.868 43.6054 197.74 43.997C197.613 44.3886 197.365 44.7298 197.032 44.9719L194.518 46.7988C194.338 46.9286 194.205 47.1119 194.136 47.3225C194.068 47.533 194.068 47.7599 194.137 47.9703L195.097 50.9261C195.225 51.3177 195.225 51.7395 195.097 52.1311C194.97 52.5226 194.722 52.8639 194.389 53.1059C194.056 53.3479 193.655 53.4783 193.243 53.4783C192.831 53.4783 192.43 53.3479 192.097 53.1059L189.583 51.2792C189.404 51.1487 189.188 51.0784 188.967 51.0784C188.745 51.0784 188.53 51.1487 188.351 51.2792L185.836 53.1059C185.504 53.3508 185.103 53.4837 184.69 53.4853ZM188.967 50.1762C189.379 50.1763 189.78 50.307 190.113 50.5496L192.627 52.3763C192.806 52.5064 193.022 52.5766 193.243 52.5766C193.464 52.5766 193.68 52.5066 193.859 52.3765C194.038 52.2464 194.171 52.063 194.24 51.8525C194.308 51.642 194.308 51.4153 194.24 51.2048L193.279 48.2491C193.151 47.8575 193.151 47.4355 193.278 47.0437C193.405 46.6519 193.654 46.3107 193.988 46.0692L196.502 44.2423C196.681 44.1122 196.814 43.9288 196.883 43.7183C196.951 43.5079 196.951 43.2812 196.883 43.0707C196.814 42.8602 196.681 42.6768 196.502 42.5468C196.323 42.4167 196.107 42.3466 195.886 42.3466H192.778C192.366 42.3474 191.965 42.2173 191.631 41.9752C191.298 41.7331 191.05 41.3914 190.924 40.9994L189.963 38.0437C189.895 37.8332 189.762 37.6498 189.583 37.5197C189.404 37.3896 189.188 37.3195 188.967 37.3195C188.745 37.3195 188.53 37.3896 188.351 37.5197C188.172 37.6498 188.038 37.8332 187.97 38.0437L187.01 40.9994C186.883 41.3914 186.635 41.7331 186.302 41.9752C185.969 42.2174 185.567 42.3474 185.155 42.3466H182.047C181.826 42.3466 181.611 42.4167 181.431 42.5467C181.252 42.6768 181.119 42.8602 181.051 43.0707C180.982 43.2811 180.982 43.5078 181.051 43.7183C181.119 43.9288 181.252 44.1122 181.431 44.2423L183.946 46.0692C184.28 46.3107 184.528 46.652 184.655 47.0437C184.783 47.4355 184.782 47.8575 184.654 48.2491L183.694 51.2048C183.625 51.4153 183.625 51.642 183.694 51.8524C183.762 52.0629 183.895 52.2463 184.074 52.3764C184.253 52.5064 184.469 52.5765 184.69 52.5765C184.912 52.5765 185.127 52.5064 185.306 52.3763L187.821 50.5496C188.154 50.307 188.555 50.1763 188.967 50.1762Z" fill="#979797"/>
<path d="M100.805 101.552C101.624 101.549 102.421 101.285 103.08 100.799L108.563 96.8156C109.018 96.4834 109.566 96.3044 110.13 96.3044C110.693 96.3044 111.242 96.4834 111.696 96.8156L117.179 100.799C117.84 101.279 118.637 101.538 119.454 101.538C120.271 101.538 121.068 101.28 121.729 100.799C122.39 100.319 122.883 99.6415 123.135 98.8642C123.388 98.0869 123.388 97.2495 123.135 96.4722L121.041 90.0269C120.866 89.4916 120.865 88.9144 121.04 88.3787C121.214 87.843 121.553 87.3764 122.01 87.0463L127.493 83.0623C128.154 82.5819 128.646 81.9045 128.899 81.1271C129.151 80.3498 129.151 79.5124 128.898 78.7351C128.646 77.9577 128.154 77.2803 127.492 76.7999C126.831 76.3195 126.035 76.0607 125.217 76.0607H118.44C117.877 76.0617 117.328 75.8839 116.873 75.5529C116.417 75.2218 116.078 74.7547 115.905 74.2187L113.811 67.7734C113.558 66.996 113.066 66.3184 112.405 65.8379C111.744 65.3574 110.947 65.0986 110.13 65.0986C109.312 65.0986 108.516 65.3574 107.855 65.8379C107.193 66.3184 106.701 66.996 106.449 67.7734L104.354 74.2187C104.181 74.7547 103.842 75.2218 103.387 75.5529C102.931 75.8839 102.382 76.0617 101.819 76.0607H95.0419C94.2245 76.0607 93.4282 76.3195 92.7669 76.7999C92.1057 77.2803 91.6135 77.9577 91.361 78.7351C91.1084 79.5124 91.1083 80.3498 91.3608 81.1271C91.6133 81.9045 92.1055 82.5819 92.7667 83.0623L98.2495 87.0457C98.7058 87.376 99.0455 87.8427 99.2195 88.3785C99.3935 88.9142 99.393 89.4915 99.2179 90.0269L97.1236 96.4722C96.8618 97.2487 96.8573 98.089 97.1105 98.8684C97.3638 99.6477 97.8615 100.325 98.5298 100.799C99.1889 101.285 99.9856 101.549 100.805 101.552Z" fill="#FFA200"/>
<path d="M105.435 96.2169C105.569 96.7947 105.575 97.3949 105.453 97.9752C105.33 98.5556 105.082 99.102 104.725 99.576C104.368 100.05 103.912 100.44 103.388 100.719C102.865 100.997 102.286 101.157 101.694 101.188L82.1297 126.339L74.5114 122.825L97.3763 97.0575C97.3905 96.0589 97.7705 95.1002 98.4443 94.363C99.1181 93.6258 100.039 93.1614 101.032 93.0578C102.026 92.9542 103.022 93.2185 103.834 93.8008C104.645 94.383 105.215 95.2427 105.435 96.2169Z" fill="#FFB7B7"/>
<path d="M49.4487 41.1439C49.376 41.0567 49.296 40.9767 49.2162 40.8967C44.7101 36.3469 38.591 33.7583 32.1877 33.6929C25.7844 33.6276 19.6139 36.0908 15.0158 40.5477C14.9651 40.5914 14.9214 40.635 14.8777 40.6786C14.8195 40.7295 14.7687 40.7804 14.7176 40.8313C12.4533 43.09 10.657 45.7736 9.43185 48.7279C8.2067 51.6823 7.57676 54.8495 7.57813 58.0478V73.3158C7.57943 74.1831 7.92455 75.0146 8.53784 75.6279C9.15112 76.2411 9.98253 76.5862 10.8498 76.5875H53.0187C53.886 76.5862 54.7174 76.2411 55.3307 75.6279C55.944 75.0146 56.2891 74.1831 56.2904 73.3158V58.0478C56.2964 51.7375 53.8421 45.6736 49.4487 41.1439Z" fill="#2F2E41"/>
<path d="M32.9117 76.4365C42.7739 76.4365 50.7688 68.4417 50.7688 58.5795C50.7688 48.7173 42.7739 40.7224 32.9117 40.7224C23.0496 40.7224 15.0547 48.7173 15.0547 58.5795C15.0547 68.4417 23.0496 76.4365 32.9117 76.4365Z" fill="#FFB7B7"/>
<path d="M51.681 57.0589L49.5726 42.3289C49.5075 41.8767 49.2768 41.4647 48.9254 41.1728C48.8069 41.0778 48.6775 40.9973 48.5399 40.9329C37.7431 35.8799 26.7941 35.8799 15.9973 40.9184C15.8532 40.985 15.7186 41.0706 15.5972 41.1728C15.5539 41.2092 15.5103 41.2528 15.4666 41.2964C15.178 41.5946 14.9986 41.9814 14.9575 42.3943L13.5471 57.1461C13.5233 57.3983 13.5524 57.6528 13.6326 57.8932C13.7127 58.1335 13.8421 58.3545 14.0125 58.542C14.2871 58.8443 14.6563 59.0443 15.0594 59.1091C15.1574 59.13 15.2574 59.1397 15.3576 59.1382H18.9346C19.2805 59.1371 19.6189 59.0381 19.9109 58.8529C20.2029 58.6676 20.4366 58.4036 20.585 58.0913L22.1336 54.7759C22.2326 54.561 22.3992 54.3844 22.6079 54.2728C22.8166 54.1613 23.056 54.1209 23.2897 54.158C23.5235 54.195 23.7387 54.3074 23.9027 54.478C24.0667 54.6486 24.1705 54.8681 24.1983 55.1031L24.5036 57.546C24.5602 57.9848 24.7743 58.3882 25.106 58.681C25.4377 58.9739 25.8645 59.1364 26.307 59.1382H49.885C50.1936 59.1397 50.4971 59.0595 50.7647 58.9056C50.9509 58.8042 51.1182 58.6714 51.2592 58.513C51.4296 58.315 51.5555 58.0827 51.6283 57.8318C51.701 57.5809 51.719 57.3173 51.681 57.0589Z" fill="#2F2E41"/>
<path d="M77.0685 109.153L82.1288 126.093C78.9854 128.293 75.6936 130.273 72.2771 132.019C71.1432 132.6 70.0015 133.153 68.8385 133.677L63.5961 111.203L61.5605 102.486L74.6474 101.032L77.0685 109.153Z" fill="#FFB7B7"/>
<path d="M16.8497 106.339L16.4134 129.226L16.2245 139.354C11.2099 138.293 6.30523 136.767 1.57422 134.795L3.31199 113.115L3.74829 107.647L16.8497 106.339Z" fill="#FFB7B7"/>
<path d="M77.0687 109.154L63.9236 111.124L64.0837 113.283L65.6685 135.037C52.4122 140.404 38.0121 142.325 23.8124 140.62C21.3551 140.33 18.9291 139.93 16.5345 139.421C17.6105 134.899 18.5413 130.827 17.3925 130.027C17.0463 129.785 16.7183 129.518 16.4109 129.228C11.0525 124.116 13.0302 112.578 13.0302 112.578L3.30951 113.116L-0.0566406 113.305C-0.0566406 113.305 1.39746 90.0396 7.9409 90.0396H15.9384L54.472 86.4044C54.472 86.4044 65.3777 82.7691 68.2859 87.8585C69.8128 90.5267 72.5318 96.1832 74.7786 100.967C76.8142 105.315 78.4646 108.943 78.4646 108.943L77.0687 109.154Z" fill="#2F2E41"/>
<path d="M161.136 77.1817L159.173 70.8205C158.801 69.6101 158.187 68.4869 157.367 67.5152C156.547 66.5434 155.537 65.7422 154.395 65.1572C153.252 64.5722 151.999 64.215 150.708 64.1059C149.417 63.9968 148.113 64.138 146.87 64.5215C145.627 64.9049 144.47 65.523 143.465 66.3406C142.46 67.1581 141.626 68.159 141.012 69.2861C140.397 70.4131 140.014 71.6442 139.884 72.9091C139.754 74.1739 139.88 75.4476 140.254 76.6575L142.217 83.0186C140.969 83.4642 139.938 84.3605 139.338 85.5211C138.738 86.6817 138.615 88.0172 138.994 89.2498L143.632 104.282L171.946 95.5465L167.309 80.5144C166.928 79.2821 166.074 78.2481 164.924 77.6274C163.774 77.0066 162.418 76.847 161.136 77.1817ZM147.873 67.7712C149.498 67.2717 151.25 67.4205 152.744 68.1848C154.238 68.9491 155.353 70.2666 155.842 71.8482L157.802 78.1983L145.544 81.9799L143.585 75.6298C143.099 74.0471 143.277 72.3309 144.081 70.8576C144.885 69.3843 146.248 68.2744 147.873 67.7712Z" fill="#3F3D56"/>
<path d="M157.158 87.0975C157.037 86.7052 156.783 86.3613 156.421 86.099C156.058 85.8368 155.599 85.6653 155.089 85.6011C154.578 85.5368 154.034 85.5821 153.507 85.7324C152.981 85.8828 152.491 86.1331 152.085 86.4592C151.68 86.7852 151.372 87.1759 151.191 87.5932C151.011 88.0106 150.964 88.4404 151.056 88.841C151.148 89.2416 151.375 89.5994 151.715 89.8796C152.056 90.1598 152.497 90.3529 152.998 90.4401L154.524 95.3852L157.936 94.3323L156.411 89.3873C156.755 89.0527 157.004 88.6691 157.134 88.27C157.264 87.8709 157.273 87.4683 157.158 87.0975Z" fill="white"/>
</g>
<defs>
<clipPath id="clip0_2932_6150">
<rect width="200" height="170" fill="white"/>
</clipPath>
</defs>
</svg>
