<svg width="26" height="26" viewBox="0 0 26 26" fill="none" xmlns="http://www.w3.org/2000/svg">
<g id="Frame 3734">
<rect width="26" height="26" rx="8" fill="#8F9BB3"/>
<g id="Group 3204">
<g id="Mask group">
<mask id="mask0_7143_5935" style="mask-type:alpha" maskUnits="userSpaceOnUse" x="3" y="6" width="12" height="14">
<path id="Subtract" fill-rule="evenodd" clip-rule="evenodd" d="M12.3553 6.02082C11.9221 6.15251 11.4903 6.28891 11.06 6.43C10.7849 6.52085 10.541 6.68747 10.3563 6.9107C10.1716 7.13394 10.0537 7.40474 10.016 7.692C9.41997 12.169 10.803 15.487 12.481 17.682C13.1466 18.5603 13.9319 19.3405 14.8138 20H3V9C3 7.34315 4.34315 6 6 6H12C12.1202 6 12.2388 6.00707 12.3553 6.02082Z" fill="#D9D9D9"/>
</mask>
<g mask="url(#mask0_7143_5935)">
<g id="Mask group_2">
<path id="Rectangle 882" d="M6.5 6H9.625C11.2819 6 12.625 7.34315 12.625 9V12.125H9.5C7.84315 12.125 6.5 10.7819 6.5 9.125V6Z" fill="url(#paint0_linear_7143_5935)"/>
<path id="Rectangle 883" d="M3 18.875C3 16.1136 5.23858 13.875 8 13.875H12.875C15.6364 13.875 17.875 16.1136 17.875 18.875V20H3V18.875Z" fill="white"/>
</g>
</g>
</g>
<path id="Subtract_2" fill-rule="evenodd" clip-rule="evenodd" d="M16.875 5C16.185 5 15.032 5.265 13.947 5.56C12.9778 5.82672 12.0152 6.11681 11.06 6.43C10.7849 6.52085 10.541 6.68747 10.3563 6.9107C10.1716 7.13394 10.0537 7.40474 10.016 7.692C9.42001 12.169 10.803 15.487 12.481 17.682C13.1926 18.621 14.041 19.4478 14.998 20.135C15.3289 20.3728 15.6795 20.5819 16.046 20.76C16.327 20.892 16.627 21 16.875 21C17.123 21 17.424 20.892 17.704 20.76C18.0705 20.5819 18.4211 20.3728 18.752 20.135C19.709 19.4479 20.5574 18.621 21.269 17.682C22.947 15.487 24.33 12.169 23.734 7.692C23.6963 7.40474 23.5784 7.13394 23.3937 6.9107C23.209 6.68747 22.9651 6.52085 22.69 6.43C22.032 6.215 20.913 5.86 19.803 5.56C18.718 5.265 17.565 5 16.875 5ZM18.438 12.6277C18.6502 12.3819 18.7641 12.0883 18.7639 11.7873C18.7638 11.5207 18.674 11.2592 18.5045 11.0314C18.335 10.8036 18.0922 10.6184 17.8028 10.4959C17.5133 10.3734 17.1883 10.3184 16.8632 10.3368C16.5381 10.3553 16.2254 10.4465 15.9594 10.6005C15.6933 10.7545 15.4842 10.9654 15.3547 11.2101C15.2252 11.4549 15.1804 11.724 15.2253 11.9881C15.2701 12.2523 15.4028 12.5013 15.6088 12.7079C15.8148 12.9145 16.0863 13.0708 16.3936 13.1596L15.9384 15.0896C15.9219 15.1597 15.9244 15.232 15.9459 15.3012C15.9674 15.3704 16.0073 15.4349 16.0628 15.49C16.1183 15.5451 16.188 15.5896 16.2669 15.6201C16.3457 15.6506 16.4319 15.6665 16.5192 15.6667H17.4531C17.5405 15.6667 17.6268 15.6509 17.7058 15.6204C17.7849 15.5899 17.8547 15.5455 17.9103 15.4904C17.9659 15.4352 18.0059 15.3707 18.0275 15.3014C18.0491 15.2321 18.0516 15.1598 18.035 15.0896L17.5787 13.1596C17.9255 13.0593 18.2257 12.8735 18.438 12.6277Z" fill="url(#paint1_linear_7143_5935)"/>
</g>
</g>
<defs>
<linearGradient id="paint0_linear_7143_5935" x1="12.625" y1="6" x2="7.21449" y2="13.8749" gradientUnits="userSpaceOnUse">
<stop stop-color="white" stop-opacity="0"/>
<stop offset="1" stop-color="white"/>
</linearGradient>
<linearGradient id="paint1_linear_7143_5935" x1="23.8749" y1="16.172" x2="3.97616" y2="12.5172" gradientUnits="userSpaceOnUse">
<stop stop-color="white" stop-opacity="0"/>
<stop offset="1" stop-color="white"/>
</linearGradient>
</defs>
</svg>
