<svg width="26" height="26" viewBox="0 0 26 26" fill="none" xmlns="http://www.w3.org/2000/svg">
<g id="Frame 3946">
<rect width="26" height="26" rx="8" fill="#FFA600"/>
<path id="Union" fill-rule="evenodd" clip-rule="evenodd" d="M21.2652 9.14491V12.9349L20.5301 12.9349V9.14491C20.5301 8.38286 19.9293 7.75981 19.1898 7.75981H6.07331C5.33373 7.75981 4.73518 8.38062 4.73518 9.14491V12.9349L4 12.9349V9.14491C4 7.96377 4.93037 7 6.07331 7H19.1898C20.3349 7.00224 21.2652 7.96373 21.2652 9.14491ZM16.9489 11.5969H13.7905C13.2673 11.1832 12.5224 10.964 11.6311 10.964C9.56419 10.964 8.93983 12.0127 8.78913 12.9349H6.15816C6.30027 10.3605 8.02051 9.15811 11.56 9.15811C14.7077 9.15811 16.3332 9.89043 16.9489 11.5969ZM16.9489 14.8125C16.3767 16.5416 14.817 17.2512 11.6159 17.2512C8.08571 17.2512 6.39693 16.085 6.15816 13.4745H8.77196C8.99785 14.7289 10.0369 15.4454 11.6418 15.4454C12.584 15.4454 13.3176 15.2329 13.8231 14.8125H16.9489ZM19.1072 12.3954H12.6328V14.014H19.1072V12.3954ZM21.2652 17.2645V13.4745H20.5301V17.2645C20.5301 18.0288 19.9293 18.6496 19.1898 18.6496L6.07331 18.6496C5.33594 18.6496 4.73518 18.0265 4.73518 17.2645V13.4745H4V17.2645C4 18.4479 4.93037 19.4094 6.07331 19.4094H19.1898C20.3349 19.4094 21.2652 18.4457 21.2652 17.2645Z" fill="url(#paint0_linear_7143_5965)"/>
</g>
<defs>
<linearGradient id="paint0_linear_7143_5965" x1="23.5" y1="20.5" x2="12.4487" y2="5.3824" gradientUnits="userSpaceOnUse">
<stop stop-color="white" stop-opacity="0"/>
<stop offset="1" stop-color="white"/>
</linearGradient>
</defs>
</svg>
