<svg width="26" height="26" viewBox="0 0 26 26" fill="none" xmlns="http://www.w3.org/2000/svg">
<g id="Frame 3946">
<rect width="26" height="26" rx="8" fill="#8F9BB3"/>
<g id="Group 3202">
<path id="Union" fill-rule="evenodd" clip-rule="evenodd" d="M20.8642 8.07571L15.0162 2.22778L14.3747 2.86938C12.422 4.822 12.422 7.98783 14.3747 9.94045L16.687 12.2528L14.3746 14.5653C12.422 16.5179 12.422 19.6837 14.3746 21.6363L15.0162 22.2779L20.8642 16.43L20.8642 16.43L25.0414 12.2529L25.0413 12.2528L25.0413 12.2528L20.8642 8.07567L20.8642 8.07571Z" fill="url(#paint0_linear_7138_5574)"/>
<g id="Mask group">
<mask id="mask0_7138_5574" style="mask-type:alpha" maskUnits="userSpaceOnUse" x="3" y="4" width="14" height="18">
<path id="Subtract" fill-rule="evenodd" clip-rule="evenodd" d="M13.5077 4.03191C12.4857 5.92608 12.7747 8.34053 14.3747 9.94045L16.687 12.2528L14.3746 14.5653C12.422 16.5179 12.422 19.6837 14.3746 21.6363L14.4625 21.7242C14.0095 21.9022 13.5162 22 13 22H7C4.79086 22 3 20.2091 3 18V8C3 5.79086 4.79086 4 7 4H13C13.172 4 13.3414 4.01085 13.5077 4.03191Z" fill="#D9D9D9"/>
</mask>
<g mask="url(#mask0_7138_5574)">
<path id="Vector" d="M26.6948 10.6145C26.4614 10.5012 26.2236 10.4007 25.9896 10.2958L26.5371 10.1513C27.1841 9.97768 27.5733 9.31166 27.4007 8.66119C27.2274 8.01072 26.5629 7.62265 25.9146 7.79498L24.3948 8.19731C23.9637 7.2378 23.5222 6.2932 22.8758 5.21578C22.3735 4.34503 21.9553 3.9103 21.3335 3.82349C19.8441 3.82349 17.3095 3.82349 15.4421 3.82349C15.0316 3.82349 14.6185 3.82349 14.2068 3.82349C12.8241 3.82349 11.4323 3.82349 9.9973 3.82349C9.37739 3.91095 8.95918 4.34568 8.45627 5.21578C7.80856 6.29255 7.36899 7.23715 6.93654 8.19731L5.41749 7.79498C4.77108 7.62265 4.10462 8.01072 3.93138 8.66119C3.76008 9.31166 4.14727 9.97768 4.79562 10.1513L5.34249 10.2958C5.10655 10.4007 4.87061 10.5012 4.63725 10.6145C3.81631 11.0337 3.16925 12.1163 3.16602 12.9592C3.16602 14.0898 3.16602 15.221 3.16602 16.3521C3.16472 16.9547 3.52156 17.4782 4.04063 17.7399V20.2919C4.04063 21.1367 4.72452 21.8235 5.56809 21.8235H8.11365C8.95851 21.8235 9.64115 21.1361 9.64115 20.2919V17.9181C13.658 17.9181 17.6741 17.9181 21.6909 17.9181V20.2919C21.6909 21.1367 22.3755 21.8235 23.2197 21.8235H25.7646C26.6101 21.8235 27.2914 21.1361 27.2914 20.2919V17.7399C27.8099 17.4788 28.1673 16.9547 28.166 16.3521C28.166 15.221 28.166 14.0898 28.166 12.9592C28.1641 12.117 27.517 11.0344 26.6948 10.6145ZM8.34572 14.9145C8.17636 15.4432 7.50862 15.9071 6.86091 15.7969C6.24488 15.6797 5.62758 15.5345 5.01155 15.403C4.35997 15.2566 3.97922 14.5666 4.14858 13.795C4.31729 13.0169 4.96951 12.4085 5.62691 12.6184C6.24941 12.8076 6.87709 13.0771 7.49312 13.3803C8.13889 13.7289 8.51379 14.393 8.34572 14.9145ZM7.69931 9.04409L7.73616 8.96699C8.21062 7.90576 8.65925 6.90414 9.34962 5.75675C9.76915 5.02983 9.97729 4.89896 10.0904 4.86851H21.2436C21.3574 4.89896 21.5636 5.02724 21.9721 5.7399C22.6722 6.90285 23.1188 7.90059 23.5952 8.95792L23.6327 9.04473L7.69931 9.04409ZM26.3218 15.403C25.7051 15.5345 25.0891 15.6803 24.4718 15.7969C23.826 15.9071 23.157 15.4432 22.987 14.9145C22.8189 14.393 23.1945 13.7289 23.8396 13.3797C24.4556 13.0765 25.0839 12.807 25.7071 12.6178C26.3658 12.4085 27.0173 13.0162 27.1841 13.7943C27.3541 14.5666 26.9734 15.2566 26.3218 15.403Z" fill="white"/>
</g>
</g>
</g>
</g>
<defs>
<linearGradient id="paint0_linear_7138_5574" x1="25.0413" y1="16.2278" x2="7.5" y2="14" gradientUnits="userSpaceOnUse">
<stop stop-color="white" stop-opacity="0"/>
<stop offset="1" stop-color="white"/>
</linearGradient>
</defs>
</svg>
