<svg width="17" height="16" viewBox="0 0 17 16" fill="none" xmlns="http://www.w3.org/2000/svg">
<path id="Vector" d="M7.71419 0.562128C7.96155 -0.187375 9.03843 -0.187377 9.2858 0.562127L10.726 4.92644C10.8365 5.26164 11.1538 5.48857 11.5117 5.48857H16.1722C16.9726 5.48857 17.3054 6.49702 16.6578 6.96025L12.8874 9.65755C12.5978 9.86467 12.4767 10.2319 12.5872 10.5671L14.0275 14.9314C14.2748 15.6809 13.4035 16.3042 12.756 15.8409L8.98564 13.1436C8.69605 12.9365 8.30393 12.9365 8.01435 13.1436L4.24394 15.8409C3.59644 16.3042 2.72522 15.6809 2.97254 14.9314L4.41271 10.5671C4.52332 10.2319 4.40215 9.86467 4.11258 9.65755L0.342156 6.96025C-0.30535 6.49703 0.0274247 5.48857 0.827792 5.48857H5.48828C5.84621 5.48857 6.16344 5.26164 6.27405 4.92645L7.71419 0.562128Z" fill="#222222"/>
</svg>
