<svg width="14" height="14" viewBox="0 0 14 14" fill="none" xmlns="http://www.w3.org/2000/svg">
<g id="Shape">
<path id="Shape_2" fill-rule="evenodd" clip-rule="evenodd" d="M12.7281 5.70807L13.8557 6.6832C14.0489 6.84946 14.0489 7.15054 13.8512 7.3168L12.7236 8.29193C12.5933 8.40427 12.5484 8.58402 12.6023 8.74579L13.092 10.1523C13.1773 10.395 13.0291 10.6511 12.7775 10.7005L11.313 10.9836C11.1423 11.0151 11.012 11.1499 10.9805 11.3162L10.6975 12.7811C10.6481 13.0282 10.392 13.181 10.1494 13.0957L8.74333 12.6058C8.5816 12.5474 8.40191 12.5969 8.2896 12.7272L7.31475 13.8551C7.14853 14.0483 6.84754 14.0483 6.68132 13.8551L5.70647 12.7272C5.59416 12.5969 5.41446 12.5519 5.25274 12.6058L3.84662 13.0957C3.60403 13.181 3.34796 13.0327 3.29854 12.7811L3.01552 11.3162C2.98408 11.1454 2.8493 11.0151 2.68308 10.9836L1.21856 10.7005C0.971481 10.6511 0.818739 10.395 0.904095 10.1523L1.39377 8.74579C1.45217 8.58402 1.40275 8.40427 1.27247 8.29193L0.14488 7.3168C-0.0482933 7.15054 -0.0482933 6.84946 0.14488 6.6832L1.27247 5.70807C1.40275 5.59573 1.44768 5.41599 1.39377 5.25421L0.904095 3.8477C0.818739 3.60504 0.966989 3.3489 1.21856 3.29947L2.68308 3.01637C2.8538 2.98491 2.98408 2.8501 3.01552 2.68384L3.29854 1.21891C3.34796 0.971754 3.60403 0.81897 3.84662 0.904349L5.25274 1.39416C5.41446 1.45258 5.59416 1.40315 5.70647 1.27283L6.68132 0.144921C6.84754 -0.0483069 7.14853 -0.0483069 7.31475 0.144921L8.29409 1.27283C8.4064 1.40315 8.58609 1.44808 8.74782 1.39416L10.1539 0.904349C10.3965 0.81897 10.6526 0.967261 10.702 1.21891L10.9805 2.68384C11.012 2.8546 11.1468 2.98491 11.313 3.01637L12.782 3.29947C13.0291 3.3489 13.1818 3.60504 13.0965 3.8477L12.6068 5.25421C12.5484 5.41599 12.5978 5.59573 12.7281 5.70807ZM8.66696 7.82459L10.0461 6.66073C10.3022 6.44054 10.1674 6.01814 9.8215 5.99117L8.02454 5.86086L7.34619 4.18922C7.21591 3.87466 6.77117 3.87466 6.64538 4.18922L5.96703 5.86086L4.17007 5.99117C3.83314 6.01364 3.69387 6.43605 3.95443 6.65623L5.3336 7.82009L4.90233 9.57262C4.82147 9.90515 5.18086 10.1658 5.46837 9.98604L7.00028 9.03338L8.53219 9.99053C8.8197 10.1658 9.17909 9.90515 9.09823 9.57711L8.66696 7.82459Z" fill="#222222"/>
</g>
</svg>
