<svg width="17" height="12" viewBox="0 0 17 12" fill="none" xmlns="http://www.w3.org/2000/svg">
<path fill-rule="evenodd" clip-rule="evenodd" d="M0.992036 0.585786C1.36711 0.210714 1.87582 0 2.40625 0H14.4062C14.9367 0 15.4454 0.210714 15.8205 0.585786C16.1955 0.960859 16.4062 1.46957 16.4062 2V10C16.4062 10.5304 16.1955 11.0391 15.8205 11.4142C15.4454 11.7893 14.9367 12 14.4062 12H2.40625C1.87582 12 1.36711 11.7893 0.992036 11.4142C0.616964 11.0391 0.40625 10.5304 0.40625 10V2C0.40625 1.46957 0.616964 0.960859 0.992036 0.585786ZM1.40625 7H15.4062V2C15.4062 1.73478 15.3009 1.48043 15.1134 1.29289C14.9258 1.10536 14.6715 1 14.4062 1H2.40625C2.14103 1 1.88668 1.10536 1.69914 1.29289C1.51161 1.48043 1.40625 1.73478 1.40625 2V7ZM2.40625 11H14.4062C14.6715 11 14.9258 10.8946 15.1134 10.7071C15.3009 10.5196 15.4062 10.2652 15.4062 10V9H1.40625V10C1.40625 10.2652 1.51161 10.5196 1.69914 10.7071C1.88668 10.8946 2.14103 11 2.40625 11ZM11.5527 3.14645C11.4589 3.24021 11.4062 3.36739 11.4062 3.5V4.5C11.4062 4.63261 11.4589 4.75979 11.5527 4.85355C11.6465 4.94732 11.7736 5 11.9062 5H13.9062C14.0389 5 14.166 4.94732 14.2598 4.85355C14.3536 4.75979 14.4062 4.63261 14.4062 4.5V3.5C14.4062 3.36739 14.3536 3.24021 14.2598 3.14645C14.166 3.05268 14.0389 3 13.9062 3H11.9062C11.7736 3 11.6465 3.05268 11.5527 3.14645Z" fill="white"/>
</svg>
