<svg width="22" height="22" viewBox="0 0 22 22" fill="none" xmlns="http://www.w3.org/2000/svg">
<g id="Group 2126">
<circle id="Ellipse 371" cx="11" cy="11" r="11" fill="#FF2E00"/>
<path id="Vector" d="M16.7208 5.27916C16.542 5.10042 16.2996 5 16.0467 5C15.7939 5 15.5514 5.10042 15.3726 5.27916L11 9.65179L6.62737 5.27916C6.44857 5.10042 6.2061 5 5.95327 5C5.70044 5 5.45797 5.10042 5.27916 5.27916C5.10042 5.45797 5 5.70044 5 5.95327C5 6.2061 5.10042 6.44857 5.27916 6.62737L9.65179 11L5.27916 15.3726C5.10042 15.5514 5 15.7939 5 16.0467C5 16.2996 5.10042 16.542 5.27916 16.7208C5.45797 16.8996 5.70044 17 5.95327 17C6.2061 17 6.44857 16.8996 6.62737 16.7208L11 12.3482L15.3726 16.7208C15.5514 16.8996 15.7939 17 16.0467 17C16.2996 17 16.542 16.8996 16.7208 16.7208C16.8996 16.542 17 16.2996 17 16.0467C17 15.7939 16.8996 15.5514 16.7208 15.3726L12.3482 11L16.7208 6.62737C16.8996 6.44857 17 6.2061 17 5.95327C17 5.70044 16.8996 5.45797 16.7208 5.27916Z" fill="white"/>
</g>
</svg>
