<svg width="200" height="171" viewBox="0 0 200 171" fill="none" xmlns="http://www.w3.org/2000/svg">
<g id="reference">
<rect width="200" height="170" transform="translate(0 0.130371)" fill="white"/>
<path id="Vector 313" d="M99.0921 31.7254C99.2632 34.293 98.0651 35.4912 97.038 36.1758C96.1251 36.6893 94.0597 37.7505 93.1012 37.8874C92.1426 38.0243 91.8459 37.9445 91.5606 37.7162C91.7318 37.6021 92.2385 37.3807 92.5877 37.0315C93.1012 36.518 93.1012 35.491 92.0741 34.6352C91.0471 33.7793 88.1372 34.6352 85.5697 35.1487C83.0021 35.6622 77.1823 35.491 76.84 35.491C76.4976 35.491 76.1553 35.491 75.9841 36.6892C75.8472 37.6478 75.0141 41.4249 74.6147 43.1937C74.5006 42.8513 74.2039 41.9955 73.93 41.3108C73.5877 40.455 72.3895 40.455 71.5337 40.2838C70.6778 40.1126 69.1373 40.9685 68.2814 42.1667C67.4256 43.3649 67.2544 44.7342 67.5967 45.9324C67.9391 47.1306 68.6238 48.6711 70.5066 50.554C72.3895 52.4369 71.876 52.4369 71.7048 53.2928C71.5337 54.1486 69.822 57.2297 68.4526 59.4549C67.0832 61.6801 65.885 59.4549 65.3715 58.9414C64.858 58.4279 61.6058 52.2657 60.5787 50.8964C59.5517 49.527 58.1823 43.1937 59.0382 40.455C59.8941 37.7162 63.0057 35.3122 64.3445 34.9775C65.7139 34.6352 66.9691 34.8633 67.5967 35.1487C67.7108 33.3228 67.8021 30.4244 68.6238 29.3289C69.6508 27.9595 72.2183 26.5903 75.4706 25.5633C78.7228 24.5362 83.1733 24.5362 87.4525 24.8786C91.7318 25.2209 94.4705 26.0768 95.4976 26.9326C96.5246 27.7885 98.9209 29.1578 99.0921 31.7254Z" fill="#066BD6"/>
<path id="Vector 315" d="M85.0536 57.5698C86.423 57.9806 87.45 57.3986 87.7924 57.0562C87.45 57.7981 86.6284 59.3501 86.0807 59.624C85.396 59.9664 84.5401 59.9664 83.8554 59.9664C83.1708 59.9664 81.459 58.768 80.7744 57.9121C80.0897 57.0562 79.9185 54.4887 80.2608 54.831C80.6032 55.1734 83.3419 57.0562 85.0536 57.5698Z" fill="#222222"/>
<path id="Vector 316" d="M96.01 103.958C95.3253 101.631 94.2412 98.6522 93.7847 97.454C94.5835 97.3399 96.4208 96.9405 97.3794 96.2558C98.5776 95.4 98.2352 93.5171 97.7217 91.2919C97.2082 89.0666 97.8929 87.1838 98.2352 85.1297C98.5776 83.0757 99.0911 81.5351 99.0911 80.6793C99.0911 79.8234 98.4064 79.1387 97.037 78.7964C95.9415 78.5225 93.6136 78.6823 92.5866 78.7964L91.5596 82.0486C89.4485 81.7634 84.7127 81.0901 82.6587 80.6793C80.0911 80.1658 71.5326 76.7424 70.8479 76.4C70.1632 76.0577 66.911 74.346 65.884 72.8054C64.857 71.2649 63.3165 68.184 62.9741 67.4992L62.9741 67.4991C62.6317 66.8145 62.4605 66.8145 61.6047 66.8145C60.7488 66.8145 59.893 68.6973 59.5506 69.5532C59.2083 70.409 58.0101 76.0577 57.3254 77.9405C56.6407 79.8234 55.9561 81.5351 55.4425 83.0757C54.929 84.6162 56.8119 85.9856 57.8389 86.8414C58.866 87.6973 61.7759 89.409 63.8299 90.7783C65.884 92.1477 69.4785 93.6882 71.3614 94.3729C72.8677 94.9207 76.0971 95.8564 77.5236 96.2558C77.6947 96.427 78.2082 97.009 78.8929 97.9675C79.7488 99.1657 81.1181 101.733 81.6317 104.472C82.0425 106.663 82.0311 108.58 81.974 109.265C82.3163 109.265 83.6515 109.436 86.2533 110.121C89.5055 110.976 92.2442 110.463 93.9559 110.634C95.6677 110.805 97.037 110.121 97.2082 109.778C97.3793 109.436 96.8658 106.868 96.01 103.958Z" fill="#066BD6"/>
<path id="Vector 317" d="M90.3627 46.6165C90.9105 46.6165 91.3897 47.187 91.5609 47.4723C91.5039 47.5864 91.3897 47.8146 91.2186 47.9858C91.0474 48.157 91.0474 48.8417 90.8762 49.3552C90.648 50.0399 88.9934 50.0399 88.9934 48.8417C88.9934 47.4723 89.678 46.6165 90.3627 46.6165Z" fill="#222222"/>
<path id="Vector 318" d="M82.658 45.4167C83.2058 45.4167 83.685 45.9873 83.8562 46.2726C83.7991 46.3867 83.685 46.6149 83.5139 46.7861C83.3427 46.9573 83.3427 47.642 83.1715 48.1555C82.9433 48.8402 81.2886 48.8402 81.2886 47.642C81.2886 46.2726 81.9733 45.4167 82.658 45.4167Z" fill="#222222"/>
<path id="Vector 319" d="M96.0106 11.5276C96.0106 11.8699 95.6683 15.4645 95.1548 17.1762" stroke="#222222" stroke-width="1.5" stroke-linecap="round" stroke-linejoin="round"/>
<path id="Vector 320" d="M88.1345 12.5527C87.7922 13.6939 87.4498 16.3185 88.8192 17.6879" stroke="#222222" stroke-width="1.5" stroke-linecap="round" stroke-linejoin="round"/>
<path id="Vector 321" d="M104.225 15.2927C103.427 16.4339 101.589 18.9558 100.631 19.9143" stroke="#222222" stroke-width="1.5" stroke-linecap="round" stroke-linejoin="round"/>
<path id="Vector 322" d="M178 85.9849C178 84.8438 177.624 82.0137 176.118 79.8228" stroke="#222222" stroke-width="1.5" stroke-linecap="round" stroke-linejoin="round"/>
<path id="Vector 323" d="M169.443 94.373C169.443 91.9195 169.204 86.0883 168.245 82.391C167.287 78.6937 165.792 77.1989 165.164 76.9136" stroke="#222222" stroke-width="1.5" stroke-linecap="round" stroke-linejoin="round"/>
<path id="Vector 324" d="M126.365 13.414C128.862 11.7998 133.978 10.4958 139.872 9.95715C142.573 9.71025 143.85 9.61188 149.941 9.21684C157.554 8.72304 161.729 10.4498 163.693 11.4373C165.658 12.4248 174.008 17.1161 171.307 30.4486C168.605 43.7811 152.151 46.497 149.941 47.4846C147.731 48.4722 139.135 47.4846 133.978 49.4598C129.852 51.04 126.692 54.727 125.628 56.373L126.365 47.9798C124.891 47.9798 124.302 47.8797 122.927 47.4846C121.207 46.9908 114.577 45.2625 114.331 34.1521C114.086 23.0416 122.927 15.6361 126.365 13.414Z" fill="#06BB9B"/>
<path id="Vector 325" d="M36.2689 154.796L35.0707 161.129" stroke="#222222" stroke-width="1.5" stroke-linecap="round" stroke-linejoin="round"/>
<path id="Vector 326" d="M97.5476 112.687C97.7188 113.029 97.9584 113.919 97.5476 114.741" stroke="#222222" stroke-width="1.5" stroke-linecap="round" stroke-linejoin="round"/>
<path id="Vector 327" d="M94.2962 113.202C94.4674 113.487 94.6386 114.263 93.9539 115.085" stroke="#222222" stroke-width="1.5" stroke-linecap="round" stroke-linejoin="round"/>
<path id="Vector 328" d="M90.1884 113.202C90.3026 113.544 90.3596 114.503 89.6749 115.599" stroke="#222222" stroke-width="1.5" stroke-linecap="round" stroke-linejoin="round"/>
<path id="Vector 329" d="M82.4844 112.004C82.5985 112.404 82.6898 113.408 82.142 114.229" stroke="#222222" stroke-width="1.5" stroke-linecap="round" stroke-linejoin="round"/>
<path id="Vector 330" d="M86.2515 112.858C86.4227 113.143 86.5596 113.988 85.738 115.083" stroke="#222222" stroke-width="1.5" stroke-linecap="round" stroke-linejoin="round"/>
<path id="Vector 336" d="M90.5342 55.5189C90.0222 55.5189 89.2101 55.4813 88.309 55.3743M88.309 55.3743C87.1013 55.2308 86.2235 55.1006 85.0567 54.663C83.6874 54.1495 82.4892 53.4648 81.8045 52.9513C81.1198 52.4378 80.4351 52.4378 80.2639 52.9513C80.0928 53.4648 79.7504 57.0594 81.4621 58.5999C83.1738 60.1405 84.372 60.1405 85.0567 59.9693C85.7414 59.7981 86.964 59.2846 87.6243 57.7441C88.0351 56.7855 88.2519 55.7648 88.309 55.3743Z" stroke="#222222" stroke-width="1.5" stroke-linecap="round" stroke-linejoin="round"/>
<path id="Vector 337" d="M94.4708 100.193C95.0414 101.391 96.251 104.198 96.5248 105.841C96.8672 107.895 97.3807 109.094 97.2095 109.778C97.0384 110.463 94.1284 110.805 90.8761 110.634C88.2743 110.497 83.8581 109.778 81.9752 109.436C82.0894 108.466 82.1806 106.047 81.6329 104.13C80.9482 101.733 79.9212 99.3369 78.8942 97.9676C78.3132 97.1929 77.9242 96.5982 77.696 96.2559" stroke="#222222" stroke-width="1.5" stroke-linecap="round" stroke-linejoin="round"/>
<path id="Vector 338" d="M154.89 64.0746C154.376 63.7893 153.075 63.698 151.98 65.6151" stroke="#222222" stroke-width="1.5" stroke-linecap="round" stroke-linejoin="round"/>
<path id="Vector 339" d="M155.41 66.9856C156.037 67.2709 157.258 68.4919 157.121 71.0937C156.95 74.3459 156.436 75.8865 155.067 77.9405C154.367 78.991 153.355 79.8234 153.698 79.4811" stroke="#222222" stroke-width="1.5" stroke-linecap="round" stroke-linejoin="round"/>
<path id="Vector 340" d="M142.571 76.0568C141.943 75.5433 140.619 73.9686 140.345 71.7776C140.003 69.0388 140.688 67.3266 142.399 66.9848C143.769 66.7114 145.595 67.3277 146.165 68.183C146.508 68.6964 147.364 69.8945 146.679 70.9215C146.141 71.7272 145.366 71.7776 145.138 71.7776" stroke="#222222" stroke-width="1.5" stroke-linecap="round" stroke-linejoin="round"/>
<path id="Vector 341" d="M151.47 61.3362C151.014 61.6215 149.861 62.5001 148.903 63.7326" stroke="#222222" stroke-width="1.5" stroke-linecap="round" stroke-linejoin="round"/>
<path id="Vector 342" d="M146.846 54.3179C146.561 55.2878 145.922 58.0152 145.648 61.1647" stroke="#222222" stroke-width="1.5" stroke-linecap="round" stroke-linejoin="round"/>
<path id="Vector 343" d="M117.579 145.04C119.062 146.409 123.536 148.908 129.561 147.949C137.092 146.751 146.336 142.301 150.786 133.742C155.236 125.184 158.831 103.274 159.858 97.1118C160.885 90.9496 160.2 87.5262 159.002 85.9857C158.044 84.7532 156.092 83.4181 155.236 82.9046C155.75 82.277 156.298 80.7821 154.381 79.8235C151.984 78.6253 150.786 79.4812 147.363 78.283C144.624 77.3244 144.053 76.6854 143.768 76.5713" stroke="#222222" stroke-width="1.5" stroke-linecap="round" stroke-linejoin="round"/>
<path id="Vector 344" d="M120.997 118.508C121.169 117.195 121.853 113.954 123.223 111.49C124.934 108.408 127.673 100.706 129.042 95.913C130.412 91.1202 131.268 85.6428 134.691 81.5347C136.498 79.366 138.114 78.853 138.457 78.6248" stroke="#222222" stroke-width="1.5" stroke-linecap="round" stroke-linejoin="round"/>
<path id="Vector 345" d="M107.477 128.949C107.078 129.348 106.108 130.181 105.423 130.318" stroke="#222222" stroke-width="1.5" stroke-linecap="round" stroke-linejoin="round"/>
<path id="Vector 346" d="M107.135 134.084C106.792 134.313 105.902 134.838 105.081 135.111" stroke="#222222" stroke-width="1.5" stroke-linecap="round" stroke-linejoin="round"/>
<path id="Vector 347" d="M107.309 123.643C107.195 123.986 106.419 124.807 104.228 125.355C101.49 126.04 99.6066 126.211 98.922 126.553" stroke="#222222" stroke-width="1.5" stroke-linecap="round" stroke-linejoin="round"/>
<path id="Vector 348" d="M94.8091 123.13C94.0673 123.758 92.4127 125.389 91.728 126.896C91.0433 128.402 90.5298 130.262 90.3586 131.004" stroke="#222222" stroke-width="1.5" stroke-linecap="round" stroke-linejoin="round"/>
<path id="Vector 349" d="M48.598 123.13C51.1085 124.442 58.5943 126.896 68.4538 126.211C80.778 125.355 85.5708 126.553 86.769 127.58C87.7276 128.402 88.3096 130.433 88.4807 131.346C88.9372 131.004 90.124 130.524 91.2195 131.346C92.5888 132.373 94.9852 135.968 95.1564 139.562C95.2933 142.438 95.2134 143.842 95.1564 144.184C96.9822 143.499 101.045 141.924 102.688 141.103C104.331 140.281 105.541 139.505 105.94 139.22" stroke="#222222" stroke-width="1.5" stroke-linecap="round" stroke-linejoin="round"/>
<path id="Vector 350" d="M54.9302 78.9672C53.9602 78.1113 51.3356 76.5023 48.5969 76.9131C45.1734 77.4266 40.3807 78.2827 34.732 87.1836C29.0834 96.0845 23.4348 106.012 22.0654 125.697C20.696 145.382 30.7951 152.742 35.2455 154.283C39.696 155.823 49.9662 160.958 68.795 158.219C82.831 156.178 88.4796 152.057 89.849 151.201C90.9445 150.517 92.9301 148.463 92.9301 146.751" stroke="#222222" stroke-width="1.5" stroke-linecap="round" stroke-linejoin="round"/>
<path id="Vector 351" d="M98.9192 82.0502C99.718 81.7649 102 81.3655 104.739 82.0502C108.162 82.906 110.045 86.5003 111.415 89.2391C112.51 91.4301 119.174 106.014 122.37 113.032" stroke="#222222" stroke-width="1.5" stroke-linecap="round" stroke-linejoin="round"/>
<path id="Vector 352" d="M58.5204 87.1837C60.7456 88.9524 66.5997 92.935 72.2141 94.7152C79.2321 96.9404 86.5924 97.4539 89.16 97.4539C91.7275 97.4539 96.5203 97.4539 97.5473 96.0846C98.5744 94.7152 98.2981 93.8145 97.8897 91.9765C97.5473 90.4359 97.5472 87.8684 98.0608 85.472C98.5743 83.0756 99.4301 82.0486 98.7454 80.1657C98.1977 78.6594 96.6914 78.6251 96.0068 78.7963" stroke="#222222" stroke-width="1.5" stroke-linecap="round" stroke-linejoin="round"/>
<path id="Vector 353" d="M62.9736 67.3257C62.6883 66.9834 62.1178 66.4697 61.4331 66.8122C60.7481 67.1549 59.7214 67.839 58.8655 72.6318C58.1809 76.466 57.4391 78.2234 57.1538 78.6228" stroke="#222222" stroke-width="1.5" stroke-linecap="round" stroke-linejoin="round"/>
<path id="Vector 354" d="M93.6111 82.2187C91.2718 82.1046 85.0183 81.3971 78.7192 79.48C72.4202 77.5629 67.7643 74.6872 66.2238 73.489" stroke="#222222" stroke-width="1.5" stroke-linecap="round" stroke-linejoin="round"/>
<path id="Vector 355" d="M95.84 36.8599C93.2726 38.4004 91.6162 37.8869 91.6162 37.8869C91.7873 38.4575 92.5879 40.4544 93.2726 41.8238C94.1284 43.5355 96.6958 47.986 100.462 50.7247C102.766 52.4006 102.345 52.8051 102.002 53.1211C101.261 53.8058 99.0924 54.8328 97.3807 55.3463C96.7249 55.543 96.696 55.5175 96.3537 56.5445C96.0113 57.5715 95.4978 66.4724 93.9573 73.4904C92.7249 79.1048 91.7321 81.6495 91.3897 82.2201" stroke="#222222" stroke-width="1.5" stroke-linecap="round" stroke-linejoin="round"/>
<path id="Vector 356" d="M67.5932 33.4361C67.365 32.352 67.4563 29.8073 69.6472 28.301C72.386 26.4181 77.0076 24.364 84.8814 24.7064C91.1805 24.9802 93.0976 25.6191 93.2688 25.9043" stroke="#222222" stroke-width="1.5" stroke-linecap="round" stroke-linejoin="round"/>
<path id="Vector 357" d="M94.4703 31.895C92.9869 32.865 89.0271 34.8734 85.0559 35.1473C80.092 35.4896 76.3262 35.1473 76.1551 35.6608C76.0181 36.0716 75.071 41.1953 74.6145 43.7058C74.6145 42.6217 74.0668 40.4193 71.8758 40.2824C69.1371 40.1112 67.4254 42.3364 67.4254 44.7328C67.4254 47.1292 69.9929 50.2103 70.6776 50.7238C71.3623 51.2373 71.8758 51.2373 71.8758 52.4355C71.8758 53.6337 68.4524 59.4535 67.9389 59.967C67.4254 60.4805 66.7407 60.6517 65.7137 59.4535C64.6866 58.2553 60.5785 51.4085 59.5515 48.3274C58.5245 45.2463 58.3533 41.4806 59.5515 39.0842C60.4176 37.3521 63.1461 35.1473 64.1731 35.1473C65.2001 35.1473 64.1731 34.6338 64.1731 33.2644C64.1731 32.1689 64.1731 32.1232 64.1731 32.2374" stroke="#222222" stroke-width="1.5" stroke-linecap="round" stroke-linejoin="round"/>
<circle id="Ellipse 462" cx="1.02702" cy="1.02702" r="1.02702" transform="matrix(-1 0 0 1 78.3798 48.499)" fill="#DBE3EF"/>
<g id="Group">
<path id="Vector" d="M145.887 31.6333L146.165 30.5806C146.437 29.5519 146.878 29.0927 147.771 28.5314L150.619 26.7553C152.104 25.8286 152.658 25.3428 152.889 24.4694C153.276 23.0051 152.196 21.7295 150.305 21.2294C148.449 20.7384 147.025 21.2954 146.212 22.7581C146.138 22.9035 145.985 22.9459 145.793 22.8675L143.78 22.032C143.586 21.9532 143.515 21.8247 143.589 21.6785C144.74 19.3444 147.455 18.3311 150.904 19.2434C154.484 20.1905 156.421 22.6541 155.748 25.1981C155.422 26.4314 154.621 27.1823 153.175 28.0911L150.328 29.8674C149.482 30.3855 149.187 30.6919 148.956 31.5653L148.738 32.3877C148.697 32.5419 148.538 32.6095 148.339 32.5568L146.151 31.9779C145.951 31.9251 145.846 31.7875 145.887 31.6333ZM145.068 34.0568C145.109 33.9026 145.268 33.835 145.468 33.8879L147.988 34.5544C148.187 34.607 148.292 34.7452 148.251 34.8988L147.667 37.1074C147.626 37.2621 147.466 37.329 147.268 37.2766L144.748 36.61C144.548 36.557 144.443 36.4195 144.484 36.2653L145.068 34.0568Z" fill="white"/>
</g>
<g id="Group_2">
<path id="Vector_2" d="M133.679 33.9388L133.539 33.0459C133.403 32.1733 133.584 31.6774 134.076 30.9525L135.648 28.6525C136.467 27.4526 136.726 26.8988 136.61 26.1579C136.416 24.9159 135.169 24.307 133.565 24.5578C131.991 24.804 131.094 25.7027 130.965 27.0855C130.957 27.2207 130.855 27.304 130.683 27.3085L128.874 27.3452C128.701 27.3499 128.604 27.276 128.611 27.1404C128.707 24.9826 130.432 23.3064 133.357 22.8489C136.394 22.374 138.688 23.5997 139.026 25.7576C139.189 26.8037 138.831 27.6416 138.036 28.8149L136.465 31.1148C135.995 31.7909 135.873 32.1221 135.989 32.8629L136.098 33.5605C136.118 33.6913 136.02 33.7959 135.851 33.8223L133.995 34.1126C133.825 34.139 133.7 34.0696 133.679 33.9388ZM133.866 36.0536C133.845 35.9228 133.944 35.8183 134.113 35.7918L136.251 35.4575C136.419 35.4311 136.545 35.5011 136.566 35.6314L136.859 37.5047C136.879 37.636 136.78 37.7403 136.612 37.7666L134.475 38.1008C134.305 38.1274 134.179 38.0577 134.159 37.927L133.866 36.0536Z" fill="white"/>
</g>
</g>
</svg>
