<svg width="140" height="140" viewBox="0 0 140 140" fill="none" xmlns="http://www.w3.org/2000/svg">
<path d="M101.172 100.078C104.192 100.078 106.641 97.6297 106.641 94.6094C106.641 91.5891 104.192 89.1406 101.172 89.1406C98.1516 89.1406 95.7031 91.5891 95.7031 94.6094C95.7031 97.6297 98.1516 100.078 101.172 100.078Z" fill="#8F9BB3"/>
<path d="M125.781 98.9844C128.802 98.9844 131.25 96.536 131.25 93.5156V73.2812C131.25 61.2194 121.437 51.4062 109.375 51.4062H102.802V32.1196C102.802 14.4088 88.0827 0 69.9899 0C51.8971 0 37.1774 14.4088 37.1774 32.1196V51.4062H30.625C18.5631 51.4062 8.75 61.2194 8.75 73.2812V118.125C8.75 130.187 18.5631 140 30.625 140H109.375C121.437 140 131.25 130.187 131.25 118.125C131.25 115.105 128.802 112.656 125.781 112.656C122.761 112.656 120.312 115.105 120.312 118.125C120.312 124.156 115.406 129.062 109.375 129.062H30.625C24.5941 129.062 19.6875 124.156 19.6875 118.125V73.2812C19.6875 67.2503 24.5941 62.3438 30.625 62.3438H109.375C115.406 62.3438 120.312 67.2503 120.312 73.2812V93.5156C120.312 96.536 122.761 98.9844 125.781 98.9844ZM91.8649 51.4062H48.1149V32.1196C48.1149 20.4397 57.928 10.9375 69.9899 10.9375C82.0518 10.9375 91.8649 20.4397 91.8649 32.1196V51.4062Z" fill="#8F9BB3"/>
<path d="M59.8828 100.078C62.9031 100.078 65.3516 97.6297 65.3516 94.6094C65.3516 91.5891 62.9031 89.1406 59.8828 89.1406C56.8625 89.1406 54.4141 91.5891 54.4141 94.6094C54.4141 97.6297 56.8625 100.078 59.8828 100.078Z" fill="#8F9BB3"/>
<path d="M39.375 100.078C42.3953 100.078 44.8438 97.6297 44.8438 94.6094C44.8438 91.5891 42.3953 89.1406 39.375 89.1406C36.3547 89.1406 33.9062 91.5891 33.9062 94.6094C33.9062 97.6297 36.3547 100.078 39.375 100.078Z" fill="#8F9BB3"/>
<path d="M80.3906 100.078C83.4109 100.078 85.8594 97.6297 85.8594 94.6094C85.8594 91.5891 83.4109 89.1406 80.3906 89.1406C77.3703 89.1406 74.9219 91.5891 74.9219 94.6094C74.9219 97.6297 77.3703 100.078 80.3906 100.078Z" fill="#8F9BB3"/>
</svg>
