<?xml version="1.0" standalone="no"?>
<!DOCTYPE svg PUBLIC "-//W3C//DTD SVG 20010904//EN"
 "http://www.w3.org/TR/2001/REC-SVG-20010904/DTD/svg10.dtd">
<svg version="1.0" xmlns="http://www.w3.org/2000/svg"
 width="72.000000pt" height="72.000000pt" viewBox="0 0 72.000000 72.000000"
 preserveAspectRatio="xMidYMid meet">

<g transform="translate(0.000000,72.000000) scale(0.100000,-0.100000)"
fill="#000000" stroke="none">
<path d="M0 360 l0 -360 360 0 360 0 0 360 0 360 -360 0 -360 0 0 -360z m598
174 c19 -13 22 -24 22 -90 0 -43 -4 -74 -10 -74 -6 0 -10 28 -10 63 0 36 -5
68 -12 75 -17 17 -439 17 -456 0 -7 -7 -12 -39 -12 -75 0 -35 -4 -63 -10 -63
-6 0 -10 30 -10 70 0 112 -5 110 258 110 181 0 221 -3 240 -16z m-163 -68 c18
-8 38 -24 45 -35 10 -20 8 -21 -36 -21 -26 0 -64 5 -86 12 -32 9 -44 9 -73 -5
-19 -9 -35 -23 -35 -32 0 -11 -11 -15 -45 -15 -25 0 -45 2 -45 5 0 27 33 74
61 88 43 21 166 23 214 3z m123 -103 c3 -23 1 -23 -97 -23 l-101 0 0 25 0 26
98 -3 c92 -3 97 -4 100 -25z m-438 -77 c0 -98 -6 -96 236 -96 123 0 213 4 225
10 16 9 19 22 19 80 0 40 4 70 10 70 11 0 14 -129 2 -146 -19 -29 -56 -34
-255 -34 -192 0 -206 1 -231 21 -24 19 -26 27 -26 90 0 39 4 69 10 69 6 0 10
-28 10 -64z m135 45 c9 -28 67 -46 107 -32 17 6 53 11 80 11 46 0 48 -1 38
-21 -17 -31 -71 -49 -150 -49 -95 0 -148 29 -163 88 -5 20 -2 22 38 22 34 0
45 -4 50 -19z"/>
</g>
</svg>
