<svg width="17" height="18" viewBox="0 0 17 18" fill="none" xmlns="http://www.w3.org/2000/svg">
<rect x="0.5" y="1" width="16" height="16" rx="8" fill="#066BD6"/>
<path d="M11.9983 8.99373C11.9986 8.86044 11.9405 8.73128 11.8341 8.62865L8.26453 5.20607C8.14335 5.08958 7.96921 5.01632 7.78044 5.00241C7.59166 4.98851 7.4037 5.03509 7.2579 5.13191C7.11211 5.22874 7.02043 5.36787 7.00302 5.51871C6.98562 5.66955 7.04392 5.81973 7.16509 5.93622L10.3634 8.99373L7.27932 12.0512C7.22002 12.1096 7.17573 12.1767 7.14901 12.2488C7.12229 12.3209 7.11365 12.3964 7.12361 12.4712C7.13356 12.5459 7.1619 12.6183 7.207 12.6843C7.2521 12.7503 7.31307 12.8085 7.38641 12.8555C7.45982 12.9078 7.54593 12.9473 7.63937 12.9718C7.7328 12.9962 7.83153 13.0049 7.92938 12.9974C8.02724 12.9899 8.1221 12.9663 8.20802 12.9282C8.29395 12.89 8.36908 12.8381 8.42873 12.7757L11.8769 9.3531C11.9666 9.24752 12.0093 9.12099 11.9983 8.99373Z" fill="white"/>
<rect x="0.5" y="1" width="16" height="16" rx="8" stroke="#066BD6"/>
</svg>
