<svg width="79" height="103" viewBox="0 0 79 103" fill="red" xmlns="http://www.w3.org/2000/svg">
    <path d="M75.0507 96.0692H68.9182L68.9175 85.1248C68.9175 74.1524 62.8978 64.065 51.9673 56.7214C50.5842 55.7913 49.7248 53.791 49.7248 51.5003C49.7248 49.2097 50.5842 47.2094 51.9666 46.2799C62.8978 38.9354 68.9175 28.8483 68.9182 17.8755V6.93083H75.0507C76.9644 6.93083 78.516 5.37889 78.516 3.46524C78.516 1.55159 76.964 0 75.0507 0H3.94949C2.03584 0 0.484253 1.55194 0.484253 3.46524C0.484253 5.37924 2.03619 6.93083 3.94949 6.93083H10.082V17.8752C10.082 28.8487 16.1014 38.9357 27.0319 46.2793C28.4153 47.209 29.2747 49.209 29.2747 51.5C29.2747 53.791 28.4153 55.791 27.0322 56.7204C16.1014 64.0646 10.082 74.1517 10.082 85.1245V96.0688H3.94949C2.03584 96.0688 0.484253 97.6208 0.484253 99.5344C0.484253 101.448 2.03619 103 3.94949 103H75.0507C76.9644 103 78.516 101.448 78.516 99.5344C78.516 97.6208 76.964 96.0692 75.0507 96.0692ZM17.0125 85.1245C17.0125 73.5326 25.712 65.9571 30.8977 62.4735C34.2211 60.2397 36.2051 56.1378 36.2051 51.5C36.2051 46.8622 34.2211 42.7606 30.8973 40.5265C25.712 37.0425 17.0125 29.467 17.0125 17.8752V6.93083H61.9877L61.987 17.8752C61.987 29.4667 53.2872 37.0425 48.1008 40.5272C44.7781 42.761 42.7944 46.8629 42.7944 51.5C42.7944 56.1371 44.7781 60.2387 48.1015 62.4735C53.2872 65.9578 61.987 73.5337 61.9877 85.1245V96.0688H60.8391C57.9902 85.3599 43.4512 73.7206 41.6343 72.3001C40.3803 71.3194 38.6192 71.32 37.3655 72.3001C35.5486 73.7203 21.0093 85.3599 18.1604 96.0688H17.0121V85.1245H17.0125ZM53.557 96.0692H25.4429C27.7262 90.7316 34.2457 83.9752 39.5001 79.5059C44.7548 83.9752 51.274 90.7316 53.557 96.0692Z" fill="#8F9BB3"/>
</svg>