<svg width="45" height="45" viewBox="0 0 45 45" fill="none" xmlns="http://www.w3.org/2000/svg">
<path fill-rule="evenodd" clip-rule="evenodd" d="M30.6211 26.3115C30.6211 24.5948 32.0177 23.1982 33.7343 23.1982C35.4509 23.1982 36.8475 24.5949 36.8475 26.3115C36.8475 28.0281 35.4509 29.4247 33.7343 29.4247C32.0177 29.4247 30.6211 28.028 30.6211 26.3115ZM31.8659 26.3109C31.8659 27.3408 32.704 28.1789 33.7338 28.1789C34.7636 28.1789 35.6017 27.3408 35.6017 26.3109C35.6017 25.2811 34.7636 24.443 33.7338 24.443C32.704 24.443 31.8659 25.2811 31.8659 26.3109Z" fill="#8F9BB3"/>
<path fill-rule="evenodd" clip-rule="evenodd" d="M11.9414 26.3115C11.9414 24.5948 13.338 23.1982 15.0546 23.1982C16.7713 23.1982 18.1678 24.5949 18.1678 26.3115C18.1678 28.0281 16.7712 29.4247 15.0546 29.4247C13.338 29.4247 11.9414 28.028 11.9414 26.3115ZM13.1862 26.3109C13.1862 27.3408 14.0243 28.1789 15.0541 28.1789C16.0839 28.1789 16.922 27.3408 16.922 26.3109C16.922 25.2811 16.0839 24.443 15.0541 24.443C14.0243 24.443 13.1862 25.2811 13.1862 26.3109Z" fill="#8F9BB3"/>
<path fill-rule="evenodd" clip-rule="evenodd" d="M40.4474 23.8989V20.4488C40.4474 20.2009 40.2952 19.9813 40.0689 19.9031L36.9456 18.8215C35.7695 16.752 34.1529 14.7825 30.5802 14.1322L30.5603 14.1288C23.963 13.1811 19.0095 14.7273 15.8293 18.7261C12.1526 18.7813 8.34641 19.9859 8.34641 22.1739V23.8989C8.04093 23.8989 7.79297 24.1565 7.79297 24.4739V26.774C7.79297 27.0914 8.04093 27.349 8.34641 27.349H10.5603C10.8657 27.349 11.1137 27.0914 11.1137 26.774C11.1137 24.5544 12.8516 22.7489 14.9879 22.7489C17.1243 22.7489 18.8622 24.5545 18.8622 26.774C18.8622 27.0914 19.1101 27.349 19.4156 27.349H29.378C29.6835 27.349 29.9314 27.0914 29.9314 26.774C29.9314 24.5544 31.6693 22.7489 33.8057 22.7489C35.9421 22.7489 37.6799 24.5545 37.6799 26.774C37.6799 27.0914 37.9279 27.349 38.2333 27.349H40.4472C40.7527 27.349 41.0006 27.0914 41.0006 26.774V24.4739C41.0009 24.1565 40.7529 23.8989 40.4474 23.8989ZM33.2791 16.3405C34.2404 16.9529 34.9567 17.7614 35.5782 18.7234H33.2575L33.2791 16.3405ZM30.4005 15.2668C29.055 15.0736 27.7958 14.9913 26.612 15.008V18.7238H32.1522L32.1793 15.7768C31.6524 15.5618 31.0668 15.3887 30.4005 15.2668ZM25.5038 15.0558V18.7227H17.3247C19.3764 16.5238 22.0817 15.3088 25.5038 15.0558ZM38.7572 26.2005H39.8946V25.0504C39.5891 25.0504 39.3411 24.7928 39.3411 24.4754V22.7504H38.7877C38.4822 22.7504 38.2342 22.4928 38.2342 22.1754C38.2342 21.858 38.4822 21.6004 38.7877 21.6004H39.3411V20.8649L36.4836 19.8753H16.0956C12.7604 19.8753 10.4696 20.7557 9.72077 21.6004H10.0074C10.3129 21.6004 10.5609 21.858 10.5609 22.1754C10.5609 22.4928 10.3129 22.7504 10.0074 22.7504H9.454V24.4754C9.454 24.7928 9.20604 25.0504 8.90056 25.0504V26.2005H10.0379C10.314 23.6163 12.4288 21.6003 14.9886 21.6003C17.5484 21.6003 19.6632 23.6163 19.9394 26.2005H28.8557C29.1318 23.6163 31.2466 21.6003 33.8064 21.6003C36.3662 21.6003 38.481 23.6163 38.7572 26.2005Z" fill="#8F9BB3"/>
<path fill-rule="evenodd" clip-rule="evenodd" d="M1.40625 16.8515C1.40625 16.3224 1.69216 15.8936 2.04486 15.8936C2.39755 15.8936 2.68347 16.3224 2.68347 16.8515V27.7078C2.68347 28.2369 2.39755 28.6657 2.04486 28.6657C1.69216 28.6657 1.40625 28.2369 1.40625 27.7078V16.8515Z" fill="#8F9BB3"/>
<path fill-rule="evenodd" clip-rule="evenodd" d="M3.96094 19.7265C3.96094 19.3738 4.24971 19.0879 4.60593 19.0879H7.1476C7.50382 19.0879 7.79259 19.3738 7.79259 19.7265C7.79259 20.0792 7.50382 20.3651 7.1476 20.3651H4.60593C4.24971 20.3651 3.96094 20.0792 3.96094 19.7265Z" fill="#8F9BB3"/>
<path fill-rule="evenodd" clip-rule="evenodd" d="M4.19135 16.5878C4.0641 16.2551 4.23066 15.8822 4.56337 15.7549L6.93732 14.847C7.27004 14.7197 7.64291 14.8863 7.77017 15.219C7.89743 15.5517 7.73087 15.9246 7.39815 16.0518L5.0242 16.9598C4.69149 17.0871 4.31861 16.9205 4.19135 16.5878Z" fill="#8F9BB3"/>
<path fill-rule="evenodd" clip-rule="evenodd" d="M3.10318 13.7653C2.87145 13.4947 2.90291 13.0875 3.17346 12.8558L5.10381 11.2024C5.37435 10.9707 5.78152 11.0021 6.01326 11.2727C6.24499 11.5432 6.21352 11.9504 5.94298 12.1821L4.01263 13.8355C3.74209 14.0673 3.33491 14.0358 3.10318 13.7653Z" fill="#8F9BB3"/>
</svg>
