<svg width="45" height="45" viewBox="0 0 45 45" fill="none" xmlns="http://www.w3.org/2000/svg">
<path fill-rule="evenodd" clip-rule="evenodd" d="M20.2209 10.1402C21.0596 9.29456 22.0772 9 22.7905 9H30.4682C31.8789 9 32.7851 9.68633 33.3171 10.5314C33.8341 11.3525 34 12.3187 34 12.9637V28.2937H33.0787V12.9637C33.0787 12.4379 32.9375 11.6481 32.5331 11.0057C32.1438 10.3875 31.5145 9.90311 30.4682 9.90311H22.7905C22.3095 9.90311 21.5356 10.1103 20.8815 10.7698C20.2358 11.4208 19.6682 12.5529 19.6682 14.4689V14.9204H16.8602L14.0379 18.148V34.0363C14.0379 34.5621 14.1791 35.3519 14.5835 35.9942C14.9727 36.6125 15.6021 37.0969 16.6483 37.0969H30.4682C30.8904 37.0969 31.5478 36.9478 32.0914 36.5003C32.617 36.0675 33.0787 35.3212 33.0787 34.0363V28.2937H34V34.0363C34 35.5612 33.438 36.5709 32.684 37.1918C31.9479 37.7979 31.0698 38 30.4682 38H16.6483C15.2377 38 14.3315 37.3137 13.7994 36.4685C13.2825 35.6475 13.1166 34.6813 13.1166 34.0363V18.198L11.5571 16.9751C10.9016 16.4611 10.8111 15.5168 11.3574 14.892L13.0953 12.9046C13.6161 12.309 14.5247 12.2253 15.1496 12.7153L16.8099 14.0173H18.7569C18.8403 12.1712 19.436 10.9316 20.2209 10.1402ZM15.9884 14.5297L14.574 13.4205C14.337 13.2346 13.9924 13.2664 13.7948 13.4923L12.0569 15.4798C11.8497 15.7168 11.884 16.0749 12.1327 16.2699L13.5173 17.3557L15.9884 14.5297ZM24.5169 12.4118L22.8789 14.0173H30.0076V12.4118H24.5169ZM23.9703 11.6703C24.0759 11.5668 24.2191 11.5087 24.3685 11.5087H30.3659C30.6768 11.5087 30.9289 11.7557 30.9289 12.0606V14.9204H22.2611C21.6683 14.9204 21.3714 14.2179 21.7906 13.807L23.9703 11.6703ZM24.2247 28.0156L29.4237 23.1409C29.61 22.9663 29.6165 22.6728 29.4382 22.49C29.2648 22.3124 28.9812 22.3061 28.8002 22.4759L23.5583 27.3907L18.3164 22.4759C18.1353 22.3061 17.8517 22.3124 17.6784 22.49C17.5001 22.6728 17.5066 22.9663 17.6928 23.1409L22.8918 28.0156L17.6928 32.8902C17.5066 33.0648 17.5001 33.3584 17.6784 33.5411C17.8517 33.7188 18.1353 33.7251 18.3164 33.5553L23.5583 28.6404L28.8002 33.5553C28.9812 33.7251 29.2648 33.7188 29.4382 33.5411C29.6165 33.3584 29.61 33.0648 29.4237 32.8902L24.2247 28.0156Z" fill="#8F9BB3"/>
<path d="M34 28.2937H33.0787M34 28.2937V12.9637C34 12.3187 33.8341 11.3525 33.3171 10.5314C32.7851 9.68633 31.8789 9 30.4682 9H22.7905C22.0772 9 21.0596 9.29456 20.2209 10.1402C19.436 10.9316 18.8403 12.1712 18.7569 14.0173H16.8099L15.1496 12.7153C14.5247 12.2253 13.6161 12.309 13.0953 12.9046L11.3574 14.892C10.8111 15.5168 10.9016 16.4611 11.5571 16.9751L13.1166 18.198V34.0363C13.1166 34.6813 13.2825 35.6475 13.7994 36.4685C14.3315 37.3137 15.2377 38 16.6483 38H30.4682C31.0698 38 31.9479 37.7979 32.684 37.1918C33.438 36.5709 34 35.5612 34 34.0363V28.2937ZM33.0787 28.2937V12.9637C33.0787 12.4379 32.9375 11.6481 32.5331 11.0057C32.1438 10.3875 31.5145 9.90311 30.4682 9.90311H22.7905C22.3095 9.90311 21.5356 10.1103 20.8815 10.7698C20.2358 11.4208 19.6682 12.5529 19.6682 14.4689V14.9204H16.8602L14.0379 18.148V34.0363C14.0379 34.5621 14.1791 35.3519 14.5835 35.9943C14.9727 36.6125 15.6021 37.0969 16.6483 37.0969H30.4682C30.8904 37.0969 31.5478 36.9478 32.0914 36.5003C32.617 36.0675 33.0787 35.3212 33.0787 34.0363V28.2937ZM14.574 13.4205L15.9884 14.5297L13.5173 17.3557L12.1327 16.2699C11.884 16.0749 11.8497 15.7168 12.0569 15.4798L13.7948 13.4923C13.9924 13.2664 14.337 13.2346 14.574 13.4205ZM22.8789 14.0173L24.5169 12.4118H30.0076V14.0173H22.8789ZM24.3685 11.5087C24.2191 11.5087 24.0759 11.5668 23.9703 11.6703L21.7906 13.807C21.3714 14.2179 21.6683 14.9204 22.2611 14.9204H30.9289V12.0606C30.9289 11.7557 30.6768 11.5087 30.3659 11.5087H24.3685ZM24.2247 28.0156L29.4237 32.8902C29.61 33.0648 29.6165 33.3584 29.4382 33.5411V33.5411C29.2648 33.7188 28.9812 33.7251 28.8002 33.5553L23.5583 28.6404L18.3164 33.5553C18.1353 33.7251 17.8517 33.7188 17.6784 33.5411V33.5411C17.5001 33.3584 17.5066 33.0648 17.6928 32.8902L22.8918 28.0156L17.6928 23.1409C17.5066 22.9663 17.5001 22.6728 17.6784 22.49V22.49C17.8517 22.3124 18.1353 22.3061 18.3164 22.4759L23.5583 27.3907L28.8002 22.4759C28.9812 22.3061 29.2648 22.3124 29.4382 22.49V22.49C29.6165 22.6728 29.61 22.9663 29.4237 23.1409L24.2247 28.0156Z" stroke="#8F9BB3" stroke-width="0.4"/>
</svg>
