<svg width="45" height="45" viewBox="0 0 45 45" fill="none" xmlns="http://www.w3.org/2000/svg">
<path d="M37 21.917C37 29.649 30.732 35.917 23 35.917C15.268 35.917 9 29.649 9 21.917C9 14.185 15.268 7.91699 23 7.91699C30.732 7.91699 37 14.185 37 21.917Z" fill="white"/>
<path fill-rule="evenodd" clip-rule="evenodd" d="M23 35.684C29.9588 35.684 35.6 30.0428 35.6 23.084C35.6 16.1252 29.9588 10.484 23 10.484C16.0412 10.484 10.4 16.1252 10.4 23.084C10.4 30.0428 16.0412 35.684 23 35.684ZM23 37.084C30.732 37.084 37 30.816 37 23.084C37 15.352 30.732 9.08398 23 9.08398C15.268 9.08398 9 15.352 9 23.084C9 30.816 15.268 37.084 23 37.084Z" fill="#8F9BB3"/>
<path fill-rule="evenodd" clip-rule="evenodd" d="M22.3945 16.0339C22.3945 15.6344 22.7184 15.3105 23.1179 15.3105C23.5173 15.3105 23.8412 15.6344 23.8412 16.0339V25.1339C23.8412 25.5334 23.5174 25.8572 23.1179 25.8572C22.7184 25.8572 22.3945 25.5334 22.3945 25.1339V16.0339Z" fill="#8F9BB3"/>
<path fill-rule="evenodd" clip-rule="evenodd" d="M22.3945 25.3679C22.3945 24.9684 22.7184 24.6445 23.1179 24.6445H29.8845C30.284 24.6445 30.6079 24.9684 30.6079 25.3679C30.6079 25.7674 30.284 26.0912 29.8845 26.0912H23.1179C22.7184 26.0912 22.3945 25.7673 22.3945 25.3679Z" fill="#8F9BB3"/>
</svg>
