<svg width="45" height="45" viewBox="0 0 45 45" fill="none" xmlns="http://www.w3.org/2000/svg">
<path fill-rule="evenodd" clip-rule="evenodd" d="M27.7719 26.4819C31.9861 24.1243 33.4912 18.7967 31.1335 14.5824C28.7758 10.3682 23.4482 8.86312 19.234 11.2208C15.0197 13.5785 13.5147 18.9061 15.8724 23.1203C17.4056 25.861 20.195 27.4558 23.1174 27.5876C24.6886 27.6584 26.2983 27.3063 27.7719 26.4819ZM28.2462 27.3298C32.9287 24.7101 34.601 18.7906 31.9813 14.1081C29.3617 9.4256 23.4422 7.75331 18.7597 10.3729C14.0772 12.9926 12.4049 18.9121 15.0245 23.5946C17.6441 28.2771 23.5637 29.9494 28.2462 27.3298Z" fill="#066BD6"/>
<path fill-rule="evenodd" clip-rule="evenodd" d="M18.8566 10.551C14.2727 13.1155 12.6356 18.9104 15.2001 23.4943C17.7646 28.0782 23.5595 29.7153 28.1434 27.1508C32.7274 24.5863 34.3644 18.7914 31.8 14.2075C29.2355 9.62357 23.4405 7.98649 18.8566 10.551ZM14.8431 23.694C12.1683 18.9129 13.8758 12.8688 18.6569 10.194C23.438 7.5192 29.4822 9.22669 32.1569 14.0078C34.8317 18.7889 33.1242 24.833 28.3432 27.5078C23.5621 30.1826 17.5179 28.4751 14.8431 23.694ZM19.331 11.3988C15.2153 13.7013 13.7454 18.9043 16.048 23.02C17.5453 25.6964 20.2691 27.2541 23.1237 27.3828C24.658 27.452 26.2297 27.1082 27.6691 26.303C31.7848 24.0005 33.2546 18.7975 30.9521 14.6818C28.6496 10.5661 23.4466 9.0963 19.331 11.3988ZM15.691 23.2197C13.2781 18.9069 14.8184 13.4546 19.1312 11.0418C23.4441 8.62901 28.8963 10.1693 31.3091 14.4821C33.7219 18.7949 32.1817 24.2471 27.8688 26.66C26.3611 27.5035 24.7135 27.864 23.1053 27.7915C20.1152 27.6566 17.2602 26.0247 15.691 23.2197Z" fill="#066BD6"/>
<path fill-rule="evenodd" clip-rule="evenodd" d="M30.1434 37.2129L24.9805 27.9844L26.0514 27.3852L31.2144 36.6138C31.2978 36.7629 31.4816 37.0618 31.8242 37.1354C32.0827 37.191 32.4427 37.1615 32.8572 37.0263C33.2645 36.8933 33.6787 36.6727 34.0262 36.4046C34.3784 36.1327 34.6269 35.8395 34.7484 35.5791C34.8633 35.3329 34.8509 35.1585 34.7705 35.0149L29.6076 25.7863L30.6786 25.1872L35.8415 34.4158C36.161 34.9869 36.0974 35.5903 35.8604 36.0981C35.6301 36.5917 35.2261 37.0286 34.7759 37.3761C34.3209 37.7272 33.7825 38.0151 33.2378 38.1929C32.7003 38.3683 32.1086 38.4517 31.5665 38.3352C30.6607 38.1406 30.2444 37.3941 30.1484 37.2219C30.1467 37.2187 30.145 37.2157 30.1434 37.2129C30.1434 37.2129 30.1434 37.2129 30.1434 37.2129Z" fill="#066BD6"/>
</svg>