<svg width="85" height="85" viewBox="0 0 85 85" fill="none" xmlns="http://www.w3.org/2000/svg">
<path d="M42.5 85C50.9057 85 59.1226 82.5074 66.1117 77.8375C73.1008 73.1675 78.5481 66.5299 81.7649 58.764C84.9816 50.9982 85.8232 42.4529 84.1834 34.2087C82.5435 25.9645 78.4958 18.3917 72.552 12.448C66.6083 6.50425 59.0355 2.45652 50.7913 0.816645C42.5471 -0.823227 34.0018 0.0184148 26.2359 3.23514C18.4701 6.45186 11.8325 11.8992 7.16254 18.8883C2.49258 25.8774 0 34.0943 0 42.5C0.0128907 53.7678 4.49469 64.5703 12.4622 72.5378C20.4297 80.5053 31.2322 84.9871 42.5 85ZM42.5 8.50002C49.2246 8.50002 55.7981 10.4941 61.3894 14.23C66.9806 17.966 71.3385 23.2761 73.9119 29.4888C76.4853 35.7015 77.1586 42.5377 75.8467 49.1331C74.5348 55.7284 71.2966 61.7867 66.5416 66.5416C61.7866 71.2966 55.7284 74.5348 49.1331 75.8467C42.5377 77.1586 35.7014 76.4853 29.4888 73.9119C23.2761 71.3385 17.966 66.9807 14.23 61.3894C10.4941 55.7981 8.5 49.2246 8.5 42.5C8.51031 33.4858 12.0958 24.8438 18.4698 18.4698C24.8438 12.0958 33.4858 8.51033 42.5 8.50002Z" fill="#CDF1EB"/>
<path d="M42.5 8.50002C49.2246 8.50002 55.7981 10.4941 61.3894 14.23C66.9806 17.966 71.3385 23.2761 73.9119 29.4888C76.4853 35.7015 77.1586 42.5377 75.8467 49.1331C74.5348 55.7284 71.2966 61.7867 66.5416 66.5416C61.7866 71.2966 55.7284 74.5348 49.1331 75.8467C42.5377 77.1586 35.7014 76.4853 29.4888 73.9119C23.2761 71.3385 17.966 66.9807 14.23 61.3894C10.4941 55.7981 8.5 49.2246 8.5 42.5C8.51031 33.4858 12.0958 24.8438 18.4698 18.4698C24.8438 12.0958 33.4858 8.51033 42.5 8.50002Z" fill="#CDF1EB"/>
<path fill-rule="evenodd" clip-rule="evenodd" d="M40.0929 50.3944C39.4877 49.8586 39.4448 48.9414 39.9972 48.3458L56.0134 31.0775C56.5658 30.4819 57.5043 30.4334 58.1096 30.9692C58.7149 31.505 58.7577 32.4222 58.2053 33.0178L42.1891 50.2861C41.6367 50.8817 40.6982 50.9302 40.0929 50.3944Z" fill="#06BB9B"/>
<path fill-rule="evenodd" clip-rule="evenodd" d="M29.1419 40.2456C29.6973 39.6566 30.6365 39.6187 31.2396 40.1611L41.2247 49.14C41.8278 49.6824 41.8665 50.5996 41.3112 51.1886C40.7558 51.7776 39.8166 51.8154 39.2134 51.273L29.2284 42.2941C28.6252 41.7517 28.5865 40.8346 29.1419 40.2456Z" fill="#06BB9B"/>
</svg>
