<svg width="45" height="45" viewBox="0 0 45 45" fill="none" xmlns="http://www.w3.org/2000/svg">
<path fill-rule="evenodd" clip-rule="evenodd" d="M21.6881 8.33089V6.39778C21.6881 5.95373 22.0197 5.59375 22.4288 5.59375C22.8379 5.59375 23.1696 5.95373 23.1696 6.39778V8.33089H24.6353C25.6942 8.33089 26.4884 8.66566 27.0587 9.20153C27.6234 9.73212 27.9334 10.4266 28.0856 11.0857C28.2984 12.0071 27.5599 12.6761 26.8418 12.6761H25.7479C25.5129 12.6761 25.3224 12.4693 25.3224 12.2142C25.3224 11.9591 25.5129 11.7523 25.7479 11.7523H26.8418C26.9884 11.7523 27.1136 11.6863 27.1888 11.5982C27.2589 11.5162 27.2853 11.4196 27.2601 11.3104C27.1385 10.7838 26.9014 10.2756 26.5017 9.89997C26.1076 9.52966 25.52 9.25467 24.6353 9.25467H19.5919C19.1053 9.25467 18.6642 9.36885 18.3203 9.65123C17.984 9.92734 17.6865 10.4087 17.5597 11.2638C17.5262 11.4894 17.7033 11.7523 18.0158 11.7523H25.8858C26.1209 11.7523 26.3114 11.9591 26.3114 12.2142C26.3114 12.4693 26.1209 12.6761 25.8858 12.6761H18.0158C17.2839 12.6761 16.5869 12.0108 16.7194 11.117C16.8729 10.0821 17.2586 9.3647 17.8069 8.91449C18.3475 8.47055 18.9925 8.33089 19.5919 8.33089H21.6881Z" fill="#8F9BB3"/>
<path d="M25.7479 12.6761H25.8858C26.1209 12.6761 26.3114 12.4693 26.3114 12.2142C26.3114 11.9591 26.1209 11.7523 25.8858 11.7523H25.7479C25.5129 11.7523 25.3224 11.9591 25.3224 12.2142C25.3224 12.4693 25.5129 12.6761 25.7479 12.6761Z" fill="#8F9BB3"/>
<path fill-rule="evenodd" clip-rule="evenodd" d="M22.4282 5.7242C22.0855 5.7242 21.8078 6.02569 21.8078 6.39758V8.46134H19.5912C19.0077 8.46134 18.3916 8.59742 17.8788 9.01849C17.3605 9.44405 16.9873 10.128 16.8376 11.1375C16.7194 11.9349 17.3406 12.5452 18.0152 12.5452H25.8852C26.0537 12.5452 26.1903 12.3969 26.1903 12.214C26.1903 12.0311 26.0537 11.8828 25.8852 11.8828H18.0152C17.6373 11.8828 17.3936 11.557 17.4402 11.2428C17.5708 10.3623 17.8808 9.84752 18.247 9.54683C18.6187 9.24162 19.0886 9.12381 19.5912 9.12381H24.6346C25.544 9.12381 26.1608 9.40727 26.5798 9.80098C27.0029 10.1985 27.2502 10.733 27.3762 11.2784C27.4121 11.4339 27.3718 11.5752 27.2764 11.6869C27.1777 11.8024 27.0202 11.8828 26.8411 11.8828H25.7472C25.5787 11.8828 25.4421 12.0311 25.4421 12.214C25.4421 12.3969 25.5787 12.5452 25.7472 12.5452H26.8411C27.1676 12.5452 27.5002 12.3923 27.7249 12.1361C27.9469 11.8832 28.0637 11.5307 27.9682 11.1173C27.8203 10.4768 27.5206 9.80877 26.9793 9.30012C26.4339 8.78767 25.6689 8.46134 24.6346 8.46134H23.0485V6.39758C23.0485 6.02569 22.7708 5.7242 22.4282 5.7242Z" fill="#8F9BB3"/>
<path fill-rule="evenodd" clip-rule="evenodd" d="M18.0152 11.8828H25.7472H25.8852H26.8411C27.0202 11.8828 27.1777 11.8024 27.2764 11.6869C27.3718 11.5752 27.4121 11.4339 27.3762 11.2784C27.2502 10.733 27.0029 10.1985 26.5798 9.80098C26.1608 9.40727 25.544 9.12381 24.6346 9.12381H19.5912C19.0886 9.12381 18.6187 9.24162 18.247 9.54683C17.8808 9.84752 17.5708 10.3623 17.4402 11.2428C17.3936 11.557 17.6373 11.8828 18.0152 11.8828ZM25.8852 11.6215H26.8411C26.9552 11.6215 27.0481 11.5698 27.0999 11.5092C27.1445 11.4569 27.1572 11.4049 27.1427 11.3419C27.0254 10.8341 26.7987 10.3523 26.4223 9.99855C26.0531 9.65163 25.4947 9.38513 24.6346 9.38513H19.5912C19.1206 9.38513 18.7084 9.49568 18.3923 9.75523C18.0859 10.0068 17.8009 10.4548 17.6779 11.2844C17.6576 11.4213 17.7679 11.6215 18.0152 11.6215H25.7472H25.8852Z" fill="#8F9BB3"/>
<path fill-rule="evenodd" clip-rule="evenodd" d="M22.4282 5.46289C21.9526 5.46289 21.567 5.88137 21.567 6.39758V8.20003H19.5912C18.9759 8.20003 18.3021 8.34328 17.7336 8.81009C17.1552 9.28495 16.7572 10.0358 16.5999 11.096C16.4531 12.0862 17.2259 12.8066 18.0152 12.8066H25.7472H25.8852H26.8411C27.2327 12.8066 27.6285 12.625 27.8993 12.3163C28.1729 12.0044 28.319 11.5617 28.2017 11.0538C28.0451 10.3758 27.7249 9.65507 27.1369 9.10255C26.5416 8.54324 25.7182 8.20003 24.6346 8.20003H23.2893V6.39758C23.2893 5.88137 22.9037 5.46289 22.4282 5.46289ZM21.8078 6.39758C21.8078 6.02569 22.0855 5.7242 22.4282 5.7242C22.7708 5.7242 23.0485 6.02569 23.0485 6.39758V8.46134H24.6346C25.6689 8.46134 26.4339 8.78767 26.9793 9.30012C27.5206 9.80877 27.8203 10.4768 27.9682 11.1173C28.0637 11.5307 27.9469 11.8832 27.7249 12.1361C27.5002 12.3923 27.1676 12.5452 26.8411 12.5452H25.8852H25.7472H18.0152C17.3406 12.5452 16.7194 11.9349 16.8376 11.1375C16.9873 10.128 17.3605 9.44405 17.8788 9.01849C18.3916 8.59742 19.0077 8.46134 19.5912 8.46134H21.8078V6.39758Z" fill="#8F9BB3"/>
<path fill-rule="evenodd" clip-rule="evenodd" d="M12.6995 25.4606C12.2333 25.5132 11.8418 25.6601 11.5301 25.9264C11.124 26.2732 10.9177 26.7672 10.8132 27.3154C10.71 27.8571 10.6974 28.4982 10.7121 29.1959C10.7194 29.5417 10.735 29.9366 10.7513 30.352C10.7667 30.7438 10.7829 31.1539 10.7935 31.5581C10.8147 32.3661 11.4187 33.0335 12.1786 33.0335H32.5103C33.267 33.0335 33.8852 32.3649 33.8763 31.5381C33.8624 30.2356 33.819 29.2149 33.7315 28.4179C33.6447 27.6269 33.511 27.0191 33.2963 26.5649C33.0714 26.0891 32.7595 25.7871 32.3543 25.6201C32.0967 25.514 31.8132 25.4679 31.517 25.4493C31.5148 24.5883 31.4989 23.7474 31.3866 22.9732C31.2536 22.0558 30.981 21.196 30.4114 20.4685C29.2743 19.0165 27.0866 18.2529 23.0539 18.2529H21.6355C17.3711 18.2529 15.0694 19.0148 13.8723 20.4587C13.2694 21.1858 12.9794 22.0477 12.838 22.9691C12.7183 23.7486 12.7018 24.5954 12.6995 25.4606ZM13.5508 25.4379H17.3801C17.9964 25.4379 19.1882 25.7604 19.8391 26.9787C20.0177 27.313 20.262 27.4908 20.4825 27.4908H23.9996C24.1378 27.4908 24.2954 27.4266 24.4696 27.2849C24.6428 27.144 24.8056 26.9475 24.9431 26.7412C25.3888 26.0726 26.1976 25.4379 27.3093 25.4379H30.6658C30.6633 24.5873 30.6473 23.8159 30.5459 23.1169C30.4278 22.3022 30.198 21.6224 29.7629 21.0668C28.8905 19.9528 27.0592 19.1767 23.0539 19.1767H22.7702V21.3322H23.6844C24.0935 21.3322 24.4251 21.6922 24.4251 22.1362C24.4251 22.5802 24.0935 22.9401 23.6844 22.9401H21.005C20.5959 22.9401 20.2643 22.5802 20.2643 22.1362C20.2643 21.6922 20.5959 21.3322 21.005 21.3322H21.9192V19.1767H21.6355C17.3891 19.1767 15.4354 19.9544 14.5049 21.0767C14.0439 21.6326 13.8019 22.3104 13.6775 23.121C13.5704 23.818 13.5535 24.5875 13.5508 25.4379ZM27.3093 26.3617C26.5191 26.3617 25.949 26.8082 25.6326 27.2827C25.464 27.5357 25.2437 27.8096 24.98 28.0242C24.7171 28.238 24.3836 28.4146 23.9996 28.4146H20.4825C19.8352 28.4146 19.3596 27.9227 19.1029 27.4422C18.6541 26.6022 17.8078 26.3617 17.3801 26.3617H13.1247C12.5721 26.3617 12.2526 26.4848 12.0564 26.6523C11.8639 26.8167 11.7277 27.0773 11.6466 27.5026C11.5643 27.9344 11.5484 28.4857 11.563 29.1747C11.5707 29.5382 11.5853 29.904 11.601 30.2965C11.6162 30.6759 11.6324 31.0803 11.6442 31.5318C11.6528 31.8567 11.8944 32.1097 12.1786 32.1097H32.5103C32.7982 32.1097 33.0286 31.8558 33.0253 31.5489C33.0115 30.2569 32.9685 29.2749 32.8864 28.5272C32.8037 27.7735 32.6848 27.2948 32.5391 26.9867C32.4037 26.7002 32.2475 26.5642 32.0522 26.4838C31.8306 26.3924 31.5326 26.3617 31.0919 26.3617H27.3093ZM13.8881 29.3212C13.8881 28.9715 14.1492 28.6881 14.4713 28.6881H16.2757C16.5978 28.6881 16.8589 28.9715 16.8589 29.3212C16.8589 29.6708 16.5978 29.9542 16.2757 29.9542H14.4713C14.1492 29.9542 13.8881 29.6708 13.8881 29.3212ZM27.3555 29.3212C27.3555 28.9715 27.6166 28.6881 27.9387 28.6881H29.9874C30.3095 28.6881 30.5706 28.9715 30.5706 29.3212C30.5706 29.6708 30.3095 29.9542 29.9874 29.9542H27.9387C27.6166 29.9542 27.3555 29.6708 27.3555 29.3212Z" fill="#8F9BB3"/>
<path fill-rule="evenodd" clip-rule="evenodd" d="M13.786 20.3711C15.0209 18.8818 17.3717 18.1221 21.6387 18.1221H23.0571C27.0936 18.1221 29.3317 18.8838 30.5063 20.3837C31.095 21.1355 31.3736 22.0208 31.5087 22.9527C31.6172 23.7008 31.6366 24.5078 31.6402 25.3272C31.9034 25.3505 32.1608 25.3991 32.4002 25.4978C32.8351 25.677 33.169 26.0024 33.4066 26.505C33.6311 26.9799 33.7669 27.606 33.8543 28.4023C33.9425 29.2062 33.9859 30.2324 33.9999 31.5364C34.0095 32.4368 33.3364 33.1639 32.5135 33.1639H12.1818C11.3544 33.1639 10.6994 32.4378 10.6764 31.5616C10.6658 31.1585 10.6497 30.7493 10.6342 30.3574L10.6342 30.3564C10.6179 29.9417 10.6023 29.5458 10.595 29.1987C10.5802 28.4997 10.5923 27.846 10.6985 27.2888C10.8063 26.7232 11.0225 26.1961 11.4588 25.8235C11.768 25.5594 12.1463 25.4086 12.5828 25.3444C12.5863 24.5187 12.6064 23.7033 12.7224 22.9474C12.8663 22.0103 13.163 21.1224 13.786 20.3711ZM21.6387 18.3834C17.3768 18.3834 15.1244 19.1475 13.9649 20.5459C13.3821 21.2488 13.099 22.0846 12.9599 22.9904C12.842 23.7583 12.8254 24.5956 12.8231 25.4607L12.8228 25.5782L12.7152 25.5903C12.2648 25.6412 11.8969 25.7818 11.6077 26.0288C11.2319 26.3498 11.0355 26.8108 10.9343 27.3417C10.834 27.8679 10.8209 28.4963 10.8357 29.1927C10.8429 29.537 10.8584 29.9305 10.8748 30.3462C10.8902 30.7378 10.9064 31.149 10.917 31.5542C10.9365 32.2941 11.4893 32.9026 12.1818 32.9026H32.5135C33.2039 32.9026 33.7672 32.2926 33.7592 31.5394C33.7452 30.2384 33.7019 29.2232 33.6152 28.4332C33.529 27.6475 33.3974 27.0579 33.1924 26.6243C32.9801 26.1753 32.6902 25.8968 32.3148 25.7421C32.0732 25.6425 31.8033 25.5978 31.5133 25.5796L31.4002 25.5725L31.3998 25.4495C31.3976 24.5885 31.3816 23.7565 31.2709 22.9934C31.14 22.0905 30.8735 21.2561 30.3228 20.5529C29.2232 19.1487 27.0859 18.3834 23.0571 18.3834H21.6387ZM21.6387 19.3072C17.3949 19.3072 15.4903 20.0871 14.5975 21.1639C14.1567 21.6956 13.9214 22.3473 13.7994 23.1423C13.6996 23.7923 13.679 24.5093 13.6749 25.3071H17.3833C18.0261 25.3071 19.2668 25.6409 19.9464 26.913C20.1134 27.2256 20.3248 27.3599 20.4857 27.3599H24.0028C24.1063 27.3599 24.239 27.3116 24.4006 27.1802C24.561 27.0496 24.7157 26.8641 24.8488 26.6644C25.3127 25.9685 26.1553 25.3071 27.3125 25.3071H30.5482C30.5442 24.5089 30.5248 23.7895 30.4302 23.137C30.3142 22.3369 30.0904 21.6825 29.6744 21.1512C28.8394 20.085 27.0585 19.3072 23.0571 19.3072H22.8938V21.2014H23.6876C24.1632 21.2014 24.5487 21.6198 24.5487 22.136C24.5487 22.6521 24.1632 23.0706 23.6876 23.0706H21.0082C20.5326 23.0706 20.1471 22.6521 20.1471 22.136C20.1471 21.6198 20.5326 21.2014 21.0082 21.2014H21.802V19.3072H21.6387ZM14.4186 20.9891C15.3868 19.8213 17.3898 19.0459 21.6387 19.0459H22.0427V21.4627H21.0082C20.6656 21.4627 20.3879 21.7641 20.3879 22.136C20.3879 22.5078 20.6656 22.8093 21.0082 22.8093H23.6876C24.0302 22.8093 24.3079 22.5078 24.3079 22.136C24.3079 21.7641 24.0302 21.4627 23.6876 21.4627H22.6531V19.0459H23.0571C27.0663 19.0459 28.948 19.8202 29.8578 20.982C30.3119 21.5619 30.5478 22.2671 30.668 23.0964C30.771 23.8063 30.7869 24.5867 30.7894 25.4373L30.7898 25.5684H27.3125C26.2464 25.5684 25.4713 26.1764 25.0438 26.8176C24.9019 27.0305 24.731 27.2379 24.5449 27.3893C24.3581 27.5413 24.1756 27.6212 24.0028 27.6212H20.4857C20.2056 27.6212 19.9284 27.4001 19.7382 27.0441C19.1159 25.8794 17.9732 25.5684 17.3833 25.5684H13.4332L13.4336 25.4373C13.4363 24.5869 13.4531 23.8079 13.5619 23.0993C13.6888 22.273 13.9376 21.5692 14.4186 20.9891ZM13.1279 26.4922C12.5902 26.4922 12.3011 26.6121 12.134 26.7548C11.9717 26.8935 11.8454 27.1211 11.7677 27.5288C11.6884 27.9451 11.672 28.4837 11.6865 29.1715C11.6942 29.5335 11.7087 29.8979 11.7245 30.2906C11.7396 30.6699 11.7558 31.0754 11.7677 31.5278C11.7745 31.7839 11.9644 31.9788 12.1818 31.9788H32.5135C32.7349 31.9788 32.9107 31.7837 32.9082 31.5502C32.8943 30.2597 32.8514 29.2832 32.7701 28.5424C32.688 27.794 32.5711 27.3336 32.4352 27.0461C32.3125 26.7865 32.1783 26.6739 32.0127 26.6057C31.8133 26.5235 31.5348 26.4922 31.0951 26.4922H27.3125C26.5676 26.4922 26.0313 26.9122 25.7333 27.3591C25.5603 27.6187 25.3319 27.9035 25.0553 28.1285C24.78 28.3525 24.4216 28.545 24.0028 28.545H20.4857C19.7777 28.545 19.2695 28.0083 19.0019 27.5075C18.5817 26.7208 17.7839 26.4922 17.3833 26.4922H13.1279ZM11.9851 26.5495C12.2105 26.357 12.5604 26.2308 13.1279 26.2308H17.3833C17.838 26.2308 18.733 26.4832 19.2102 27.3764C19.4561 27.8368 19.8991 28.2837 20.4857 28.2837H24.0028C24.352 28.2837 24.6606 28.1231 24.911 27.9194C25.1619 27.7152 25.3741 27.4523 25.5383 27.206C25.873 26.7038 26.4769 26.2308 27.3125 26.2308H31.0951C31.5368 26.2308 31.8542 26.2609 32.0981 26.3614C32.323 26.4541 32.5013 26.6135 32.6494 26.9268C32.8049 27.2556 32.9259 27.7526 33.0092 28.5115C33.092 29.2662 33.135 30.2537 33.1489 31.5471C33.153 31.9274 32.8679 32.2402 32.5135 32.2402H12.1818C11.8308 32.2402 11.5374 31.9291 11.5271 31.5353C11.5153 31.085 11.4991 30.6815 11.4839 30.3019C11.4683 29.91 11.4535 29.5424 11.4458 29.1775C11.4312 28.4873 11.4467 27.9233 11.532 27.4759C11.6163 27.0331 11.7625 26.7396 11.9851 26.5495ZM13.7709 29.3209C13.7709 28.8992 14.0859 28.5572 14.4745 28.5572H16.2789C16.6674 28.5572 16.9824 28.8992 16.9824 29.3209C16.9824 29.7427 16.6674 30.0847 16.2789 30.0847H14.4745C14.0859 30.0847 13.7709 29.7427 13.7709 29.3209ZM14.4745 28.8186C14.2189 28.8186 14.0117 29.0435 14.0117 29.3209C14.0117 29.5984 14.2189 29.8233 14.4745 29.8233H16.2789C16.5345 29.8233 16.7417 29.5984 16.7417 29.3209C16.7417 29.0435 16.5345 28.8186 16.2789 28.8186H14.4745ZM27.2383 29.3209C27.2383 28.8992 27.5533 28.5572 27.9419 28.5572H29.9906C30.3792 28.5572 30.6942 28.8992 30.6942 29.3209C30.6942 29.7427 30.3792 30.0847 29.9906 30.0847H27.9419C27.5533 30.0847 27.2383 29.7427 27.2383 29.3209ZM27.9419 28.8186C27.6863 28.8186 27.479 29.0435 27.479 29.3209C27.479 29.5984 27.6863 29.8233 27.9419 29.8233H29.9906C30.2462 29.8233 30.4535 29.5984 30.4535 29.3209C30.4535 29.0435 30.2462 28.8186 29.9906 28.8186H27.9419Z" fill="#8F9BB3"/>
<path fill-rule="evenodd" clip-rule="evenodd" d="M18.3297 33.0341C18.0424 33.0341 17.8096 33.2869 17.8096 33.5987V34.6251C17.8096 35.4471 17.1957 36.1134 16.4384 36.1134H14.0743C13.317 36.1134 12.7031 35.4471 12.7031 34.6251V32.5722H13.5542V34.6251C13.5542 34.9369 13.7871 35.1896 14.0743 35.1896H16.4384C16.7256 35.1896 16.9585 34.9369 16.9585 34.6251V33.5987C16.9585 32.7767 17.5724 32.1104 18.3297 32.1104H26.3676C27.1249 32.1104 27.7388 32.7767 27.7388 33.5987V34.6251C27.7388 34.9369 27.9716 35.1896 28.2589 35.1896H30.623C30.9102 35.1896 31.1431 34.9369 31.1431 34.6251V32.5722H31.9942V34.6251C31.9942 35.4471 31.3803 36.1134 30.623 36.1134H28.2589C27.5016 36.1134 26.8877 35.4471 26.8877 34.6251V33.5987C26.8877 33.2869 26.6548 33.0341 26.3676 33.0341H18.3297Z" fill="#8F9BB3"/>
<path fill-rule="evenodd" clip-rule="evenodd" d="M16.8374 33.5975C16.8374 32.7034 17.5052 31.9785 18.329 31.9785H26.3669C27.1906 31.9785 27.8584 32.7034 27.8584 33.5975V34.6239C27.8584 34.8635 28.0374 35.0578 28.2582 35.0578H30.6223C30.843 35.0578 31.022 34.8635 31.022 34.6239V32.4404H32.1138V34.6239C32.1138 35.5181 31.446 36.2429 30.6223 36.2429H28.2582C27.4344 36.2429 26.7666 35.5181 26.7666 34.6239V33.5975C26.7666 33.3579 26.5876 33.1636 26.3669 33.1636H18.329C18.1082 33.1636 17.9292 33.3579 17.9292 33.5975V34.6239C17.9292 35.5181 17.2614 36.2429 16.4377 36.2429H14.0736C13.2498 36.2429 12.582 35.5181 12.582 34.6239V32.4404H13.6739V34.6239C13.6739 34.8635 13.8528 35.0578 14.0736 35.0578H16.4377C16.6584 35.0578 16.8374 34.8635 16.8374 34.6239V33.5975ZM18.329 32.2398C17.6382 32.2398 17.0782 32.8477 17.0782 33.5975V34.6239C17.0782 35.0079 16.7914 35.3191 16.4377 35.3191H14.0736C13.7199 35.3191 13.4331 35.0079 13.4331 34.6239V32.7017H12.8228V34.6239C12.8228 35.3737 13.3828 35.9816 14.0736 35.9816H16.4377C17.1285 35.9816 17.6885 35.3737 17.6885 34.6239V33.5975C17.6885 33.2135 17.9752 32.9023 18.329 32.9023H26.3669C26.7206 32.9023 27.0074 33.2135 27.0074 33.5975V34.6239C27.0074 35.3737 27.5674 35.9816 28.2582 35.9816H30.6223C31.3131 35.9816 31.8731 35.3737 31.8731 34.6239V32.7017H31.2627V34.6239C31.2627 35.0079 30.976 35.3191 30.6223 35.3191H28.2582C27.9044 35.3191 27.6177 35.0079 27.6177 34.6239V33.5975C27.6177 32.8477 27.0577 32.2398 26.3669 32.2398H18.329Z" fill="#8F9BB3"/>
<path fill-rule="evenodd" clip-rule="evenodd" d="M22.113 16.3195C21.878 16.3195 21.6875 16.1127 21.6875 15.8576V14.7285C21.6875 14.4734 21.878 14.2666 22.113 14.2666C22.3481 14.2666 22.5386 14.4734 22.5386 14.7285V15.8576C22.5386 16.1127 22.3481 16.3195 22.113 16.3195Z" fill="#8F9BB3"/>
<path fill-rule="evenodd" clip-rule="evenodd" d="M21.4453 15.8581V14.7291C21.4453 14.3296 21.7436 14.0059 22.1116 14.0059C22.4796 14.0059 22.7779 14.3297 22.7779 14.7291V15.8581C22.7779 16.2576 22.4796 16.5813 22.1116 16.5813C21.7436 16.5813 21.4453 16.2576 21.4453 15.8581ZM21.6861 15.8581C21.6861 16.1132 21.8766 16.32 22.1116 16.32C22.3466 16.32 22.5371 16.1132 22.5371 15.8581V14.7291C22.5371 14.474 22.3466 14.2672 22.1116 14.2672C21.8766 14.2672 21.6861 14.474 21.6861 14.7291V15.8581Z" fill="#8F9BB3"/>
<path fill-rule="evenodd" clip-rule="evenodd" d="M21.4453 15.8581V14.7291C21.4453 14.3296 21.7436 14.0059 22.1116 14.0059C22.4796 14.0059 22.7779 14.3297 22.7779 14.7291V15.8581C22.7779 16.2576 22.4796 16.5813 22.1116 16.5813C21.7436 16.5813 21.4453 16.2576 21.4453 15.8581ZM21.6861 15.8581C21.6861 16.1132 21.8766 16.32 22.1116 16.32C22.3466 16.32 22.5371 16.1132 22.5371 15.8581V14.7291C22.5371 14.474 22.3466 14.2672 22.1116 14.2672C21.8766 14.2672 21.6861 14.474 21.6861 14.7291V15.8581Z" fill="#8F9BB3"/>
<path fill-rule="evenodd" clip-rule="evenodd" d="M17.5964 16.2254C17.3847 16.1145 17.296 15.8384 17.3981 15.6086L17.8502 14.5918C17.9524 14.362 18.2067 14.2657 18.4184 14.3765C18.6301 14.4874 18.7188 14.7635 18.6167 14.9933L18.1646 16.0101C18.0624 16.2399 17.808 16.3362 17.5964 16.2254Z" fill="#8F9BB3"/>
<path fill-rule="evenodd" clip-rule="evenodd" d="M17.1802 15.4953L17.6323 14.4785C17.7922 14.1188 18.1905 13.9679 18.5219 14.1415C18.8533 14.3151 18.9923 14.7474 18.8324 15.1071L18.3803 16.124C18.2204 16.4837 17.8221 16.6346 17.4907 16.461C17.1592 16.2874 17.0202 15.855 17.1802 15.4953ZM17.397 15.6089C17.2949 15.8386 17.3836 16.1148 17.5953 16.2256C17.8069 16.3365 18.0613 16.2401 18.1635 16.0104L18.6156 14.9936C18.7177 14.7638 18.629 14.4877 18.4173 14.3768C18.2056 14.2659 17.9513 14.3623 17.8491 14.592L17.397 15.6089Z" fill="#8F9BB3"/>
<path fill-rule="evenodd" clip-rule="evenodd" d="M17.1802 15.4953L17.6323 14.4785C17.7922 14.1188 18.1905 13.9679 18.5219 14.1415C18.8533 14.3151 18.9923 14.7474 18.8324 15.1071L18.3803 16.124C18.2204 16.4837 17.8221 16.6346 17.4907 16.461C17.1592 16.2874 17.0202 15.855 17.1802 15.4953ZM17.397 15.6089C17.2949 15.8386 17.3836 16.1148 17.5953 16.2256C17.8069 16.3365 18.0613 16.2401 18.1635 16.0104L18.6156 14.9936C18.7177 14.7638 18.629 14.4877 18.4173 14.3768C18.2056 14.2659 17.9513 14.3623 17.8491 14.592L17.397 15.6089Z" fill="#8F9BB3"/>
<path fill-rule="evenodd" clip-rule="evenodd" d="M26.2898 16.2881C26.0636 16.3573 25.8286 16.2143 25.7648 15.9688L25.4826 14.8821C25.4189 14.6365 25.5506 14.3814 25.7768 14.3122C26.003 14.243 26.238 14.3859 26.3018 14.6315L26.584 15.7182C26.6477 15.9637 26.516 16.2189 26.2898 16.2881Z" fill="#8F9BB3"/>
<path fill-rule="evenodd" clip-rule="evenodd" d="M25.5332 16.0397L25.2511 14.9529C25.1512 14.5685 25.3574 14.169 25.7116 14.0606C26.0658 13.9523 26.4338 14.1761 26.5337 14.5606L26.8158 15.6473C26.9157 16.0317 26.7095 16.4312 26.3553 16.5396C26.0011 16.6479 25.6331 16.4241 25.5332 16.0397ZM25.765 15.9688C25.8287 16.2143 26.0638 16.3572 26.29 16.288C26.5162 16.2188 26.6479 15.9637 26.5841 15.7182L26.3019 14.6314C26.2382 14.3859 26.0031 14.243 25.7769 14.3122C25.5507 14.3814 25.419 14.6365 25.4828 14.882L25.765 15.9688Z" fill="#8F9BB3"/>
<path fill-rule="evenodd" clip-rule="evenodd" d="M25.5332 16.0397L25.2511 14.9529C25.1512 14.5685 25.3574 14.169 25.7116 14.0606C26.0658 13.9523 26.4338 14.1761 26.5337 14.5606L26.8158 15.6473C26.9157 16.0317 26.7095 16.4312 26.3553 16.5396C26.0011 16.6479 25.6331 16.4241 25.5332 16.0397ZM25.765 15.9688C25.8287 16.2143 26.0638 16.3572 26.29 16.288C26.5162 16.2188 26.6479 15.9637 26.5841 15.7182L26.3019 14.6314C26.2382 14.3859 26.0031 14.243 25.7769 14.3122C25.5507 14.3814 25.419 14.6365 25.4828 14.882L25.765 15.9688Z" fill="#8F9BB3"/>
</svg>
