<svg width="16" height="16" viewBox="0 0 16 16" fill="none" xmlns="http://www.w3.org/2000/svg">
<path fill-rule="evenodd" clip-rule="evenodd" d="M8.94274 8.00017L11.8047 5.13817C12.0654 4.8775 12.0654 4.45617 11.8047 4.1955C11.5441 3.93483 11.1227 3.93483 10.8621 4.1955L8.00008 7.0575L5.13808 4.1955C4.87741 3.93483 4.45608 3.93483 4.19541 4.1955C3.93474 4.45617 3.93474 4.8775 4.19541 5.13817L7.05741 8.00017L4.19541 10.8622C3.93474 11.1228 3.93474 11.5442 4.19541 11.8048C4.32541 11.9348 4.49608 12.0002 4.66674 12.0002C4.83741 12.0002 5.00808 11.9348 5.13808 11.8048L8.00008 8.94283L10.8621 11.8048C10.9921 11.9348 11.1627 12.0002 11.3334 12.0002C11.5041 12.0002 11.6747 11.9348 11.8047 11.8048C12.0654 11.5442 12.0654 11.1228 11.8047 10.8622L8.94274 8.00017Z" fill="#222B45"/>
<mask id="mask0_3288_4469" style="mask-type:alpha" maskUnits="userSpaceOnUse" x="4" y="4" width="9" height="8">
<path fill-rule="evenodd" clip-rule="evenodd" d="M8.94274 8.00017L11.8047 5.13817C12.0654 4.8775 12.0654 4.45617 11.8047 4.1955C11.5441 3.93483 11.1227 3.93483 10.8621 4.1955L8.00008 7.0575L5.13808 4.1955C4.87741 3.93483 4.45608 3.93483 4.19541 4.1955C3.93474 4.45617 3.93474 4.8775 4.19541 5.13817L7.05741 8.00017L4.19541 10.8622C3.93474 11.1228 3.93474 11.5442 4.19541 11.8048C4.32541 11.9348 4.49608 12.0002 4.66674 12.0002C4.83741 12.0002 5.00808 11.9348 5.13808 11.8048L8.00008 8.94283L10.8621 11.8048C10.9921 11.9348 11.1627 12.0002 11.3334 12.0002C11.5041 12.0002 11.6747 11.9348 11.8047 11.8048C12.0654 11.5442 12.0654 11.1228 11.8047 10.8622L8.94274 8.00017Z" fill="white"/>
</mask>
<g mask="url(#mask0_3288_4469)">
</g>
</svg>
