<svg width="22" height="22" viewBox="0 0 22 22" fill="none" xmlns="http://www.w3.org/2000/svg">
<g clip-path="url(#clip0_9492_21761)">
<mask id="mask0_9492_21761" style="mask-type:alpha" maskUnits="userSpaceOnUse" x="-4" y="0" width="20" height="23">
<path d="M0.833008 22.4882L-3.04119 3.88735L11.9157 0.77212L15.7899 19.3729L0.833008 22.4882Z" fill="#D9D9D9"/>
</mask>
<g mask="url(#mask0_9492_21761)">
<path d="M23.6538 9.38667C23.4204 9.27329 23.1826 9.17286 22.9486 9.06791L23.4961 8.92344C24.1431 8.7498 24.5323 8.08378 24.3597 7.43331C24.1864 6.78284 23.5219 6.39477 22.8736 6.56711L21.3538 6.96943C20.9227 6.00992 20.4812 5.06532 19.8348 3.9879C19.3325 3.11715 18.9143 2.68243 18.2924 2.59561C16.8031 2.59561 14.2685 2.59561 12.401 2.59561C11.9906 2.59561 11.5775 2.59561 11.1657 2.59561C9.78306 2.59561 8.39132 2.59561 6.95628 2.59561C6.33637 2.68308 5.91816 3.1178 5.41525 3.9879C4.76755 5.06468 4.32798 6.00928 3.89553 6.96943L2.37648 6.56711C1.73006 6.39477 1.0636 6.78284 0.890366 7.43331C0.719067 8.08378 1.10625 8.7498 1.7546 8.92344L2.30147 9.06791C2.06553 9.17286 1.82959 9.27329 1.59624 9.38667C0.775292 9.80584 0.128232 10.8884 0.125 11.7313C0.125 12.8619 0.125 13.9931 0.125 15.1243C0.123707 15.7268 0.480545 16.2503 0.999614 16.512V19.064C0.999614 19.9088 1.6835 20.5956 2.52707 20.5956H5.07264C5.9175 20.5956 6.60013 19.9082 6.60013 19.064V16.6902C10.6169 16.6902 14.6331 16.6902 18.6499 16.6902V19.064C18.6499 19.9088 19.3344 20.5956 20.1787 20.5956H22.7236C23.5691 20.5956 24.2504 19.9082 24.2504 19.064V16.512C24.7688 16.2509 25.1263 15.7268 25.125 15.1243C25.125 13.9931 25.125 12.8619 25.125 11.7313C25.1231 10.8891 24.476 9.80649 23.6538 9.38667ZM5.3047 13.6866C5.13534 14.2153 4.4676 14.6792 3.8199 14.569C3.20386 14.4518 2.58657 14.3067 1.97053 14.1751C1.31895 14.0287 0.938199 13.3387 1.10756 12.5671C1.27627 11.789 1.9285 11.1806 2.5859 11.3906C3.20839 11.5797 3.83607 11.8492 4.45211 12.1525C5.09787 12.501 5.47277 13.1651 5.3047 13.6866ZM4.65829 7.81621L4.69514 7.73911C5.16961 6.67789 5.61824 5.67627 6.30861 4.52888C6.72813 3.80196 6.93627 3.67108 7.04939 3.64063H18.2026C18.3163 3.67108 18.5226 3.79936 18.9311 4.51203C19.6312 5.67497 20.0778 6.67271 20.5542 7.73005L20.5917 7.81685L4.65829 7.81621ZM23.2808 14.1751C22.6641 14.3067 22.0481 14.4524 21.4308 14.569C20.785 14.6792 20.116 14.2153 19.946 13.6866C19.7779 13.1651 20.1534 12.501 20.7986 12.1518C21.4146 11.8486 22.0429 11.5791 22.6661 11.3899C23.3248 11.1806 23.9763 11.7884 24.1431 12.5665C24.3131 13.3387 23.9324 14.0287 23.2808 14.1751Z" fill="#222222"/>
</g>
<path fill-rule="evenodd" clip-rule="evenodd" d="M17.8227 6.84792L11.9747 1L11.3331 1.6416C9.38053 3.59422 9.38053 6.76005 11.3332 8.71267L13.6455 11.0251L11.3331 13.3375C9.3805 15.2901 9.3805 18.4559 11.3331 20.4085L11.9747 21.0501L17.8227 15.2022L17.8227 15.2022L21.9999 11.0251L21.9998 11.0251L21.9998 11.025L17.8227 6.84789L17.8227 6.84792Z" fill="url(#paint0_linear_9492_21761)"/>
</g>
<defs>
<linearGradient id="paint0_linear_9492_21761" x1="21.9998" y1="15" x2="4.49976" y2="3" gradientUnits="userSpaceOnUse">
<stop stop-color="#222222"/>
<stop offset="1" stop-color="white"/>
</linearGradient>
<clipPath id="clip0_9492_21761">
<rect width="22" height="22" fill="white"/>
</clipPath>
</defs>
</svg>
