<svg width="22" height="22" viewBox="0 0 22 22" fill="none" xmlns="http://www.w3.org/2000/svg">
<g clip-path="url(#clip0_9492_21791)">
<path fill-rule="evenodd" clip-rule="evenodd" d="M20.5542 9.32598C20.5542 14.0211 16.3251 17.6791 12.3542 21.1136C11.9919 21.427 11.6317 21.7386 11.2771 22.0489C10.9225 21.7386 10.5623 21.427 10.2 21.1136C8.68822 19.8061 7.13903 18.4661 5.80004 17.0489H8V14.5489H9.5L10.7782 13.2706C10.9416 13.2911 11.1082 13.3016 11.2771 13.3016C13.473 13.3016 15.253 11.5216 15.253 9.32575C15.253 7.12992 13.473 5.34985 11.2771 5.34985C9.08129 5.34985 7.30122 7.12992 7.30122 9.32575C7.30122 9.90203 7.42383 10.4497 7.64437 10.944L4.04221 14.9464C2.80494 13.2253 2 11.3744 2 9.32598C2 4.20237 6.1535 0.0488739 11.2771 0.0488739C16.4007 0.0488739 20.5542 4.20237 20.5542 9.32598Z" fill="url(#paint0_linear_9492_21791)"/>
<mask id="mask0_9492_21791" style="mask-type:alpha" maskUnits="userSpaceOnUse" x="4" y="0" width="18" height="23">
<path d="M14.0001 12.0491C10.0001 15.0491 10.8334 20.0491 11.5001 22.0491L13.5001 21.5491L21.0001 13.0491C22.0001 10.0491 21.3808 4.02831 17.6544 2C14.8087 0.451056 13.6544 0.00019809 11.1544 0.000168228L7.65442 0.500216C7.65442 0.500216 7.50011 -0.950917 5.50011 2.04908C3.50011 5.04908 6.50011 7.54908 9.00011 6.04908C11.5001 4.54908 14.5001 8.04908 14.0001 12.0491Z" fill="#D9D9D9"/>
</mask>
<g mask="url(#mask0_9492_21791)">
<path fill-rule="evenodd" clip-rule="evenodd" d="M12.3542 21.1136C16.3251 17.6791 20.5542 14.0211 20.5542 9.32598C20.5542 4.20237 16.4007 0.0488739 11.2771 0.0488739C6.1535 0.0488739 2 4.20237 2 9.32598C2 14.0211 6.22912 17.6791 10.2 21.1136C10.5623 21.427 10.9225 21.7386 11.2771 22.0489C11.6317 21.7386 11.9919 21.427 12.3542 21.1136ZM11.2771 13.3016C13.473 13.3016 15.253 11.5216 15.253 9.32575C15.253 7.12992 13.473 5.34985 11.2771 5.34985C9.08129 5.34985 7.30122 7.12992 7.30122 9.32575C7.30122 11.5216 9.08129 13.3016 11.2771 13.3016Z" fill="#066BD6"/>
</g>
<circle cx="13" cy="8.04887" r="1" fill="#066BD6"/>
</g>
<defs>
<linearGradient id="paint0_linear_9492_21791" x1="13.5" y1="2.04887" x2="-3" y2="13.5489" gradientUnits="userSpaceOnUse">
<stop stop-color="#066BD6"/>
<stop offset="1" stop-color="#066BD6" stop-opacity="0"/>
</linearGradient>
<clipPath id="clip0_9492_21791">
<rect width="22" height="22" fill="white"/>
</clipPath>
</defs>
</svg>
