<svg width="32" height="32" viewBox="0 0 32 32" fill="none" xmlns="http://www.w3.org/2000/svg">
<path fill-rule="evenodd" clip-rule="evenodd" d="M21.7589 10.4683V9.08203H22.5009V10.4683H23.916V11.2102H22.5009V12.5965H21.7589V11.2102H20.3438V10.4683H21.7589Z" fill="#8F9BB3"/>
<path d="M13.2018 19.9337H12.3241V14.4459C12.3241 14.2376 12.3241 14.0592 12.3241 13.9109C12.3277 13.7591 12.3313 13.6213 12.3349 13.4977C12.3422 13.3706 12.3512 13.2417 12.362 13.1111C12.2501 13.2241 12.1453 13.3212 12.0478 13.4024C11.9503 13.4801 11.8293 13.5772 11.6848 13.6937L10.78 14.4036L10.3086 13.805L12.4541 12.1894H13.2018V19.9337Z" fill="#8F9BB3"/>
<path d="M17.4333 12.0781C17.892 12.0781 18.2984 12.1488 18.6523 12.29C19.0063 12.4313 19.2826 12.6396 19.4813 12.9151C19.6836 13.187 19.7847 13.5225 19.7847 13.9215C19.7847 14.2358 19.7143 14.5113 19.5734 14.7479C19.4362 14.9809 19.2501 15.1858 19.0154 15.3623C18.7806 15.5354 18.5205 15.6907 18.2352 15.8285C18.5747 15.9803 18.8799 16.1516 19.1508 16.3423C19.4253 16.533 19.642 16.7572 19.801 17.015C19.9599 17.2728 20.0394 17.5783 20.0394 17.9314C20.0394 18.3658 19.931 18.7419 19.7143 19.0597C19.5012 19.374 19.2014 19.6159 18.8149 19.7854C18.4284 19.9549 17.9751 20.0397 17.455 20.0397C16.8951 20.0397 16.4183 19.9584 16.0246 19.796C15.6345 19.63 15.3365 19.3934 15.1306 19.0862C14.9284 18.7754 14.8272 18.4029 14.8272 17.9685C14.8272 17.6118 14.9049 17.3028 15.0602 17.0415C15.2155 16.7767 15.4214 16.5489 15.6779 16.3582C15.9343 16.1675 16.2142 16.0068 16.5176 15.8761C16.254 15.7349 16.012 15.5742 15.7916 15.3941C15.5749 15.214 15.4015 15.0039 15.2715 14.7638C15.1451 14.5201 15.0819 14.2376 15.0819 13.9162C15.0819 13.5242 15.183 13.1923 15.3853 12.9204C15.5912 12.6449 15.8711 12.4366 16.2251 12.2953C16.5827 12.1505 16.9854 12.0781 17.4333 12.0781ZM15.7104 17.9738C15.7104 18.3693 15.853 18.696 16.1384 18.9538C16.4237 19.208 16.8554 19.3351 17.4333 19.3351C17.9823 19.3351 18.4067 19.208 18.7065 18.9538C19.0063 18.696 19.1562 18.3587 19.1562 17.942C19.1562 17.6842 19.0876 17.4582 18.9503 17.264C18.8131 17.0662 18.618 16.8897 18.3652 16.7343C18.1124 16.5789 17.8144 16.4376 17.4712 16.3105L17.2762 16.2416C16.9439 16.3758 16.6603 16.5259 16.4255 16.6919C16.1944 16.8543 16.0174 17.0397 15.8946 17.2481C15.7718 17.4564 15.7104 17.6983 15.7104 17.9738ZM17.4225 12.7985C16.9962 12.7985 16.6477 12.8992 16.3768 13.1005C16.1059 13.2982 15.9704 13.5843 15.9704 13.9586C15.9704 14.227 16.0354 14.4548 16.1655 14.6419C16.2991 14.8256 16.4797 14.9845 16.7073 15.1187C16.9348 15.2493 17.1895 15.3712 17.4712 15.4842C17.7457 15.3712 17.9895 15.2476 18.2027 15.1134C18.4158 14.9756 18.5837 14.8132 18.7065 14.626C18.8293 14.4389 18.8907 14.2146 18.8907 13.9533C18.8907 13.579 18.7553 13.2929 18.4844 13.0952C18.2171 12.8974 17.8631 12.7985 17.4225 12.7985Z" fill="#8F9BB3"/>
<path fill-rule="evenodd" clip-rule="evenodd" d="M7.65385 5.70769H25.3462C26.421 5.70769 27.2923 6.57902 27.2923 7.65385V17.7561C27.2923 17.9515 27.4507 18.11 27.6462 18.11C27.8416 18.11 28 17.9515 28 17.7561V7.65385C28 6.18817 26.8118 5 25.3462 5H7.65385C6.18817 5 5 6.18817 5 7.65385V23.5769C5 25.0426 6.18817 26.2308 7.65385 26.2308H25.3462C26.8118 26.2308 28 25.0426 28 23.5769V20.3923C28 20.1969 27.8416 20.0385 27.6462 20.0385C27.4507 20.0385 27.2923 20.1969 27.2923 20.3923V23.5769C27.2923 24.6518 26.421 25.5231 25.3462 25.5231H7.65385C6.57902 25.5231 5.70769 24.6518 5.70769 23.5769V7.65385C5.70769 6.57902 6.57902 5.70769 7.65385 5.70769Z" fill="#8F9BB3"/>
</svg>
