<?xml version="1.0" standalone="no"?>
<!DOCTYPE svg PUBLIC "-//W3C//DTD SVG 20010904//EN"
 "http://www.w3.org/TR/2001/REC-SVG-20010904/DTD/svg10.dtd">
<svg version="1.0" xmlns="http://www.w3.org/2000/svg"
 width="50.000000pt" height="50.000000pt" viewBox="0 0 50.000000 50.000000"
 preserveAspectRatio="xMidYMid meet">

<g transform="translate(0.000000,50.000000) scale(0.100000,-0.100000)"
fill="#8F9BB3" stroke="none">
<path d="M30 250 l0 -230 180 0 c173 0 180 1 180 20 0 11 -4 20 -10 20 -5 0
-10 -4 -10 -10 0 -6 -60 -10 -160 -10 l-160 0 0 210 0 210 100 0 100 0 0 -60
0 -60 60 0 c48 0 60 -3 60 -16 0 -8 5 -12 10 -9 22 14 7 44 -53 103 l-63 62
-117 0 -117 0 0 -230z m285 150 l39 -40 -42 0 -42 0 0 40 c0 22 1 40 3 40 2 0
21 -18 42 -40z"/>
<path d="M392 300 c-19 -12 -50 -20 -75 -20 -38 0 -46 -5 -79 -46 -30 -37 -36
-50 -27 -65 6 -13 6 -25 -1 -39 -9 -17 -8 -20 7 -20 10 1 34 9 53 19 l35 19
42 -39 c24 -21 51 -39 60 -39 10 0 28 -3 41 -6 13 -4 22 -2 22 5 0 6 -18 14
-40 17 -30 5 -51 18 -84 52 -50 51 -51 73 -3 43 24 -14 37 -17 50 -10 23 14
13 29 -16 22 -22 -6 -22 -6 2 14 l24 20 35 -39 c19 -21 41 -38 50 -38 11 0 1
15 -27 44 l-44 44 22 31 c36 50 11 66 -47 31z m8 -37 c0 -12 -43 -53 -56 -53
-27 0 -23 19 9 39 33 22 47 26 47 14z m-117 -47 c-58 -53 -75 -50 -31 5 21 26
39 39 56 39 22 0 19 -4 -25 -44z m7 -44 c0 -13 -12 -22 -22 -16 -10 6 -1 24
13 24 5 0 9 -4 9 -8z"/>
<path d="M110 270 c0 -6 28 -10 64 -10 36 0 68 5 71 10 4 6 -20 10 -64 10 -41
0 -71 -4 -71 -10z"/>
<path d="M110 210 c0 -5 18 -10 40 -10 22 0 40 5 40 10 0 6 -18 10 -40 10 -22
0 -40 -4 -40 -10z"/>
<path d="M110 150 c0 -5 18 -10 40 -10 22 0 40 5 40 10 0 6 -18 10 -40 10 -22
0 -40 -4 -40 -10z"/>
</g>
</svg>
