<?xml version="1.0" standalone="no"?>
<!DOCTYPE svg PUBLIC "-//W3C//DTD SVG 20010904//EN"
 "http://www.w3.org/TR/2001/REC-SVG-20010904/DTD/svg10.dtd">
<svg version="1.0" xmlns="http://www.w3.org/2000/svg"
 width="32.000000pt" height="32.000000pt" viewBox="0 0 32.000000 32.000000"
 preserveAspectRatio="xMidYMid meet">

<g transform="translate(0.000000,32.000000) scale(0.100000,-0.100000)"
fill="#8F9BB3" stroke="none">
<path d="M57 304 c-4 -4 -7 -38 -7 -76 0 -54 -3 -68 -15 -68 -10 0 -15 -10
-15 -30 l0 -30 140 0 140 0 0 30 c0 20 -5 30 -15 30 -11 0 -15 17 -17 73 l-3
72 -101 3 c-55 1 -103 0 -107 -4z m28 -14 c-3 -5 -10 -10 -16 -10 -5 0 -9 5
-9 10 0 6 7 10 16 10 8 0 12 -4 9 -10z m152 -14 c19 -20 23 -35 23 -95 0 -54
-3 -71 -14 -71 -11 0 -13 10 -9 39 5 33 1 44 -20 65 -17 17 -37 26 -57 26 -20
0 -40 -9 -57 -26 -21 -21 -25 -32 -20 -65 4 -29 2 -39 -9 -39 -11 0 -14 18
-14 80 0 62 3 80 14 80 8 0 16 7 20 15 4 11 21 15 63 15 48 0 62 -4 80 -24z
m23 8 c0 -14 -3 -14 -15 -4 -8 7 -15 14 -15 16 0 2 7 4 15 4 8 0 15 -7 15 -16z
m-53 -76 c25 -23 29 -48 13 -79 -8 -15 -21 -19 -58 -19 -27 0 -53 5 -60 12
-32 32 7 108 57 108 13 0 35 -10 48 -22z m-157 -78 c0 -11 -4 -20 -10 -20 -5
0 -10 9 -10 20 0 11 5 20 10 20 6 0 10 -9 10 -20z m240 0 c0 -11 -4 -20 -10
-20 -5 0 -10 9 -10 20 0 11 5 20 10 20 6 0 10 -9 10 -20z"/>
<path d="M120 174 c-18 -21 13 -55 32 -36 16 16 41 16 32 0 -4 -7 2 -5 12 5
17 16 17 18 1 34 -15 16 -18 16 -35 0 -23 -21 -36 -22 -28 -2 7 19 2 19 -14
-1z m70 -4 c0 -5 -4 -10 -10 -10 -5 0 -10 5 -10 10 0 6 5 10 10 10 6 0 10 -4
10 -10z"/>
<path d="M130 76 c0 -8 -5 -16 -11 -18 -5 -2 1 -13 14 -26 l23 -22 24 25 c13
14 18 25 12 25 -7 0 -12 7 -12 15 0 9 -9 15 -25 15 -15 0 -25 -6 -25 -14z m43
-15 c6 -25 -12 -44 -29 -30 -15 12 -7 49 11 49 7 0 15 -9 18 -19z"/>
</g>
</svg>
