<svg width="32" height="32" viewBox="0 0 32 32" fill="none" xmlns="http://www.w3.org/2000/svg">
<path d="M16.2209 10.893C16.0401 10.893 15.8936 11.0395 15.8936 11.2203C15.8936 11.401 16.0401 11.5475 16.2209 11.5475H17.3446C17.5254 11.5475 17.6719 11.401 17.6719 11.2203C17.6719 11.0395 17.5254 10.893 17.3446 10.893H16.2209Z" fill="#8F9BB3"/>
<path d="M22.5735 11.5475C22.7542 11.5475 22.9008 11.401 22.9008 11.2203C22.9008 11.0395 22.7542 10.893 22.5735 10.893H18.7804C18.5997 10.893 18.4531 11.0395 18.4531 11.2203C18.4531 11.401 18.5997 11.5475 18.7804 11.5475H22.5735Z" fill="#8F9BB3"/>
<path d="M16.3556 17.2576C16.1749 17.2576 16.0284 17.4041 16.0284 17.5849C16.0284 17.7656 16.1749 17.9121 16.3556 17.9121H21.7579C21.9386 17.9121 22.0851 17.7656 22.0851 17.5849C22.0851 17.4041 21.9386 17.2576 21.7579 17.2576H16.3556Z" fill="#8F9BB3"/>
<path d="M25.9423 17.9121C26.123 17.9121 26.2696 17.7656 26.2696 17.5849C26.2696 17.4041 26.123 17.2576 25.9423 17.2576H23.0773C22.8965 17.2576 22.75 17.4041 22.75 17.5849C22.75 17.7656 22.8965 17.9121 23.0773 17.9121H25.9423Z" fill="#8F9BB3"/>
<path fill-rule="evenodd" clip-rule="evenodd" d="M7.40419 19.2827C7.20046 19.2827 7.03531 19.1175 7.03531 18.9138V11.9794C7.03531 11.7409 7.22864 11.5475 7.46712 11.5475H12.8661C13.1046 11.5475 13.2979 11.7409 13.2979 11.9794V16.3054C13.2979 16.4738 13.4344 16.6103 13.6028 16.6103C13.7712 16.6103 13.9077 16.4738 13.9077 16.3054V11.3248C13.9077 11.0863 13.7144 10.893 13.4759 10.893H6.85737C6.61888 10.893 6.42555 11.0863 6.42555 11.3248V19.5054C6.42555 19.7439 6.61888 19.9372 6.85737 19.9372H13.4759C13.7144 19.9372 13.9077 19.7439 13.9077 19.5054V17.7522C13.9077 17.5838 13.7712 17.4473 13.6028 17.4473C13.4344 17.4473 13.2979 17.5838 13.2979 17.7522V18.8509C13.2979 19.0894 13.1046 19.2827 12.8661 19.2827H12.8572C12.6187 19.2827 12.4254 19.0894 12.4254 18.8509V17.7295C12.4254 17.0472 11.8961 16.7534 11.6555 16.6888C11.6313 16.6823 11.6064 16.679 11.5814 16.679H8.75172C8.41504 16.679 8.17703 16.8722 8.02911 17.0769C7.88546 17.2756 7.80867 17.5061 7.779 17.6653C7.77506 17.6865 7.77308 17.7079 7.77308 17.7294V18.9138C7.77308 19.1175 7.60792 19.2827 7.40419 19.2827ZM11.3838 19.2827C11.6223 19.2827 11.8157 19.0894 11.8157 18.8509V17.7295C11.8157 17.5996 11.7685 17.5122 11.7061 17.4473C11.6754 17.4153 11.6415 17.3897 11.6094 17.37C11.5635 17.342 11.5092 17.3335 11.4554 17.3335H8.75172C8.65719 17.3335 8.58077 17.3814 8.51084 17.4781C8.45687 17.5528 8.41861 17.6425 8.3959 17.7174C8.38624 17.7493 8.38283 17.7826 8.38283 17.8159V18.8509C8.38283 19.0894 8.57616 19.2827 8.81465 19.2827H11.3838Z" fill="#8F9BB3"/>
<path fill-rule="evenodd" clip-rule="evenodd" d="M4.60976 9.05052C4.60976 8.98235 4.63132 8.87281 4.68705 8.78972C4.73159 8.72331 4.8085 8.65454 4.97864 8.65454H28.0214C28.0849 8.65454 28.1869 8.67768 28.2643 8.73751C28.3262 8.78532 28.3902 8.86789 28.3902 9.05052V23.8631C28.3902 23.8964 28.3868 23.9297 28.3772 23.9616C28.3545 24.0365 28.3162 24.1262 28.2622 24.2009C28.1923 24.2976 28.1159 24.3455 28.0214 24.3455H5.06988C5.03172 24.3455 4.99349 24.3411 4.95765 24.328C4.88995 24.3032 4.81081 24.2633 4.74445 24.208C4.65433 24.133 4.60976 24.051 4.60976 23.9495V9.05052ZM4.97864 8C4.60977 8 4.3498 8.17232 4.19221 8.40726C4.04582 8.62552 4 8.87761 4 9.05052V23.9495C4 24.3109 4.18001 24.5664 4.37063 24.7252C4.55575 24.8794 4.77048 24.9618 4.91885 24.9936C4.93853 24.9979 4.9586 25 4.97873 25H28.0214C28.358 25 28.596 24.8068 28.744 24.6021C28.8876 24.4034 28.9644 24.1729 28.9941 24.0137C28.998 23.9925 29 23.9711 29 23.9496V9.05052C29 8.65456 28.8395 8.37549 28.6206 8.20633C28.4173 8.04918 28.1824 8 28.0214 8H4.97864ZM10.0992 12.4842C9.64969 12.4842 9.16747 12.6042 8.79236 12.9397C8.40747 13.284 8.17733 13.8176 8.17733 14.5472C8.17733 15.2819 8.4544 15.8104 8.84761 16.148C9.23013 16.4765 9.70475 16.6103 10.0992 16.6103C10.493 16.6103 10.9677 16.4783 11.3506 16.1502C11.7443 15.8129 12.0212 15.2842 12.0212 14.5472C12.0212 13.8798 11.785 13.3552 11.4135 13.0008C11.0476 12.6517 10.5685 12.4842 10.0992 12.4842ZM8.78709 14.5472C8.78709 13.975 8.96122 13.6407 9.18271 13.4425C9.41399 13.2357 9.74028 13.1387 10.0992 13.1387C10.4385 13.1387 10.7679 13.2605 11.0084 13.49C11.2433 13.7141 11.4114 14.0574 11.4114 14.5472C11.4114 15.0884 11.2166 15.4276 10.9702 15.6386C10.7131 15.859 10.3792 15.9558 10.0992 15.9558C9.81998 15.9558 9.48608 15.8581 9.22852 15.6369C8.98166 15.4249 8.78709 15.0854 8.78709 14.5472ZM16.0284 13.2454C16.0284 13.4261 16.1749 13.5726 16.3556 13.5726H25.9423C26.123 13.5726 26.2696 13.4261 26.2696 13.2454C26.2696 13.0646 26.123 12.9181 25.9423 12.9181H16.3556C16.1749 12.9181 16.0284 13.0646 16.0284 13.2454ZM16.0284 15.4151C16.0284 15.5959 16.1749 15.7424 16.3556 15.7424H24.3253C24.506 15.7424 24.6525 15.5959 24.6525 15.4151C24.6525 15.2344 24.506 15.0879 24.3253 15.0879H16.3556C16.1749 15.0879 16.0284 15.2344 16.0284 15.4151ZM16.0284 19.7546C16.0284 19.9354 16.1749 20.0819 16.3556 20.0819H24.3253C24.506 20.0819 24.6525 19.9354 24.6525 19.7546C24.6525 19.5739 24.506 19.4274 24.3253 19.4274H16.3556C16.1749 19.4274 16.0284 19.5739 16.0284 19.7546ZM6.73043 21.6351C6.73043 21.8158 6.87695 21.9623 7.0577 21.9623H13.2755C13.4563 21.9623 13.6028 21.8158 13.6028 21.6351C13.6028 21.4543 13.4563 21.3078 13.2755 21.3078H7.0577C6.87695 21.3078 6.73043 21.4543 6.73043 21.6351Z" fill="#8F9BB3"/>
</svg>
