<svg width="32" height="32" viewBox="0 0 32 32" fill="none" xmlns="http://www.w3.org/2000/svg">
<path fill-rule="evenodd" clip-rule="evenodd" d="M14.5155 2.06161C15.246 1.27425 16.1322 1 16.7535 1H23.4406C24.6692 1 25.4585 1.63899 25.9219 2.42583C26.3721 3.19027 26.5166 4.08984 26.5166 4.69031V15.9673C26.5166 16.1889 26.337 16.3685 26.1154 16.3685C25.8938 16.3685 25.7142 16.1889 25.7142 15.9673V4.69031C25.7142 4.20082 25.5912 3.46544 25.239 2.86742C24.9 2.2918 24.3518 1.84083 23.4406 1.84083H16.7535C16.3346 1.84083 15.6605 2.03371 15.0908 2.64773C14.5285 3.2538 14.0341 4.30783 14.0341 6.0917V6.51211H11.5884L9.13028 9.51711V24.3097C9.13028 24.7992 9.25324 25.5346 9.60545 26.1326C9.94448 26.7082 10.4926 27.1592 11.4039 27.1592H23.4406C23.8083 27.1592 24.3809 27.0204 24.8543 26.6037C25.3121 26.2008 25.7142 25.5059 25.7142 24.3097V18.6382C25.7142 18.4167 25.8938 18.237 26.1154 18.237C26.337 18.237 26.5166 18.4167 26.5166 18.6382V24.3097C26.5166 25.7294 26.0272 26.6695 25.3704 27.2475C24.7293 27.8118 23.9645 28 23.4406 28H11.4039C10.1753 28 9.386 27.361 8.92258 26.5742C8.47235 25.8097 8.32783 24.9102 8.32783 24.3097V9.56365L6.96962 8.42511C6.39866 7.9465 6.31981 7.06739 6.79565 6.48568L8.30931 4.63528C8.76289 4.0808 9.55429 4.00286 10.0985 4.45907L11.5446 5.67128H13.2404C13.3131 3.95252 13.8318 2.79839 14.5155 2.06161ZM10.8291 6.1483L9.59724 5.11565C9.39081 4.9426 9.09062 4.97217 8.91857 5.18249L7.40492 7.03289C7.22442 7.25354 7.25433 7.58699 7.4709 7.76853L8.67683 8.77942L10.8291 6.1483ZM18.2571 4.17647L16.8306 5.67128H23.0394V4.17647H18.2571ZM17.7811 3.48614C17.8731 3.38978 17.9978 3.33564 18.1279 3.33564H23.3514C23.6223 3.33564 23.8418 3.56569 23.8418 3.84948V6.51211H16.2924C15.7761 6.51211 15.5175 5.858 15.8826 5.47544L17.7811 3.48614ZM18.0027 18.7042L22.5493 14.1472C22.7043 13.9918 22.7099 13.742 22.5619 13.5799C22.4038 13.4067 22.1331 13.4007 21.9675 13.5667L17.4222 18.1224L12.8769 13.5667C12.7113 13.4007 12.4406 13.4067 12.2825 13.5799C12.1346 13.742 12.1401 13.9918 12.2951 14.1472L16.8418 18.7042L12.2951 23.2611C12.1401 23.4165 12.1346 23.6663 12.2825 23.8284C12.4406 24.0016 12.7113 24.0076 12.8769 23.8416L17.4222 19.2859L21.9675 23.8416C22.1331 24.0076 22.4038 24.0016 22.5619 23.8284C22.7099 23.6663 22.7043 23.4165 22.5493 23.2611L18.0027 18.7042Z" fill="#8F9BB3"/>
</svg>
