<svg width="32" height="32" viewBox="0 0 32 32" fill="none" xmlns="http://www.w3.org/2000/svg">
<path fill-rule="evenodd" clip-rule="evenodd" d="M22.7544 4C21.9818 4 21.3638 4.18466 20.9065 4.54847C20.4495 4.91218 20.1979 5.41935 20.0868 5.98171C19.9109 6.87188 20.074 7.96217 20.3949 9.04998C20.4625 9.27901 20.3353 9.52252 20.1061 9.58949L17.9557 10.2177C17.847 10.2495 17.7301 10.2362 17.6312 10.1809L13.3091 7.76066C13.2052 7.70247 13.0815 7.69092 12.9686 7.72884L5.28752 10.3095C5.11573 10.3672 5 10.5282 5 10.7094V28.3861C5 28.6821 5.2968 28.886 5.5731 28.7799L12.8889 25.9709C13.0059 25.926 13.1369 25.9354 13.2462 25.9967L17.5335 28.3973C17.6323 28.4527 17.7492 28.4659 17.8579 28.4342L26.6964 25.852C26.8763 25.7994 27 25.6345 27 25.447V18.4485C27 18.2353 26.8272 18.0625 26.614 18.0625C26.4009 18.0625 26.2281 18.2353 26.2281 18.4485V24.898C26.2281 25.0854 26.1044 25.2504 25.9245 25.303L18.663 27.4244C18.3929 27.5033 18.1228 27.3008 18.1228 27.0195V11.2597C18.1228 11.0723 18.2465 10.9073 18.4264 10.8548L20.4038 10.277C20.6145 10.2155 20.8367 10.3259 20.92 10.529C21.3681 11.6208 21.9204 12.6597 22.4247 13.455C22.5812 13.7018 22.9439 13.6958 23.0911 13.4434C23.787 12.2506 24.5983 10.6446 25.0876 9.10791C25.1309 8.97165 25.2381 8.86473 25.3753 8.82463L25.6879 8.73331C25.9579 8.65442 26.2281 8.85693 26.2281 9.13826V16.2834C26.2281 16.4966 26.4009 16.6694 26.614 16.6694C26.8272 16.6694 27 16.4966 27 16.2834V8.13819C27 7.85686 26.7299 7.65435 26.4598 7.73324L26.0502 7.85291C25.7437 7.94247 25.4513 7.67139 25.4895 7.35431C25.5702 6.68368 25.5428 6.04992 25.3452 5.51322C25.1776 5.05832 24.8862 4.66985 24.44 4.39992C23.9985 4.13286 23.4359 4 22.7544 4ZM20.8452 6.1198C20.6662 7.02576 20.9116 8.28368 21.3811 9.59004C21.6626 10.3735 22.0167 11.1526 22.3828 11.8506C22.5355 12.1416 22.9448 12.1379 23.0951 11.8457C23.6358 10.794 24.1561 9.60629 24.4676 8.49723C24.7797 7.38589 24.8616 6.42322 24.6174 5.76023C24.4998 5.44112 24.3089 5.19648 24.0284 5.0268C23.7432 4.85425 23.3349 4.74099 22.7544 4.74099C22.1088 4.74099 21.682 4.8939 21.3992 5.11895C21.1162 5.34409 20.9327 5.67705 20.8452 6.1198ZM16.7229 27.0856C17.0041 27.243 17.3509 27.0398 17.3509 26.7175V11.129C17.3509 10.9763 17.2684 10.8355 17.1351 10.7609L14.1192 9.07216C13.838 8.91469 13.4912 9.11795 13.4912 9.44025V25.0287C13.4912 25.1814 13.5737 25.3222 13.707 25.3968L16.7229 27.0856ZM12.4486 25.3419C12.6117 25.2793 12.7193 25.1227 12.7193 24.948V9.18446C12.7193 8.89608 12.4364 8.69271 12.1631 8.78455L6.05945 10.8352C5.88766 10.8929 5.77193 11.0539 5.77193 11.2351V27.2916C5.77193 27.5876 6.06873 27.7916 6.34503 27.6855L12.4486 25.3419Z" fill="#8F9BB3"/>
<path d="M22.7389 6.22298C22.5343 6.22298 22.3684 6.38886 22.3684 6.59347C22.3684 6.79809 22.5343 6.96397 22.7389 6.96397H22.7699C22.9745 6.96397 23.1404 6.79809 23.1404 6.59347C23.1404 6.38886 22.9745 6.22298 22.7699 6.22298H22.7389Z" fill="#8F9BB3"/>
</svg>
