<?xml version="1.0" standalone="no"?>
<!DOCTYPE svg PUBLIC "-//W3C//DTD SVG 20010904//EN"
 "http://www.w3.org/TR/2001/REC-SVG-20010904/DTD/svg10.dtd">
<svg version="1.0" xmlns="http://www.w3.org/2000/svg"
 width="64.000000pt" height="64.000000pt" viewBox="0 0 64.000000 64.000000"
 preserveAspectRatio="xMidYMid meet">

<g transform="translate(0.000000,64.000000) scale(0.100000,-0.100000)"
fill="#8F9BB3" stroke="none">
<path d="M259 611 c-19 -19 -29 -40 -29 -59 0 -21 -6 -31 -20 -35 -13 -3 -20
-14 -20 -30 0 -17 -7 -28 -21 -32 -24 -8 -59 -61 -59 -92 0 -19 -6 -22 -42
-25 -40 -3 -43 -5 -46 -36 -2 -21 2 -34 11 -38 11 -4 13 -21 9 -78 -3 -48 -1
-76 7 -80 6 -4 11 -25 11 -47 0 -37 -2 -39 -30 -39 -17 0 -30 -4 -30 -10 0 -6
113 -10 320 -10 207 0 320 4 320 10 0 6 -13 10 -30 10 -28 0 -30 2 -30 39 0
22 5 43 11 47 8 4 10 32 7 80 -4 57 -2 74 9 78 9 4 13 17 11 38 -3 31 -6 33
-45 36 -37 3 -43 6 -43 25 0 31 -35 84 -59 92 -14 4 -21 15 -21 32 0 16 -7 27
-20 30 -14 4 -20 14 -20 35 0 41 -48 88 -90 88 -22 0 -41 -9 -61 -29z m108
-13 c23 -22 33 -78 13 -78 -5 0 -10 11 -10 24 0 29 -24 56 -50 56 -26 0 -50
-27 -50 -56 0 -13 -4 -24 -10 -24 -18 0 -10 53 12 77 27 29 65 29 95 1z m-19
-50 c3 -25 0 -28 -27 -28 -26 0 -31 4 -31 23 0 30 9 39 35 35 13 -2 21 -12 23
-30z m82 -118 l0 -70 -110 0 -110 0 0 70 0 70 110 0 110 0 0 -70z m-110 -85
l125 0 5 48 c5 46 6 47 26 33 12 -9 26 -35 33 -59 6 -25 13 -52 17 -61 11 -29
-24 -31 -51 -2 -30 33 -59 33 -89 1 -22 -24 -28 -25 -144 -25 -66 0 -123 4
-126 8 -9 16 26 117 47 136 l22 18 5 -48 5 -49 125 0z m-230 -33 c0 -12 -23
-32 -37 -32 -7 0 -13 9 -13 20 0 15 7 20 25 20 14 0 25 -4 25 -8z m510 -12 c0
-22 -20 -26 -38 -8 -19 19 -14 28 13 28 18 0 25 -5 25 -20z m-140 -5 c11 -13
7 -15 -30 -15 -37 0 -41 2 -30 15 7 8 20 15 30 15 10 0 23 -7 30 -15z m-140
-35 c110 0 199 4 210 10 15 8 21 6 30 -10 12 -23 10 -24 -52 -35 -24 -4 -39
-12 -43 -25 -10 -32 3 -40 61 -40 54 0 55 0 52 -28 l-3 -27 -255 0 -255 0 -3
28 c-3 27 -2 27 52 27 58 0 71 8 61 40 -4 13 -19 21 -43 25 -62 11 -64 12 -52
35 9 16 15 18 30 10 11 -6 100 -10 210 -10z m-185 -55 c43 -9 27 -25 -25 -25
-43 0 -50 3 -50 20 0 16 5 19 25 15 14 -3 36 -7 50 -10z m445 -5 c0 -17 -7
-20 -50 -20 -51 0 -68 16 -27 24 49 11 62 14 70 15 4 0 7 -8 7 -19z m-442
-147 c-2 -22 -8 -28 -28 -28 -20 0 -26 6 -28 28 -3 24 0 27 28 27 28 0 31 -3
28 -27z m342 -3 l0 -30 -160 0 -160 0 0 30 0 30 160 0 160 0 0 -30z m78 3 c-2
-22 -8 -28 -28 -28 -20 0 -26 6 -28 28 -3 24 0 27 28 27 28 0 31 -3 28 -27z"/>
<path d="M210 180 c0 -11 5 -20 10 -20 6 0 10 9 10 20 0 11 -4 20 -10 20 -5 0
-10 -9 -10 -20z"/>
<path d="M260 180 c0 -11 5 -20 10 -20 6 0 10 9 10 20 0 11 -4 20 -10 20 -5 0
-10 -9 -10 -20z"/>
<path d="M310 180 c0 -11 5 -20 10 -20 6 0 10 9 10 20 0 11 -4 20 -10 20 -5 0
-10 -9 -10 -20z"/>
<path d="M360 180 c0 -11 5 -20 10 -20 6 0 10 9 10 20 0 11 -4 20 -10 20 -5 0
-10 -9 -10 -20z"/>
<path d="M410 180 c0 -11 5 -20 10 -20 6 0 10 9 10 20 0 11 -4 20 -10 20 -5 0
-10 -9 -10 -20z"/>
<path d="M80 130 c0 -5 14 -10 30 -10 17 0 30 5 30 10 0 6 -13 10 -30 10 -16
0 -30 -4 -30 -10z"/>
<path d="M160 130 c0 -6 60 -10 160 -10 100 0 160 4 160 10 0 6 -60 10 -160
10 -100 0 -160 -4 -160 -10z"/>
<path d="M500 130 c0 -5 14 -10 30 -10 17 0 30 5 30 10 0 6 -13 10 -30 10 -16
0 -30 -4 -30 -10z"/>
</g>
</svg>
