<svg width="32" height="32" viewBox="0 0 32 32" fill="none" xmlns="http://www.w3.org/2000/svg">
<path fill-rule="evenodd" clip-rule="evenodd" d="M7.65385 5.70769H25.3462C26.421 5.70769 27.2923 6.57902 27.2923 7.65385V17.7561C27.2923 17.9515 27.4507 18.11 27.6462 18.11C27.8416 18.11 28 17.9515 28 17.7561V7.65385C28 6.18817 26.8118 5 25.3462 5H7.65385C6.18817 5 5 6.18817 5 7.65385V23.5769C5 25.0426 6.18817 26.2308 7.65385 26.2308H25.3462C26.8118 26.2308 28 25.0426 28 23.5769V20.3923C28 20.1969 27.8416 20.0385 27.6462 20.0385C27.4507 20.0385 27.2923 20.1969 27.2923 20.3923V23.5769C27.2923 24.6518 26.421 25.5231 25.3462 25.5231H7.65385C6.57902 25.5231 5.70769 24.6518 5.70769 23.5769V7.65385C5.70769 6.57902 6.57902 5.70769 7.65385 5.70769Z" fill="#8F9BB3"/>
<path d="M13.7079 12.6454C13.7459 12.6026 13.8003 12.5781 13.8575 12.5781H14.3927C14.5656 12.5781 14.657 12.7826 14.5418 12.9114L12.188 15.5439C12.12 15.62 12.1202 15.7352 12.1886 15.8111L14.7616 18.6661C14.8775 18.7948 14.7862 19 14.613 19H14.0093C13.9524 19 13.8982 18.9758 13.8603 18.9334L11.3509 16.1318C11.2285 15.9951 11.002 16.0817 11.002 16.2652V18.8C11.002 18.9105 10.9124 19 10.802 19H10.2234C10.113 19 10.0234 18.9105 10.0234 18.8V12.7781C10.0234 12.6677 10.113 12.5781 10.2234 12.5781H10.802C10.9124 12.5781 11.002 12.6677 11.002 12.7781V15.1685C11.002 15.3525 11.2294 15.4389 11.3516 15.3013L13.7079 12.6454Z" fill="#8F9BB3"/>
<path d="M22.802 12.5781C22.9124 12.5781 23.002 12.6677 23.002 12.7781V18.8C23.002 18.9105 22.9124 19 22.802 19H22.323C22.2126 19 22.123 18.9105 22.123 18.8V14.8164C22.123 14.6445 22.127 14.4707 22.1348 14.2949C22.146 14.1225 22.1591 13.95 22.1739 13.7775C22.1749 13.7659 22.1657 13.7559 22.154 13.7559C22.1459 13.7559 22.1386 13.7608 22.1356 13.7683L20.0585 18.8753C20.0279 18.9507 19.9546 19 19.8732 19H19.3175C19.2355 19 19.1618 18.95 19.1316 18.8737L17.1066 13.7686C17.1036 13.7609 17.0961 13.7559 17.0879 13.7559C17.0763 13.7559 17.067 13.7657 17.0678 13.7773C17.0787 13.9498 17.0861 14.1224 17.0898 14.2949C17.0977 14.4707 17.1016 14.6562 17.1016 14.8516V18.8C17.1016 18.9105 17.012 19 16.9016 19H16.4168C16.3063 19 16.2168 18.9105 16.2168 18.8V12.7781C16.2168 12.6677 16.3063 12.5781 16.4168 12.5781H17.3874C17.4695 12.5781 17.5433 12.6283 17.5734 12.7046L19.413 17.3606C19.4794 17.5289 19.7173 17.5294 19.7846 17.3615L21.6508 12.7037C21.6812 12.6279 21.7548 12.5781 21.8365 12.5781H22.802Z" fill="#8F9BB3"/>
</svg>
