<svg width="32" height="32" viewBox="0 0 32 32" fill="none" xmlns="http://www.w3.org/2000/svg">
<path fill-rule="evenodd" clip-rule="evenodd" d="M16.652 3.18379V1.60562C16.652 1.2431 16.9459 0.949219 17.3084 0.949219C17.671 0.949219 17.9648 1.2431 17.9648 1.60562V3.18379H19.2637C20.202 3.18379 20.9058 3.45709 21.4112 3.89457C21.9116 4.32774 22.1862 4.89466 22.3211 5.4328C22.5097 6.18502 21.8552 6.73116 21.2189 6.73116H20.2496C20.0413 6.73116 19.8725 6.56233 19.8725 6.35408C19.8725 6.14582 20.0413 5.97699 20.2496 5.97699H21.2189C21.3488 5.97699 21.4597 5.92308 21.5264 5.85119C21.5885 5.78426 21.6119 5.70536 21.5896 5.61619C21.4818 5.18629 21.2718 4.7714 20.9176 4.46476C20.5683 4.16244 20.0476 3.93795 19.2637 3.93795H14.7946C14.3634 3.93795 13.9725 4.03116 13.6677 4.2617C13.3698 4.48711 13.1061 4.88012 12.9937 5.57817C12.9641 5.76232 13.121 5.97699 13.398 5.97699H18.2385C18.4468 5.97699 18.6156 6.14582 18.6156 6.35408C18.6156 6.56233 18.4468 6.73116 18.2385 6.73116H13.398C12.7493 6.73116 12.1317 6.18798 12.2492 5.45831C12.3852 4.61345 12.7269 4.02778 13.2128 3.66023C13.6919 3.2978 14.2634 3.18379 14.7946 3.18379H16.652ZM10.8841 9.70593C10.7108 9.59041 10.664 9.35629 10.7795 9.18301L11.4784 8.13458C11.5939 7.9613 11.8281 7.91448 12.0013 8.03C12.1746 8.14552 12.2215 8.37964 12.1059 8.55292L11.407 9.60134C11.2915 9.77462 11.0573 9.82145 10.8841 9.70593Z" fill="#8F9BB3"/>
<path fill-rule="evenodd" clip-rule="evenodd" d="M8.69142 17.1684C8.27829 17.2114 7.93138 17.3313 7.65512 17.5487C7.29527 17.8318 7.11246 18.2351 7.01987 18.6827C6.92839 19.1249 6.91722 19.6483 6.9303 20.2179C6.93678 20.5002 6.95055 20.8226 6.96503 21.1617C6.97868 21.4816 6.99298 21.8164 7.0024 22.1464C7.02122 22.806 7.5564 23.3508 8.22981 23.3508H26.2464C26.9169 23.3508 27.4647 22.805 27.4569 22.13C27.4445 21.0667 27.4061 20.2334 27.3286 19.5828C27.2517 18.937 27.1332 18.4407 26.9429 18.07C26.7436 17.6815 26.4672 17.435 26.1081 17.2987C25.8799 17.212 25.6287 17.1744 25.3662 17.1592C25.3642 16.4563 25.3502 15.7698 25.2507 15.1378C25.1328 14.3888 24.8913 13.6869 24.3864 13.093C23.3788 11.9075 21.4402 11.2842 17.8668 11.2842H16.6098C12.831 11.2842 10.7915 11.9062 9.73061 13.0849C9.19636 13.6785 8.93945 14.3822 8.81407 15.1344C8.708 15.7708 8.69342 16.4621 8.69142 17.1684ZM9.44571 17.1499H12.839C13.3852 17.1499 14.4412 17.4132 15.018 18.4078C15.1763 18.6807 15.3928 18.8258 15.5882 18.8258H18.7047C18.8272 18.8258 18.9669 18.7735 19.1212 18.6578C19.2748 18.5427 19.419 18.3823 19.5409 18.2139C19.9358 17.6681 20.6525 17.1499 21.6376 17.1499H24.612C24.6097 16.4554 24.5955 15.8257 24.5057 15.2551C24.401 14.5899 24.1973 14.035 23.8118 13.5814C23.0388 12.6719 21.416 12.0383 17.8668 12.0383H17.6154V13.7981H18.4255C18.788 13.7981 19.0818 14.0919 19.0818 14.4544C19.0818 14.8169 18.788 15.1107 18.4255 15.1107H16.0511C15.6886 15.1107 15.3948 14.8169 15.3948 14.4544C15.3948 14.0919 15.6886 13.7981 16.0511 13.7981H16.8612V12.0383H16.6098C12.847 12.0383 11.1157 12.6733 10.2912 13.5894C9.88271 14.0433 9.66827 14.5966 9.55797 15.2584C9.46314 15.8274 9.44809 16.4556 9.44571 17.1499ZM21.6376 17.9041C20.9374 17.9041 20.4322 18.2686 20.1519 18.656C20.0024 18.8625 19.8072 19.0861 19.5735 19.2613C19.3406 19.4359 19.0451 19.58 18.7047 19.58H15.5882C15.0146 19.58 14.5931 19.1785 14.3656 18.7861C13.968 18.1004 13.218 17.9041 12.839 17.9041H9.06818C8.57849 17.9041 8.29536 18.0045 8.12147 18.1414C7.95091 18.2756 7.83022 18.4883 7.7584 18.8355C7.68548 19.188 7.67135 19.6381 7.68427 20.2006C7.69108 20.4974 7.70404 20.796 7.71796 21.1164C7.7314 21.4262 7.74574 21.7563 7.75625 22.1249C7.76382 22.3901 7.97796 22.5967 8.22981 22.5967H26.2464C26.5015 22.5967 26.7057 22.3894 26.7028 22.1388C26.6905 21.0841 26.6524 20.2824 26.5797 19.672C26.5064 19.0567 26.401 18.6658 26.2719 18.4143C26.1519 18.1804 26.0135 18.0694 25.8405 18.0037C25.6441 17.9292 25.38 17.9041 24.9895 17.9041H21.6376ZM9.74463 20.3201C9.74463 20.0347 9.97602 19.8033 10.2614 19.8033H11.8603C12.1458 19.8033 12.3771 20.0347 12.3771 20.3201C12.3771 20.6056 12.1458 20.837 11.8603 20.837H10.2614C9.97602 20.837 9.74463 20.6056 9.74463 20.3201ZM21.6785 20.3201C21.6785 20.0347 21.9099 19.8033 22.1953 19.8033H24.0108C24.2962 19.8033 24.5276 20.0347 24.5276 20.3201C24.5276 20.6056 24.2962 20.837 24.0108 20.837H22.1953C21.9099 20.837 21.6785 20.6056 21.6785 20.3201Z" fill="#8F9BB3"/>
<path fill-rule="evenodd" clip-rule="evenodd" d="M13.6773 23.3508C13.4227 23.3508 13.2164 23.5572 13.2164 23.8117V24.6497C13.2164 25.3207 12.6724 25.8647 12.0014 25.8647H9.90645C9.2354 25.8647 8.69141 25.3207 8.69141 24.6497V22.9738H9.44557V24.6497C9.44557 24.9042 9.65192 25.1106 9.90645 25.1106H12.0014C12.2559 25.1106 12.4622 24.9042 12.4622 24.6497V23.8117C12.4622 23.1407 13.0062 22.5967 13.6773 22.5967H20.8C21.471 22.5967 22.015 23.1407 22.015 23.8117V24.6497C22.015 24.9042 22.2214 25.1106 22.4759 25.1106H24.5708C24.8253 25.1106 25.0317 24.9042 25.0317 24.6497V22.9738H25.7858V24.6497C25.7858 25.3207 25.2418 25.8647 24.5708 25.8647H22.4759C21.8048 25.8647 21.2608 25.3207 21.2608 24.6497V23.8117C21.2608 23.5572 21.0545 23.3508 20.8 23.3508H13.6773Z" fill="#8F9BB3"/>
<path fill-rule="evenodd" clip-rule="evenodd" d="M17.0294 9.7062C16.8212 9.7062 16.6523 9.53737 16.6523 9.32912V8.40736C16.6523 8.1991 16.8212 8.03027 17.0294 8.03027C17.2377 8.03027 17.4065 8.1991 17.4065 8.40736V9.32912C17.4065 9.53737 17.2377 9.7062 17.0294 9.7062Z" fill="#8F9BB3"/>
<path fill-rule="evenodd" clip-rule="evenodd" d="M23.1742 9.7063C22.9766 9.77216 22.7631 9.66538 22.6972 9.46781L22.3771 8.50735C22.3112 8.30978 22.418 8.09623 22.6155 8.03038C22.8131 7.96452 23.0267 8.0713 23.0925 8.26887L23.4127 9.22933C23.4785 9.4269 23.3718 9.64044 23.1742 9.7063Z" fill="#8F9BB3"/>
<path d="M30.3639 1.58896L4.09768 25.9096C4.03488 25.9677 3.95246 26 3.86688 26C3.5579 26 3.40936 25.621 3.63608 25.411L29.9023 1.09044C29.9651 1.0323 30.0475 1 30.1331 1C30.4421 1 30.5906 1.37904 30.3639 1.58896Z" fill="#8F9BB3"/>
</svg>
