<svg width="8" height="16" viewBox="0 0 8 16" fill="none" xmlns="http://www.w3.org/2000/svg">
<path id="Vector" d="M0.00270149 7.68852C0.00218033 7.93843 0.0951321 8.18061 0.265423 8.37304L5.97676 14.7904C6.17064 15.0088 6.44926 15.1462 6.7513 15.1722C7.05335 15.1983 7.35408 15.111 7.58735 14.9294C7.82062 14.7479 7.96732 14.487 7.99517 14.2042C8.02301 13.9214 7.92974 13.6398 7.73585 13.4213L2.61849 7.68852L7.55308 1.9557C7.64797 1.8463 7.71882 1.72041 7.76158 1.58529C7.80434 1.45016 7.81815 1.30845 7.80223 1.16831C7.78631 1.02817 7.74096 0.892353 7.6688 0.768674C7.59664 0.644994 7.49909 0.535887 7.38174 0.447624C7.26429 0.349674 7.12651 0.275491 6.97701 0.229721C6.82752 0.183952 6.66955 0.167586 6.51298 0.181643C6.35642 0.1957 6.20464 0.239879 6.06716 0.311414C5.92969 0.382949 5.80946 0.4803 5.71403 0.597364L0.196887 7.0147C0.0535142 7.21266 -0.0148562 7.4499 0.00270149 7.68852Z" fill="#3C3E5A"/>
</svg>
