<svg width="11" height="12" viewBox="0 0 11 12" fill="none" xmlns="http://www.w3.org/2000/svg">
<path id="Vector" d="M6.92121 1.27504C6.73613 1.08565 6.51507 0.935169 6.27101 0.832426C6.02695 0.729684 5.76481 0.676758 5.5 0.676758C5.23519 0.676758 4.97305 0.729684 4.72899 0.832426C4.48493 0.935169 4.26387 1.08565 4.07879 1.27504L3.65113 1.71368L3.03919 1.70612C2.7743 1.70298 2.51147 1.75284 2.26613 1.85276C2.02079 1.95268 1.79792 2.10064 1.6106 2.28794C1.42328 2.47525 1.27531 2.69811 1.17539 2.94343C1.07546 3.18875 1.0256 3.45158 1.02874 3.71645L1.03561 4.32834L0.598319 4.75599C0.408922 4.94105 0.258427 5.1621 0.155678 5.40614C0.0529295 5.65019 0 5.91231 0 6.1771C0 6.44189 0.0529295 6.70401 0.155678 6.94806C0.258427 7.19211 0.408922 7.41316 0.598319 7.59822L1.0363 8.02586L1.02874 8.63776C1.0256 8.90263 1.07546 9.16545 1.17539 9.41077C1.27531 9.65609 1.42328 9.87895 1.6106 10.0663C1.79792 10.2536 2.02079 10.4015 2.26613 10.5014C2.51147 10.6014 2.7743 10.6512 3.03919 10.6481L3.65113 10.6412L4.07879 11.0785C4.26387 11.2679 4.48493 11.4183 4.72899 11.5211C4.97305 11.6238 5.23519 11.6768 5.5 11.6768C5.76481 11.6768 6.02695 11.6238 6.27101 11.5211C6.51507 11.4183 6.73613 11.2679 6.92121 11.0785L7.34887 10.6405L7.96081 10.6481C8.2257 10.6512 8.48854 10.6014 8.73387 10.5014C8.97921 10.4015 9.20209 10.2536 9.3894 10.0663C9.57672 9.87895 9.72469 9.65609 9.82461 9.41077C9.92454 9.16545 9.9744 8.90263 9.97126 8.63776L9.96439 8.02586L10.4017 7.59822C10.5911 7.41316 10.7416 7.19211 10.8443 6.94806C10.9471 6.70401 11 6.44189 11 6.1771C11 5.91231 10.9471 5.65019 10.8443 5.40614C10.7416 5.1621 10.5911 4.94105 10.4017 4.75599L9.9637 4.32834L9.97126 3.71645C9.9744 3.45158 9.92454 3.18875 9.82461 2.94343C9.72469 2.69811 9.57672 2.47525 9.3894 2.28794C9.20209 2.10064 8.97921 1.95268 8.73387 1.85276C8.48854 1.75284 8.2257 1.70298 7.96081 1.70612L7.34887 1.71299L6.92121 1.27573V1.27504ZM5.5 3.427C5.86785 3.427 6.15594 3.74463 6.11881 4.11109L5.87816 6.52224C5.87008 6.61696 5.82673 6.7052 5.75671 6.7695C5.68668 6.8338 5.59507 6.86948 5.5 6.86948C5.40493 6.86948 5.31332 6.8338 5.24329 6.7695C5.17327 6.7052 5.12992 6.61696 5.12184 6.52224L4.88119 4.11109C4.87255 4.02462 4.88211 3.9373 4.90927 3.85475C4.93643 3.77221 4.98058 3.69626 5.03888 3.63182C5.09717 3.56737 5.16832 3.51585 5.24775 3.48057C5.32717 3.4453 5.4131 3.42705 5.5 3.427ZM5.50138 7.55215C5.68373 7.55215 5.85862 7.62459 5.98756 7.75353C6.1165 7.88246 6.18894 8.05734 6.18894 8.23968C6.18894 8.42202 6.1165 8.5969 5.98756 8.72583C5.85862 8.85477 5.68373 8.92721 5.50138 8.92721C5.31902 8.92721 5.14413 8.85477 5.01519 8.72583C4.88625 8.5969 4.81381 8.42202 4.81381 8.23968C4.81381 8.05734 4.88625 7.88246 5.01519 7.75353C5.14413 7.62459 5.31902 7.55215 5.50138 7.55215Z" fill="#DBE3EF"/>
</svg>
