<svg width="14" height="14" viewBox="0 0 14 14" fill="none" xmlns="http://www.w3.org/2000/svg">
<path id="Vector (Stroke)" fill-rule="evenodd" clip-rule="evenodd" d="M6.6738 2.20758C5.44244 2.20758 4.26151 2.69673 3.3908 3.56744C2.5201 4.43814 2.03094 5.61907 2.03094 6.85043C2.03094 8.0818 2.5201 9.26273 3.3908 10.1334C4.26151 11.0041 5.44244 11.4933 6.6738 11.4933C7.89955 11.4933 9.07533 11.0086 9.94487 10.1453C9.94962 10.1403 9.95446 10.1353 9.95941 10.1303C9.96389 10.1258 9.96842 10.1214 9.973 10.1171C10.8336 9.24803 11.3167 8.07414 11.3167 6.85043C11.3167 5.61907 10.8275 4.43814 9.9568 3.56744C9.08609 2.69673 7.90516 2.20758 6.6738 2.20758ZM11.2488 10.5457C12.0899 9.50446 12.5548 8.20141 12.5548 6.85043C12.5548 5.29071 11.9352 3.79487 10.8323 2.69197C9.72937 1.58908 8.23352 0.969482 6.6738 0.969482C5.11407 0.969482 3.61823 1.58908 2.51534 2.69197C1.41245 3.79487 0.792847 5.29071 0.792847 6.85043C0.792847 8.41016 1.41245 9.906 2.51534 11.0089C3.61823 12.1118 5.11407 12.7314 6.6738 12.7314C8.02679 12.7314 9.33171 12.2652 10.3738 11.4217L12.7357 13.7878C12.9772 14.0297 13.3692 14.0301 13.6111 13.7886C13.8531 13.547 13.8535 13.1551 13.6119 12.9131L11.2488 10.5457Z" fill="#222222"/>
</svg>
