<svg width="22" height="22" viewBox="0 0 22 22" fill="none" xmlns="http://www.w3.org/2000/svg">
<path fill-rule="evenodd" clip-rule="evenodd" d="M20 9.974H19.997C19.445 9.975 18.999 10.425 19 10.977C19.006 13.114 18.18 15.125 16.673 16.641C15.167 18.156 13.16 18.994 11.023 19H11C8.87105 19 6.86905 18.174 5.35905 16.673C3.84405 15.166 3.00605 13.16 3.00005 11.023C2.99405 8.886 3.82005 6.874 5.32705 5.359C6.83305 3.844 8.84005 3.006 10.977 3C11.603 3.01 12.262 3.073 12.883 3.223C13.417 3.351 13.96 3.021 14.089 2.485C14.219 1.948 13.888 1.408 13.352 1.278C12.576 1.092 11.766 1.012 10.971 1C8.30005 1.008 5.79205 2.055 3.90905 3.949C2.02505 5.843 0.992046 8.357 1.00005 11.029C1.00805 13.7 2.05505 16.208 3.94905 18.091C5.83605 19.968 8.33905 21 11 21H11.029C13.7 20.992 16.208 19.945 18.091 18.051C19.975 16.157 21.008 13.642 21 10.971C20.999 10.42 20.551 9.974 20 9.974Z" fill="#F1A153"/>
<mask id="mask0_3582_4373" style="mask-type:alpha" maskUnits="userSpaceOnUse" x="1" y="1" width="20" height="20">
<path fill-rule="evenodd" clip-rule="evenodd" d="M20 9.974H19.997C19.445 9.975 18.999 10.425 19 10.977C19.006 13.114 18.18 15.125 16.673 16.641C15.167 18.156 13.16 18.994 11.023 19H11C8.87105 19 6.86905 18.174 5.35905 16.673C3.84405 15.166 3.00605 13.16 3.00005 11.023C2.99405 8.886 3.82005 6.874 5.32705 5.359C6.83305 3.844 8.84005 3.006 10.977 3C11.603 3.01 12.262 3.073 12.883 3.223C13.417 3.351 13.96 3.021 14.089 2.485C14.219 1.948 13.888 1.408 13.352 1.278C12.576 1.092 11.766 1.012 10.971 1C8.30005 1.008 5.79205 2.055 3.90905 3.949C2.02505 5.843 0.992046 8.357 1.00005 11.029C1.00805 13.7 2.05505 16.208 3.94905 18.091C5.83605 19.968 8.33905 21 11 21H11.029C13.7 20.992 16.208 19.945 18.091 18.051C19.975 16.157 21.008 13.642 21 10.971C20.999 10.42 20.551 9.974 20 9.974Z" fill="white"/>
</mask>
<g mask="url(#mask0_3582_4373)">
</g>
<path fill-rule="evenodd" clip-rule="evenodd" d="M14.2149 19.469L14.2141 19.4661C14.077 18.9314 13.5309 18.6102 12.9962 18.7473C10.9267 19.2803 8.77408 18.976 6.93315 17.8896C5.09344 16.8039 3.78621 15.0657 3.25319 12.9962L3.24752 12.9739C2.72229 10.9107 3.02886 8.7668 4.11094 6.93317C5.19761 5.09322 6.93487 3.78623 9.00434 3.25322C11.0738 2.7202 13.2274 3.0243 15.0673 4.11097C16.9071 5.19666 18.2143 6.93489 18.7473 9.00436C18.8921 9.61348 18.9936 10.2676 19.0014 10.9065C19.0091 11.4555 19.4629 11.9003 20.0141 11.8931C20.5666 11.8866 21.0083 11.4326 21.002 10.8811C20.9908 10.0832 20.8685 9.27853 20.684 8.50514C20.0173 5.91867 18.3839 3.74649 16.0839 2.38894C13.7837 1.03043 11.0926 0.649571 8.50512 1.31651C5.91865 1.98321 3.74647 3.61658 2.38892 5.91658C1.03547 8.20832 0.652862 10.8885 1.30934 13.4673L1.31649 13.4954C1.98319 16.0819 3.61656 18.2541 5.91656 19.6116C8.21681 20.9701 10.9089 21.3507 13.4954 20.684C14.0291 20.5471 14.3508 20.0029 14.2149 19.469Z" fill="#FFA600" fill-opacity="0.21"/>
<mask id="mask1_3582_4373" style="mask-type:alpha" maskUnits="userSpaceOnUse" x="0" y="0" width="22" height="22">
<path fill-rule="evenodd" clip-rule="evenodd" d="M14.2149 19.469L14.2141 19.4661C14.077 18.9314 13.5309 18.6102 12.9962 18.7473C10.9267 19.2803 8.77408 18.976 6.93315 17.8896C5.09344 16.8039 3.78621 15.0657 3.25319 12.9962L3.24752 12.9739C2.72229 10.9107 3.02886 8.7668 4.11094 6.93317C5.19761 5.09322 6.93487 3.78623 9.00434 3.25322C11.0738 2.7202 13.2274 3.0243 15.0673 4.11097C16.9071 5.19666 18.2143 6.93489 18.7473 9.00436C18.8921 9.61348 18.9936 10.2676 19.0014 10.9065C19.0091 11.4555 19.4629 11.9003 20.0141 11.8931C20.5666 11.8866 21.0083 11.4326 21.002 10.8811C20.9908 10.0832 20.8685 9.27853 20.684 8.50514C20.0173 5.91867 18.3839 3.74649 16.0839 2.38894C13.7837 1.03043 11.0926 0.649571 8.50512 1.31651C5.91865 1.98321 3.74647 3.61658 2.38892 5.91658C1.03547 8.20832 0.652862 10.8885 1.30934 13.4673L1.31649 13.4954C1.98319 16.0819 3.61656 18.2541 5.91656 19.6116C8.21681 20.9701 10.9089 21.3507 13.4954 20.684C14.0291 20.5471 14.3508 20.0029 14.2149 19.469Z" fill="white"/>
</mask>
<g mask="url(#mask1_3582_4373)">
</g>
</svg>
