<svg width="20" height="20" viewBox="0 0 20 20" fill="none" xmlns="http://www.w3.org/2000/svg">
<g clip-path="url(#clip0_3271_4760)">
<path d="M10.1738 19.9676C12.1516 19.9676 14.085 19.3874 15.7295 18.3004C17.374 17.2134 18.6557 15.6684 19.4126 13.8608C20.1695 12.0532 20.3675 10.0641 19.9817 8.14517C19.5958 6.22622 18.6434 4.46355 17.2449 3.08006C15.8464 1.69657 14.0645 0.754406 12.1247 0.372703C10.1849 -0.0090005 8.17425 0.186903 6.34699 0.935641C4.51973 1.68438 2.95794 2.95232 1.85913 4.57913C0.760317 6.20594 0.173828 8.11855 0.173828 10.0751C0.176861 12.6978 1.2314 15.2123 3.10611 17.0668C4.98081 18.9214 7.52259 19.9646 10.1738 19.9676ZM10.1738 2.16112C11.7561 2.16112 13.3028 2.62526 14.6184 3.49486C15.934 4.36446 16.9594 5.60046 17.5649 7.04655C18.1704 8.49264 18.3288 10.0839 18.0201 11.619C17.7114 13.1542 16.9495 14.5643 15.8307 15.6711C14.7119 16.7779 13.2864 17.5316 11.7345 17.837C10.1827 18.1424 8.57417 17.9856 7.11236 17.3867C5.65055 16.7877 4.40112 15.7733 3.52207 14.4719C2.64302 13.1704 2.17383 11.6403 2.17383 10.0751C2.17625 7.97691 3.01989 5.96536 4.51965 4.48172C6.01942 2.99808 8.05284 2.16352 10.1738 2.16112Z" fill="#EB5757"/>
<path d="M7.28826 13.1893C7.5987 13.4908 8.09268 13.4908 8.40312 13.1893L10.1736 11.4694L11.9441 13.1893C12.2545 13.4908 12.7485 13.4908 13.0589 13.1893L13.3463 12.9101C13.6698 12.5959 13.6698 12.0766 13.3463 11.7624L11.6091 10.0749L13.3463 8.38728C13.6698 8.07309 13.6698 7.55382 13.3463 7.23964L13.0589 6.96045C12.7485 6.65888 12.2545 6.65888 11.9441 6.96045L10.1736 8.68035L8.40311 6.96045C8.09268 6.65888 7.5987 6.65888 7.28826 6.96045L7.00086 7.23964C6.67743 7.55382 6.67743 8.0731 7.00086 8.38728L8.73807 10.0749L7.00086 11.7624C6.67743 12.0766 6.67743 12.5959 7.00086 12.9101L7.28826 13.1893Z" fill="#EB5757"/>
</g>
<defs>
<clipPath id="clip0_3271_4760">
<rect width="20" height="20" fill="white"/>
</clipPath>
</defs>
</svg>
