<svg width="24" height="24" viewBox="0 0 24 24" fill="none" xmlns="http://www.w3.org/2000/svg">
<path d="M5.3845 1.10167L4.5241 1.36087C3.75799 1.59191 3.07383 2.03698 2.55213 2.64372C2.03043 3.25045 1.69291 3.99359 1.5793 4.78567C1.2229 7.26727 2.0197 10.1689 3.9409 13.4965C5.8573 16.8157 7.9669 18.9541 10.2889 19.8901C11.035 20.1908 11.8517 20.2709 12.642 20.1209C13.4323 19.9709 14.1629 19.5972 14.7469 19.0441L15.3973 18.4273C15.8196 18.0276 16.0825 17.4881 16.137 16.9092C16.1915 16.3302 16.034 15.7512 15.6937 15.2797L14.0665 13.0237C13.8465 12.7191 13.5367 12.491 13.1806 12.3714C12.8244 12.2517 12.4398 12.2465 12.0805 12.3565L9.6193 13.1089L9.5557 13.1209C9.2845 13.1605 8.6581 12.5737 7.8781 11.2225C7.0621 9.80887 6.8941 8.98207 7.1185 8.76847L8.3701 7.60087C8.82779 7.17423 9.14044 6.615 9.26419 6.00165C9.38794 5.3883 9.31657 4.7516 9.0601 4.18087L8.2657 2.41567C8.02682 1.88448 7.60293 1.45828 7.07305 1.21653C6.54317 0.974767 5.94345 0.933946 5.3857 1.10167H5.3845ZM7.1725 2.90767L7.9645 4.67287C8.11874 5.01515 8.16187 5.39715 8.08783 5.7652C8.01379 6.13326 7.8263 6.46886 7.5517 6.72487L6.2965 7.89367C5.4937 8.65447 5.7601 9.95287 6.8401 11.8225C7.8553 13.5817 8.7817 14.4505 9.7777 14.2993L9.9265 14.2681L12.4321 13.5037C12.5519 13.4669 12.6801 13.4685 12.7989 13.5083C12.9177 13.5481 13.0211 13.6241 13.0945 13.7257L14.7217 15.9817C14.8921 16.2174 14.971 16.507 14.9439 16.7966C14.9167 17.0862 14.7853 17.3561 14.5741 17.5561L13.9225 18.1729C13.5053 18.5677 12.9835 18.8345 12.4192 18.9415C11.8549 19.0485 11.2717 18.9912 10.7389 18.7765C8.7013 17.9557 6.7753 16.0033 4.9813 12.8965C3.1825 9.78247 2.4541 7.13407 2.7673 4.95607C2.84837 4.39019 3.08944 3.85925 3.46212 3.42577C3.8348 2.99228 4.32358 2.67431 4.8709 2.50927L5.7313 2.25007C6.01025 2.16625 6.31016 2.18675 6.57511 2.30774C6.84007 2.42874 7.05196 2.64197 7.1713 2.90767H7.1725Z" fill="#066BD6"/>
</svg>
