<svg width="89" height="88" viewBox="0 0 89 88" fill="none" xmlns="http://www.w3.org/2000/svg">
<path fill-rule="evenodd" clip-rule="evenodd" d="M71.1856 38.094L76.3401 42.5517C77.2234 43.3118 77.2234 44.6881 76.3196 45.4482L71.1648 49.9058C70.5695 50.4195 70.3639 51.2412 70.6106 51.9808L72.849 58.4106C73.2392 59.5197 72.5613 60.6907 71.4115 60.9166L64.7164 62.2109C63.9359 62.3545 63.3404 62.9707 63.1968 63.7309L61.9028 70.4279C61.677 71.5575 60.5063 72.2561 59.3975 71.8658L52.9696 69.6267C52.2302 69.3595 51.4087 69.5857 50.8952 70.1811L46.4388 75.3374C45.6789 76.2209 44.303 76.2209 43.5431 75.3374L39.0867 70.1811C38.5733 69.5857 37.7518 69.38 37.0125 69.6267L30.5845 71.8658C29.4755 72.2561 28.3049 71.578 28.079 70.4279L26.7852 63.7309C26.6415 62.9502 26.0254 62.3545 25.2655 62.2109L18.5706 60.9166C17.4411 60.6907 16.7428 59.5197 17.133 58.4106L19.3715 51.9808C19.6385 51.2412 19.4126 50.4195 18.817 49.9058L13.6623 45.4482C12.7792 44.6881 12.7792 43.3118 13.6623 42.5517L18.817 38.094C19.4126 37.5804 19.618 36.7588 19.3715 36.0192L17.133 29.5894C16.7428 28.4802 17.4205 27.3092 18.5706 27.0833L25.2655 25.7891C26.0459 25.6453 26.6415 25.029 26.7852 24.269L28.079 17.5721C28.3049 16.4423 29.4755 15.7439 30.5845 16.1342L37.0125 18.3733C37.7518 18.6404 38.5733 18.4144 39.0867 17.8187L43.5431 12.6625C44.303 11.7792 45.6789 11.7792 46.4388 12.6625L50.9157 17.8187C51.4293 18.4144 52.2507 18.6198 52.9901 18.3733L59.418 16.1342C60.5269 15.7439 61.6975 16.4218 61.9234 17.5721L63.1968 24.269C63.3404 25.0496 63.9564 25.6453 64.7164 25.7891L71.432 27.0833C72.5613 27.3092 73.2597 28.4802 72.8695 29.5894L70.6311 36.0192C70.3639 36.7588 70.5901 37.5804 71.1856 38.094ZM52.6204 47.7696L58.925 42.449C60.0956 41.4424 59.4796 39.5115 57.8982 39.3882L49.6835 38.7925L46.5827 31.1507C45.9871 29.7127 43.9539 29.7127 43.3789 31.1507L40.2778 38.7925L32.0632 39.3882C30.5229 39.4909 29.8863 41.4219 31.0774 42.4285L37.3822 47.7488L35.4106 55.7603C35.041 57.2806 36.6839 58.4721 37.9982 57.6504L45.0012 53.2954L52.0043 57.6709C53.3185 58.4721 54.9617 57.2806 54.592 55.7812L52.6204 47.7696Z" fill="#FFAA01"/>
</svg>
