<svg width="20" height="20" viewBox="0 0 20 20" fill="none" xmlns="http://www.w3.org/2000/svg">
<g clip-path="url(#clip0_4156_5028)">
<path fill-rule="evenodd" clip-rule="evenodd" d="M18.1619 8.14263L19.7708 9.53365C20.0465 9.77083 20.0465 10.2003 19.7644 10.4375L18.1554 11.8285C17.9696 11.9888 17.9054 12.2452 17.9824 12.476L18.6811 14.4824C18.8029 14.8285 18.5913 15.1939 18.2324 15.2644L16.1426 15.6683C15.899 15.7131 15.7131 15.9054 15.6683 16.1426L15.2644 18.2324C15.1939 18.5849 14.8285 18.8029 14.4824 18.6811L12.476 17.9824C12.2452 17.899 11.9888 17.9696 11.8285 18.1554L10.4375 19.7644C10.2003 20.0401 9.77083 20.0401 9.53365 19.7644L8.14263 18.1554C7.98237 17.9696 7.72596 17.9054 7.49519 17.9824L5.48878 18.6811C5.14263 18.8029 4.77724 18.5913 4.70673 18.2324L4.30288 16.1426C4.25801 15.899 4.0657 15.7131 3.82853 15.6683L1.73878 15.2644C1.38622 15.1939 1.16827 14.8285 1.29006 14.4824L1.98878 12.476C2.07212 12.2452 2.0016 11.9888 1.81571 11.8285L0.206731 10.4375C-0.0689103 10.2003 -0.0689103 9.77083 0.206731 9.53365L1.81571 8.14263C2.0016 7.98237 2.06571 7.72596 1.98878 7.49519L1.29006 5.48878C1.16827 5.14263 1.37981 4.77724 1.73878 4.70673L3.82853 4.30288C4.07212 4.25801 4.25801 4.0657 4.30288 3.82853L4.70673 1.73878C4.77724 1.38622 5.14263 1.16827 5.48878 1.29006L7.49519 1.98878C7.72596 2.07212 7.98237 2.0016 8.14263 1.81571L9.53365 0.206731C9.77083 -0.0689103 10.2003 -0.0689103 10.4375 0.206731L11.8349 1.81571C11.9952 2.0016 12.2516 2.06571 12.4824 1.98878L14.4888 1.29006C14.8349 1.16827 15.2003 1.37981 15.2708 1.73878L15.6683 3.82853C15.7131 4.07212 15.9054 4.25801 16.1426 4.30288L18.2388 4.70673C18.5913 4.77724 18.8093 5.14263 18.6875 5.48878L17.9888 7.49519C17.9054 7.72596 17.976 7.98237 18.1619 8.14263ZM12.367 11.1619L14.3349 9.5016C14.7003 9.1875 14.508 8.58494 14.0144 8.54647L11.4503 8.36058L10.4824 5.97596C10.2965 5.52724 9.66186 5.52724 9.48237 5.97596L8.51442 8.36058L5.95032 8.54647C5.46955 8.57853 5.27083 9.18109 5.64263 9.49519L7.61058 11.1554L6.99519 13.6554C6.87981 14.1298 7.39263 14.5016 7.80288 14.2452L9.98878 12.8862L12.1747 14.2516C12.5849 14.5016 13.0978 14.1298 12.9824 13.6619L12.367 11.1619Z" fill="#FFAA01"/>
</g>
<defs>
<clipPath id="clip0_4156_5028">
<rect width="20" height="20" fill="white"/>
</clipPath>
</defs>
</svg>
