<svg width="40" height="40" viewBox="0 0 40 40" fill="none" xmlns="http://www.w3.org/2000/svg">
<rect width="40" height="40" fill="white"/>
<path d="M16.4617 18.3476C19.394 18.3476 21.771 15.9857 21.771 13.0722C21.771 10.1587 19.394 7.79688 16.4617 7.79688C13.5294 7.79688 11.1523 10.1587 11.1523 13.0722C11.1523 15.9857 13.5294 18.3476 16.4617 18.3476Z" fill="#FFB8B8"/>
<path d="M14.2655 35.9797C13.5666 35.8962 12.8758 35.7842 12.1953 35.6396L12.8409 21.2043L12.9332 21.1086L14.2552 19.7217H18.4592L20.0108 21.2145L20.142 21.3428L23.4605 24.5015L24.9588 34.8311C23.4063 35.372 21.8007 35.7489 20.1686 35.9553C19.1559 36.0847 18.1357 36.1493 17.1146 36.1488C16.6002 36.1488 16.0877 36.1325 15.5814 36.0999C15.1387 36.0714 14.7001 36.0327 14.2655 35.9797Z" fill="white"/>
<path d="M6.92632 33.8705C6.48155 33.6627 6.04566 33.4408 5.61863 33.2045C5.57559 29.2943 5.54688 26.6976 5.54688 26.6976L6.04699 26.3942C6.05296 26.3911 6.05911 26.3884 6.06541 26.386L11.741 22.9605L12.9319 21.038L12.9381 21.1072L13.2886 25.16C14.3441 28.7401 15.1124 32.3978 15.5863 36.0985C15.1436 36.07 14.705 36.0313 14.2705 35.9783C13.5715 35.8948 12.8807 35.7828 12.2002 35.6382C12.1777 35.6342 12.1531 35.628 12.1306 35.624C10.7168 35.3269 9.3341 34.8994 8.00033 34.347C7.63761 34.1963 7.27892 34.0395 6.92632 33.8705Z" fill="#2F2E41"/>
<path d="M24.9593 34.8298C23.4068 35.3708 21.8012 35.7476 20.1691 35.954C19.9429 34.6395 19.8598 33.3047 19.9211 31.9725C20.3639 24.9402 19.3431 21.0381 19.7859 21.0381L20.0113 21.2132L22.7969 23.4005L26.4637 24.7365H26.4658L28.989 25.655L29.4338 25.818V26.0277C29.4358 26.7527 29.4399 29.2903 29.4769 32.7077C28.9726 33.0132 28.4568 33.3004 27.9293 33.5692C27.6096 33.7321 27.2877 33.8869 26.9599 34.0335C26.8778 34.0702 26.7938 34.1089 26.7098 34.1435C26.1379 34.396 25.5537 34.6262 24.9593 34.8298Z" fill="#2F2E41"/>
<path d="M11.438 14.7214C11.438 14.7214 11.8891 13.9343 11.7842 11.3048C11.6794 8.67523 15.7093 10.1624 19.0768 9.91161C22.4442 9.66076 21.7314 14.3017 21.7314 14.3017C21.7314 14.3017 21.9743 14.0258 22.4945 11.786C23.0146 9.54611 21.8336 7.31402 21.8336 7.31402C21.4858 4.96036 19.6113 5.71471 19.6113 5.71471C20.514 6.06388 20.3407 6.8105 20.3407 6.8105C19.5765 5.47935 17.702 6.2337 17.702 6.2337C15.202 4.67491 12.6682 6.72764 12.6682 6.72764C9.64808 7.40869 11.4193 9.79512 11.4193 9.79512C8.382 11.3202 11.438 14.7214 11.438 14.7214Z" fill="#2F2E41"/>
<path d="M3.03516 31.5647C3.11312 29.7745 3.14795 28.6198 3.10692 28.4589C2.89584 27.6198 5.77774 26.4956 6.04006 26.3958C6.04602 26.3928 6.05217 26.39 6.05847 26.3877L6.64476 26.6993L6.91939 33.8721C6.47462 33.6644 6.03872 33.4424 5.6117 33.2062C4.71802 32.715 3.85737 32.1667 3.03516 31.5647V31.5647Z" fill="#2F2E41"/>
<path d="M29.4707 32.7089C28.9665 33.0143 28.4506 33.3015 27.9231 33.5703C27.6035 33.7333 27.2816 33.888 26.9537 34.0347C26.8717 34.0713 26.7877 34.11 26.7036 34.1446L25.7812 25.0961L26.3203 24.7051C26.3203 24.7051 26.3695 24.7173 26.4576 24.7377H26.4597C26.8922 24.8436 28.2204 25.1939 28.9829 25.6562C29.1531 25.752 29.3039 25.8784 29.4277 26.0289C29.503 26.1187 29.5405 26.234 29.5322 26.3506C29.5077 26.5869 29.9176 28.8271 30.5243 32.0307C30.1799 32.2669 29.8287 32.493 29.4707 32.7089Z" fill="#2F2E41"/>
<path d="M29.0343 37.4327C28.7739 37.4318 28.5147 37.3984 28.2627 37.3333L28.213 37.3196L28.1669 37.2967C26.501 36.4653 25.0956 35.3671 23.9897 34.0326C23.0742 32.9215 22.3605 31.6599 21.8806 30.3046C21.3067 28.682 21.0306 26.9699 21.0654 25.25C21.0661 25.2139 21.0667 25.186 21.0667 25.1668C21.0667 24.3308 21.5329 23.5972 22.2545 23.298C22.8067 23.0689 27.8205 21.019 28.1827 20.8709C28.865 20.5306 29.5928 20.8146 29.7093 20.8643C29.9705 20.9706 34.6055 22.8577 35.6071 23.3324C36.6393 23.8217 36.9147 24.7007 36.9147 25.143C36.9147 27.1451 36.5664 29.0163 35.8794 30.7045C35.3245 32.071 34.5381 33.3326 33.5544 34.4342C31.6565 36.5602 29.7581 37.3139 29.7398 37.3205C29.5129 37.3983 29.2742 37.4362 29.0343 37.4327V37.4327ZM28.5878 36.3319C28.7524 36.3686 29.1314 36.4237 29.3783 36.334C29.6921 36.2201 31.281 35.4 32.7659 33.7367C34.8174 31.4386 35.8583 28.5498 35.8598 25.1504C35.8561 25.0815 35.807 24.5903 35.1535 24.2805C34.1713 23.815 29.3537 21.8541 29.3051 21.8343L29.2918 21.8287C29.1909 21.7866 28.8696 21.6979 28.6481 21.8134L28.6037 21.834C28.55 21.8559 23.2278 24.0319 22.6602 24.2673C22.2631 24.432 22.1217 24.8399 22.1217 25.1668C22.1217 25.1907 22.121 25.2255 22.1202 25.2704C22.0748 27.5964 22.6155 33.32 28.5878 36.3319Z" fill="#3F3D56"/>
<path d="M28.4054 21.2598C28.4054 21.2598 23.049 23.4648 22.4751 23.7044C21.9012 23.9441 21.6143 24.5193 21.6143 25.0946C21.6143 25.6698 21.1838 33.1756 28.4054 36.8047C28.4054 36.8047 29.0609 36.9865 29.5581 36.8047C30.0554 36.6229 36.3684 33.5551 36.3684 25.0706C36.3684 25.0706 36.3684 24.2078 35.364 23.7284C34.3597 23.2491 29.5039 21.2598 29.5039 21.2598C29.5039 21.2598 28.9076 20.9961 28.4054 21.2598Z" fill="#06BB9B"/>
<path opacity="0.2" d="M28.9336 23.002V34.8091C28.9336 34.8091 34.4484 32.192 34.3996 25.3115L28.9336 23.002Z" fill="black"/>
</svg>
