<svg width="40" height="40" viewBox="0 0 40 40" fill="none" xmlns="http://www.w3.org/2000/svg">
<g clip-path="url(#clip0_4109_4679)">
<rect width="40" height="40" fill="white"/>
<path d="M16.7913 16.0144C16.7098 16.0141 16.6305 15.9873 16.5649 15.9379L16.0192 15.5334C15.974 15.4997 15.9194 15.4815 15.8633 15.4815C15.8073 15.4815 15.7526 15.4997 15.7074 15.5334L15.1617 15.9379C15.0959 15.9867 15.0167 16.013 14.9353 16.013C14.854 16.013 14.7747 15.9867 14.7089 15.938C14.6431 15.8892 14.5941 15.8204 14.569 15.7414C14.5438 15.6625 14.5438 15.5775 14.5689 15.4985L14.7774 14.844C14.7948 14.7896 14.7949 14.731 14.7775 14.6766C14.7602 14.6222 14.7264 14.5748 14.681 14.5413L14.1353 14.1367C14.0695 14.088 14.0206 14.0192 13.9954 13.9402C13.9703 13.8613 13.9703 13.7762 13.9954 13.6973C14.0205 13.6184 14.0695 13.5496 14.1353 13.5008C14.2011 13.452 14.2804 13.4257 14.3617 13.4257H15.0362C15.0923 13.4258 15.1469 13.4078 15.1923 13.3741C15.2376 13.3405 15.2713 13.2931 15.2886 13.2387L15.4969 12.5841C15.5221 12.5052 15.5711 12.4364 15.6369 12.3876C15.7027 12.3388 15.782 12.3125 15.8633 12.3125C15.9447 12.3125 16.0239 12.3388 16.0897 12.3876C16.1555 12.4364 16.2045 12.5052 16.2297 12.5841L16.4381 13.2387C16.4553 13.2931 16.489 13.3405 16.5344 13.3741C16.5797 13.4078 16.6343 13.4258 16.6904 13.4257H17.3649C17.4462 13.4257 17.5255 13.452 17.5913 13.5008C17.6571 13.5496 17.706 13.6184 17.7312 13.6973C17.7563 13.7763 17.7563 13.8613 17.7312 13.9402C17.706 14.0192 17.6571 14.088 17.5913 14.1367L17.0456 14.5413C17.0002 14.5748 16.9664 14.6222 16.9491 14.6766C16.9318 14.731 16.9318 14.7896 16.9492 14.844L17.1577 15.4985C17.1837 15.5774 17.1842 15.6627 17.159 15.7419C17.1338 15.821 17.0842 15.8898 17.0177 15.9379C16.9521 15.9873 16.8728 16.0141 16.7913 16.0144Z" fill="#FFA200"/>
<path d="M22.3186 16.0144C22.2371 16.0141 22.1578 15.9873 22.0922 15.9379L21.5466 15.5334C21.5013 15.4997 21.4467 15.4815 21.3906 15.4815C21.3346 15.4815 21.28 15.4997 21.2347 15.5334L20.689 15.9379C20.6232 15.9867 20.544 16.013 20.4626 16.013C20.3813 16.013 20.302 15.9867 20.2362 15.938C20.1704 15.8892 20.1214 15.8204 20.0963 15.7414C20.0711 15.6625 20.0711 15.5775 20.0963 15.4985L20.3047 14.844C20.3221 14.7896 20.3222 14.731 20.3048 14.6766C20.2875 14.6222 20.2537 14.5748 20.2083 14.5413L19.6627 14.1367C19.5969 14.088 19.5479 14.0192 19.5228 13.9402C19.4976 13.8613 19.4976 13.7762 19.5228 13.6973C19.5479 13.6184 19.5969 13.5496 19.6627 13.5008C19.7285 13.452 19.8077 13.4257 19.8891 13.4257H20.5635C20.6196 13.4258 20.6742 13.4078 20.7196 13.3741C20.7649 13.3405 20.7986 13.2931 20.8159 13.2387L21.0243 12.5841C21.0494 12.5052 21.0984 12.4364 21.1642 12.3876C21.23 12.3388 21.3093 12.3125 21.3906 12.3125C21.472 12.3125 21.5512 12.3388 21.6171 12.3876C21.6829 12.4364 21.7318 12.5052 21.757 12.5841L21.9654 13.2387C21.9826 13.2931 22.0163 13.3405 22.0617 13.3741C22.107 13.4078 22.1617 13.4258 22.2177 13.4257H22.8922C22.9735 13.4257 23.0528 13.452 23.1186 13.5008C23.1844 13.5496 23.2334 13.6184 23.2585 13.6973C23.2836 13.7762 23.2836 13.8613 23.2585 13.9402C23.2334 14.0192 23.1844 14.088 23.1186 14.1367L22.5729 14.5413C22.5275 14.5748 22.4937 14.6222 22.4764 14.6766C22.4591 14.731 22.4591 14.7896 22.4766 14.844L22.685 15.4985C22.711 15.5774 22.7115 15.6627 22.6863 15.7419C22.6611 15.821 22.6115 15.8898 22.545 15.9379C22.4794 15.9873 22.4001 16.0141 22.3186 16.0144Z" fill="#FFA200"/>
<path d="M33.6858 16.0144C33.6043 16.0141 33.525 15.9873 33.4594 15.9379L32.9138 15.5334C32.8685 15.4997 32.8139 15.4815 32.7578 15.4815C32.7018 15.4815 32.6471 15.4997 32.6019 15.5334L32.0562 15.9379C31.9904 15.9867 31.9112 16.013 31.8298 16.013C31.7485 16.013 31.6692 15.9867 31.6034 15.938C31.5376 15.8892 31.4886 15.8204 31.4635 15.7414C31.4383 15.6625 31.4383 15.5775 31.4634 15.4985L31.6719 14.844C31.6893 14.7896 31.6894 14.731 31.672 14.6766C31.6547 14.6222 31.6209 14.5748 31.5755 14.5413L31.0299 14.1367C30.964 14.088 30.9151 14.0192 30.8899 13.9402C30.8648 13.8613 30.8648 13.7762 30.8899 13.6973C30.9151 13.6184 30.9641 13.5496 31.0299 13.5008C31.0957 13.452 31.1749 13.4257 31.2563 13.4257H31.9307C31.9868 13.4258 32.0414 13.4078 32.0868 13.3741C32.1321 13.3405 32.1658 13.2931 32.1831 13.2387L32.3915 12.5841C32.4166 12.5052 32.4656 12.4364 32.5314 12.3876C32.5972 12.3388 32.6765 12.3125 32.7578 12.3125C32.8392 12.3125 32.9184 12.3388 32.9842 12.3876C33.0501 12.4364 33.099 12.5052 33.1242 12.5841L33.3326 13.2387C33.3498 13.2931 33.3835 13.3405 33.4289 13.3741C33.4742 13.4078 33.5289 13.4258 33.5849 13.4257H34.2594C34.3407 13.4257 34.42 13.452 34.4858 13.5008C34.5516 13.5496 34.6006 13.6184 34.6257 13.6973C34.6508 13.7762 34.6508 13.8613 34.6257 13.9402C34.6006 14.0192 34.5516 14.088 34.4858 14.1367L33.9401 14.5413C33.8947 14.5748 33.8609 14.6222 33.8436 14.6766C33.8263 14.731 33.8263 14.7896 33.8437 14.844L34.0522 15.4985C34.0782 15.5774 34.0787 15.6627 34.0535 15.7419C34.0283 15.821 33.9787 15.8898 33.9122 15.9379C33.8466 15.9873 33.7673 16.0141 33.6858 16.0144Z" fill="#FFA200"/>
<path d="M27.8499 16.0144C27.7684 16.0141 27.6891 15.9873 27.6235 15.9379L27.0778 15.5334C27.0325 15.4998 26.9779 15.4816 26.9219 15.4816C26.8658 15.4816 26.8112 15.4998 26.7659 15.5334L26.2203 15.9379C26.1545 15.9867 26.0752 16.013 25.9939 16.013C25.9125 16.013 25.8333 15.9867 25.7675 15.938C25.7017 15.8892 25.6527 15.8204 25.6276 15.7414C25.6024 15.6625 25.6024 15.5775 25.6275 15.4985L25.8359 14.844C25.8534 14.7896 25.8534 14.731 25.8361 14.6766C25.8188 14.6222 25.785 14.5748 25.7396 14.5413L25.1939 14.1367C25.1281 14.088 25.0791 14.0192 25.054 13.9402C25.0289 13.8613 25.0289 13.7762 25.054 13.6973C25.0791 13.6184 25.1281 13.5496 25.1939 13.5008C25.2597 13.452 25.339 13.4257 25.4203 13.4257H26.0948C26.1508 13.4258 26.2055 13.4078 26.2508 13.3741C26.2962 13.3405 26.3299 13.2931 26.3471 13.2387L26.5555 12.5841C26.5807 12.5052 26.6297 12.4364 26.6955 12.3876C26.7613 12.3388 26.8405 12.3125 26.9219 12.3125C27.0032 12.3125 27.0825 12.3388 27.1483 12.3876C27.2141 12.4364 27.2631 12.5052 27.2882 12.5841L27.4967 13.2387C27.5139 13.2931 27.5476 13.3405 27.5929 13.3741C27.6383 13.4078 27.6929 13.4258 27.749 13.4257H28.4234C28.5048 13.4257 28.584 13.452 28.6498 13.5008C28.7156 13.5496 28.7646 13.6184 28.7898 13.6973C28.8149 13.7762 28.8149 13.8613 28.7898 13.9402C28.7646 14.0192 28.7157 14.088 28.6499 14.1367L28.1042 14.5413C28.0588 14.5748 28.025 14.6222 28.0077 14.6766C27.9904 14.731 27.9904 14.7896 28.0078 14.844L28.2162 15.4985C28.2423 15.5774 28.2427 15.6627 28.2175 15.7419C28.1923 15.821 28.1428 15.8898 28.0763 15.9379C28.0107 15.9873 27.9314 16.0141 27.8499 16.0144Z" fill="#FFA200"/>
<path d="M37.1529 16.0919C37.0634 16.0915 36.9763 16.0621 36.9042 16.008C36.8312 15.955 36.7768 15.8795 36.7491 15.7925C36.7214 15.7056 36.7219 15.6118 36.7505 15.5252L36.959 14.8707C36.9739 14.8241 36.9739 14.7739 36.9591 14.7272C36.9442 14.6806 36.9153 14.64 36.8763 14.6113L36.3307 14.2067C36.2584 14.1531 36.2046 14.0776 36.177 13.9908C36.1493 13.9041 36.1493 13.8107 36.177 13.724C36.2046 13.6373 36.2584 13.5617 36.3307 13.5081C36.403 13.4545 36.49 13.4257 36.5794 13.4257H37.2538C37.3019 13.4258 37.3487 13.4103 37.3876 13.3815C37.4264 13.3527 37.4553 13.312 37.4701 13.2653L37.6785 12.6108C37.7062 12.5241 37.76 12.4485 37.8322 12.395C37.9045 12.3414 37.9916 12.3125 38.0809 12.3125C38.1703 12.3125 38.2574 12.3414 38.3296 12.395C38.4019 12.4485 38.4557 12.5241 38.4833 12.6108L38.6918 13.2653C38.7065 13.312 38.7354 13.3527 38.7743 13.3815C38.8131 13.4103 38.86 13.4258 38.908 13.4257H39.5825C39.6718 13.4257 39.7589 13.4546 39.8312 13.5081C39.9035 13.5617 39.9573 13.6373 39.9849 13.724C40.0125 13.8107 40.0125 13.9041 39.9849 13.9908C39.9573 14.0776 39.9035 14.1531 39.8312 14.2067L39.2855 14.6113C39.2466 14.64 39.2176 14.6806 39.2028 14.7272C39.1879 14.7739 39.188 14.8241 39.2029 14.8707L39.4113 15.5252C39.4389 15.6119 39.4389 15.7053 39.4113 15.792C39.3837 15.8787 39.3299 15.9543 39.2576 16.0079C39.1853 16.0615 39.0983 16.0904 39.0089 16.0904C38.9196 16.0904 38.8325 16.0615 38.7602 16.0079L38.2146 15.6034C38.1758 15.5745 38.129 15.5589 38.0809 15.5589C38.0329 15.5589 37.9861 15.5745 37.9473 15.6034L37.4016 16.0079C37.3295 16.0621 37.2424 16.0916 37.1529 16.0919ZM38.0809 15.3591C38.1703 15.3592 38.2574 15.3881 38.3296 15.4418L38.8752 15.8463C38.9141 15.8752 38.9609 15.8907 39.0089 15.8907C39.0569 15.8907 39.1037 15.8752 39.1426 15.8464C39.1814 15.8176 39.2104 15.777 39.2252 15.7303C39.24 15.6837 39.24 15.6335 39.2252 15.5869L39.0168 14.9324C38.989 14.8457 38.9889 14.7522 39.0165 14.6655C39.0442 14.5787 39.0981 14.5032 39.1705 14.4497L39.7161 14.0451C39.755 14.0163 39.7839 13.9757 39.7987 13.9291C39.8136 13.8825 39.8136 13.8323 39.7987 13.7857C39.7839 13.7391 39.755 13.6985 39.7161 13.6697C39.6773 13.6409 39.6305 13.6254 39.5825 13.6254H38.908C38.8186 13.6256 38.7315 13.5968 38.6592 13.5431C38.5869 13.4895 38.5331 13.4139 38.5056 13.3271L38.2972 12.6726C38.2824 12.6259 38.2534 12.5853 38.2146 12.5565C38.1757 12.5277 38.1289 12.5122 38.0809 12.5122C38.0329 12.5122 37.9861 12.5277 37.9472 12.5565C37.9084 12.5853 37.8795 12.6259 37.8646 12.6726L37.6562 13.3271C37.6287 13.4139 37.575 13.4895 37.5027 13.5431C37.4303 13.5968 37.3432 13.6256 37.2538 13.6254H36.5794C36.5314 13.6254 36.4846 13.6409 36.4457 13.6697C36.4068 13.6985 36.3779 13.7391 36.3631 13.7857C36.3482 13.8323 36.3482 13.8825 36.3631 13.9291C36.3779 13.9757 36.4068 14.0163 36.4457 14.0451L36.9914 14.4497C37.0638 14.5032 37.1177 14.5788 37.1453 14.6655C37.1729 14.7523 37.1728 14.8457 37.1451 14.9324L36.9366 15.5869C36.9218 15.6335 36.9218 15.6837 36.9366 15.7303C36.9515 15.7769 36.9804 15.8176 37.0192 15.8464C37.0581 15.8752 37.1049 15.8907 37.1529 15.8907C37.2009 15.8907 37.2477 15.8751 37.2866 15.8463L37.8322 15.4418C37.9045 15.3881 37.9915 15.3592 38.0809 15.3591Z" fill="#979797"/>
<path d="M27.5363 24.4697C27.7599 24.4687 27.9775 24.3952 28.1575 24.2598L29.6543 23.1501C29.7785 23.0576 29.9283 23.0077 30.0821 23.0077C30.2358 23.0077 30.3856 23.0576 30.5098 23.1501L32.0067 24.2598C32.1872 24.3936 32.4046 24.4657 32.6277 24.4657C32.8509 24.4657 33.0683 24.3936 33.2488 24.2598C33.4293 24.126 33.5637 23.9373 33.6327 23.7208C33.7017 23.5042 33.7017 23.271 33.6328 23.0544L33.061 21.2589C33.0132 21.1098 33.013 20.949 33.0606 20.7998C33.1081 20.6505 33.2008 20.5205 33.3255 20.4286L34.8223 19.3187C35.0028 19.1849 35.1372 18.9962 35.2061 18.7796C35.2751 18.5631 35.275 18.3298 35.2061 18.1133C35.1371 17.8967 35.0027 17.708 34.8222 17.5742C34.6417 17.4403 34.4243 17.3682 34.2012 17.3682H32.351C32.1972 17.3685 32.0474 17.319 31.9229 17.2268C31.7985 17.1345 31.706 17.0044 31.6587 16.8551L31.0871 15.0596C31.0181 14.843 30.8838 14.6543 30.7032 14.5204C30.5227 14.3865 30.3053 14.3145 30.0821 14.3145C29.8589 14.3145 29.6415 14.3865 29.461 14.5204C29.2805 14.6543 29.1461 14.843 29.0771 15.0596L28.5054 16.8551C28.4581 17.0044 28.3656 17.1345 28.2412 17.2268C28.1168 17.319 27.967 17.3685 27.8132 17.3682H25.9631C25.7399 17.3682 25.5225 17.4403 25.342 17.5742C25.1615 17.708 25.0271 17.8967 24.9581 18.1133C24.8892 18.3298 24.8892 18.5631 24.9581 18.7796C25.027 18.9962 25.1614 19.1849 25.3419 19.3187L26.8388 20.4284C26.9633 20.5204 27.0561 20.6504 27.1036 20.7997C27.1511 20.9489 27.1509 21.1097 27.1031 21.2589L26.5314 23.0544C26.4599 23.2707 26.4587 23.5048 26.5278 23.7219C26.597 23.939 26.7328 24.1277 26.9153 24.2598C27.0952 24.3952 27.3127 24.4687 27.5363 24.4697Z" fill="#FFA200"/>
<path d="M28.7972 22.9837C28.8339 23.1447 28.8356 23.3119 28.8021 23.4736C28.7686 23.6353 28.7008 23.7875 28.6034 23.9195C28.506 24.0516 28.3815 24.1602 28.2385 24.2378C28.0955 24.3154 27.9376 24.3601 27.7759 24.3687L22.4347 31.3752L20.3549 30.3961L26.5972 23.2179C26.601 22.9397 26.7048 22.6726 26.8887 22.4673C27.0727 22.2619 27.3241 22.1326 27.5953 22.1037C27.8665 22.0748 28.1386 22.1485 28.3601 22.3107C28.5817 22.4729 28.7372 22.7123 28.7972 22.9837Z" fill="#FFB7B7"/>
<path d="M13.5169 7.64049C13.497 7.61618 13.4752 7.5939 13.4534 7.57162C12.2232 6.30414 10.5526 5.58301 8.8045 5.56481C7.05637 5.5466 5.37177 6.2328 4.11647 7.4744C4.10261 7.48656 4.09069 7.49871 4.07877 7.51086C4.06288 7.52504 4.04902 7.53921 4.03506 7.55339C3.41688 8.18263 2.92649 8.9302 2.59201 9.75322C2.25754 10.5762 2.08556 11.4585 2.08594 12.3495V16.6028C2.08629 16.8445 2.18051 17.0761 2.34794 17.2469C2.51537 17.4178 2.74235 17.5139 2.97914 17.5143H14.4915C14.7283 17.5139 14.9552 17.4178 15.1227 17.2469C15.2901 17.0761 15.3843 16.8445 15.3847 16.6028V12.3495C15.3863 10.5916 14.7163 8.90234 13.5169 7.64049Z" fill="#2F2E41"/>
<path d="M9.00008 17.4726C11.6925 17.4726 13.8752 15.2454 13.8752 12.498C13.8752 9.75063 11.6925 7.52344 9.00008 7.52344C6.30765 7.52344 4.125 9.75063 4.125 12.498C4.125 15.2454 6.30765 17.4726 9.00008 17.4726Z" fill="#FFB7B7"/>
<path d="M14.1239 12.073L13.5483 7.96953C13.5305 7.84356 13.4676 7.72881 13.3716 7.6475C13.3393 7.62102 13.3039 7.59859 13.2664 7.58066C10.3188 6.17301 7.32964 6.17301 4.38206 7.57661C4.34272 7.59516 4.30598 7.619 4.27283 7.6475C4.261 7.65762 4.24909 7.66977 4.23717 7.68193C4.15838 7.76497 4.10941 7.87275 4.09819 7.98776L3.71313 12.0973C3.70664 12.1676 3.71459 12.2384 3.73646 12.3054C3.75834 12.3724 3.79367 12.4339 3.84019 12.4862C3.91516 12.5704 4.01594 12.6261 4.126 12.6441C4.15276 12.6499 4.18006 12.6527 4.20741 12.6522H5.18396C5.27837 12.6519 5.37077 12.6244 5.45049 12.5728C5.53021 12.5212 5.59401 12.4476 5.63453 12.3606L6.05729 11.437C6.08433 11.3771 6.1298 11.3279 6.18678 11.2969C6.24376 11.2658 6.30912 11.2545 6.37293 11.2649C6.43674 11.2752 6.4955 11.3065 6.54027 11.354C6.58504 11.4015 6.61338 11.4627 6.62096 11.5281L6.70431 12.2087C6.71978 12.3309 6.77823 12.4433 6.86879 12.5249C6.95935 12.6065 7.07586 12.6517 7.19666 12.6522H13.6336C13.7178 12.6527 13.8007 12.6303 13.8738 12.5874C13.9246 12.5592 13.9703 12.5222 14.0088 12.4781C14.0553 12.4229 14.0896 12.3582 14.1095 12.2883C14.1294 12.2184 14.1343 12.145 14.1239 12.073Z" fill="#2F2E41"/>
<path d="M21.0541 26.5866L22.4356 31.3058C21.5774 31.9186 20.6787 32.4702 19.746 32.9565C19.4364 33.1185 19.1247 33.2724 18.8072 33.4182L17.376 27.1578L16.8203 24.7293L20.3931 24.3242L21.0541 26.5866Z" fill="#FFB7B7"/>
<path d="M4.61561 25.8027L4.49649 32.1787L4.44493 35C3.07592 34.7046 1.73691 34.2795 0.445312 33.7301L0.919733 27.6904L1.03885 26.1673L4.61561 25.8027Z" fill="#FFB7B7"/>
<path d="M21.0557 26.5863L17.467 27.1352L17.5107 27.7367L17.9433 33.7967C14.3243 35.292 10.393 35.8271 6.51639 35.3522C5.84552 35.2712 5.18321 35.1598 4.52947 35.018C4.82323 33.7582 5.07735 32.624 4.76372 32.4012C4.66921 32.3337 4.57965 32.2592 4.49574 32.1784C3.03286 30.7546 3.57279 27.5403 3.57279 27.5403L0.918979 27.6902L0 27.7428C0 27.7428 0.396977 21.2615 2.18337 21.2615H4.36675L14.8866 20.2489C14.8866 20.2489 17.864 19.2362 18.6579 20.6539C19.0748 21.3972 19.8171 22.973 20.4305 24.3057C20.9862 25.5169 21.4368 26.5276 21.4368 26.5276L21.0557 26.5863Z" fill="#2F2E41"/>
</g>
<defs>
<clipPath id="clip0_4109_4679">
<rect width="40" height="40" fill="white"/>
</clipPath>
</defs>
</svg>
