<svg width="40" height="40" viewBox="0 0 40 40" fill="none" xmlns="http://www.w3.org/2000/svg">
<rect width="40" height="40" fill="white"/>
<path d="M18.8936 35.7023C18.3745 35.7006 17.8577 35.6337 17.3552 35.5033L17.2562 35.4759L17.1643 35.4299C13.843 33.7646 11.041 31.5651 8.83606 28.8922C7.01086 26.6667 5.58785 24.1399 4.63102 21.4254C3.4868 18.1754 2.93632 14.7462 3.00585 11.3014C3.00725 11.2291 3.00845 11.1733 3.00845 11.1348C3.00845 9.46025 3.93795 7.99097 5.37645 7.39158C6.4774 6.93285 16.4736 2.82702 17.1958 2.53036C18.556 1.84882 20.0071 2.41768 20.2393 2.51715C20.7602 2.73011 30.001 6.50973 31.998 7.46062C34.056 8.44064 34.6051 10.2012 34.6051 11.087C34.6051 15.0972 33.9106 18.845 32.5409 22.2264C31.4346 24.9634 29.8668 27.4901 27.9056 29.6966C24.1217 33.9548 20.3367 35.4644 20.3002 35.4777C19.8479 35.6334 19.3719 35.7094 18.8936 35.7023ZM18.0035 33.4975C18.3317 33.5711 19.0872 33.6814 19.5796 33.5018C20.2051 33.2737 23.373 31.6309 26.3334 28.2995C30.4235 23.6967 32.4988 17.9105 32.5019 11.1018C32.4946 10.9639 32.3966 9.98 31.0937 9.35961C29.1355 8.42711 19.5304 4.4996 19.4336 4.46002L19.4071 4.44877C19.2058 4.36442 18.5652 4.18675 18.1236 4.41814L18.0352 4.45937C17.9281 4.50333 7.31707 8.86152 6.1854 9.33305C5.39376 9.6629 5.1117 10.48 5.1117 11.1348C5.1117 11.1826 5.11047 11.2522 5.10872 11.3422C5.01828 16.001 6.09635 27.4649 18.0035 33.4975Z" fill="#3F3D56"/>
<path d="M17.6361 3.48663C17.6361 3.48663 6.92863 7.88435 5.78139 8.36236C4.63416 8.84038 4.06054 9.98761 4.06054 11.1348C4.06054 12.2821 3.20011 27.2519 17.6361 34.4898C17.6361 34.4898 18.9463 34.8523 19.9404 34.4898C20.9344 34.1273 33.554 28.0087 33.554 11.087C33.554 11.087 33.554 9.36619 31.5463 8.41016C29.5386 7.45414 19.832 3.48663 19.832 3.48663C19.832 3.48663 18.64 2.96081 17.6361 3.48663Z" fill="#066BD6"/>
<path opacity="0.2" d="M18.7812 6.92871V30.389C18.7812 30.389 29.5844 25.1888 29.4888 11.5176L18.7812 6.92871Z" fill="#222222"/>
</svg>
