<svg width="40" height="40" viewBox="0 0 40 40" fill="none" xmlns="http://www.w3.org/2000/svg">
<path d="M22.8725 20.1745L25.1688 19.7998C26.823 21.3962 27.9498 23.4639 28.3972 25.7238C29.0877 29.4234 29.3179 30.117 29.3179 30.117L23.7933 31.5043L20.8008 25.7238L22.8725 20.1745Z" fill="#E6E6E6"/>
<path d="M26.5611 16.0694C26.35 15.4436 23.7015 13.3164 25.3244 12.9589L26.6553 14.7396L32.7741 8.59961L33.3895 9.21716L26.5611 16.0694Z" fill="#00BFA6"/>
<path d="M25.6008 19.9809L19.4372 16.1587C19.4372 16.1587 19.2663 13.7851 17.5102 13.6735C16.6285 13.6174 15.3054 13.5317 13.3199 13.4006C12.9002 13.3729 12.6171 15.7227 12.1362 15.6908L5.63003 17.4573L6.61625 34.6177C6.61625 34.6177 5.13693 41.4313 5.63003 42.6931C6.12313 43.9549 4.39727 44.4596 4.89037 44.712C5.38348 44.9643 4.89037 46.7308 4.89037 46.7308C4.89037 46.7308 14.5059 51.778 25.1077 47.9926L24.1215 44.712C24.2557 44.2831 24.2808 43.8263 24.1946 43.3847C24.1083 42.9432 23.9134 42.5314 23.6283 42.1884C23.6283 42.1884 24.6146 40.6742 23.3818 39.4125C23.3818 39.4125 23.8749 37.1412 22.6421 36.1318L22.3956 32.5988L23.1352 30.8323L25.6008 19.9809Z" fill="#E6E6E6"/>
<path d="M10.2511 23.1801L9.3125 35.1318L33.2653 37.0297L34.2039 25.078L10.2511 23.1801Z" fill="white"/>
<path d="M12.81 24.1056C12.2238 23.6851 11.4796 23.6547 11.1953 23.6608C11.282 23.9327 11.5516 24.6302 12.1378 25.0508C12.7254 25.4724 13.4687 25.5018 13.7525 25.496C13.6658 25.2241 13.3963 24.5264 12.81 24.1056Z" fill="#066BD6"/>
<path d="M15.1262 31.7108L11.2801 31.406C11.1664 31.397 11.0521 31.4106 10.9437 31.4459C10.8353 31.4813 10.7349 31.5378 10.6482 31.6121C10.5615 31.6865 10.4902 31.7773 10.4384 31.8793C10.3867 31.9813 10.3554 32.0925 10.3464 32.2067C10.3375 32.3208 10.351 32.4357 10.3862 32.5446C10.4214 32.6535 10.4776 32.7543 10.5516 32.8414C10.6257 32.9285 10.716 33.0001 10.8176 33.0521C10.9191 33.1041 11.0299 33.1355 11.1436 33.1445L14.9897 33.4493C15.2192 33.4674 15.4465 33.3933 15.6216 33.2431C15.7967 33.093 15.9052 32.8791 15.9233 32.6486C15.9414 32.418 15.8676 32.1897 15.7181 32.0139C15.5686 31.838 15.3557 31.729 15.1262 31.7108Z" fill="#066BD6"/>
<path d="M33.2603 23.9149L11.6963 22.2061C11.4455 22.1863 11.1932 22.2163 10.954 22.2944C10.7147 22.3724 10.493 22.4971 10.3017 22.6612C10.1104 22.8254 9.95315 23.0257 9.83893 23.2509C9.7247 23.4761 9.65575 23.7216 9.63601 23.9736L8.80669 34.5262C8.76683 35.0351 8.92982 35.5392 9.25983 35.9274C9.58984 36.3157 10.0598 36.5564 10.5665 36.5967L32.1305 38.3055C32.3814 38.3253 32.6336 38.2954 32.8729 38.2173C33.1122 38.1392 33.3338 38.0145 33.5251 37.8504C33.7164 37.6863 33.8737 37.4859 33.9879 37.2607C34.1021 37.0356 34.1711 36.79 34.1908 36.5381L34.9789 26.5082L34.9948 26.3033L35.0199 25.9844C35.0396 25.7325 35.0098 25.4791 34.9321 25.2388C34.8543 24.9984 34.7302 24.7758 34.5668 24.5836C34.4034 24.3915 34.204 24.2335 33.9798 24.1188C33.7556 24.004 33.5111 23.9348 33.2603 23.9149ZM32.6236 33.0963L32.4869 34.8348C32.4619 35.1419 32.317 35.4265 32.0836 35.6265C31.8503 35.8265 31.5477 35.9256 31.2419 35.902L28.357 35.6737C28.0513 35.6486 27.7679 35.503 27.5688 35.2686C27.3697 35.0343 27.2711 34.7303 27.2945 34.4231L27.4312 32.6846C27.4562 32.3775 27.6013 32.093 27.8345 31.893C28.0678 31.6931 28.3704 31.594 28.6762 31.6174L31.5601 31.846C31.8658 31.8712 32.1492 32.0168 32.3484 32.251C32.5476 32.4852 32.6465 32.7891 32.6236 33.0963ZM10.1527 32.1898C10.1751 31.9085 10.3076 31.6475 10.5213 31.4643C10.7349 31.281 11.0123 31.1903 11.2924 31.2122L15.1384 31.5171C15.2773 31.5279 15.4128 31.5661 15.537 31.6295C15.6612 31.6929 15.7718 31.7802 15.8624 31.8865C15.953 31.9929 16.0219 32.1161 16.0651 32.2492C16.1083 32.3823 16.1249 32.5226 16.1141 32.6621C16.1032 32.8017 16.0651 32.9377 16.0019 33.0624C15.9387 33.1872 15.8517 33.2982 15.7457 33.3891C15.6398 33.4801 15.5171 33.5491 15.3845 33.5924C15.252 33.6357 15.1123 33.6523 14.9734 33.6413L14.9714 33.6418L11.1254 33.3368C10.9865 33.3258 10.8512 33.2874 10.7271 33.2237C10.603 33.1601 10.4926 33.0725 10.4022 32.9659C10.3119 32.8594 10.2433 32.736 10.2005 32.6028C10.1577 32.4696 10.1414 32.3293 10.1527 32.1898ZM10.976 23.591L10.9497 23.4829L11.0604 23.4727C11.1036 23.4681 12.1267 23.3758 12.9231 23.9472C13.7195 24.5186 13.9637 25.5212 13.9743 25.5631L13.9996 25.6714L13.8892 25.6826C13.7325 25.6943 13.5751 25.6933 13.4186 25.6795C12.9207 25.6502 12.4398 25.4871 12.0262 25.2071C11.2299 24.6357 10.9856 23.6332 10.976 23.591Z" fill="#066BD6"/>
<path d="M29.3909 34.2514L28.1409 34.1524C28.0517 34.1455 27.9635 34.1744 27.8955 34.2328C27.8275 34.2912 27.7854 34.3742 27.7784 34.4638C27.7714 34.5533 27.8 34.642 27.858 34.7104C27.916 34.7788 27.9986 34.8212 28.0878 34.8284L29.3378 34.9275C29.4269 34.9344 29.5152 34.9055 29.5831 34.8471C29.6511 34.7887 29.6932 34.7056 29.7003 34.6161C29.7073 34.5265 29.6787 34.4378 29.6207 34.3695C29.5626 34.3011 29.48 34.2586 29.3909 34.2514Z" fill="#066BD6"/>
<path d="M31.6953 34.433L30.4453 34.334C30.3562 34.3272 30.268 34.3561 30.2001 34.4145C30.1322 34.4729 30.0901 34.5559 30.0831 34.6454C30.076 34.7349 30.1046 34.8236 30.1626 34.892C30.2206 34.9603 30.3031 35.0028 30.3922 35.0101L31.6422 35.1091C31.7314 35.116 31.8195 35.087 31.8875 35.0286C31.9554 34.9702 31.9974 34.8872 32.0045 34.7977C32.0115 34.7082 31.9829 34.6195 31.9249 34.5512C31.867 34.4828 31.7844 34.4403 31.6953 34.433Z" fill="#066BD6"/>
<path d="M29.457 33.3823L28.2071 33.2832C28.1179 33.2764 28.0297 33.3053 27.9618 33.3637C27.8939 33.4221 27.8518 33.5051 27.8448 33.5947C27.8378 33.6842 27.8664 33.7728 27.9243 33.8412C27.9823 33.9095 28.0649 33.952 28.154 33.9593L29.4039 34.0583C29.4931 34.0652 29.5814 34.0363 29.6493 33.9779C29.7173 33.9196 29.7594 33.8365 29.7664 33.7469C29.7735 33.6574 29.7448 33.5687 29.6868 33.5003C29.6288 33.4319 29.5462 33.3895 29.457 33.3823Z" fill="#066BD6"/>
<path d="M31.7659 33.5639L30.5159 33.4649C30.4267 33.458 30.3385 33.4869 30.2705 33.5453C30.2025 33.6037 30.1604 33.6867 30.1534 33.7763C30.1464 33.8658 30.175 33.9545 30.233 34.0229C30.291 34.0913 30.3736 34.1337 30.4628 34.1409L31.7128 34.24C31.8019 34.2469 31.8902 34.218 31.9581 34.1596C32.0261 34.1012 32.0682 34.0181 32.0753 33.9286C32.0823 33.839 32.0537 33.7503 31.9957 33.682C31.9377 33.6136 31.855 33.5711 31.7659 33.5639Z" fill="#066BD6"/>
<path d="M29.5237 32.5119L28.2737 32.4129C28.1845 32.406 28.0963 32.4349 28.0283 32.4933C27.9604 32.5516 27.9182 32.6347 27.9112 32.7243C27.9042 32.8138 27.9328 32.9025 27.9908 32.9709C28.0488 33.0393 28.1315 33.0817 28.2206 33.0889L29.4706 33.188C29.5597 33.1948 29.6479 33.1659 29.7158 33.1075C29.7837 33.0491 29.8258 32.9661 29.8328 32.8766C29.8399 32.787 29.8113 32.6984 29.7533 32.63C29.6954 32.5617 29.6128 32.5192 29.5237 32.5119Z" fill="#066BD6"/>
<path d="M31.8321 32.6948L30.5821 32.5957C30.4929 32.5889 30.4047 32.6178 30.3368 32.6762C30.2689 32.7346 30.2268 32.8176 30.2198 32.9072C30.2128 32.9967 30.2414 33.0853 30.2993 33.1537C30.3573 33.222 30.4399 33.2645 30.529 33.2718L31.779 33.3708C31.8681 33.3777 31.9563 33.3487 32.0242 33.2903C32.0921 33.232 32.1342 33.1489 32.1412 33.0594C32.1482 32.9699 32.1196 32.8812 32.0617 32.8129C32.0037 32.7445 31.9211 32.702 31.8321 32.6948Z" fill="#066BD6"/>
<path d="M9.31294 27.3043L9.29688 27.5098L34.6102 29.5071L34.6263 29.3017L9.31294 27.3043Z" fill="white"/>
<path d="M34.9979 26.3044L34.982 26.5093L34.101 26.4399L24.7148 25.6993L24.7318 25.4941L34.1169 26.2349L34.9979 26.3044Z" fill="#3F3D56"/>
<path d="M32.4178 26.2491C33.5309 26.2491 34.4333 25.3427 34.4333 24.2247C34.4333 23.1066 33.5309 22.2002 32.4178 22.2002C31.3047 22.2002 30.4023 23.1066 30.4023 24.2247C30.4023 25.3427 31.3047 26.2491 32.4178 26.2491Z" fill="#FFB8B8"/>
<path d="M15.2208 13.1839C17.8905 13.1839 20.0548 11.01 20.0548 8.32829C20.0548 5.6466 17.8905 3.47266 15.2208 3.47266C12.551 3.47266 10.3867 5.6466 10.3867 8.32829C10.3867 11.01 12.551 13.1839 15.2208 13.1839Z" fill="#FFB8B8"/>
<path d="M11.0314 11.1008L10.8963 10.7856C10.8789 10.7448 9.16933 6.6854 10.6846 4.18143C11.3861 3.02221 12.6616 2.36774 14.4755 2.23634C17.3138 2.0302 19.2564 2.70649 20.2508 4.245C20.4175 4.50574 20.5113 4.8068 20.5221 5.11651C20.5329 5.42622 20.4605 5.73314 20.3124 6.00501C20.1643 6.27688 19.946 6.50364 19.6805 6.66146C19.415 6.81929 19.1121 6.90234 18.8035 6.90188H18.7654L18.2439 6.22171L18.2135 6.28786C18.0247 6.69817 17.5911 6.92279 17.0832 6.87359C16.9968 6.86736 16.9203 6.94226 16.8588 7.10255C16.8382 7.17267 16.7991 7.2359 16.7457 7.2856C16.6923 7.33531 16.6265 7.36966 16.5554 7.38504C16.1801 7.45842 15.6452 6.98363 15.4058 6.74699C15.3965 6.80146 15.3758 6.85329 15.3449 6.899C15.314 6.9447 15.2736 6.98321 15.2267 7.01192C14.9743 7.15814 14.5817 6.96713 14.469 6.9063C13.5711 7.09792 12.9898 7.04667 12.7408 6.75414C12.572 7.95381 12.2097 10.1132 11.7753 10.2329C11.7299 10.2434 11.6823 10.2389 11.6396 10.2201C11.5969 10.2014 11.5614 10.1694 11.5382 10.1288C11.4336 9.99235 11.3401 9.92437 11.2817 9.94346C11.1404 9.98862 11.057 10.4561 11.045 10.7578L11.0314 11.1008Z" fill="#2F2E41"/>
<path d="M1.94659 26.7542C1.94659 26.7542 -0.125151 35.5406 2.40697 35.5406C4.9391 35.5406 10.9241 25.5981 10.9241 25.5981L8.85236 23.0547L5.13382 28.2404L4.93908 25.5981L1.94659 26.7542Z" fill="#FFB8B8"/>
<path d="M10.367 25.9786C11.4801 25.9786 12.3825 25.0722 12.3825 23.9542C12.3825 22.8361 11.4801 21.9297 10.367 21.9297C9.25392 21.9297 8.35156 22.8361 8.35156 23.9542C8.35156 25.0722 9.25392 25.9786 10.367 25.9786Z" fill="#FFB8B8"/>
<path d="M7.20156 18.9103L5.85756 17.4001C5.85756 17.4001 3.16956 19.1619 2.94556 20.9237C2.72156 22.6855 1.60156 28.2226 1.60156 28.2226L5.74556 28.6001L7.08956 26.335L7.20156 18.9103Z" fill="#E6E6E6"/>
</svg>
