<svg width="16" height="16" viewBox="0 0 16 16" fill="none" xmlns="http://www.w3.org/2000/svg">
<path fill-rule="evenodd" clip-rule="evenodd" d="M2.11141 12.6062C4.73519 15.294 8.87831 15.4767 11.7087 13.1545L14.1807 15.6868C14.5883 16.1043 15.267 16.1069 15.6841 15.6796C16.104 15.2494 16.1042 14.5629 15.691 14.1396L13.1629 11.5499C15.0845 8.67456 14.7989 4.71634 12.3062 2.16289C9.491 -0.720962 4.92663 -0.720962 2.11141 2.16289C-0.703804 5.04673 -0.703804 9.72238 2.11141 12.6062ZM10.9829 3.5162C13.0683 5.65238 13.0683 9.11582 10.9829 11.252C8.89756 13.3882 5.51654 13.3882 3.4312 11.252C1.34585 9.11582 1.34585 5.65238 3.4312 3.5162C5.51654 1.38002 8.89756 1.38002 10.9829 3.5162Z" fill="#066BD6"/>
</svg>
