<svg width="16" height="16" viewBox="0 0 16 16" fill="none" xmlns="http://www.w3.org/2000/svg">
<g id="Frame 4101">
<g id="Group 1948753859">
<path id="Subtract" fill-rule="evenodd" clip-rule="evenodd" d="M4.7548 0.0370366C3.81241 0.161277 2.93738 0.593105 2.2655 1.2655C1.5931 1.93738 1.16128 2.81241 1.03704 3.7548C0.912796 4.69719 1.10309 5.65424 1.57839 6.47742C1.73312 6.7454 1.91523 6.99431 2.1208 7.22071C2.34057 7.09515 2.65153 6.9134 3.1 6.64286L4.5 6.00001L5.9 6.64286C7.1185 7.20238 7.29723 7.37753 7.49619 7.57251L7.49621 7.57253C7.52584 7.60157 7.55592 7.63104 7.58995 7.6623C7.77107 7.82864 7.89744 8.03586 7.95841 8.26035L8.83213 7.23326C9.0748 6.95004 9.49546 6.91986 9.77279 7.16949C10.0495 7.41842 10.0775 7.85183 9.83479 8.13711L8.21142 10.0456C8.21193 10.115 8.22582 10.1836 8.25235 10.2478C8.27947 10.3133 8.31926 10.3729 8.36944 10.4231C8.41963 10.4733 8.47922 10.5131 8.54481 10.5402C8.6104 10.5673 8.68069 10.5812 8.75166 10.5812L9.73832 10.5804L9.73756 11.5671C9.73747 11.638 9.75138 11.7083 9.7785 11.7739C9.80562 11.8395 9.84541 11.8991 9.8956 11.9493C9.94578 11.9995 10.0054 12.0393 10.071 12.0664C10.1366 12.0935 10.2068 12.1074 10.2778 12.1073L11.2645 12.1065L11.2637 13.0932C11.2636 13.1642 11.2775 13.2345 11.3047 13.3001C11.3318 13.3657 11.3716 13.4252 11.4218 13.4754C11.4719 13.5256 11.5315 13.5654 11.5971 13.5925C11.6627 13.6196 11.733 13.6336 11.804 13.6335L14.0932 13.6335C14.1642 13.6336 14.2345 13.6196 14.3001 13.5925C14.3656 13.5654 14.4252 13.5256 14.4754 13.4754C14.5256 13.4252 14.5654 13.3656 14.5925 13.3001C14.6196 13.2345 14.6336 13.1642 14.6335 13.0932V10.804C14.6334 10.7331 14.6193 10.6629 14.5921 10.5974C14.5648 10.5319 14.525 10.4725 14.4747 10.4224L9.48803 5.43572C9.73447 4.51768 9.67098 3.54396 9.30744 2.66568C8.94389 1.78741 8.30061 1.05369 7.47742 0.578389C6.65424 0.103091 5.69719 -0.0872037 4.7548 0.0370366ZM4.12017 4.55122C4.5281 4.55122 4.91931 4.38917 5.20776 4.10073C5.4962 3.81228 5.65825 3.42107 5.65825 3.01314C5.65825 2.60522 5.4962 2.214 5.20776 1.92556C4.91931 1.63711 4.52809 1.47507 4.12017 1.47507C3.71225 1.47507 3.32103 1.63711 3.03259 1.92556C2.74414 2.214 2.58209 2.60522 2.58209 3.01314C2.58209 3.42107 2.74414 3.81228 3.03259 4.10073C3.32103 4.38917 3.71225 4.55122 4.12017 4.55122Z" fill="#878F9B"/>
<path id="Subtract_2" fill-rule="evenodd" clip-rule="evenodd" d="M1.53978 7.54996C1.65658 7.46501 1.80526 7.42389 3.1 6.64286L4.5 6L5.9 6.64286C7.11849 7.20237 7.29722 7.37752 7.49619 7.5725C7.52582 7.60155 7.55591 7.63103 7.58995 7.66229C7.77107 7.82863 7.89744 8.03585 7.95841 8.26034L4.63415 12.1681L3.13816 10.6292C2.8775 10.3611 2.45616 10.3611 2.1955 10.6292C1.93483 10.8973 1.93483 11.3308 2.1955 11.5989L4.19549 13.6562C4.32082 13.7851 4.49015 13.8571 4.66682 13.8571H4.68882C4.87348 13.8503 5.04682 13.7659 5.16815 13.6233L8 10.2941V13.7143C8 14.0553 7.8525 14.3823 7.58995 14.6234C7.3274 14.8645 6.9713 15 6.6 15H2.4C2.0287 15 1.6726 14.8645 1.41005 14.6234C1.1475 14.3823 1 14.0553 1 13.7143V8.57143C1 8.23044 1.1475 7.90341 1.41005 7.66229C1.47145 7.6059 1.50413 7.57589 1.53978 7.54996Z" fill="url(#paint0_linear_7642_6152)"/>
</g>
</g>
<defs>
<linearGradient id="paint0_linear_7642_6152" x1="11.5" y1="6" x2="-1.50929" y2="14.738" gradientUnits="userSpaceOnUse">
<stop stop-color="#878F9B" stop-opacity="0"/>
<stop offset="0.990195" stop-color="#878F9B"/>
</linearGradient>
</defs>
</svg>
