<svg width="22" height="22" viewBox="0 0 22 22" fill="none" xmlns="http://www.w3.org/2000/svg">
<g id="Frame 3362" clip-path="url(#clip0_7071_4127)">
<g id="Group 3159">
<g id="Group 3158">
<mask id="mask0_7071_4127" style="mask-type:alpha" maskUnits="userSpaceOnUse" x="-1" y="2" width="14" height="20">
<path id="Rectangle 881" d="M-1 22L-1 2L13 2L13 22L-1 22Z" fill="#D9D9D9"/>
</mask>
<g mask="url(#mask0_7071_4127)">
<path id="Vector" d="M23.5288 10.7911C23.2954 10.6777 23.0576 10.5773 22.8236 10.4723L23.3711 10.3278C24.0181 10.1542 24.4073 9.48817 24.2347 8.8377C24.0614 8.18723 23.3969 7.79916 22.7486 7.9715L21.2288 8.37382C20.7977 7.41431 20.3562 6.46971 19.7098 5.39229C19.2075 4.52154 18.7893 4.08682 18.1674 4C16.6781 4 14.1435 4 12.276 4C11.8656 4 11.4525 4 11.0407 4C9.65806 4 8.26632 4 6.83128 4C6.21137 4.08746 5.79316 4.52219 5.29025 5.39229C4.64255 6.46906 4.20298 7.41366 3.77053 8.37382L2.25148 7.9715C1.60506 7.79916 0.938604 8.18723 0.765366 8.8377C0.594067 9.48817 0.981252 10.1542 1.6296 10.3278L2.17647 10.4723C1.94053 10.5773 1.70459 10.6777 1.47124 10.7911C0.650292 11.2102 0.00323206 12.2928 0 13.1357C0 14.2663 0 15.3975 0 16.5287C-0.00129282 17.1312 0.355545 17.6547 0.874614 17.9164V20.4684C0.874614 21.3132 1.5585 22 2.40207 22H4.94764C5.7925 22 6.47513 21.3126 6.47513 20.4684V18.0946C10.4919 18.0946 14.5081 18.0946 18.5249 18.0946V20.4684C18.5249 21.3132 19.2094 22 20.0537 22H22.5986C23.4441 22 24.1254 21.3126 24.1254 20.4684V17.9164C24.6438 17.6553 25.0013 17.1312 25 16.5287C25 15.3975 25 14.2663 25 13.1357C24.9981 12.2935 24.351 11.2109 23.5288 10.7911ZM5.1797 15.091C5.01034 15.6197 4.3426 16.0836 3.6949 15.9734C3.07886 15.8562 2.46157 15.711 1.84553 15.5795C1.19395 15.4331 0.813199 14.7431 0.98256 13.9715C1.15127 13.1934 1.8035 12.585 2.4609 12.7949C3.08339 12.9841 3.71107 13.2536 4.32711 13.5568C4.97287 13.9054 5.34777 14.5695 5.1797 15.091ZM4.53329 9.2206L4.57014 9.1435C5.04461 8.08228 5.49324 7.08066 6.18361 5.93326C6.60313 5.20634 6.81127 5.07547 6.92439 5.04502H18.0776C18.1913 5.07547 18.3976 5.20375 18.8061 5.91642C19.5062 7.07936 19.9528 8.0771 20.4292 9.13444L20.4667 9.22124L4.53329 9.2206ZM23.1558 15.5795C22.5391 15.711 21.9231 15.8568 21.3058 15.9734C20.66 16.0836 19.991 15.6197 19.821 15.091C19.6529 14.5695 20.0284 13.9054 20.6736 13.5562C21.2896 13.253 21.9179 12.9835 22.5411 12.7943C23.1998 12.585 23.8513 13.1927 24.0181 13.9708C24.1881 14.7431 23.8074 15.4331 23.1558 15.5795Z" fill="#222222"/>
</g>
</g>
<path id="Union" fill-rule="evenodd" clip-rule="evenodd" d="M11.0001 18.5C11.0001 19.8807 12.1194 21 13.5001 21C14.8808 21 16.0001 19.8807 16.0001 18.5V15H19.5001C20.8808 15 22.0001 13.8807 22.0001 12.5C22.0001 11.1193 20.8808 10 19.5001 10H16.0001V6.5C16.0001 5.11929 14.8808 4 13.5001 4C12.1194 4 11.0001 5.11929 11.0001 6.5V10H7.50012C6.11941 10 5.00012 11.1193 5.00012 12.5C5.00012 13.8807 6.11941 15 7.50012 15H11.0001V18.5Z" fill="url(#paint0_linear_7071_4127)"/>
</g>
</g>
<defs>
<linearGradient id="paint0_linear_7071_4127" x1="21.5001" y1="19.0001" x2="3.78564" y2="6.42862" gradientUnits="userSpaceOnUse">
<stop stop-color="#222222"/>
<stop offset="1" stop-color="white"/>
</linearGradient>
<clipPath id="clip0_7071_4127">
<rect width="22" height="22" fill="white"/>
</clipPath>
</defs>
</svg>
