<svg width="26" height="26" viewBox="0 0 26 26" fill="none" xmlns="http://www.w3.org/2000/svg">
<g id="Frame 3948">
<rect width="26" height="26" rx="8" fill="white"/>
<path id="Subtract" fill-rule="evenodd" clip-rule="evenodd" d="M21 13.5C21 13.5 18 8 13 8C8 8 5 13.5 5 13.5C5 13.5 8 19 13 19C18 19 21 13.5 21 13.5ZM9.5 13.5C9.5 12.5717 9.86875 11.6815 10.5251 11.0251C11.1815 10.3687 12.0717 10 13 10C13.9283 10 14.8185 10.3687 15.4749 11.0251C16.1313 11.6815 16.5 12.5717 16.5 13.5C16.5 14.4283 16.1313 15.3185 15.4749 15.9749C14.8185 16.6313 13.9283 17 13 17C12.0717 17 11.1815 16.6313 10.5251 15.9749C9.86875 15.3185 9.5 14.4283 9.5 13.5Z" fill="#DBE3EF"/>
<rect id="Rectangle 946" x="7" y="18" width="15.3718" height="2" transform="rotate(-45 7 18)" fill="white"/>
</g>
</svg>
