<svg width="16" height="16" viewBox="0 0 16 16" fill="none" xmlns="http://www.w3.org/2000/svg">
<g clip-path="url(#clip0_7642_6094)">
<circle cx="8" cy="8" r="8" fill="url(#paint0_linear_7642_6094)"/>
<path d="M8.63688 9.03183H4.26666V7.76672H8.58881C8.91461 7.76672 9.18166 7.72297 9.38995 7.63547C9.59825 7.54797 9.7518 7.42402 9.85061 7.2636C9.94942 7.10318 9.99882 6.9136 9.99882 6.69485C9.99882 6.48096 9.94942 6.28773 9.85061 6.11516C9.7518 5.94259 9.60092 5.80526 9.39797 5.70318C9.19501 5.6011 8.94131 5.55006 8.63688 5.55006H7.15477V11.7334H5.43232V4.26672H8.63688C9.2858 4.26672 9.84126 4.37245 10.3032 4.58391C10.7679 4.79294 11.1231 5.07975 11.3688 5.44433C11.6145 5.80648 11.736 6.21724 11.7333 6.67662C11.736 7.15787 11.6118 7.57471 11.3608 7.92714C11.1097 8.27957 10.7519 8.55179 10.2872 8.74381C9.82257 8.93582 9.27245 9.03183 8.63688 9.03183ZM8.94532 9.51308V10.7782H4.26666V9.51308H8.94532Z" fill="#878F9B"/>
</g>
<defs>
<linearGradient id="paint0_linear_7642_6094" x1="15.9999" y1="11.172" x2="-6.5166" y2="6.44565" gradientUnits="userSpaceOnUse">
<stop stop-color="#878F9B" stop-opacity="0"/>
<stop offset="1" stop-color="#878F9B"/>
</linearGradient>
<clipPath id="clip0_7642_6094">
<rect width="16" height="16" fill="white"/>
</clipPath>
</defs>
</svg>
