<svg width="8" height="10" viewBox="0 0 8 10" fill="none" xmlns="http://www.w3.org/2000/svg">
<path d="M7.1491 4.27742H6.41531V2.41188C6.41531 1.07912 5.33617 -2.85804e-05 4.0034 -2.85804e-05C2.67251 -2.85804e-05 1.59149 1.07912 1.59149 2.41188V4.27742H0.851064C0.381276 4.27742 0 4.6587 0 5.12848V8.61784C0 9.0895 0.381276 9.46891 0.851064 9.46891H7.14894C7.61872 9.46891 8 9.0895 8 8.61784V5.12848C8.00017 4.6587 7.61872 4.27742 7.1491 4.27742ZM5.875 4.27742H2.15625V2.41188C2.15625 1.26976 2.85787 0.659546 4 0.659546C5.14213 0.659546 5.875 1.26976 5.875 2.41188V4.27742Z" fill="white"/>
</svg>
