<svg width="8" height="8" viewBox="0 0 8 8" fill="none" xmlns="http://www.w3.org/2000/svg">
<path id="Vector" d="M8 3.76451V4.39196C8 4.65292 7.79035 4.86256 7.5294 4.86256H6.93405C6.84755 5.15577 6.71868 5.43139 6.55434 5.68061L6.89314 6.01941C7.07786 6.20413 7.07786 6.50159 6.89314 6.68484L6.4504 7.12905C6.26554 7.31231 5.96793 7.31231 5.78467 7.12905L5.38152 6.72735C5.16909 6.83437 4.94317 6.91794 4.70582 6.9738V7.52928C4.70582 7.79023 4.49472 8.00002 4.23523 8.00002H3.60776C3.34827 8.00002 3.13716 7.79023 3.13716 7.52928V6.93407C2.88061 6.85769 2.64018 6.74935 2.41734 6.61447L1.98061 7.04988C1.79736 7.2346 1.49975 7.2346 1.31488 7.04988L0.870824 6.60714C0.68757 6.42242 0.68757 6.12467 0.870824 5.94142L1.32661 5.48563C1.21828 5.29065 1.13016 5.081 1.06712 4.86256H0.470448C0.21096 4.86256 0 4.65292 0 4.39196V3.76451C0 3.50502 0.21096 3.29391 0.470448 3.29391H1.02622C1.08179 3.05641 1.16535 2.83079 1.27384 2.61807L0.792977 2.13736C0.608257 1.9541 0.608257 1.65503 0.792977 1.47177L1.23719 1.02888C1.42044 0.844164 1.7179 0.844164 1.90276 1.02888L2.31912 1.44524C2.56981 1.28119 2.84396 1.15203 3.13716 1.067V0.470478C3.13716 0.210843 3.34827 -0.00012207 3.60776 -0.00012207H4.23523C4.49472 -0.00012207 4.70582 0.210843 4.70582 0.470478V1.0261C4.98143 1.09207 5.24385 1.19323 5.48575 1.32664L5.86238 0.950017C6.04725 0.766762 6.3447 0.766762 6.52795 0.950017L6.97216 1.39408C7.15541 1.57733 7.15541 1.87493 6.97216 2.05965L6.61444 2.41736C6.77717 2.68565 6.90032 2.98032 6.97362 3.29391H7.5294C7.79035 3.29391 8 3.50502 8 3.76451ZM5.64701 4.00054C5.64701 3.0916 4.90813 2.35272 4.00066 2.35272C3.09186 2.35272 2.35284 3.0916 2.35284 4.00054C2.35284 4.90801 3.09186 5.64674 4.00066 5.64674C4.90813 5.64689 5.64701 4.90816 5.64701 4.00054Z" fill="white"/>
</svg>
