<svg width="10" height="10" viewBox="0 0 10 10" fill="none" xmlns="http://www.w3.org/2000/svg">
<g id="Group">
<path id="Vector" d="M5 2.49984V1C7.20931 1 9 2.79067 9 4.99984C9 7.20928 7.20931 8.99998 5 8.99998C2.79069 8.99998 1 7.20928 1 4.99984C1 3.89581 1.44722 2.89637 2.17042 2.17249" stroke="#222222" stroke-miterlimit="10" stroke-linecap="round"/>
<g id="Vector_2">
<mask id="path-2-inside-1_7637_5944" fill="white">
<path d="M5.35347 5.35362C5.15847 5.54862 4.8418 5.5489 4.64653 5.35362C4.45125 5.15834 2.91028 2.91028 2.91028 2.91028C2.91028 2.91028 5.1582 4.45111 5.35347 4.64639C5.54861 4.84167 5.54861 5.15862 5.35347 5.35362Z"/>
</mask>
<path d="M5.35347 5.35362C5.15847 5.54862 4.8418 5.5489 4.64653 5.35362C4.45125 5.15834 2.91028 2.91028 2.91028 2.91028C2.91028 2.91028 5.1582 4.45111 5.35347 4.64639C5.54861 4.84167 5.54861 5.15862 5.35347 5.35362Z" fill="white"/>
<path d="M5.35347 5.35362L4.64662 4.64626L4.64637 4.64651L5.35347 5.35362ZM2.91028 2.91028L3.47566 2.08545L2.08545 3.47567L2.91028 2.91028ZM5.35347 4.64639L6.06083 3.93953L6.06058 3.93928L5.35347 4.64639ZM4.64637 4.64651C4.84153 4.45135 5.15802 4.4509 5.35363 4.64651L3.93942 6.06072C4.52558 6.64689 5.47542 6.64589 6.06058 6.06072L4.64637 4.64651ZM5.35363 4.64651C5.38672 4.6796 5.38347 4.68164 5.31248 4.58809C5.25866 4.51717 5.18776 4.42068 5.10372 4.30424C4.9363 4.07226 4.72882 3.77787 4.52496 3.48605C4.32161 3.19496 4.12406 2.90955 3.9772 2.69669C3.90382 2.59033 3.84319 2.50223 3.80095 2.44078C3.77983 2.41006 3.76332 2.38601 3.75211 2.36967C3.7465 2.36151 3.74222 2.35527 3.73936 2.3511C3.73793 2.34901 3.73685 2.34744 3.73614 2.3464C3.73578 2.34588 3.73552 2.34549 3.73534 2.34524C3.73526 2.34511 3.73519 2.34502 3.73515 2.34496C3.73513 2.34493 3.73512 2.34491 3.73511 2.3449C3.7351 2.34489 3.7351 2.34489 2.91028 2.91028C2.08545 3.47567 2.08546 3.47568 2.08548 3.47571C2.0855 3.47573 2.08552 3.47576 2.08554 3.4758C2.0856 3.47588 2.08568 3.47599 2.08578 3.47614C2.08598 3.47643 2.08627 3.47686 2.08665 3.47742C2.08742 3.47854 2.08856 3.4802 2.09005 3.48237C2.09303 3.48671 2.09743 3.49312 2.10316 3.50147C2.11461 3.51816 2.1314 3.5426 2.15279 3.57373C2.19559 3.63599 2.25688 3.72505 2.33101 3.83249C2.47918 4.04725 2.67908 4.33606 2.88539 4.63139C3.09118 4.92599 3.30555 5.23023 3.48198 5.47469C3.56987 5.59646 3.6514 5.70764 3.71923 5.79704C3.76989 5.86381 3.85751 5.97882 3.93942 6.06072L5.35363 4.64651ZM2.91028 2.91028C2.3449 3.73511 2.3449 3.73511 2.34491 3.73512C2.34492 3.73513 2.34494 3.73514 2.34497 3.73516C2.34503 3.7352 2.34512 3.73526 2.34525 3.73535C2.3455 3.73552 2.34589 3.73579 2.34641 3.73614C2.34745 3.73686 2.34902 3.73793 2.35111 3.73937C2.35528 3.74223 2.36152 3.74651 2.36968 3.75211C2.38601 3.76332 2.41006 3.77984 2.44078 3.80095C2.50223 3.84319 2.59032 3.90381 2.69668 3.97719C2.90952 4.12404 3.19491 4.32157 3.48599 4.5249C3.77779 4.72874 4.07216 4.93621 4.30412 5.10362C4.42056 5.18765 4.51704 5.25854 4.58796 5.31235C4.6815 5.38334 4.67945 5.38658 4.64637 5.3535L6.06058 3.93928C5.97867 3.85738 5.86366 3.76976 5.7969 3.7191C5.7075 3.65127 5.59633 3.56975 5.47456 3.48186C5.23012 3.30545 4.92589 3.09109 4.63131 2.88531C4.33599 2.67902 4.0472 2.47914 3.83246 2.33098C3.72502 2.25686 3.63597 2.19557 3.57372 2.15278C3.54259 2.13139 3.51815 2.11461 3.50146 2.10315C3.49311 2.09742 3.4867 2.09302 3.48236 2.09004C3.48019 2.08855 3.47853 2.08742 3.47741 2.08665C3.47685 2.08626 3.47642 2.08597 3.47613 2.08577C3.47598 2.08567 3.47587 2.08559 3.47579 2.08554C3.47575 2.08551 3.47572 2.08549 3.4757 2.08548C3.47567 2.08546 3.47566 2.08545 2.91028 2.91028ZM4.64612 5.35325C4.45134 5.15833 4.45062 4.84212 4.64662 4.64626L6.06033 6.06098C6.64661 5.47512 6.64588 4.525 6.06083 3.93953L4.64612 5.35325Z" fill="#222222" mask="url(#path-2-inside-1_7637_5944)"/>
</g>
</g>
</svg>
