<svg width="8" height="16" viewBox="0 0 8 16" fill="none" xmlns="http://www.w3.org/2000/svg">
<path id="Vector" d="M0.00270149 8.01177C0.00218033 8.26167 0.0951321 8.50386 0.265423 8.69628L5.97676 15.1136C6.17064 15.332 6.44926 15.4694 6.7513 15.4955C7.05335 15.5215 7.35408 15.4342 7.58735 15.2527C7.82062 15.0711 7.96732 14.8102 7.99517 14.5274C8.02301 14.2446 7.92974 13.963 7.73585 13.7446L2.61849 8.01177L7.55308 2.27894C7.64797 2.16954 7.71882 2.04366 7.76158 1.90853C7.80434 1.7734 7.81815 1.6317 7.80223 1.49155C7.78631 1.35141 7.74096 1.2156 7.6688 1.09192C7.59664 0.968236 7.49909 0.859129 7.38174 0.770866C7.26429 0.672916 7.12651 0.598733 6.97701 0.552963C6.82752 0.507195 6.66955 0.490828 6.51298 0.504885C6.35642 0.518942 6.20464 0.563121 6.06716 0.634656C5.92969 0.706191 5.80946 0.803542 5.71403 0.920606L0.196887 7.33794C0.0535142 7.5359 -0.0148562 7.77315 0.00270149 8.01177Z" fill="#3C3E5A"/>
</svg>
