<svg width="17" height="16" viewBox="0 0 17 16" fill="none" xmlns="http://www.w3.org/2000/svg">
<path d="M9.73645 14.1998C9.53643 14.3505 9.32374 14.5092 9.14306 14.6665H10.6699C10.8467 14.6665 11.0163 14.7368 11.1413 14.8618C11.2664 14.9869 11.3366 15.1564 11.3366 15.3333C11.3366 15.5101 11.2664 15.6797 11.1413 15.8047C11.0163 15.9298 10.8467 16 10.6699 16H8.00294C7.82612 16 7.65653 15.9298 7.53149 15.8047C7.40646 15.6797 7.33621 15.5101 7.33621 15.3333C7.33621 14.3332 8.1863 13.6958 8.93637 13.133C9.43642 12.7583 10.0031 12.333 10.0031 11.9996C10.0031 11.8228 9.9329 11.6532 9.80786 11.5281C9.68283 11.4031 9.51324 11.3329 9.33641 11.3329C9.15958 11.3329 8.99 11.4031 8.86496 11.5281C8.73992 11.6532 8.66968 11.8228 8.66968 11.9996C8.66968 12.1764 8.59943 12.346 8.4744 12.4711C8.34936 12.5961 8.17977 12.6663 8.00294 12.6663C7.82612 12.6663 7.65653 12.5961 7.53149 12.4711C7.40646 12.346 7.33621 12.1764 7.33621 11.9996C7.33621 11.4691 7.54695 10.9604 7.92206 10.5852C8.29717 10.2101 8.80592 9.9994 9.33641 9.9994C9.8669 9.9994 10.3757 10.2101 10.7508 10.5852C11.1259 10.9604 11.3366 11.4691 11.3366 11.9996C11.3366 12.9997 10.4865 13.6371 9.73645 14.1998ZM15.337 9.9994C15.1602 9.9994 14.9906 10.0696 14.8656 10.1947C14.7405 10.3197 14.6703 10.4893 14.6703 10.6661V12.6663H14.0035C13.8267 12.6663 13.6571 12.5961 13.5321 12.4711C13.4071 12.346 13.3368 12.1764 13.3368 11.9996V10.6661C13.3368 10.4893 13.2666 10.3197 13.1415 10.1947C13.0165 10.0696 12.8469 9.9994 12.6701 9.9994C12.4932 9.9994 12.3237 10.0696 12.1986 10.1947C12.0736 10.3197 12.0033 10.4893 12.0033 10.6661V11.9996C12.0033 12.5301 12.2141 13.0388 12.5892 13.414C12.9643 13.7891 13.4731 13.9998 14.0035 13.9998H14.6703V15.3333C14.6703 15.5101 14.7405 15.6797 14.8656 15.8047C14.9906 15.9298 15.1602 16 15.337 16C15.5138 16 15.6834 15.9298 15.8085 15.8047C15.9335 15.6797 16.0037 15.5101 16.0037 15.3333V10.6661C16.0037 10.4893 15.9335 10.3197 15.8085 10.1947C15.6834 10.0696 15.5138 9.9994 15.337 9.9994ZM8.66968 7.9992V4.66554C8.66968 4.48871 8.59943 4.31912 8.4744 4.19409C8.34936 4.06905 8.17977 3.9988 8.00294 3.9988C7.82612 3.9988 7.65653 4.06905 7.53149 4.19409C7.40646 4.31912 7.33621 4.48871 7.33621 4.66554V7.33247H5.33601C5.15918 7.33247 4.9896 7.40271 4.86456 7.52775C4.73952 7.65279 4.66928 7.82237 4.66928 7.9992C4.66928 8.17603 4.73952 8.34562 4.86456 8.47065C4.9896 8.59569 5.15918 8.66593 5.33601 8.66593H8.00294C8.17977 8.66593 8.34936 8.59569 8.4744 8.47065C8.59943 8.34562 8.66968 8.17603 8.66968 7.9992ZM15.337 1.33187C15.1602 1.33187 14.9906 1.40212 14.8656 1.52715C14.7405 1.65219 14.6703 1.82178 14.6703 1.9986V3.58143C13.9756 2.53304 13.0435 1.66319 11.9497 1.04244C10.8559 0.421703 9.6312 0.0675612 8.37492 0.0087526C7.11863 -0.050056 5.86617 0.188125 4.71917 0.703971C3.57217 1.21982 2.56293 1.9988 1.77334 2.9777C0.983745 3.95661 0.436047 5.10787 0.17468 6.33808C-0.0866867 7.56828 -0.0543593 8.84277 0.269039 10.0581C0.592438 11.2735 1.1978 12.3955 2.036 13.3331C2.8742 14.2708 3.92164 14.9976 5.09332 15.4546C5.17075 15.4845 5.25302 15.4998 5.33601 15.4999C5.4916 15.5002 5.64237 15.446 5.76222 15.3468C5.88207 15.2476 5.96344 15.1096 5.99225 14.9567C6.02105 14.8038 5.99548 14.6456 5.91996 14.5096C5.84443 14.3735 5.72371 14.2682 5.5787 14.2118C4.58395 13.8272 3.696 13.2095 2.98937 12.4106C2.28274 11.6118 1.77806 10.6551 1.5177 9.62083C1.25734 8.58657 1.2489 7.50494 1.49308 6.46674C1.73726 5.42854 2.22693 4.46407 2.921 3.65428C3.61507 2.8445 4.49328 2.21304 5.4819 1.8129C6.47052 1.41277 7.54071 1.25564 8.60263 1.3547C9.66454 1.45377 10.6872 1.80614 11.5847 2.38224C12.4823 2.95833 13.2285 3.74134 13.7609 4.66554H12.0033C11.8265 4.66554 11.6569 4.73578 11.5319 4.86082C11.4069 4.98585 11.3366 5.15544 11.3366 5.33227C11.3366 5.5091 11.4069 5.67868 11.5319 5.80372C11.6569 5.92876 11.8265 5.999 12.0033 5.999H14.0035C14.534 5.999 15.0428 5.78827 15.4179 5.41316C15.793 5.03805 16.0037 4.52929 16.0037 3.9988V1.9986C16.0037 1.82178 15.9335 1.65219 15.8085 1.52715C15.6834 1.40212 15.5138 1.33187 15.337 1.33187Z" fill="#066BD6"/>
</svg>
