<svg width="18" height="16" viewBox="0 0 18 16" fill="none" xmlns="http://www.w3.org/2000/svg">
<path d="M16.7085 6.88455V6.24701C16.7085 5.54152 16.2713 4.93745 15.6522 4.69313C14.585 1.89963 11.75 0 8.72472 0C5.7004 0 2.86644 1.89913 1.79921 4.69313C1.18065 4.93745 0.742462 5.54152 0.742462 6.24701V6.88455C0.301779 7.11289 0 7.57356 0 8.10417V9.36777C0 9.89938 0.301779 10.3586 0.742462 10.5879V11.2254C0.742462 12.1488 1.49093 12.8962 2.41376 12.8962C3.3376 12.8962 4.08706 12.1483 4.08706 11.2254V6.24651C4.08706 5.76785 3.88421 5.33666 3.56094 5.03088C4.34588 3.16173 6.24701 2.21041 8.72523 2.21041C11.2054 2.21041 13.1066 3.16173 13.8915 5.03088C13.5682 5.33666 13.3659 5.76785 13.3659 6.24651V11.2254C13.3659 11.5932 13.4858 11.9344 13.6877 12.2107C13.3804 12.7858 12.2267 13.5787 11.124 13.8445C10.9142 13.1645 10.2806 12.6694 9.53165 12.6694C8.61081 12.6694 7.86584 13.4154 7.86584 14.3352C7.86584 15.254 8.61081 16 9.53165 16C10.2396 16 10.8452 15.5578 11.085 14.9348C12.8673 14.5585 14.1438 13.3724 14.5525 12.8253C14.7049 12.8717 14.8683 12.8967 15.0372 12.8967C15.9605 12.8967 16.709 12.1488 16.709 11.2259V10.5884C17.1502 10.3596 17.4524 9.89988 17.4524 9.36827V8.10467C17.452 7.57356 17.1497 7.11289 16.7085 6.88455Z" fill="#066BD6"/>
</svg>
