<svg width="16" height="12" viewBox="0 0 16 12" fill="none" xmlns="http://www.w3.org/2000/svg">
<path fill-rule="evenodd" clip-rule="evenodd" d="M0.585786 0.585786C0.960859 0.210714 1.46957 0 2 0H14C14.5304 0 15.0391 0.210714 15.4142 0.585786C15.7893 0.960859 16 1.46957 16 2V10C16 10.5304 15.7893 11.0391 15.4142 11.4142C15.0391 11.7893 14.5304 12 14 12H2C1.46957 12 0.960859 11.7893 0.585786 11.4142C0.210714 11.0391 0 10.5304 0 10V2C0 1.46957 0.210714 0.960859 0.585786 0.585786ZM1 7H15V2C15 1.73478 14.8946 1.48043 14.7071 1.29289C14.5196 1.10536 14.2652 1 14 1H2C1.73478 1 1.48043 1.10536 1.29289 1.29289C1.10536 1.48043 1 1.73478 1 2V7ZM2 11H14C14.2652 11 14.5196 10.8946 14.7071 10.7071C14.8946 10.5196 15 10.2652 15 10V9H1V10C1 10.2652 1.10536 10.5196 1.29289 10.7071C1.48043 10.8946 1.73478 11 2 11ZM11.1464 3.14645C11.0527 3.24021 11 3.36739 11 3.5V4.5C11 4.63261 11.0527 4.75979 11.1464 4.85355C11.2402 4.94732 11.3674 5 11.5 5H13.5C13.6326 5 13.7598 4.94732 13.8536 4.85355C13.9473 4.75979 14 4.63261 14 4.5V3.5C14 3.36739 13.9473 3.24021 13.8536 3.14645C13.7598 3.05268 13.6326 3 13.5 3H11.5C11.3674 3 11.2402 3.05268 11.1464 3.14645Z" fill="#066BD6"/>
</svg>
