<svg width="16" height="10" viewBox="0 0 16 10" fill="none" xmlns="http://www.w3.org/2000/svg">
<path fill-rule="evenodd" clip-rule="evenodd" d="M11.8536 0.146447C11.7598 0.0526785 11.6326 0 11.5 0C11.3674 0 11.2402 0.0526785 11.1464 0.146447C11.0527 0.240215 11 0.367392 11 0.5V6H0V7C0 7.26522 0.105357 7.51957 0.292893 7.70711C0.48043 7.89464 0.734784 8 1 8C1 8.53043 1.21071 9.03914 1.58579 9.41421C1.96086 9.78929 2.46957 10 3 10C3.53043 10 4.03914 9.78929 4.41421 9.41421C4.78929 9.03914 5 8.53043 5 8H10C10 8.53043 10.2107 9.03914 10.5858 9.41421C10.9609 9.78929 11.4696 10 12 10C12.5304 10 13.0391 9.78929 13.4142 9.41421C13.7893 9.03914 14 8.53043 14 8H14.5C14.8978 8 15.2794 7.84196 15.5607 7.56066C15.842 7.27936 16 6.89782 16 6.5V4.351C16.0001 4.01003 15.8841 3.67919 15.671 3.413L14.19 1.563C14.0496 1.3875 13.8716 1.24579 13.6691 1.14835C13.4666 1.0509 13.2447 1.0002 13.02 1H12V0.5C12 0.367392 11.9473 0.240215 11.8536 0.146447ZM2.29289 7.29289C2.48043 7.10536 2.73478 7 3 7C3.26522 7 3.51957 7.10536 3.70711 7.29289C3.89464 7.48043 4 7.73478 4 8C4 8.26522 3.89464 8.51957 3.70711 8.70711C3.51957 8.89464 3.26522 9 3 9C2.73478 9 2.48043 8.89464 2.29289 8.70711C2.10536 8.51957 2 8.26522 2 8C2 7.73478 2.10536 7.48043 2.29289 7.29289ZM11.2929 7.29289C11.4804 7.10536 11.7348 7 12 7C12.2652 7 12.5196 7.10536 12.7071 7.29289C12.8946 7.48043 13 7.73478 13 8C13 8.26522 12.8946 8.51957 12.7071 8.70711C12.5196 8.89464 12.2652 9 12 9C11.7348 9 11.4804 8.89464 11.2929 8.70711C11.1054 8.51957 11 8.26522 11 8C11 7.73478 11.1054 7.48043 11.2929 7.29289ZM14.5 7H13.732C13.5565 6.69597 13.304 6.4435 13 6.26796C12.6959 6.09243 12.3511 6.00001 12 6V2H13.02C13.0949 2.00011 13.1689 2.01706 13.2364 2.0496C13.3039 2.08214 13.3632 2.12944 13.41 2.188L14.89 4.038C14.961 4.12651 14.9998 4.23653 15 4.35V6.5C15 6.63261 14.9473 6.75979 14.8536 6.85355C14.7598 6.94732 14.6326 7 14.5 7ZM5.309 0.0381812C5.24825 0.0633877 5.19308 0.100331 5.14663 0.146894L2.14663 3.14689C2.10014 3.19338 2.06327 3.24857 2.03811 3.30931C2.01295 3.37005 2 3.43515 2 3.50089C2 3.56664 2.01295 3.63174 2.03811 3.69248C2.06327 3.75322 2.10014 3.80841 2.14663 3.85489C2.19312 3.90138 2.24831 3.93826 2.30905 3.96342C2.36979 3.98858 2.43489 4.00153 2.50063 4.00153C2.56638 4.00153 2.63148 3.98858 2.69222 3.96342C2.75295 3.93826 2.80814 3.90138 2.85463 3.85489L5.00063 1.70789V4.50089C5.00063 4.6335 5.05331 4.76068 5.14708 4.85445C5.24085 4.94822 5.36802 5.00089 5.50063 5.00089C5.63324 5.00089 5.76042 4.94822 5.85419 4.85445C5.94795 4.76068 6.00063 4.6335 6.00063 4.50089V1.70789L8.14663 3.85489C8.24052 3.94878 8.36786 4.00153 8.50063 4.00153C8.63341 4.00153 8.76075 3.94878 8.85463 3.85489C8.94852 3.76101 9.00126 3.63367 9.00126 3.50089C9.00126 3.36812 8.94852 3.24078 8.85463 3.14689L5.85463 0.146894C5.80819 0.100331 5.75301 0.0633877 5.69227 0.0381812C5.63152 0.0129748 5.5664 0 5.50063 0C5.43486 0 5.36974 0.0129748 5.309 0.0381812Z" fill="#066BD6"/>
</svg>
