<svg width="20" height="16" viewBox="0 0 20 16" fill="none" xmlns="http://www.w3.org/2000/svg">
<path d="M17.5 0.5H2.5C1.11938 0.5 0 1.61938 0 3V13C0 14.3806 1.11938 15.5 2.5 15.5H17.5C18.8806 15.5 20 14.3806 20 13V3C20 1.61938 18.8806 0.5 17.5 0.5ZM18.125 1.75L10 8L1.875 1.75H18.125ZM1.25 13V3L6.875 7.375L1.30938 13.3613C1.27438 13.2462 1.25 13.1269 1.25 13ZM2.22186 14.2169L7.86248 8.20686L10 9.82186L12.0456 8.19624L17.7781 14.2162C17.6881 14.2369 2.31186 14.2369 2.22186 14.2169ZM18.6907 13.3619L13.125 7.375L18.75 3V13C18.75 13.1269 18.7256 13.2462 18.6907 13.3619Z" fill="#066BD6"/>
</svg>
