<svg width="16" height="16" viewBox="0 0 16 16" fill="none" xmlns="http://www.w3.org/2000/svg">
<path d="M15.1463 14.7652C15.4243 14.4856 15.6737 14.1599 15.8807 13.7904C16.1231 13.3711 15.9944 12.7686 15.5101 12.0487C14.8687 11.085 13.4326 9.80165 12.2638 9.95933C11.7653 10.0274 11.2767 10.2962 10.8135 10.7621C10.393 11.185 10.0726 11.6903 9.87272 12.0487L4.05 6.15732C4.4313 5.95305 4.96938 5.61976 5.40413 5.18218C5.86382 4.71629 6.11326 4.23285 6.14889 3.73829C6.23085 2.54848 4.81651 1.01427 3.76849 0.365972C3.1627 -0.00673848 2.68519 -0.0963309 2.35023 0.104359C1.92297 0.358806 1.54844 0.649447 1.23485 0.964459C-0.846216 3.05379 0.137307 6.00322 1.04243 7.41881C1.57695 8.24701 3.00982 10.1102 4.53107 11.6476C6.13856 13.2747 7.76315 14.486 8.59023 15.063C9.5374 15.722 12.994 16.933 15.1463 14.7652Z" fill="#066BD6"/>
</svg>
