<svg width="20" height="20" viewBox="0 0 20 20" fill="none" xmlns="http://www.w3.org/2000/svg">
<path fill-rule="evenodd" clip-rule="evenodd" d="M17.0882 2.90155C15.3796 1.20216 13.109 0.178568 10.6989 0.02126C8.2888 -0.136048 5.90336 0.583642 3.98651 2.0464C2.06966 3.50916 0.751976 5.61535 0.278663 7.97301C-0.19465 10.3307 0.208648 12.7792 1.41352 14.863L0 20L5.27855 18.6196C6.73916 19.4119 8.37606 19.8268 10.0394 19.8264C12.0092 19.8262 13.9347 19.2447 15.5725 18.1555C17.2103 17.0662 18.4869 15.518 19.241 13.7066C19.9951 11.8952 20.1929 9.90193 19.8092 7.97871C19.4255 6.05549 18.4777 4.28866 17.0855 2.90155H17.0882ZM10.0421 18.1524C8.5595 18.1528 7.10411 17.7562 5.82838 17.0043L5.52798 16.8254L2.3952 17.6451L3.22936 14.604L3.03353 14.2916C2.05829 12.7442 1.62733 10.918 1.80835 9.10013C1.98936 7.28228 2.77211 5.57585 4.03356 4.2491C5.295 2.92235 6.96359 2.05051 8.77705 1.77064C10.5905 1.49077 12.446 1.81873 14.0518 2.70298C15.6576 3.58722 16.9226 4.9776 17.6481 6.65555C18.3736 8.3335 18.5183 10.2039 18.0596 11.9726C17.6008 13.7414 16.5646 15.3082 15.1138 16.4269C13.663 17.5455 11.8799 18.1525 10.0448 18.1524H10.0421ZM14.583 11.9821C14.3336 11.8593 13.1105 11.2585 12.8825 11.1811C12.6546 11.1037 12.4882 11.0583 12.3219 11.3066C12.1556 11.5549 11.6809 12.1076 11.5361 12.2785C11.3912 12.4493 11.2437 12.4627 10.9996 12.3399C10.2662 12.0478 9.58924 11.6313 8.99874 11.109C8.45483 10.6082 7.98762 10.0307 7.61204 9.3949C7.4672 9.1466 7.61205 9.0131 7.72202 8.88761C7.83199 8.76212 7.97146 8.59925 8.09485 8.45508C8.19805 8.33013 8.28209 8.19067 8.34427 8.04123C8.37718 7.97259 8.39245 7.89689 8.3887 7.82093C8.38496 7.74497 8.36232 7.67112 8.32282 7.60602C8.26113 7.48321 7.76493 6.27105 7.55572 5.76909C7.34651 5.26714 7.14801 5.34991 6.99781 5.3419C6.84761 5.33389 6.68667 5.3419 6.52037 5.3419C6.39402 5.34497 6.26969 5.37408 6.15521 5.42738C6.04072 5.48069 5.93856 5.55704 5.8552 5.65161C5.57449 5.9174 5.35232 6.23833 5.20272 6.59406C5.05313 6.9498 4.97938 7.33258 4.98617 7.71817C4.98617 8.93834 5.87666 10.1211 6.00004 10.2813C6.12342 10.4415 7.75687 12.9513 10.2513 14.0193C10.7151 14.2166 11.1887 14.3903 11.6702 14.5399C12.1774 14.6944 12.7139 14.7282 13.2366 14.6387C13.7167 14.5666 14.7091 14.038 14.9183 13.4613C15.0802 13.091 15.1306 12.682 15.0632 12.2838C14.9988 12.169 14.8325 12.1076 14.583 11.9821Z" fill="#066BD6"/>
</svg>
